<svg width="60" height="60" viewBox="0 0 60 60" fill="none" xmlns="http://www.w3.org/2000/svg">
<g clip-path="url(#clip0_3_607)">
<path d="M30.5605 31.5961L53.5709 23.0212C53.6985 22.9735 53.8085 22.8881 53.8862 22.7761C53.9639 22.6642 54.0056 22.5312 54.0056 22.395C54.0056 22.2587 53.9639 22.1257 53.8862 22.0138C53.8085 21.9019 53.6985 21.8164 53.5709 21.7687L30.5605 13.1938C29.8654 12.9353 29.1006 12.9353 28.4055 13.1938L5.39518 21.7687C5.26753 21.8164 5.15749 21.9019 5.0798 22.0138C5.0021 22.1257 4.96045 22.2587 4.96045 22.395C4.96045 22.5312 5.0021 22.6642 5.0798 22.7761C5.15749 22.8881 5.26753 22.9735 5.39518 23.0212L28.4055 31.5961C29.1006 31.8546 29.8654 31.8546 30.5605 31.5961ZM29.483 33.8581C28.8686 33.8582 28.2592 33.7484 27.6835 33.534L13.5712 28.275V41.763C13.5712 44.2351 20.3759 47 29.483 47C38.5901 47 45.3948 44.2351 45.3948 41.763V28.275L31.2825 33.534C30.7068 33.7484 30.0974 33.8582 29.483 33.8581ZM53.0735 34.8094V25.4286L51.5224 26.0048V34.8094C50.9628 34.9442 50.4647 35.2631 50.1082 35.715C49.7517 36.1669 49.5574 36.7255 49.5566 37.3012V43.1787H55.0396V37.3012C55.0388 36.7255 54.8445 36.1669 54.4879 35.7149C54.1313 35.263 53.6332 34.9441 53.0735 34.8094Z" fill="#69AADB"/>
</g>
<defs>
<clipPath id="clip0_3_607">
<rect width="50.0792" height="34" fill="white" transform="translate(4.96045 13)"/>
</clipPath>
</defs>
</svg>
