<svg width="70" height="50" viewBox="0 0 70 50" fill="none" xmlns="http://www.w3.org/2000/svg">
<path d="M42.7986 27.5307H27.1899C27.0989 27.5308 27.0087 27.5129 26.9247 27.4781C26.8406 27.4433 26.7642 27.3923 26.6999 27.3279C26.6355 27.2636 26.5845 27.1872 26.5497 27.1031C26.5149 27.019 26.497 26.9289 26.4971 26.8379V23.3184C26.4972 21.7614 26.9678 20.2408 27.8473 18.9559C28.7267 17.6711 29.9739 16.6819 31.4253 16.1182C30.7422 15.4165 30.2812 14.5289 30.0999 13.5666C29.9186 12.6042 30.0251 11.6098 30.4059 10.7076C30.7868 9.8054 31.4252 9.0355 32.2413 8.49419C33.0574 7.95289 34.015 7.6642 34.9942 7.6642C35.9735 7.6642 36.9311 7.95289 37.7472 8.49419C38.5632 9.0355 39.2016 9.8054 39.5825 10.7076C39.9633 11.6098 40.0697 12.6042 39.8884 13.5666C39.7072 14.5289 39.2462 15.4165 38.5632 16.1182C40.0146 16.6819 41.2618 17.671 42.1412 18.9559C43.0206 20.2407 43.4913 21.7614 43.4914 23.3184V26.8379C43.4915 26.9289 43.4735 27.019 43.4387 27.1031C43.4039 27.1872 43.3529 27.2636 43.2886 27.3279C43.2243 27.3923 43.1478 27.4433 43.0637 27.4781C42.9796 27.5129 42.8896 27.5308 42.7986 27.5307ZM27.8827 26.1451H42.1058V23.3184C42.1058 21.8387 41.5879 20.4057 40.6421 19.2678C39.6962 18.1299 38.382 17.3588 36.9272 17.0885C36.7868 17.0624 36.6579 16.9937 36.5581 16.8916C36.4583 16.7895 36.3925 16.659 36.3696 16.5181C36.3468 16.3771 36.3682 16.2326 36.4307 16.1042C36.4932 15.9758 36.5938 15.8699 36.7188 15.8009C37.4194 15.418 37.9724 14.8127 38.2908 14.0806C38.6092 13.3485 38.6747 12.5312 38.4771 11.7577C38.2795 10.9842 37.8299 10.2984 37.1994 9.80875C36.5688 9.31905 35.7933 9.05326 34.9949 9.05326C34.1966 9.05326 33.4209 9.31905 32.7904 9.80875C32.1598 10.2984 31.7103 10.9842 31.5126 11.7577C31.315 12.5312 31.3806 13.3485 31.699 14.0806C32.0173 14.8127 32.5705 15.418 33.271 15.8009C33.3958 15.8702 33.496 15.9762 33.5583 16.1047C33.6205 16.2331 33.6416 16.3776 33.6187 16.5184C33.5957 16.6593 33.5298 16.7896 33.4301 16.8916C33.3303 16.9936 33.2015 17.0624 33.0612 17.0885C31.6065 17.3589 30.2923 18.13 29.3464 19.2679C28.4006 20.4058 27.8828 21.8387 27.8827 23.3184V26.1451Z" fill="black"/>
<path d="M46.6618 48H18.1669C18.0759 48 17.9858 47.9822 17.9017 47.9474C17.8176 47.9126 17.7413 47.8615 17.6769 47.7972C17.6126 47.7328 17.5615 47.6565 17.5267 47.5724C17.4919 47.4883 17.4741 47.3982 17.4741 47.3072V2.69282C17.4741 2.60182 17.4919 2.51172 17.5267 2.42764C17.5615 2.34356 17.6126 2.26715 17.6769 2.2028C17.7413 2.13846 17.8176 2.08745 17.9017 2.05265C17.9858 2.01785 18.0759 1.99995 18.1669 2H51.8214C51.9124 1.99995 52.0024 2.01785 52.0865 2.05265C52.1706 2.08745 52.2471 2.13846 52.3114 2.2028C52.3757 2.26715 52.4267 2.34356 52.4615 2.42764C52.4963 2.51172 52.5143 2.60182 52.5142 2.69282V40.7599C52.514 40.9155 52.4616 41.0666 52.3654 41.1889L47.2057 47.7361C47.1408 47.8184 47.0583 47.8849 46.964 47.9306C46.8698 47.9763 46.7665 48 46.6618 48ZM18.8598 46.6144H46.3262L51.1286 40.5197V3.38564H18.8598V46.6144Z" fill="black"/>
<path d="M46.2759 33.2202H23.7133C23.5296 33.2202 23.3533 33.1472 23.2234 33.0173C23.0935 32.8873 23.0205 32.7111 23.0205 32.5273C23.0205 32.3436 23.0935 32.1673 23.2234 32.0374C23.3533 31.9075 23.5296 31.8345 23.7133 31.8345H46.2759C46.4597 31.8345 46.6359 31.9075 46.7658 32.0374C46.8958 32.1673 46.9687 32.3436 46.9687 32.5273C46.9687 32.7111 46.8958 32.8873 46.7658 33.0173C46.6359 33.1472 46.4597 33.2202 46.2759 33.2202Z" fill="black"/>
<path d="M42.1164 38.766H27.873C27.6892 38.766 27.513 38.693 27.3831 38.5631C27.2531 38.4332 27.1802 38.2569 27.1802 38.0732C27.1802 37.8894 27.2531 37.7132 27.3831 37.5832C27.513 37.4533 27.6892 37.3804 27.873 37.3804H42.1164C42.3001 37.3804 42.4763 37.4533 42.6062 37.5832C42.7361 37.7132 42.8092 37.8894 42.8092 38.0732C42.8092 38.2569 42.7361 38.4332 42.6062 38.5631C42.4763 38.693 42.3001 38.766 42.1164 38.766Z" fill="black"/>
<path d="M46.2763 48C46.1853 48.0001 46.0953 47.9822 46.0112 47.9474C45.9271 47.9126 45.8506 47.8616 45.7863 47.7972C45.722 47.7329 45.671 47.6565 45.6362 47.5724C45.6014 47.4883 45.5834 47.3982 45.5835 47.3072V40.7599C45.5834 40.6689 45.6014 40.5788 45.6362 40.4947C45.671 40.4106 45.722 40.3343 45.7863 40.2699C45.8506 40.2056 45.9271 40.1545 46.0112 40.1197C46.0953 40.0849 46.1853 40.0671 46.2763 40.0671H51.8216C52.0053 40.0671 52.1816 40.1401 52.3115 40.27C52.4414 40.3999 52.5144 40.5762 52.5144 40.7599C52.5144 40.9437 52.4414 41.1199 52.3115 41.2499C52.1816 41.3798 52.0053 41.4528 51.8216 41.4528H46.9691V47.3072C46.9692 47.3982 46.9513 47.4883 46.9165 47.5724C46.8817 47.6565 46.8307 47.7329 46.7663 47.7972C46.702 47.8616 46.6256 47.9126 46.5415 47.9474C46.4575 47.9822 46.3673 48.0001 46.2763 48Z" fill="black"/>
<path d="M23.713 15.9561L13.6533 6.91342V11.4347H3.35107V20.4788H13.6533V25.0001L23.713 15.9561Z" fill="#569FD6"/>
</svg>
