<svg width="50" height="39" viewBox="0 0 50 39" fill="none" xmlns="http://www.w3.org/2000/svg">
<path d="M25 23.4793C24.9057 23.4794 24.8126 23.4594 24.7267 23.4206L0.389805 12.4564C0.273681 12.404 0.175169 12.3193 0.106044 12.2126C0.0369184 12.1059 0.000106356 11.9816 0 11.8546C0.00010545 11.7276 0.0369185 11.6034 0.106044 11.4966C0.175169 11.3899 0.27368 11.3053 0.389805 11.2528L24.7267 0.28802C24.8125 0.249128 24.9057 0.229004 25 0.229004C25.0943 0.229004 25.1874 0.249128 25.2733 0.28802L49.6102 11.2528C49.7263 11.3053 49.8248 11.3899 49.8939 11.4966C49.9631 11.6034 49.9999 11.7276 50 11.8546C49.9999 11.9816 49.9631 12.1059 49.8939 12.2126C49.8248 12.3193 49.7263 12.404 49.6102 12.4564L25.2733 23.4206C25.1874 23.4594 25.0943 23.4794 25 23.4793ZM2.27155 11.8546L25 22.0938L47.7284 11.8546L25 1.61468L2.27155 11.8546Z" fill="black"/>
<path d="M25 38.7706C24.9057 38.7707 24.8126 38.7507 24.7267 38.7119L0.389806 27.747C0.273681 27.6946 0.175169 27.61 0.106044 27.5033C0.0369188 27.3966 0.000107202 27.2722 1.11699e-07 27.1452V11.8546C-5.04448e-05 11.7678 0.0170614 11.6819 0.0503661 11.6017C0.0836709 11.5216 0.132516 11.4488 0.194098 11.3874C0.255681 11.3261 0.328791 11.2774 0.409262 11.2442C0.489733 11.2111 0.575985 11.194 0.663075 11.1941C0.750165 11.194 0.836407 11.2111 0.916878 11.2442C0.997349 11.2774 1.07047 11.3261 1.13205 11.3874C1.19363 11.4488 1.24247 11.5216 1.27577 11.6017C1.30908 11.6819 1.3262 11.7678 1.32615 11.8546V26.719L25 37.3852L48.6738 26.719V11.8546C48.6738 11.7678 48.6909 11.6819 48.7242 11.6017C48.7575 11.5216 48.8064 11.4488 48.8679 11.3874C48.9295 11.3261 49.0026 11.2774 49.0831 11.2442C49.1636 11.2111 49.2498 11.194 49.3369 11.1941C49.424 11.194 49.5102 11.2111 49.5907 11.2442C49.6712 11.2774 49.7443 11.3261 49.8059 11.3874C49.8675 11.4488 49.9163 11.5216 49.9496 11.6017C49.9829 11.6819 50 11.7678 50 11.8546V27.1453C49.9999 27.2723 49.9631 27.3966 49.8939 27.5033C49.8248 27.61 49.7263 27.6947 49.6102 27.7471L25.2733 38.7119C25.1874 38.7507 25.0942 38.7707 25 38.7706Z" fill="black"/>
<path d="M12.832 12.2565C12.7449 12.2566 12.6587 12.2396 12.5782 12.2064C12.4977 12.1732 12.4246 12.1245 12.363 12.0632C12.3015 12.0019 12.2526 11.9291 12.2193 11.8489C12.186 11.7687 12.1689 11.6828 12.1689 11.5961V8.71296C12.1689 8.62621 12.186 8.54036 12.2193 8.4602C12.2526 8.38005 12.3015 8.30717 12.363 8.24583C12.4246 8.18449 12.4977 8.13589 12.5782 8.10272C12.6587 8.06955 12.7449 8.05244 12.832 8.05249C12.9191 8.05244 13.0054 8.06955 13.0858 8.10272C13.1663 8.13589 13.2394 8.18449 13.301 8.24583C13.3626 8.30717 13.4114 8.38005 13.4447 8.4602C13.478 8.54036 13.4951 8.62621 13.4951 8.71296V11.5961C13.4951 11.6828 13.478 11.7687 13.4447 11.8489C13.4114 11.9291 13.3626 12.0019 13.301 12.0632C13.2394 12.1245 13.1663 12.1732 13.0858 12.2064C13.0054 12.2396 12.9191 12.2566 12.832 12.2565Z" fill="black"/>
<path d="M19.0674 14.8688C18.9803 14.8689 18.894 14.8519 18.8136 14.8187C18.7331 14.7855 18.66 14.7368 18.5984 14.6755C18.5368 14.6142 18.488 14.5414 18.4547 14.4612C18.4214 14.381 18.4042 14.2951 18.4043 14.2084V11.3253C18.4042 11.2385 18.4214 11.1526 18.4547 11.0724C18.488 10.9923 18.5368 10.9195 18.5984 10.8581C18.66 10.7968 18.7331 10.7481 18.8136 10.7149C18.894 10.6818 18.9803 10.6647 19.0674 10.6648C19.1545 10.6647 19.2407 10.6818 19.3212 10.7149C19.4016 10.7481 19.4748 10.7968 19.5363 10.8581C19.5979 10.9195 19.6468 10.9923 19.6801 11.0724C19.7134 11.1526 19.7305 11.2385 19.7304 11.3253V14.2084C19.7305 14.2951 19.7134 14.381 19.6801 14.4612C19.6468 14.5414 19.5979 14.6142 19.5363 14.6755C19.4748 14.7368 19.4016 14.7855 19.3212 14.8187C19.2407 14.8519 19.1545 14.8689 19.0674 14.8688Z" fill="black"/>
<path d="M25 17.7387C24.9129 17.7388 24.8266 17.7217 24.7462 17.6886C24.6657 17.6554 24.5926 17.6067 24.531 17.5454C24.4694 17.484 24.4206 17.4112 24.3873 17.3311C24.354 17.2509 24.3369 17.165 24.3369 17.0782V14.1951C24.3369 14.1084 24.354 14.0225 24.3873 13.9423C24.4206 13.8621 24.4694 13.7893 24.531 13.728C24.5926 13.6667 24.6657 13.618 24.7462 13.5848C24.8266 13.5516 24.9129 13.5346 25 13.5347C25.0871 13.5346 25.1733 13.5516 25.2538 13.5848C25.3343 13.618 25.4074 13.6667 25.469 13.728C25.5305 13.7893 25.5794 13.8621 25.6127 13.9423C25.646 14.0225 25.6631 14.1084 25.6631 14.1951V17.0782C25.6631 17.165 25.646 17.2509 25.6127 17.3311C25.5794 17.4112 25.5305 17.484 25.469 17.5454C25.4074 17.6067 25.3343 17.6554 25.2538 17.6886C25.1733 17.7217 25.0871 17.7388 25 17.7387Z" fill="black"/>
<path d="M19.0674 9.37332C18.9803 9.37337 18.894 9.35634 18.8136 9.32317C18.7331 9.29 18.66 9.24132 18.5984 9.17998C18.5368 9.11864 18.488 9.04584 18.4547 8.96568C18.4214 8.88553 18.4042 8.7996 18.4043 8.71285V5.83039C18.4042 5.74364 18.4214 5.65771 18.4547 5.57756C18.488 5.4974 18.5368 5.4246 18.5984 5.36326C18.66 5.30192 18.7331 5.25324 18.8136 5.22007C18.894 5.1869 18.9803 5.16987 19.0674 5.16992C19.1545 5.16987 19.2407 5.1869 19.3212 5.22007C19.4016 5.25324 19.4748 5.30192 19.5363 5.36326C19.5979 5.4246 19.6468 5.4974 19.6801 5.57756C19.7134 5.65771 19.7305 5.74364 19.7304 5.83039V8.71285C19.7305 8.7996 19.7134 8.88553 19.6801 8.96568C19.6468 9.04584 19.5979 9.11864 19.5363 9.17998C19.4748 9.24132 19.4016 9.29 19.3212 9.32317C19.2407 9.35634 19.1545 9.37337 19.0674 9.37332Z" fill="black"/>
<path d="M25 12.1047C24.9129 12.1047 24.8266 12.0877 24.7462 12.0545C24.6657 12.0214 24.5926 11.9727 24.531 11.9113C24.4694 11.85 24.4206 11.7772 24.3873 11.697C24.354 11.6169 24.3369 11.531 24.3369 11.4442V8.5611C24.3369 8.47436 24.354 8.38842 24.3873 8.30827C24.4206 8.22811 24.4694 8.15531 24.531 8.09397C24.5926 8.03263 24.6657 7.98396 24.7462 7.95078C24.8266 7.91761 24.9129 7.90058 25 7.90063C25.0871 7.90058 25.1733 7.91761 25.2538 7.95078C25.3343 7.98396 25.4074 8.03263 25.469 8.09397C25.5305 8.15531 25.5794 8.22811 25.6127 8.30827C25.646 8.38842 25.6631 8.47436 25.6631 8.5611V11.4442C25.6631 11.531 25.646 11.6169 25.6127 11.697C25.5794 11.7772 25.5305 11.85 25.469 11.9113C25.4074 11.9727 25.3343 12.0214 25.2538 12.0545C25.1733 12.0877 25.0871 12.1047 25 12.1047Z" fill="black"/>
<path d="M31.084 14.8559C30.9969 14.8559 30.9106 14.8389 30.8302 14.8057C30.7497 14.7726 30.6766 14.7239 30.615 14.6626C30.5534 14.6012 30.5046 14.5284 30.4713 14.4483C30.438 14.3681 30.4208 14.2822 30.4209 14.1954V11.3123C30.4208 11.2256 30.438 11.1396 30.4713 11.0595C30.5046 10.9793 30.5534 10.9065 30.615 10.8452C30.6766 10.7839 30.7497 10.7352 30.8302 10.702C30.9106 10.6688 30.9969 10.6518 31.084 10.6519C31.1711 10.6518 31.2573 10.6688 31.3378 10.702C31.4183 10.7352 31.4914 10.7839 31.553 10.8452C31.6145 10.9065 31.6634 10.9793 31.6967 11.0595C31.73 11.1396 31.7471 11.2256 31.747 11.3123V14.1954C31.7471 14.2822 31.73 14.3681 31.6967 14.4483C31.6634 14.5284 31.6145 14.6012 31.553 14.6626C31.4914 14.7239 31.4182 14.7726 31.3378 14.8057C31.2573 14.8389 31.1711 14.8559 31.084 14.8559Z" fill="black"/>
<path d="M25 6.7746C24.9129 6.77465 24.8266 6.75762 24.7462 6.72445C24.6657 6.69128 24.5926 6.6426 24.531 6.58126C24.4694 6.51992 24.4206 6.44712 24.3873 6.36696C24.354 6.28681 24.3369 6.20088 24.3369 6.11413V3.23103C24.3369 3.14428 24.354 3.05834 24.3873 2.97819C24.4206 2.89804 24.4694 2.82523 24.531 2.76389C24.5926 2.70255 24.6657 2.65388 24.7462 2.6207C24.8266 2.58753 24.9129 2.57051 25 2.57056C25.0871 2.57051 25.1733 2.58753 25.2538 2.6207C25.3343 2.65388 25.4074 2.70255 25.469 2.76389C25.5305 2.82523 25.5794 2.89804 25.6127 2.97819C25.646 3.05834 25.6631 3.14428 25.6631 3.23103V6.11413C25.6631 6.20088 25.646 6.28681 25.6127 6.36696C25.5794 6.44712 25.5305 6.51992 25.469 6.58126C25.4074 6.6426 25.3343 6.69128 25.2538 6.72445C25.1733 6.75762 25.0871 6.77465 25 6.7746Z" fill="black"/>
<path d="M31.084 9.38593C30.9969 9.38597 30.9106 9.36895 30.8302 9.33578C30.7497 9.3026 30.6766 9.25393 30.615 9.19259C30.5534 9.13125 30.5046 9.05845 30.4713 8.97829C30.438 8.89814 30.4208 8.8122 30.4209 8.72546V5.84235C30.4208 5.75561 30.438 5.66967 30.4713 5.58952C30.5046 5.50936 30.5534 5.43656 30.615 5.37522C30.6766 5.31388 30.7497 5.26521 30.8302 5.23203C30.9106 5.19886 30.9969 5.18184 31.084 5.18188C31.1711 5.18183 31.2573 5.19886 31.3378 5.23203C31.4183 5.26521 31.4914 5.31388 31.553 5.37522C31.6145 5.43656 31.6634 5.50936 31.6967 5.58952C31.73 5.66967 31.7471 5.75561 31.747 5.84235V8.72546C31.7471 8.8122 31.73 8.89814 31.6967 8.97829C31.6634 9.05845 31.6145 9.13125 31.553 9.19259C31.4914 9.25393 31.4183 9.3026 31.3378 9.33578C31.2573 9.36895 31.1711 9.38598 31.084 9.38593Z" fill="black"/>
<path d="M37.1689 12.2563C37.0818 12.2563 36.9956 12.2393 36.9151 12.2061C36.8347 12.173 36.7615 12.1243 36.7 12.063C36.6384 12.0016 36.5895 11.9288 36.5562 11.8487C36.5229 11.7685 36.5058 11.6826 36.5059 11.5958V8.71272C36.5058 8.62597 36.5229 8.54011 36.5562 8.45996C36.5895 8.37981 36.6384 8.30692 36.7 8.24558C36.7615 8.18424 36.8347 8.13565 36.9151 8.10247C36.9956 8.0693 37.0818 8.0522 37.1689 8.05225C37.256 8.0522 37.3423 8.0693 37.4227 8.10247C37.5032 8.13565 37.5763 8.18424 37.6379 8.24558C37.6995 8.30692 37.7483 8.37981 37.7816 8.45996C37.8149 8.54011 37.8321 8.62597 37.832 8.71272V11.5958C37.8321 11.6826 37.8149 11.7685 37.7816 11.8487C37.7483 11.9288 37.6995 12.0016 37.6379 12.063C37.5763 12.1243 37.5032 12.173 37.4227 12.2061C37.3423 12.2393 37.256 12.2563 37.1689 12.2563Z" fill="black"/>
<path d="M25 38.7708C24.9129 38.7708 24.8266 38.7538 24.7462 38.7206C24.6657 38.6875 24.5926 38.6388 24.531 38.5775C24.4694 38.5161 24.4206 38.4433 24.3873 38.3632C24.354 38.283 24.3369 38.1971 24.3369 38.1103V22.8189C24.3369 22.7322 24.354 22.6462 24.3873 22.5661C24.4206 22.4859 24.4694 22.4131 24.531 22.3518C24.5926 22.2904 24.6657 22.2418 24.7462 22.2086C24.8266 22.1754 24.9129 22.1584 25 22.1584C25.0871 22.1584 25.1733 22.1754 25.2538 22.2086C25.3343 22.2418 25.4074 22.2904 25.469 22.3518C25.5305 22.4131 25.5794 22.4859 25.6127 22.5661C25.646 22.6462 25.6631 22.7322 25.6631 22.8189V38.1103C25.6631 38.1971 25.646 38.283 25.6127 38.3632C25.5794 38.4433 25.5305 38.5161 25.469 38.5775C25.4074 38.6388 25.3343 38.6875 25.2538 38.7206C25.1733 38.7538 25.0871 38.7708 25 38.7708Z" fill="black"/>
</svg>
