<svg width="39" height="44" viewBox="0 0 39 44" fill="none" xmlns="http://www.w3.org/2000/svg">
<g clip-path="url(#clip0_67_1635)">
<path d="M14.937 34.4882C14.7595 34.4876 14.585 34.4445 14.4285 34.3626C14.2105 34.247 14.0399 34.0615 13.9452 33.8372C13.8505 33.6129 13.8375 33.3635 13.9085 33.131L16.9134 23.3196H11.5145C11.3311 23.3202 11.1506 23.2746 10.9904 23.1871C10.8302 23.0996 10.6958 22.9732 10.5999 22.82C10.5034 22.6671 10.4485 22.4925 10.4405 22.3129C10.4324 22.1332 10.4715 21.9546 10.5539 21.794L16.2565 10.6282C16.3453 10.4528 16.4824 10.3053 16.6524 10.2023C16.8223 10.0993 17.0183 10.0449 17.2182 10.0453H25.2032C25.3906 10.0461 25.5746 10.0944 25.7373 10.1855C25.9 10.2766 26.0358 10.4074 26.1316 10.5651C26.2261 10.725 26.2766 10.9061 26.278 11.0909C26.2794 11.2756 26.2317 11.4575 26.1396 11.6188L22.4952 17.862H27.4845C27.6894 17.8627 27.8899 17.9204 28.0626 18.0284C28.2353 18.1364 28.3732 18.2902 28.46 18.4719L28.4624 18.4758C28.5469 18.6583 28.5768 18.8605 28.5487 19.0589C28.5206 19.2574 28.4356 19.444 28.3036 19.5971L15.7583 34.1154C15.6571 34.232 15.5313 34.3258 15.3895 34.3901C15.2477 34.4545 15.0933 34.488 14.937 34.4882ZM11.6802 22.1662H17.7049C17.7967 22.1662 17.8873 22.1873 17.9694 22.2277C18.0515 22.2681 18.1228 22.3266 18.1777 22.3988C18.2323 22.4709 18.269 22.5546 18.2848 22.6431C18.3006 22.7316 18.295 22.8225 18.2685 22.9085L15.1774 33.0014L27.2636 19.0153H21.4805C21.3773 19.0154 21.2759 18.9889 21.1865 18.9385C21.097 18.8881 21.0227 18.8156 20.9709 18.7282C20.9194 18.6408 20.892 18.5416 20.8916 18.4407C20.8912 18.3398 20.9177 18.2405 20.9685 18.1526L25.0272 11.1987H17.2182L11.6802 22.1662Z" fill="black"/>
<path d="M0.589009 22.8437C0.511647 22.8438 0.435047 22.8289 0.363565 22.7999C0.292083 22.771 0.227121 22.7285 0.172418 22.6749C0.117714 22.6213 0.0743428 22.5578 0.0447582 22.4878C0.0151736 22.4178 -4.48102e-05 22.3428 9.91053e-08 22.267C0.00589316 17.2053 2.06233 12.3525 5.71814 8.77333C9.37395 5.19417 14.3306 3.18091 19.5006 3.17529H29.9279C30.0052 3.17525 30.0819 3.19011 30.1533 3.21908C30.2248 3.24804 30.2898 3.29054 30.3445 3.3441C30.3992 3.39766 30.4426 3.46123 30.4721 3.53121C30.5017 3.6012 30.5169 3.67623 30.5169 3.75197C30.5169 3.82771 30.5017 3.90275 30.4721 3.97273C30.4426 4.04271 30.3992 4.10628 30.3445 4.15984C30.2898 4.2134 30.2248 4.2559 30.1533 4.28486C30.0819 4.31383 30.0052 4.32869 29.9279 4.32865H19.5006C14.6429 4.33397 9.98574 6.22558 6.55079 9.58851C3.11583 12.9514 1.1836 17.5111 1.17802 22.267C1.17806 22.3428 1.16286 22.4178 1.13328 22.4878C1.10369 22.5578 1.06032 22.6213 1.00562 22.6749C0.950915 22.7285 0.885953 22.771 0.814471 22.7999C0.742989 22.8289 0.666372 22.8438 0.589009 22.8437Z" fill="black"/>
<path d="M26.0152 7.50324C25.9286 7.50341 25.843 7.48475 25.7646 7.44862C25.6862 7.41249 25.617 7.35979 25.562 7.29431C25.5126 7.23608 25.4754 7.16888 25.4526 7.09657C25.4297 7.02427 25.4216 6.94829 25.4288 6.87293C25.436 6.79756 25.4582 6.72432 25.4943 6.65738C25.5304 6.59044 25.5796 6.53112 25.6391 6.4828L29.0051 3.75203L25.6391 1.02125C25.5796 0.972936 25.5304 0.913613 25.4943 0.846675C25.4582 0.779736 25.436 0.706486 25.4288 0.631125C25.4216 0.555763 25.4297 0.479783 25.4526 0.407479C25.4754 0.335175 25.5126 0.267971 25.562 0.209739C25.6111 0.151143 25.6717 0.102687 25.7401 0.0671182C25.8085 0.0315489 25.8834 0.00956403 25.9605 0.00249539C26.0376 -0.00457324 26.1154 0.00341703 26.1894 0.025937C26.2633 0.048457 26.332 0.0850695 26.3914 0.133712L30.304 3.30825C30.3706 3.36237 30.4242 3.43021 30.4609 3.50691C30.4977 3.58361 30.5168 3.66729 30.5168 3.75203C30.5168 3.83676 30.4977 3.92044 30.4609 3.99714C30.4242 4.07384 30.3706 4.14168 30.304 4.1958L26.3914 7.37034C26.2857 7.45633 26.1526 7.50335 26.0152 7.50324Z" fill="black"/>
<path d="M19.5004 40.826H9.07192C8.99456 40.8261 8.91796 40.8112 8.84648 40.7822C8.77499 40.7533 8.71003 40.7108 8.65533 40.6572C8.60062 40.6036 8.55725 40.5401 8.52767 40.4701C8.49808 40.4001 8.48287 40.3251 8.48291 40.2493C8.48287 40.1736 8.49808 40.0986 8.52767 40.0286C8.55725 39.9586 8.60062 39.895 8.65533 39.8415C8.71003 39.7879 8.77499 39.7454 8.84648 39.7164C8.91796 39.6875 8.99456 39.6726 9.07192 39.6727H19.5004C24.3579 39.6673 29.015 37.7756 32.4497 34.4127C35.8845 31.0497 37.8165 26.4901 37.8218 21.7343C37.8217 21.6585 37.8369 21.5835 37.8665 21.5135C37.8961 21.4435 37.9395 21.38 37.9942 21.3264C38.0489 21.2728 38.1138 21.2303 38.1853 21.2014C38.2568 21.1724 38.3334 21.1576 38.4108 21.1576C38.4881 21.1575 38.5648 21.1724 38.6362 21.2014C38.7077 21.2303 38.7727 21.2728 38.8274 21.3264C38.8821 21.38 38.9255 21.4435 38.9551 21.5135C38.9846 21.5835 38.9998 21.6585 38.9998 21.7343C38.994 26.7959 36.9377 31.6486 33.2822 35.2277C29.6266 38.8068 24.6702 40.8202 19.5004 40.826Z" fill="black"/>
<path d="M12.9845 44C12.8471 44.0001 12.714 43.9531 12.6083 43.8671L8.69575 40.6937C8.62919 40.6394 8.57561 40.5715 8.53883 40.4947C8.50205 40.4179 8.48296 40.3342 8.48291 40.2494C8.48291 40.1646 8.50197 40.0809 8.53876 40.0042C8.57554 39.9275 8.62916 39.8597 8.69575 39.8056L12.6083 36.631C12.6677 36.5824 12.7364 36.5457 12.8103 36.5232C12.8843 36.5007 12.9621 36.4928 13.0392 36.4998C13.1163 36.5069 13.1912 36.5288 13.2596 36.5644C13.328 36.5999 13.3886 36.6485 13.4377 36.7071C13.4871 36.7653 13.5243 36.8324 13.5471 36.9047C13.57 36.977 13.5781 37.0531 13.5709 37.1284C13.5638 37.2038 13.5415 37.2771 13.5054 37.344C13.4693 37.4109 13.4202 37.4703 13.3607 37.5186L9.99455 40.2494L13.3607 42.979C13.4808 43.0767 13.5564 43.2171 13.5709 43.3694C13.5854 43.5217 13.5375 43.6734 13.4377 43.7911C13.3827 43.8566 13.3134 43.9093 13.2351 43.9454C13.1567 43.9815 13.0711 44.0002 12.9845 44Z" fill="black"/>
</g>
<defs>
<clipPath id="clip0_67_1635">
<rect width="39" height="44" fill="white"/>
</clipPath>
</defs>
</svg>
