<svg width="45" height="50" viewBox="0 0 45 50" fill="none" xmlns="http://www.w3.org/2000/svg">
<path d="M3.72103 45.1977C3.59489 45.1977 3.47061 45.1668 3.35914 45.1078C3.24767 45.0488 3.1524 44.9634 3.08153 44.859C1.07466 41.5982 0.0107536 37.8449 0.00781859 34.016C0.0048836 30.1871 1.06303 26.4322 3.0649 23.1683C3.17402 22.9948 3.34741 22.8717 3.54717 22.8259C3.74692 22.7802 3.95662 22.8156 4.13035 22.9242C4.30408 23.0329 4.42766 23.2061 4.47391 23.4057C4.52016 23.6053 4.4854 23.8152 4.37715 23.9892C2.52567 26.9952 1.54393 30.4558 1.54099 33.9863C1.53805 37.5168 2.51405 40.979 4.36052 43.9882C4.43986 44.1044 4.48585 44.2402 4.49375 44.3807C4.50166 44.5212 4.47111 44.6612 4.40531 44.7857C4.33952 44.9101 4.24112 45.0143 4.12052 45.0868C3.99993 45.1594 3.86178 45.1978 3.72103 45.1977Z" fill="black"/>
<path d="M35.1081 24.3527H3.72128C3.56416 24.3527 3.41076 24.305 3.28134 24.2159C1.11793 22.7215 0.786839 18.9979 0.774748 18.8399C0.765695 18.7333 0.778836 18.6259 0.813489 18.5246C0.848142 18.4233 0.903514 18.3304 0.976009 18.2516C1.0485 18.1729 1.13665 18.11 1.23472 18.0671C1.33278 18.0242 1.43855 18.0022 1.54559 18.0024H37.2836C37.3906 18.0024 37.4966 18.0246 37.5946 18.0676C37.6927 18.1106 37.7807 18.1734 37.8532 18.2522C37.9256 18.331 37.9808 18.4241 38.0155 18.5254C38.0502 18.6267 38.0634 18.734 38.0544 18.8407C38.0423 18.9979 37.7097 22.7215 35.5478 24.2152C35.4188 24.305 35.2653 24.353 35.1081 24.3527ZM3.98282 22.8046H34.8465C35.6775 21.9008 36.2147 20.7661 36.3871 19.5505H2.44077C2.61301 20.7664 3.1508 21.9013 3.98282 22.8046Z" fill="black"/>
<path d="M37.2836 49.9999H1.54578C1.43873 50.0001 1.33279 49.9781 1.23472 49.9352C1.13665 49.8923 1.04851 49.8295 0.976011 49.7507C0.903515 49.672 0.848141 49.579 0.81349 49.4777C0.778839 49.3765 0.765691 49.2691 0.77475 49.1624C0.786841 49.0044 1.11793 45.2801 3.28134 43.7864C3.41076 43.6973 3.56417 43.6496 3.72128 43.6496H35.1081C35.2652 43.6496 35.4186 43.6973 35.548 43.7864C37.7099 45.2801 38.0425 49.0044 38.0546 49.1617C38.0638 49.2684 38.0507 49.3759 38.0161 49.4772C37.9815 49.5786 37.926 49.6716 37.8535 49.7504C37.781 49.8293 37.693 49.8922 37.5948 49.9352C37.4967 49.9781 37.3907 50.0001 37.2836 49.9999ZM2.44077 48.4518H36.3871C36.2149 47.2361 35.6777 46.1014 34.8465 45.1976H3.98282C3.15067 46.1009 2.61285 47.2358 2.44077 48.4518Z" fill="black"/>
<path d="M35.1079 45.1977C34.9674 45.1974 34.8296 45.1589 34.7092 45.0864C34.5888 45.0138 34.4905 44.9099 34.4246 44.7858C34.3588 44.6616 34.328 44.5218 34.3354 44.3815C34.3429 44.2411 34.3883 44.1055 34.4669 43.989C36.3456 40.9912 37.3407 37.5243 37.3381 33.9865C37.3354 30.4487 36.335 26.9834 34.4518 23.9884C34.3977 23.9022 34.3612 23.8062 34.3443 23.7059C34.3274 23.6056 34.3304 23.503 34.3532 23.4038C34.376 23.3047 34.4181 23.211 34.4771 23.1282C34.5362 23.0454 34.611 22.975 34.6973 22.9211C34.7836 22.8672 34.8797 22.8309 34.98 22.8142C35.0804 22.7975 35.1831 22.8008 35.2822 22.8238C35.3813 22.8468 35.4748 22.8891 35.5575 22.9484C35.6402 23.0076 35.7104 23.0826 35.7641 23.169C37.7655 26.433 38.8233 30.1877 38.8204 34.0164C38.8175 37.8451 37.7538 41.5981 35.7474 44.859C35.6767 44.9635 35.5813 45.049 35.4698 45.1081C35.3583 45.1671 35.2341 45.1979 35.1079 45.1977Z" fill="black"/>
<path d="M31.0274 19.5505C30.9257 19.5505 30.825 19.5305 30.7311 19.4916C30.6371 19.4528 30.5518 19.3958 30.4799 19.3239C30.408 19.252 30.351 19.1666 30.3121 19.0727C30.2732 18.9787 30.2533 18.8781 30.2533 18.7764C30.259 17.9567 30.0634 17.1481 29.6839 16.4215C29.3044 15.6949 28.7525 15.0725 28.0765 14.6088C27.4005 14.1451 26.6212 13.8543 25.8067 13.7619C24.9922 13.6694 24.1675 13.7781 23.4048 14.0784C23.2252 14.1477 23.0262 14.1475 22.8468 14.0779C22.6673 14.0083 22.52 13.8742 22.434 13.702C22.0584 12.9342 21.4634 12.295 20.7244 11.8656C19.9853 11.4361 19.1355 11.2356 18.2824 11.2894C17.4293 11.3432 16.6113 11.649 15.9321 12.1679C15.2529 12.6869 14.7429 13.3957 14.4668 14.2047C14.4296 14.311 14.3697 14.408 14.2912 14.4888C14.2127 14.5695 14.1175 14.6322 14.0123 14.6724C13.907 14.7126 13.7943 14.7293 13.6819 14.7213C13.5696 14.7134 13.4602 14.681 13.3616 14.6265C12.8341 14.3254 12.238 14.1651 11.6306 14.1608C10.6768 14.1619 9.76243 14.5412 9.08791 15.2156C8.41339 15.89 8.03376 16.8044 8.03247 17.7582C8.03247 17.9635 7.95105 18.1604 7.80589 18.3055C7.66073 18.4507 7.46372 18.5322 7.25842 18.5322C7.05313 18.5322 6.85631 18.4507 6.71115 18.3055C6.56598 18.1604 6.48438 17.9635 6.48438 17.7582C6.48606 16.3939 7.02897 15.086 7.99373 14.1214C8.95849 13.1568 10.2663 12.6142 11.6306 12.6127C12.2141 12.6132 12.7929 12.7166 13.3405 12.9181C13.8103 12.0021 14.5134 11.226 15.3786 10.6681C16.2437 10.1101 17.2405 9.78991 18.2688 9.73971C19.2971 9.68952 20.3205 9.91108 21.2359 10.3821C22.1513 10.8532 22.9264 11.5571 23.4832 12.423C24.044 12.2644 24.6239 12.1833 25.2067 12.1819C26.955 12.1839 28.6312 12.8794 29.8674 14.1157C31.1037 15.3519 31.7992 17.0281 31.8012 18.7764C31.8013 18.8781 31.7813 18.9787 31.7425 19.0727C31.7036 19.1666 31.6467 19.2519 31.5748 19.3238C31.503 19.3957 31.4176 19.4527 31.3237 19.4916C31.2298 19.5305 31.129 19.5505 31.0274 19.5505Z" fill="black"/>
<path d="M33.2605 19.3131C33.1181 19.3133 32.9782 19.2741 32.8566 19.2C32.735 19.1258 32.6363 19.0195 32.5713 18.8928C32.5062 18.7661 32.4775 18.6238 32.4881 18.4818C32.4988 18.3398 32.5484 18.2034 32.6316 18.0878L35.315 14.3521C35.4283 14.2144 35.4873 14.04 35.4806 13.8618C35.4739 13.6836 35.4021 13.5141 35.2788 13.3853L31.6308 10.1039C31.4894 9.99581 31.3135 9.94296 31.136 9.95521C30.9585 9.96746 30.7914 10.044 30.6662 10.1705L26.861 13.566C26.7851 13.6337 26.6967 13.6858 26.6008 13.7193C26.5048 13.7528 26.4031 13.7671 26.3016 13.7614C26.2001 13.7556 26.1008 13.7299 26.0093 13.6858C25.9177 13.6416 25.8356 13.5799 25.7679 13.504C25.7002 13.4282 25.6482 13.3397 25.6147 13.2437C25.5811 13.1478 25.5668 13.0461 25.5725 12.9446C25.5783 12.8431 25.604 12.7438 25.6481 12.6522C25.6923 12.5606 25.7541 12.4787 25.8299 12.411L29.6352 9.01543C30.0438 8.63375 30.579 8.41637 31.1381 8.40494C31.6972 8.39351 32.2409 8.58883 32.6648 8.95349L36.3144 12.2356C36.7217 12.6187 36.9732 13.1387 37.0209 13.6958C37.0686 14.2529 36.9092 14.808 36.5729 15.2547L33.8894 18.9904C33.8178 19.0904 33.7235 19.1719 33.6141 19.228C33.5047 19.2841 33.3834 19.3133 33.2605 19.3131Z" fill="black"/>
<path d="M33.9744 11.9453C33.8249 11.945 33.6786 11.9015 33.5532 11.82C33.4279 11.7385 33.3287 11.6225 33.2679 11.486C33.207 11.3494 33.1869 11.1981 33.21 11.0504C33.2332 10.9026 33.2987 10.7648 33.3984 10.6534L37.9913 5.5465C38.1289 5.39467 38.3209 5.30353 38.5256 5.29304C38.7302 5.28255 38.9307 5.35359 39.0831 5.49057C39.2354 5.62754 39.3273 5.81928 39.3386 6.02386C39.3498 6.22844 39.2797 6.42919 39.1433 6.5821L34.5504 11.689C34.4779 11.7698 34.3891 11.8344 34.2898 11.8786C34.1906 11.9228 34.0831 11.9455 33.9744 11.9453Z" fill="black"/>
<path d="M38.5668 6.83914C38.4414 6.83897 38.3179 6.8084 38.207 6.74999C38.096 6.69158 38.001 6.60707 37.9299 6.5038C37.8589 6.40052 37.8139 6.28155 37.799 6.15707C37.784 6.03259 37.7995 5.90634 37.8441 5.78918L39.8639 0.497777C39.9087 0.380442 39.9813 0.275782 40.0756 0.192816C40.1698 0.10985 40.2829 0.0510769 40.405 0.0216027C40.527 -0.00787158 40.6544 -0.00717655 40.7761 0.0236342C40.8979 0.0544449 41.0103 0.114444 41.1036 0.198438L44.1318 2.92197C44.2255 3.00582 44.2973 3.11125 44.341 3.22916C44.3847 3.34707 44.3991 3.47387 44.3827 3.59856C44.3664 3.72325 44.3198 3.84206 44.2471 3.94467C44.1743 4.04728 44.0777 4.13058 43.9655 4.18736L38.9175 6.75518C38.8088 6.81027 38.6887 6.83902 38.5668 6.83914ZM40.9071 2.10337L40.006 4.46407L42.2586 3.31887L40.9071 2.10337Z" fill="black"/>
<path d="M21.4866 40.9299H17.3427C17.17 40.9298 17.0023 40.8721 16.8661 40.7658C16.73 40.6595 16.6333 40.5108 16.5914 40.3433L14.3116 31.2172C14.2855 31.1126 14.2815 31.0037 14.3 30.8975C14.3185 30.7913 14.359 30.6901 14.4189 30.6004C14.4718 30.5203 15.7659 28.6441 19.4139 28.6441C23.0635 28.6441 24.3576 30.5203 24.4105 30.6004C24.4704 30.6901 24.5109 30.7913 24.5293 30.8975C24.5478 31.0037 24.5439 31.1126 24.5178 31.2172L22.238 40.3433C22.1961 40.5108 22.0994 40.6595 21.9632 40.7658C21.8271 40.8721 21.6593 40.9298 21.4866 40.9299ZM17.9475 39.3818H20.8819L22.9153 31.2414C21.8761 30.5567 20.659 30.1919 19.4145 30.1922C18.17 30.1925 16.953 30.5578 15.9141 31.2429L17.9475 39.3818Z" fill="black"/>
<path d="M26.5026 31.8038H23.7662C23.5609 31.8038 23.3641 31.7222 23.219 31.5771C23.0738 31.4319 22.9922 31.235 22.9922 31.0297C22.9922 30.8244 23.0738 30.6276 23.219 30.4824C23.3641 30.3372 23.5609 30.2557 23.7662 30.2557H26.5026C26.7079 30.2557 26.9047 30.3372 27.0499 30.4824C27.1951 30.6276 27.2767 30.8244 27.2767 31.0297C27.2767 31.235 27.1951 31.4319 27.0499 31.5771C26.9047 31.7222 26.7079 31.8038 26.5026 31.8038Z" fill="black"/>
<path d="M15.0622 31.8038H12.3243C12.1191 31.8038 11.9222 31.7222 11.7771 31.5771C11.6319 31.4319 11.5503 31.235 11.5503 31.0297C11.5503 30.8244 11.6319 30.6276 11.7771 30.4824C11.9222 30.3372 12.1191 30.2557 12.3243 30.2557H15.0622C15.2675 30.2557 15.4644 30.3372 15.6095 30.4824C15.7547 30.6276 15.8363 30.8244 15.8363 31.0297C15.8363 31.235 15.7547 31.4319 15.6095 31.5771C15.4644 31.7222 15.2675 31.8038 15.0622 31.8038Z" fill="black"/>
<path d="M15.0626 31.8038C14.961 31.8038 14.8602 31.7838 14.7663 31.745C14.6724 31.7061 14.587 31.6491 14.5152 31.5772C14.4433 31.5053 14.3862 31.4199 14.3473 31.326C14.3085 31.2321 14.2885 31.1314 14.2886 31.0297V27.8458C14.2886 27.6406 14.3702 27.4437 14.5153 27.2985C14.6605 27.1534 14.8573 27.0718 15.0626 27.0718C15.2679 27.0718 15.4647 27.1534 15.6099 27.2985C15.7551 27.4437 15.8367 27.6406 15.8367 27.8458V31.0297C15.8367 31.1314 15.8168 31.2321 15.7779 31.326C15.739 31.4199 15.682 31.5053 15.6101 31.5772C15.5382 31.6491 15.4529 31.7061 15.3589 31.745C15.265 31.7838 15.1643 31.8038 15.0626 31.8038Z" fill="black"/>
<path d="M23.7662 31.8038C23.6646 31.8038 23.5639 31.7838 23.4699 31.745C23.376 31.7061 23.2907 31.6491 23.2188 31.5772C23.1469 31.5053 23.0898 31.4199 23.051 31.326C23.0121 31.2321 22.9921 31.1314 22.9922 31.0297V27.8458C22.9922 27.6406 23.0738 27.4437 23.219 27.2985C23.3641 27.1534 23.5609 27.0718 23.7662 27.0718C23.9715 27.0718 24.1684 27.1534 24.3135 27.2985C24.4587 27.4437 24.5403 27.6406 24.5403 27.8458V31.0297C24.5403 31.1314 24.5204 31.2321 24.4815 31.326C24.4426 31.4199 24.3856 31.5053 24.3137 31.5772C24.2418 31.6491 24.1565 31.7061 24.0626 31.745C23.9686 31.7838 23.8679 31.8038 23.7662 31.8038Z" fill="black"/>
</svg>
