<svg width="43" height="47" viewBox="0 0 43 47" fill="none" xmlns="http://www.w3.org/2000/svg">
<g clip-path="url(#clip0_41_1176)">
<path d="M24.8456 47.0021H9.25288C7.60232 47.0078 6.00923 46.3846 4.78662 45.2549C3.56401 44.1251 2.80023 42.5704 2.64517 40.8961L0.0081759 16.5635C-0.00423209 16.4467 0.00771065 16.3286 0.0430419 16.2168C0.0783732 16.1049 0.136414 16.0019 0.213364 15.9144C0.290315 15.8269 0.384446 15.7569 0.489687 15.7089C0.594929 15.6609 0.708817 15.636 0.824121 15.6358H33.2744C33.3897 15.636 33.5037 15.6609 33.609 15.7089C33.7142 15.7569 33.8084 15.8269 33.8853 15.9144C33.9623 16.0019 34.0203 16.1049 34.0556 16.2168C34.091 16.3286 34.1027 16.4467 34.0903 16.5635L31.4517 40.9067C31.2945 42.5789 30.5299 44.131 29.3078 45.2586C28.0858 46.3862 26.4943 47.008 24.8456 47.0021ZM1.74106 17.3083L4.27866 40.7238C4.39357 41.9857 4.96779 43.1581 5.88831 44.0105C6.80883 44.8628 8.00902 45.3334 9.25288 45.3296H24.8456C26.0878 45.3338 27.2865 44.8645 28.2066 44.0142C29.1266 43.1638 29.7016 41.9937 29.8182 40.7337L32.3574 17.3084L1.74106 17.3083Z" fill="black"/>
<path d="M36.1423 40.2501H31.3139C31.0962 40.2501 30.8873 40.162 30.7334 40.0052C30.5795 39.8484 30.4932 39.6357 30.4932 39.4139C30.4932 39.1921 30.5795 38.9794 30.7334 38.8226C30.8873 38.6658 31.0962 38.5777 31.3139 38.5777H36.1423C37.5261 38.5758 38.8528 38.0148 39.8312 37.0177C40.8097 36.0206 41.3601 34.6689 41.3617 33.2589V30.9854C41.3601 29.5754 40.8097 28.2236 39.8312 27.2265C38.8528 26.2294 37.5261 25.6684 36.1423 25.6666H33.2744C33.0568 25.6666 32.8479 25.5785 32.6939 25.4217C32.54 25.2648 32.4537 25.0521 32.4537 24.8304C32.4537 24.6086 32.54 24.3959 32.6939 24.2391C32.8479 24.0822 33.0568 23.9941 33.2744 23.9941H36.1423C37.9614 23.9963 39.7054 24.7336 40.9916 26.0442C42.2779 27.3549 43.0014 29.1319 43.0032 30.9854V33.2589C43.0014 35.1124 42.2779 36.8893 40.9916 38.2C39.7054 39.5107 37.9614 40.248 36.1423 40.2501Z" fill="black"/>
<path d="M36.0108 35.9113H31.3139C31.0962 35.9113 30.8873 35.8232 30.7334 35.6664C30.5795 35.5096 30.4932 35.2969 30.4932 35.0751C30.4932 34.8533 30.5795 34.6406 30.7334 34.4838C30.8873 34.327 31.0962 34.2389 31.3139 34.2389H36.0108C36.442 34.2386 36.8553 34.0641 37.1604 33.7536C37.4654 33.4431 37.6372 33.022 37.6379 32.5827V31.6615C37.6374 31.2221 37.4658 30.8008 37.1608 30.4901C36.8557 30.1795 36.4421 30.0049 36.0108 30.0046H31.9407C31.723 30.0046 31.5141 29.9165 31.3602 29.7596C31.2063 29.6028 31.12 29.3901 31.12 29.1683C31.12 28.9466 31.2063 28.7339 31.3602 28.577C31.5141 28.4202 31.723 28.3321 31.9407 28.3321H36.0108C36.8773 28.3331 37.7078 28.6841 38.3206 29.3083C38.9333 29.9325 39.2782 30.7787 39.2794 31.6615V32.5827C39.2782 33.4654 38.9333 34.3116 38.3206 34.9356C37.7078 35.5596 36.8772 35.9105 36.0108 35.9113Z" fill="black"/>
<path d="M17.0483 13.5183C16.9405 13.5184 16.8337 13.4968 16.7341 13.4548C16.6345 13.4127 16.544 13.3512 16.4678 13.2735C16.3916 13.1958 16.3311 13.1036 16.2899 13.0021C16.2486 12.9006 16.2275 12.7919 16.2275 12.6821V8.57437C16.2275 8.35258 16.3141 8.13989 16.468 7.98307C16.6219 7.82624 16.8306 7.73813 17.0483 7.73813C17.266 7.73813 17.4747 7.82624 17.6286 7.98307C17.7825 8.13989 17.869 8.35258 17.869 8.57437V12.6821C17.8691 12.7919 17.848 12.9006 17.8067 13.0021C17.7655 13.1036 17.705 13.1958 17.6288 13.2735C17.5526 13.3512 17.4621 13.4127 17.3625 13.4548C17.2629 13.4968 17.1561 13.5184 17.0483 13.5183Z" fill="black"/>
<path d="M17.0483 5.78227C16.9405 5.78234 16.8337 5.76073 16.7341 5.71873C16.6345 5.67673 16.544 5.61515 16.4678 5.53749C16.3916 5.45982 16.3311 5.36759 16.2899 5.26611C16.2486 5.16462 16.2275 5.05587 16.2275 4.94604V0.838344C16.2275 0.61656 16.3141 0.403871 16.468 0.247046C16.6219 0.0902212 16.8306 0.00210571 17.0483 0.00210571C17.266 0.00210571 17.4747 0.0902212 17.6286 0.247046C17.7825 0.403871 17.869 0.61656 17.869 0.838344V4.94604C17.8691 5.05587 17.848 5.16462 17.8067 5.26611C17.7655 5.36759 17.705 5.45982 17.6288 5.53749C17.5526 5.61515 17.4621 5.67673 17.3625 5.71873C17.2629 5.76073 17.1561 5.78233 17.0483 5.78227Z" fill="black"/>
<path d="M26.1648 13.2496C25.9816 13.2495 25.8036 13.187 25.6592 13.072C25.5149 12.9571 25.4124 12.7962 25.3681 12.6151L24.3934 8.62008C24.3674 8.51348 24.3622 8.40271 24.3782 8.29409C24.3942 8.18547 24.4312 8.08114 24.4868 7.98704C24.5424 7.89293 24.6155 7.81088 24.7022 7.74562C24.7889 7.68035 24.8876 7.63312 24.9922 7.60663C25.0968 7.58015 25.2056 7.5749 25.3122 7.59122C25.4188 7.60754 25.5212 7.64513 25.6136 7.70177C25.7059 7.75842 25.7863 7.83305 25.8504 7.9214C25.9145 8.00975 25.9609 8.11006 25.9869 8.21666L26.9615 12.2117C27.0139 12.4268 26.9802 12.6544 26.8681 12.8444C26.756 13.0344 26.5747 13.1713 26.3636 13.2252C26.2985 13.2411 26.2318 13.2493 26.1648 13.2496Z" fill="black"/>
<path d="M24.3291 5.7259C24.1459 5.72582 23.9679 5.66331 23.8236 5.54833C23.6792 5.43336 23.5767 5.27252 23.5324 5.09137L22.5594 1.09638C22.5069 0.881091 22.5405 0.653388 22.6528 0.463329C22.765 0.273269 22.9468 0.136427 23.1581 0.0829284C23.3694 0.0294296 23.593 0.0636661 23.7795 0.178067C23.966 0.292468 24.1003 0.477672 24.1528 0.692957L25.1258 4.68795C25.1518 4.79461 25.1569 4.90547 25.1409 5.01415C25.1248 5.12283 25.0879 5.22718 25.0323 5.32131C24.9766 5.41543 24.9033 5.49744 24.8165 5.56268C24.7296 5.62791 24.631 5.67511 24.5263 5.7015C24.4618 5.71757 24.3956 5.72574 24.3291 5.7259Z" fill="black"/>
<path d="M7.93174 13.2496C7.86477 13.2493 7.79806 13.2411 7.73296 13.2251C7.52188 13.1713 7.3403 13.0344 7.2282 12.8444C7.11611 12.6543 7.08263 12.4268 7.13503 12.2116L8.10967 8.21662C8.13567 8.11002 8.18207 8.00965 8.24613 7.9213C8.31019 7.83295 8.39061 7.75832 8.48298 7.70168C8.57534 7.64503 8.67774 7.6075 8.78435 7.59117C8.89096 7.57485 8.99973 7.5801 9.10436 7.60659C9.20898 7.63308 9.30739 7.6803 9.3941 7.74557C9.48082 7.81084 9.55411 7.89283 9.60971 7.98694C9.66531 8.08105 9.7021 8.18542 9.71812 8.29405C9.73414 8.40267 9.72909 8.51344 9.70309 8.62004L8.72844 12.615C8.68414 12.7962 8.58165 12.9571 8.43729 13.072C8.29293 13.187 8.11498 13.2495 7.93174 13.2496Z" fill="black"/>
<path d="M9.76719 5.72593C9.70022 5.72565 9.63351 5.71743 9.56841 5.70143C9.35732 5.64762 9.17576 5.51069 9.06366 5.32067C8.95155 5.13066 8.91808 4.90306 8.97048 4.68788L9.94512 0.692886C9.97112 0.586287 10.0175 0.485968 10.0816 0.39762C10.1456 0.309273 10.2261 0.234641 10.3184 0.177996C10.4108 0.12135 10.5132 0.0838144 10.6198 0.0674943C10.7264 0.0511742 10.8352 0.0563674 10.9398 0.0828573C11.0444 0.109347 11.1428 0.156572 11.2296 0.221839C11.3163 0.287106 11.3896 0.36915 11.4452 0.463258C11.5008 0.557366 11.5376 0.661692 11.5536 0.770314C11.5696 0.878935 11.5645 0.989707 11.5385 1.09631L10.5639 5.0913C10.5196 5.27246 10.4171 5.43337 10.2727 5.54836C10.1284 5.66335 9.95043 5.72584 9.76719 5.72593Z" fill="black"/>
</g>
<defs>
<clipPath id="clip0_41_1176">
<rect width="43" height="47" fill="white" transform="translate(0.00292969 0.00210571)"/>
</clipPath>
</defs>
</svg>
