<svg width="49" height="42" viewBox="0 0 49 42" fill="none" xmlns="http://www.w3.org/2000/svg">
<g clip-path="url(#clip0_259_1252)">
<path d="M38.2158 38.6541H12.3805C9.97572 38.6455 7.67227 37.6685 5.97482 35.9372C4.27737 34.2059 3.32422 31.8614 3.32422 29.4173C3.32422 26.9731 4.27737 24.6286 5.97482 22.8973C7.67227 21.166 9.97572 20.189 12.3805 20.1804H34.7471C36.7297 20.1804 38.6312 19.3799 40.0331 17.955C41.4351 16.5302 42.2226 14.5977 42.2226 12.5826C42.2226 10.5676 41.4351 8.63497 40.0331 7.21011C38.6312 5.78524 36.7297 4.98481 34.7471 4.98481H7.84744C7.63365 4.98481 7.42867 4.89853 7.27749 4.74488C7.12631 4.59123 7.04132 4.38279 7.04132 4.1655C7.04132 3.94821 7.12631 3.73977 7.27749 3.58612C7.42867 3.43247 7.63365 3.34619 7.84744 3.34619H34.7471C37.1573 3.34619 39.469 4.31928 41.1732 6.05145C42.8775 7.78362 43.8349 10.133 43.8349 12.5826C43.8349 15.0323 42.8775 17.3816 41.1732 19.1138C39.469 20.846 37.1573 21.8191 34.7471 21.8191H12.3805C10.4028 21.8269 8.5087 22.6309 7.11296 24.0549C5.71722 25.479 4.93351 27.4072 4.93351 29.4173C4.93351 31.4273 5.71722 33.3555 7.11296 34.7796C8.5087 36.2037 10.4028 37.0077 12.3805 37.0155H38.2158C38.4296 37.0155 38.6346 37.1018 38.7858 37.2554C38.937 37.4091 39.0219 37.6175 39.0219 37.8348C39.0219 38.0521 38.937 38.2605 38.7858 38.4142C38.6346 38.5678 38.4296 38.6541 38.2158 38.6541Z" fill="black"/>
<path d="M40.2983 38.6541C40.1924 38.6542 40.0877 38.6331 39.9899 38.5919C39.8921 38.5508 39.803 38.4904 39.7282 38.4143C39.6533 38.3382 39.5941 38.2479 39.5536 38.1485C39.5131 38.049 39.4921 37.9424 39.4922 37.8348V23.6225C39.4922 23.4052 39.5772 23.1968 39.7284 23.0432C39.8795 22.8895 40.0845 22.8032 40.2983 22.8032C40.5121 22.8032 40.7173 22.8895 40.8685 23.0432C41.0196 23.1968 41.1044 23.4052 41.1044 23.6225V37.8348C41.1045 37.9424 41.0837 38.049 41.0432 38.1485C41.0027 38.2479 40.9433 38.3382 40.8685 38.4143C40.7936 38.4904 40.7047 38.5508 40.6069 38.5919C40.5091 38.6331 40.4042 38.6542 40.2983 38.6541Z" fill="black"/>
<path d="M21.3064 24.3469C23.1249 24.3469 24.5991 22.8486 24.5991 21.0004C24.5991 19.1521 23.1249 17.6538 21.3064 17.6538C19.4879 17.6538 18.0137 19.1521 18.0137 21.0004C18.0137 22.8486 19.4879 24.3469 21.3064 24.3469Z" fill="white"/>
<path d="M21.3071 25.166C20.4964 25.1661 19.7039 24.9219 19.0298 24.4642C18.3558 24.0065 17.8304 23.3559 17.5201 22.5948C17.2098 21.8336 17.1286 20.996 17.2867 20.1879C17.4448 19.3798 17.835 18.6375 18.4081 18.0548C18.9813 17.4722 19.7116 17.0754 20.5067 16.9146C21.3017 16.7538 22.1259 16.8362 22.8749 17.1514C23.6238 17.4667 24.264 18.0005 24.7144 18.6855C25.1649 19.3705 25.4053 20.1759 25.4054 20.9998C25.4041 22.1042 24.9718 23.163 24.2035 23.944C23.4352 24.725 22.3937 25.1644 21.3071 25.166ZM21.3071 18.4731C20.8153 18.473 20.3345 18.6212 19.9255 18.8989C19.5165 19.1765 19.1978 19.5712 19.0096 20.033C18.8213 20.4948 18.7719 21.003 18.8679 21.4932C18.9638 21.9835 19.2007 22.4337 19.5484 22.7872C19.8962 23.1406 20.3392 23.3814 20.8216 23.4789C21.3039 23.5764 21.8041 23.5263 22.2585 23.3349C22.7128 23.1436 23.101 22.8197 23.3742 22.404C23.6473 21.9884 23.7932 21.4997 23.7932 20.9998C23.7921 20.33 23.5298 19.688 23.0638 19.2144C22.5978 18.7408 21.9661 18.4742 21.3071 18.4731Z" fill="black"/>
<path d="M15.5046 41.1809C17.3231 41.1809 18.7973 39.6826 18.7973 37.8343C18.7973 35.9861 17.3231 34.4878 15.5046 34.4878C13.6861 34.4878 12.2119 35.9861 12.2119 37.8343C12.2119 39.6826 13.6861 41.1809 15.5046 41.1809Z" fill="white"/>
<path d="M15.5044 42C14.6937 42.0001 13.9013 41.7558 13.2272 41.2981C12.5531 40.8404 12.0275 40.1898 11.7173 39.4285C11.407 38.6673 11.3259 37.8297 11.484 37.0216C11.6422 36.2135 12.0326 35.4712 12.6058 34.8885C13.1791 34.3059 13.9093 33.9092 14.7044 33.7485C15.4995 33.5878 16.3236 33.6703 17.0726 33.9856C17.8215 34.301 18.4618 34.835 18.9121 35.5201C19.3625 36.2052 19.6028 37.0107 19.6027 37.8346C19.6015 38.939 19.1694 39.9976 18.401 40.7785C17.6327 41.5594 16.591 41.9987 15.5044 42ZM15.5044 35.3071C15.0126 35.307 14.5318 35.4551 14.1228 35.7328C13.7139 36.0104 13.3952 36.4051 13.2069 36.8668C13.0186 37.3285 12.9693 37.8367 13.0652 38.3269C13.1611 38.8171 13.3979 39.2675 13.7456 39.621C14.0932 39.9745 14.5362 40.2152 15.0185 40.3128C15.5008 40.4104 16.0008 40.3603 16.4552 40.1691C16.9096 39.9779 17.298 39.6542 17.5713 39.2386C17.8446 38.8231 17.9904 38.3345 17.9905 37.8346C17.99 37.1646 17.7278 36.5222 17.2617 36.0483C16.7956 35.5744 16.1637 35.3078 15.5044 35.3071Z" fill="black"/>
<path d="M40.2992 39.9945C41.4729 39.9945 42.4245 39.0274 42.4245 37.8344C42.4245 36.6414 41.4729 35.6743 40.2992 35.6743C39.1254 35.6743 38.1738 36.6414 38.1738 37.8344C38.1738 39.0274 39.1254 39.9945 40.2992 39.9945Z" fill="white"/>
<path d="M40.2987 40.8142C39.7189 40.8142 39.1522 40.6395 38.6701 40.3121C38.188 39.9847 37.8121 39.5193 37.5902 38.9749C37.3684 38.4304 37.3104 37.8313 37.4236 37.2534C37.5367 36.6754 37.8157 36.1445 38.2257 35.7278C38.6357 35.311 39.1581 35.0272 39.7268 34.9122C40.2955 34.7973 40.885 34.8562 41.4207 35.0818C41.9564 35.3073 42.4142 35.6892 42.7364 36.1792C43.0585 36.6692 43.2304 37.2453 43.2304 37.8346C43.2296 38.6246 42.9205 39.382 42.3709 39.9406C41.8213 40.4992 41.076 40.8134 40.2987 40.8142ZM40.2987 36.4937C40.0378 36.4937 39.7828 36.5722 39.5658 36.7196C39.3488 36.8669 39.1797 37.0764 39.0799 37.3215C38.98 37.5665 38.9538 37.836 39.0047 38.0962C39.0556 38.3563 39.1813 38.5953 39.3658 38.7829C39.5504 38.9704 39.7854 39.0981 40.0413 39.1498C40.2972 39.2015 40.5626 39.175 40.8037 39.0735C41.0448 38.972 41.2509 38.8002 41.3959 38.5796C41.5409 38.3591 41.6181 38.0999 41.6181 37.8346C41.618 37.479 41.479 37.1379 41.2316 36.8864C40.9842 36.6349 40.6486 36.4937 40.2987 36.4937Z" fill="black"/>
<path d="M27.1091 7.51195C28.9276 7.51195 30.4018 6.01365 30.4018 4.1654C30.4018 2.31715 28.9276 0.818848 27.1091 0.818848C25.2906 0.818848 23.8164 2.31715 23.8164 4.1654C23.8164 6.01365 25.2906 7.51195 27.1091 7.51195Z" fill="white"/>
<path d="M27.1092 8.33152C26.2986 8.33127 25.5062 8.0868 24.8323 7.62893C24.1585 7.17106 23.6335 6.52037 23.3234 5.75918C23.0134 4.99799 22.9323 4.16044 23.0906 3.35246C23.2488 2.54447 23.6392 1.80226 24.2124 1.21977C24.7856 0.63729 25.5159 0.240702 26.311 0.0800217C27.106 -0.0806586 27.9301 0.00178039 28.6789 0.317053C29.4278 0.632326 30.0679 1.16628 30.5183 1.85126C30.9687 2.53623 31.209 3.34153 31.2091 4.16537C31.2079 5.27006 30.7754 6.3291 30.0068 7.11016C29.2382 7.89122 28.1961 8.3305 27.1092 8.33152ZM27.1092 1.63863C26.6175 1.63888 26.1368 1.78733 25.728 2.06519C25.3193 2.34304 25.0009 2.73782 24.8129 3.19964C24.6249 3.66146 24.5758 4.16959 24.6719 4.65973C24.7681 5.14988 25.0049 5.60002 25.3527 5.9533C25.7005 6.30659 26.1437 6.54713 26.626 6.6445C27.1084 6.74186 27.6083 6.69165 28.0625 6.50028C28.5168 6.30891 28.9049 5.98496 29.178 5.56935C29.4512 5.15374 29.5969 4.66515 29.5969 4.16537C29.5961 3.49517 29.3337 2.85268 28.8673 2.37893C28.4009 1.90518 27.7686 1.63891 27.1092 1.63863Z" fill="black"/>
<path d="M4.09933 7.51195C5.91784 7.51195 7.39202 6.01365 7.39202 4.1654C7.39202 2.31715 5.91784 0.818848 4.09933 0.818848C2.28083 0.818848 0.806641 2.31715 0.806641 4.1654C0.806641 6.01365 2.28083 7.51195 4.09933 7.51195Z" fill="white"/>
<path d="M4.09846 8.33152C3.28788 8.33127 2.49546 8.0868 1.8216 7.62893C1.14774 7.17106 0.62272 6.52037 0.312674 5.75918C0.00262797 4.99799 -0.0784064 4.16044 0.0798505 3.35246C0.238107 2.54447 0.628427 1.80226 1.20165 1.21977C1.77488 0.63729 2.5052 0.240702 3.30021 0.0800217C4.09523 -0.0806586 4.91932 0.00178039 5.6682 0.317053C6.41708 0.632326 7.0572 1.16628 7.50756 1.85126C7.95793 2.53623 8.19828 3.34153 8.19835 4.16537C8.19713 5.27006 7.76471 6.3291 6.99606 7.11016C6.22741 7.89122 5.18538 8.3305 4.09846 8.33152ZM4.09846 1.63863C3.60672 1.63888 3.12601 1.78733 2.71727 2.06519C2.30852 2.34304 1.99011 2.73782 1.80211 3.19964C1.61412 3.66146 1.56509 4.16959 1.6612 4.65973C1.75731 5.14988 1.99413 5.60002 2.34196 5.9533C2.68978 6.30659 3.13298 6.54713 3.6153 6.6445C4.09762 6.74186 4.59753 6.69165 5.0518 6.50028C5.50606 6.30891 5.89419 5.98496 6.1673 5.56935C6.44042 5.15374 6.58618 4.66515 6.58611 4.16537C6.58541 3.49517 6.32297 2.85268 5.85654 2.37893C5.39012 1.90518 4.75788 1.63891 4.09846 1.63863Z" fill="black"/>
<path d="M48.1944 31.0419H40.2983C40.1924 31.042 40.0877 31.0209 39.9899 30.9797C39.8921 30.9386 39.803 30.8782 39.7282 30.8021C39.6533 30.726 39.5941 30.6357 39.5536 30.5363C39.5131 30.4368 39.4921 30.3302 39.4922 30.2226V24.6123C39.4921 24.5047 39.5131 24.3981 39.5536 24.2986C39.5941 24.1992 39.6533 24.1089 39.7282 24.0328C39.803 23.9567 39.8921 23.8963 39.9899 23.8552C40.0877 23.814 40.1924 23.7929 40.2983 23.793H48.1942C48.328 23.7931 48.4598 23.827 48.5774 23.8917C48.6951 23.9564 48.795 24.0498 48.8683 24.1635C48.9416 24.2773 48.9857 24.4078 48.997 24.5433C49.0083 24.6787 48.9861 24.8149 48.9326 24.9395L47.8715 27.4175L48.9326 29.8954C48.9861 30.02 49.0083 30.1562 48.997 30.2916C48.9857 30.4271 48.9416 30.5576 48.8683 30.6714C48.795 30.7851 48.6951 30.8785 48.5774 30.9432C48.4598 31.0079 48.3282 31.0419 48.1944 31.0419ZM41.1046 29.4033H46.9632L46.2531 27.7447C46.2087 27.6415 46.1858 27.5301 46.1858 27.4175C46.1858 27.3048 46.2087 27.1934 46.2531 27.0902L46.9632 25.4316H41.1044L41.1046 29.4033Z" fill="black"/>
</g>
<defs>
<clipPath id="clip0_259_1252">
<rect width="49" height="42" fill="white"/>
</clipPath>
</defs>
</svg>
