<svg width="33" height="44" viewBox="0 0 33 44" fill="none" xmlns="http://www.w3.org/2000/svg">
<g clip-path="url(#clip0_41_1164)">
<path d="M16.5035 44.0063C12.107 43.9805 7.90077 42.3015 4.80752 39.3375C1.71427 36.3735 -0.0133776 32.3666 0.00354107 28.1957C0.00354107 13.6257 15.3133 0.739429 15.9651 0.198417C16.1141 0.0745853 16.3055 0.00631714 16.5035 0.00631714C16.7016 0.00631714 16.8929 0.0745853 17.0419 0.198417C17.6938 0.739491 33.0035 13.6257 33.0035 28.1957C33.0204 32.3666 31.2928 36.3735 28.1996 39.3375C25.1063 42.3015 20.9 43.9805 16.5035 44.0063ZM16.5035 1.83596C13.7748 4.27679 1.63948 15.8308 1.63948 28.1957C1.61766 30.0607 1.98605 31.9112 2.72325 33.6402C3.46045 35.3691 4.5518 36.9422 5.93423 38.2683C7.31665 39.5944 8.96271 40.6471 10.7769 41.3656C12.5912 42.0842 14.5376 42.4541 16.5035 42.4541C18.4695 42.4541 20.4161 42.0842 22.2303 41.3656C24.0446 40.6471 25.6904 39.5944 27.0728 38.2683C28.4553 36.9422 29.5466 35.3691 30.2838 33.6402C31.021 31.9112 31.3894 30.0607 31.3676 28.1957C31.3676 15.8195 19.2322 4.27453 16.5035 1.83596Z" fill="black"/>
<path d="M24.1749 18.8848H19.3917C19.1748 18.8848 18.9668 18.803 18.8134 18.6575C18.66 18.512 18.5737 18.3146 18.5737 18.1088C18.5737 17.903 18.66 17.7056 18.8134 17.5601C18.9668 17.4146 19.1748 17.3328 19.3917 17.3328H24.1749C24.3918 17.3328 24.6 17.4146 24.7534 17.5601C24.9068 17.7056 24.9929 17.903 24.9929 18.1088C24.9929 18.3146 24.9068 18.512 24.7534 18.6575C24.6 18.803 24.3918 18.8848 24.1749 18.8848Z" fill="black"/>
<path d="M24.1749 32.7516H19.3917C19.1748 32.7516 18.9668 32.6698 18.8134 32.5243C18.66 32.3788 18.5737 32.1814 18.5737 31.9756C18.5737 31.7698 18.66 31.5724 18.8134 31.4269C18.9668 31.2814 19.1748 31.1996 19.3917 31.1996H24.1749C24.3918 31.1996 24.6 31.2814 24.7534 31.4269C24.9068 31.5724 24.9929 31.7698 24.9929 31.9756C24.9929 32.1814 24.9068 32.3788 24.7534 32.5243C24.6 32.6698 24.3918 32.7516 24.1749 32.7516Z" fill="black"/>
<path d="M21.7833 32.7516C21.6759 32.7516 21.5694 32.7316 21.4702 32.6926C21.3709 32.6536 21.2807 32.5965 21.2048 32.5244C21.1288 32.4524 21.0685 32.3668 21.0274 32.2726C20.9864 32.1784 20.9653 32.0775 20.9653 31.9756V18.1088C20.9653 17.903 21.0516 17.7056 21.205 17.5601C21.3584 17.4146 21.5664 17.3328 21.7833 17.3328C22.0002 17.3328 22.2084 17.4146 22.3618 17.5601C22.5152 17.7056 22.6013 17.903 22.6013 18.1088V31.9756C22.6013 32.0775 22.5803 32.1784 22.5392 32.2726C22.4981 32.3668 22.4378 32.4524 22.3618 32.5244C22.2859 32.5965 22.1957 32.6536 22.0964 32.6926C21.9972 32.7316 21.8907 32.7516 21.7833 32.7516Z" fill="black"/>
<path d="M15.0112 32.7516C14.9037 32.7516 14.7973 32.7316 14.698 32.6926C14.5988 32.6536 14.5086 32.5965 14.4326 32.5244C14.3567 32.4524 14.2964 32.3668 14.2553 32.2726C14.2142 32.1784 14.1931 32.0775 14.1932 31.9756V21.0399C14.1932 20.4683 13.9538 19.9202 13.5278 19.516C13.1017 19.1118 12.5239 18.8848 11.9214 18.8848C11.3189 18.8848 10.7411 19.1118 10.315 19.516C9.88897 19.9202 9.64961 20.4683 9.64961 21.0399V31.9756C9.64961 32.1814 9.56357 32.3788 9.41017 32.5243C9.25677 32.6698 9.04858 32.7516 8.83164 32.7516C8.6147 32.7516 8.40671 32.6698 8.25331 32.5243C8.09991 32.3788 8.01367 32.1814 8.01367 31.9756V21.0399C8.01367 20.0567 8.42551 19.1138 9.15835 18.4186C9.89119 17.7234 10.885 17.3328 11.9214 17.3328C12.9578 17.3328 13.9518 17.7234 14.6846 18.4186C15.4175 19.1138 15.8291 20.0567 15.8291 21.0399V31.9756C15.8292 32.0775 15.8081 32.1784 15.767 32.2726C15.7259 32.3668 15.6657 32.4524 15.5897 32.5244C15.5137 32.5965 15.4236 32.6536 15.3243 32.6926C15.225 32.7316 15.1186 32.7516 15.0112 32.7516Z" fill="black"/>
<path d="M15.0112 25.8178H8.83164C8.6147 25.8178 8.40671 25.736 8.25331 25.5905C8.09991 25.445 8.01367 25.2476 8.01367 25.0418C8.01367 24.836 8.09991 24.6387 8.25331 24.4931C8.40671 24.3476 8.6147 24.2658 8.83164 24.2658H15.0112C15.2281 24.2658 15.4363 24.3476 15.5897 24.4931C15.7431 24.6387 15.8291 24.836 15.8291 25.0418C15.8291 25.2476 15.7431 25.445 15.5897 25.5905C15.4363 25.736 15.2281 25.8178 15.0112 25.8178Z" fill="black"/>
</g>
<defs>
<clipPath id="clip0_41_1164">
<rect width="33" height="44" fill="white" transform="translate(0.00341797 0.00628662)"/>
</clipPath>
</defs>
</svg>
