<svg width="46" height="43" viewBox="0 0 46 43" fill="none" xmlns="http://www.w3.org/2000/svg">
<g clip-path="url(#clip0_61_1297)">
<path d="M9.4785 35.2048C6.95627 35.1897 4.54296 34.1781 2.76822 32.3919C0.993473 30.6058 0.00222841 28.1909 0.0117872 25.6772C0.0117872 17.0753 8.57104 8.23103 8.93437 7.85868C9.08001 7.71795 9.2749 7.63925 9.47776 7.63925C9.68062 7.63925 9.87551 7.71795 10.0212 7.85868C10.3859 8.23103 18.9467 17.0753 18.9467 25.6772C18.9559 28.1911 17.9644 30.606 16.1893 32.3921C14.4143 34.1783 12.0009 35.1898 9.4785 35.2048ZM9.4785 9.50326C7.60443 11.5941 1.53002 18.892 1.53002 25.6772C1.51786 26.7253 1.71441 27.7654 2.10844 28.7372C2.50247 29.709 3.08617 30.5932 3.82553 31.3386C4.56489 32.084 5.44523 32.6758 6.41572 33.0797C7.38621 33.4836 8.42753 33.6916 9.47924 33.6916C10.531 33.6916 11.5723 33.4836 12.5428 33.0797C13.5133 32.6758 14.3936 32.084 15.133 31.3386C15.8723 30.5932 16.4558 29.709 16.8499 28.7372C17.2439 27.7654 17.4406 26.7253 17.4285 25.6772C17.4284 18.892 11.354 11.5941 9.4785 9.50326Z" fill="black"/>
<path d="M33.2826 43C33.1828 43 33.0841 42.9805 32.992 42.9425C32.8998 42.9045 32.8162 42.8488 32.7456 42.7785C32.6751 42.7083 32.6192 42.6249 32.5811 42.5331C32.5429 42.4412 32.5234 42.3428 32.5234 42.2435V18.5174C32.5234 18.3168 32.6033 18.1243 32.7456 17.9824C32.888 17.8406 33.0812 17.7609 33.2826 17.7609C33.4839 17.7609 33.6769 17.8406 33.8193 17.9824C33.9616 18.1243 34.0417 18.3168 34.0417 18.5174V42.2435C34.0417 42.3428 34.0222 42.4412 33.984 42.5331C33.9459 42.6249 33.89 42.7083 33.8195 42.7785C33.749 42.8488 33.6653 42.9045 33.5732 42.9425C33.481 42.9805 33.3823 43 33.2826 43Z" fill="black"/>
<path d="M33.2819 23.3928C33.1487 23.3927 33.0178 23.3578 32.9024 23.2916L28.659 20.8543C28.5727 20.8046 28.497 20.7384 28.4363 20.6596C28.3756 20.5808 28.331 20.4908 28.3052 20.3948C28.2794 20.2989 28.2728 20.1988 28.2858 20.1002C28.2988 20.0017 28.3312 19.9068 28.381 19.8207C28.4309 19.7346 28.4973 19.6592 28.5764 19.5987C28.6555 19.5382 28.7456 19.4938 28.8419 19.4681C28.9383 19.4424 29.0387 19.4358 29.1376 19.4488C29.2364 19.4618 29.3318 19.494 29.4181 19.5436L33.2819 21.763L37.1472 19.5436C37.2335 19.494 37.3287 19.4618 37.4276 19.4488C37.5264 19.4358 37.6269 19.4424 37.7232 19.4681C37.8195 19.4938 37.9099 19.5382 37.989 19.5987C38.0681 19.6592 38.1345 19.7346 38.1843 19.8207C38.2341 19.9068 38.2666 20.0017 38.2796 20.1002C38.2926 20.1988 38.2859 20.2989 38.2601 20.3948C38.2343 20.4908 38.1898 20.5808 38.1291 20.6596C38.0684 20.7384 37.9927 20.8046 37.9063 20.8543L33.6615 23.2916C33.5459 23.3576 33.4151 23.3925 33.2819 23.3928Z" fill="black"/>
<path d="M37.5271 41.3185C37.3939 41.3185 37.263 41.2836 37.1476 41.2173L33.2823 38.9971L29.4185 41.2173C29.3322 41.267 29.2368 41.2993 29.1379 41.3123C29.039 41.3253 28.9385 41.3188 28.8421 41.2931C28.7458 41.2674 28.6555 41.2229 28.5764 41.1624C28.4972 41.1019 28.4309 41.0265 28.381 40.9404C28.3312 40.8543 28.2988 40.7593 28.2858 40.6607C28.2728 40.5622 28.2794 40.4621 28.3052 40.3661C28.3311 40.2701 28.3757 40.18 28.4364 40.1012C28.4972 40.0224 28.573 39.9563 28.6594 39.9066L32.9027 37.4686C33.0183 37.4025 33.1491 37.3677 33.2823 37.3677C33.4155 37.3677 33.5463 37.4025 33.6619 37.4686L37.9067 39.9066C38.0515 39.9899 38.1646 40.1184 38.2286 40.2723C38.2926 40.4262 38.3039 40.5968 38.2607 40.7577C38.2174 40.9186 38.122 41.0608 37.9893 41.1622C37.8567 41.2636 37.6943 41.3185 37.5271 41.3185Z" fill="black"/>
<path d="M43.591 37.0681C43.4578 37.0682 43.3269 37.0332 43.2115 36.9669L22.5952 25.1039C22.421 25.0035 22.2937 24.8382 22.2416 24.6445C22.1896 24.4507 22.217 24.2442 22.3176 24.0705C22.4182 23.8968 22.5839 23.77 22.7783 23.718C22.9728 23.666 23.18 23.6931 23.3544 23.7933L43.9706 35.6563C44.1152 35.7396 44.2281 35.8682 44.292 36.0221C44.3558 36.1759 44.3671 36.3464 44.3238 36.5072C44.2806 36.668 44.1853 36.8101 44.0529 36.9115C43.9204 37.0129 43.7581 37.068 43.591 37.0681Z" fill="black"/>
<path d="M22.3135 29.7089C22.1465 29.7089 21.984 29.654 21.8515 29.5526C21.719 29.4513 21.6238 29.3092 21.5806 29.1484C21.5373 28.9876 21.5485 28.8171 21.6124 28.6633C21.6763 28.5095 21.7893 28.381 21.934 28.2978L25.7948 26.0717L25.7978 21.6263C25.7978 21.527 25.8174 21.4287 25.8556 21.3369C25.8937 21.2452 25.9498 21.1619 26.0203 21.0917C26.0908 21.0215 26.1744 20.9658 26.2665 20.9279C26.3586 20.8899 26.4572 20.8705 26.5569 20.8705C26.6566 20.8706 26.7555 20.8902 26.8477 20.9283C26.9398 20.9663 27.0235 21.0221 27.094 21.0925C27.1645 21.1628 27.2204 21.2463 27.2585 21.3381C27.2967 21.43 27.3161 21.5284 27.316 21.6278L27.313 26.5091C27.3129 26.6417 27.2777 26.7719 27.2111 26.8866C27.1445 27.0014 27.0487 27.0967 26.9335 27.163L22.6931 29.6069C22.5779 29.674 22.4469 29.7092 22.3135 29.7089Z" fill="black"/>
<path d="M40.0091 39.8904C39.9094 39.8903 39.8107 39.8707 39.7185 39.8327C39.6264 39.7946 39.5425 39.7388 39.472 39.6685C39.4015 39.5981 39.3458 39.5147 39.3076 39.4228C39.2695 39.3309 39.2499 39.2325 39.25 39.1331L39.253 34.2518C39.2531 34.1192 39.2883 33.989 39.3549 33.8742C39.4215 33.7594 39.5173 33.6642 39.6325 33.598L43.8729 31.154C43.9592 31.1043 44.0545 31.072 44.1533 31.059C44.2521 31.0459 44.3525 31.0523 44.4487 31.078C44.545 31.1036 44.6352 31.148 44.7143 31.2084C44.7934 31.2688 44.8598 31.3441 44.9096 31.4301C44.9595 31.5161 44.9919 31.611 45.0049 31.7095C45.0179 31.8079 45.0114 31.9081 44.9856 32.004C44.9599 32.0999 44.9154 32.1898 44.8548 32.2686C44.7941 32.3474 44.7183 32.4135 44.632 32.4632L40.7712 34.6892L40.7682 39.1346C40.7682 39.2339 40.7486 39.3323 40.7104 39.424C40.6722 39.5157 40.6163 39.599 40.5458 39.6692C40.4753 39.7394 40.3916 39.7951 40.2995 39.833C40.2074 39.871 40.1088 39.8905 40.0091 39.8904Z" fill="black"/>
<path d="M22.975 37.0681C22.8079 37.068 22.6456 37.0129 22.5131 36.9115C22.3806 36.8101 22.2854 36.668 22.2422 36.5072C22.1989 36.3464 22.2102 36.1759 22.274 36.0221C22.3379 35.8682 22.4508 35.7396 22.5954 35.6563L43.2116 23.7933C43.386 23.6931 43.5932 23.666 43.7876 23.718C43.9821 23.77 44.1477 23.8968 44.2484 24.0705C44.349 24.2442 44.3762 24.4507 44.3242 24.6445C44.2721 24.8382 44.145 25.0035 43.9707 25.1039L23.3545 36.9669C23.2391 37.0332 23.1082 37.0681 22.975 37.0681Z" fill="black"/>
<path d="M44.2526 29.7089C44.1193 29.7092 43.9882 29.674 43.8731 29.6069L39.6325 27.163C39.5173 27.0967 39.4215 27.0015 39.3549 26.8867C39.2883 26.772 39.2531 26.6417 39.253 26.5091L39.25 21.6278C39.2499 21.5284 39.2695 21.43 39.3076 21.3381C39.3458 21.2463 39.4017 21.1628 39.4722 21.0925C39.5427 21.0221 39.6264 20.9663 39.7185 20.9283C39.8107 20.8902 39.9094 20.8706 40.0091 20.8705C40.1088 20.8705 40.2074 20.8899 40.2995 20.9279C40.3916 20.9658 40.4753 21.0215 40.5458 21.0917C40.6163 21.1619 40.6722 21.2453 40.7104 21.337C40.7486 21.4287 40.7682 21.527 40.7682 21.6263L40.7712 26.0717L44.6322 28.2978C44.7768 28.381 44.8899 28.5096 44.9538 28.6634C45.0176 28.8172 45.0289 28.9876 44.9856 29.1484C44.9424 29.3092 44.847 29.4513 44.7145 29.5526C44.582 29.654 44.4197 29.7089 44.2526 29.7089Z" fill="black"/>
<path d="M26.5571 39.8903C26.4575 39.8904 26.3588 39.8709 26.2667 39.833C26.1746 39.7951 26.0909 39.7394 26.0204 39.6692C25.9499 39.599 25.894 39.5157 25.8558 39.424C25.8177 39.3322 25.798 39.2339 25.798 39.1345L25.7949 34.6892L21.934 32.4631C21.8477 32.4135 21.7721 32.3473 21.7115 32.2685C21.6508 32.1898 21.6064 32.0998 21.5806 32.0039C21.5548 31.9079 21.5481 31.8079 21.5612 31.7095C21.5742 31.611 21.6066 31.5161 21.6564 31.4301C21.7063 31.3441 21.7727 31.2688 21.8518 31.2084C21.9309 31.1479 22.0211 31.1036 22.1173 31.078C22.2136 31.0523 22.3142 31.0458 22.4129 31.0588C22.5117 31.0719 22.6069 31.1042 22.6932 31.154L26.9335 33.5979C27.0488 33.6641 27.1445 33.7594 27.2112 33.8742C27.2778 33.9889 27.313 34.1192 27.3131 34.2518L27.3163 39.1331C27.3163 39.2325 27.2967 39.3309 27.2586 39.4228C27.2205 39.5146 27.1645 39.5981 27.094 39.6684C27.0235 39.7388 26.9399 39.7946 26.8477 39.8326C26.7556 39.8707 26.6569 39.8903 26.5571 39.8903Z" fill="black"/>
<path d="M40.009 22.3836C39.9093 22.3837 39.8105 22.3642 39.7184 22.3262C39.6263 22.2882 39.5426 22.2324 39.4721 22.1622C39.4016 22.0919 39.3456 22.0085 39.3075 21.9167C39.2694 21.8249 39.2498 21.7264 39.2499 21.6271V1.51308H14.3918V13.5866C14.3918 13.7873 14.3117 13.9798 14.1694 14.1216C14.027 14.2635 13.834 14.3432 13.6327 14.3432C13.4313 14.3432 13.2383 14.2635 13.0959 14.1216C12.9536 13.9798 12.8735 13.7873 12.8735 13.5866V0.756538C12.8735 0.657171 12.893 0.558739 12.9312 0.466926C12.9693 0.375112 13.0252 0.29172 13.0957 0.221457C13.1662 0.151195 13.2499 0.0954414 13.3421 0.0574423C13.4342 0.0194432 13.5329 -5.7555e-05 13.6327 1.27593e-07H40.009C40.1087 -5.7555e-05 40.2074 0.0194432 40.2996 0.0574423C40.3917 0.0954414 40.4754 0.151195 40.5459 0.221457C40.6164 0.29172 40.6723 0.375112 40.7105 0.466926C40.7486 0.558739 40.7681 0.657171 40.7681 0.756538V21.6271C40.7681 21.7264 40.7486 21.8249 40.7105 21.9167C40.6723 22.0085 40.6164 22.0919 40.5459 22.1622C40.4754 22.2324 40.3917 22.2882 40.2996 22.3262C40.2074 22.3642 40.1087 22.3837 40.009 22.3836Z" fill="black"/>
<path d="M25.5073 15.8023C25.4072 15.8025 25.308 15.7828 25.2156 15.7443C25.1232 15.7059 25.0394 15.6495 24.9691 15.5785L20.5612 11.1523C20.4194 11.01 20.3401 10.8175 20.3408 10.617C20.3415 10.4165 20.4221 10.2245 20.5649 10.0832C20.7076 9.94196 20.9008 9.86294 21.102 9.86363C21.3032 9.86432 21.4958 9.94468 21.6376 10.0869L25.4421 13.9058L31.945 5.6674C32.0065 5.58921 32.0829 5.52393 32.1698 5.47521C32.2567 5.4265 32.3525 5.39533 32.4515 5.38351C32.5505 5.37169 32.6509 5.37944 32.7469 5.40632C32.8429 5.4332 32.9326 5.47866 33.011 5.54014C33.0893 5.60161 33.1548 5.67785 33.2035 5.76455C33.2523 5.85125 33.2834 5.94669 33.2951 6.04539C33.3068 6.14408 33.2989 6.24408 33.2717 6.33971C33.2446 6.43534 33.1988 6.52474 33.137 6.60272L26.1033 15.5135C26.037 15.5979 25.9533 15.6672 25.8579 15.7167C25.7626 15.7663 25.6577 15.795 25.5503 15.8009L25.5073 15.8023Z" fill="black"/>
</g>
<defs>
<clipPath id="clip0_61_1297">
<rect width="45" height="43" fill="white" transform="translate(0.0117188)"/>
</clipPath>
</defs>
</svg>
