<svg width="456" height="129" viewBox="0 0 456 129" fill="none" xmlns="http://www.w3.org/2000/svg">
<path d="M15.7776 10.6434C16.8275 10.6435 17.8538 10.3314 18.7268 9.74662C19.5998 9.16188 20.2803 8.33079 20.6821 7.35837C21.0839 6.38595 21.1889 5.31584 20.9841 4.28352C20.7793 3.25119 20.2738 2.30295 19.5315 1.55868C18.7891 0.814411 17.8431 0.307621 16.8134 0.102273C15.7837 -0.103076 14.7165 0.00227763 13.7465 0.405067C12.7765 0.807856 11.9473 1.49001 11.364 2.36517C10.7807 3.24033 10.4695 4.26915 10.4695 5.3217C10.4695 6.73309 11.0287 8.0867 12.0242 9.08471C13.0197 10.0827 14.3698 10.6434 15.7776 10.6434ZM31.1513 30.1653L24.5279 15.8006L24.5159 15.7772L24.4285 15.6068C24.3693 15.5056 24.3034 15.4085 24.2312 15.3163C23.6835 14.5031 22.9456 13.8367 22.0817 13.3755C21.2179 12.9143 20.2545 12.6722 19.2758 12.6704H12.2792C11.3679 12.6722 10.4691 12.8828 9.65142 13.2862C8.83372 13.6896 8.11881 14.2751 7.56133 14.9979C7.37118 15.1757 7.20848 15.381 7.07849 15.6068L0.35566 30.1653C0.181292 30.468 0.0682028 30.8021 0.0227035 31.1487C-0.0227959 31.4953 0.000231979 31.8475 0.0905317 32.1851C0.180831 32.5227 0.3367 32.8393 0.549042 33.1165C0.761385 33.3938 1.0261 33.6263 1.32814 33.801C1.63018 33.9756 1.96356 34.0889 2.30928 34.1344C2.655 34.1798 3.00625 34.1565 3.34299 34.0658C3.67973 33.9751 3.9953 33.8188 4.27176 33.6058C4.54822 33.3927 4.7801 33.1273 4.95417 32.8244L9.69493 22.1345V54.9172C9.69493 55.6229 9.9746 56.2997 10.4724 56.7987C10.9701 57.2978 11.6453 57.5781 12.3493 57.5781C13.0533 57.5781 13.7282 57.2978 14.226 56.7987C14.7238 56.2997 15.0035 55.6229 15.0035 54.9172V38.1393H16.5518V54.9172C16.5518 55.6229 16.8312 56.2997 17.329 56.7987C17.8268 57.2978 18.502 57.5781 19.2059 57.5781C19.9099 57.5781 20.5851 57.2978 21.0829 56.7987C21.5806 56.2997 21.8603 55.6229 21.8603 54.9172V22.2287L26.5528 32.8244C26.7269 33.1273 26.9588 33.3927 27.2352 33.6058C27.5117 33.8188 27.8273 33.9751 28.164 34.0658C28.5007 34.1565 28.852 34.1798 29.1977 34.1344C29.5434 34.0889 29.8768 33.9756 30.1788 33.801C30.4809 33.6263 30.7456 33.3938 30.9579 33.1165C31.1703 32.8393 31.3262 32.5227 31.4165 32.1851C31.5068 31.8475 31.5298 31.4953 31.4843 31.1487C31.4388 30.8021 31.3257 30.468 31.1513 30.1653Z" fill="#569FD6"/>
<path d="M62.7561 10.6434C63.806 10.6435 64.8326 10.3314 65.7055 9.74662C66.5785 9.16187 67.2588 8.33079 67.6606 7.35837C68.0624 6.38595 68.1674 5.31584 67.9626 4.28352C67.7578 3.25119 67.2524 2.30295 66.51 1.55868C65.7676 0.814411 64.8216 0.307621 63.7919 0.102273C62.7622 -0.103076 61.695 0.00227763 60.725 0.405067C59.755 0.807855 58.9258 1.49001 58.3426 2.36517C57.7593 3.24033 57.448 4.26915 57.448 5.3217C57.448 6.73309 58.0072 8.0867 59.0027 9.08471C59.9982 10.0827 61.3483 10.6434 62.7561 10.6434ZM78.1298 30.1653L71.5064 15.8006L71.4944 15.7772L71.407 15.6068C71.3478 15.5056 71.2819 15.4085 71.2097 15.3163C70.662 14.5031 69.9241 13.8367 69.0602 13.3755C68.1964 12.9143 67.2331 12.6722 66.2543 12.6704H59.2579C58.3466 12.6722 57.4476 12.8829 56.6299 13.2863C55.8122 13.6897 55.0973 14.2751 54.5398 14.9979C54.3497 15.1757 54.187 15.381 54.057 15.6068L47.3344 30.1653C47.16 30.468 47.0467 30.8021 47.0012 31.1487C46.9557 31.4952 46.9787 31.8475 47.069 32.1851C47.1593 32.5227 47.3152 32.8393 47.5276 33.1165C47.7399 33.3938 48.0046 33.6263 48.3067 33.801C48.6087 33.9756 48.9421 34.0889 49.2878 34.1343C49.6335 34.1798 49.9848 34.1565 50.3215 34.0658C50.6582 33.9751 50.9738 33.8188 51.2503 33.6058C51.5267 33.3927 51.7586 33.1273 51.9327 32.8244L56.6734 22.1345V54.9172C56.6734 55.2666 56.7421 55.6127 56.8755 55.9355C57.0089 56.2584 57.2044 56.5516 57.4509 56.7987C57.6974 57.0458 57.99 57.2419 58.312 57.3756C58.6341 57.5093 58.979 57.5781 59.3276 57.5781C59.6762 57.5781 60.0213 57.5093 60.3434 57.3756C60.6654 57.2419 60.9581 57.0458 61.2045 56.7987C61.451 56.5516 61.6465 56.2584 61.7799 55.9355C61.9133 55.6127 61.982 55.2666 61.982 54.9172V38.1393H63.5301V54.9172C63.5292 55.2672 63.5973 55.614 63.7303 55.9376C63.8633 56.2612 64.0587 56.5554 64.3053 56.8032C64.5518 57.051 64.8445 57.2475 65.167 57.3817C65.4895 57.5158 65.8353 57.5849 66.1844 57.5849C66.5336 57.5849 66.8792 57.5158 67.2017 57.3817C67.5241 57.2475 67.8171 57.051 68.0636 56.8032C68.3102 56.5554 68.5056 56.2612 68.6386 55.9376C68.7716 55.614 68.8395 55.2672 68.8386 54.9172V22.2287L73.5313 32.8244C73.7054 33.1273 73.9373 33.3927 74.2137 33.6058C74.4902 33.8188 74.8058 33.9751 75.1425 34.0658C75.4792 34.1565 75.8305 34.1798 76.1762 34.1343C76.5219 34.0889 76.8553 33.9756 77.1574 33.801C77.4594 33.6263 77.7241 33.3938 77.9365 33.1165C78.1488 32.8393 78.3047 32.5227 78.395 32.1851C78.4853 31.8475 78.5083 31.4952 78.4628 31.1487C78.4173 30.8021 78.3042 30.468 78.1298 30.1653Z" fill="#569FD6"/>
<path d="M109.734 10.6434C110.784 10.6435 111.811 10.3314 112.684 9.74662C113.557 9.16188 114.237 8.33079 114.639 7.35837C115.04 6.38595 115.145 5.31584 114.941 4.28352C114.736 3.25119 114.23 2.30295 113.488 1.55868C112.746 0.814411 111.8 0.307621 110.77 0.102273C109.74 -0.103076 108.673 0.00227763 107.703 0.405067C106.733 0.807856 105.904 1.49001 105.321 2.36517C104.737 3.24033 104.426 4.26915 104.426 5.3217C104.426 6.73309 104.985 8.0867 105.981 9.08471C106.976 10.0827 108.327 10.6434 109.734 10.6434ZM125.108 30.1653L118.484 15.8006L118.472 15.7772L118.385 15.6068C118.326 15.5056 118.26 15.4085 118.188 15.3163C117.64 14.5031 116.902 13.8367 116.038 13.3755C115.174 12.9143 114.211 12.6722 113.232 12.6704H106.236C105.325 12.6722 104.426 12.8829 103.608 13.2863C102.79 13.6897 102.075 14.2751 101.518 14.9979C101.328 15.1758 101.165 15.381 101.035 15.6068L94.3124 30.1653C94.138 30.468 94.0247 30.8021 93.9792 31.1487C93.9337 31.4953 93.9568 31.8475 94.0471 32.1851C94.1374 32.5227 94.2932 32.8393 94.5056 33.1165C94.7179 33.3938 94.9826 33.6263 95.2847 33.801C95.5867 33.9756 95.9201 34.0889 96.2658 34.1344C96.6115 34.1798 96.9628 34.1565 97.2995 34.0658C97.6363 33.9751 97.9518 33.8188 98.2283 33.6058C98.5048 33.3927 98.7366 33.1273 98.9107 32.8244L103.651 22.1345V54.9172C103.651 55.6229 103.931 56.2997 104.429 56.7987C104.927 57.2978 105.602 57.5781 106.306 57.5781C107.01 57.5781 107.685 57.2978 108.183 56.7987C108.68 56.2997 108.96 55.6229 108.96 54.9172V38.1393H110.508V54.9172C110.508 55.6229 110.788 56.2997 111.286 56.7987C111.783 57.2978 112.459 57.5781 113.162 57.5781C113.866 57.5781 114.542 57.2978 115.039 56.7987C115.537 56.2997 115.817 55.6229 115.817 54.9172V22.2287L120.509 32.8244C120.683 33.1273 120.915 33.3927 121.192 33.6058C121.468 33.8188 121.784 33.9751 122.121 34.0658C122.457 34.1565 122.809 34.1798 123.154 34.1344C123.5 34.0889 123.833 33.9756 124.135 33.801C124.437 33.6263 124.702 33.3938 124.914 33.1165C125.127 32.8393 125.283 32.5227 125.373 32.1851C125.463 31.8475 125.486 31.4953 125.441 31.1487C125.395 30.8021 125.282 30.468 125.108 30.1653Z" fill="#569FD6"/>
<path d="M156.712 10.6434C157.762 10.6435 158.789 10.3314 159.662 9.74662C160.535 9.16187 161.215 8.33079 161.617 7.35837C162.018 6.38595 162.124 5.31584 161.919 4.28352C161.714 3.25119 161.208 2.30295 160.466 1.55868C159.724 0.814411 158.778 0.307621 157.748 0.102273C156.718 -0.103076 155.651 0.00227763 154.681 0.405067C153.711 0.807855 152.882 1.49001 152.299 2.36517C151.716 3.24033 151.404 4.26915 151.404 5.3217C151.404 6.73309 151.963 8.0867 152.959 9.08471C153.954 10.0827 155.305 10.6434 156.712 10.6434ZM172.086 30.1653L165.462 15.8006L165.45 15.7772L165.363 15.6068C165.304 15.5056 165.238 15.4086 165.166 15.3163C164.618 14.5031 163.88 13.8367 163.016 13.3755C162.152 12.9143 161.189 12.6722 160.21 12.6704H153.214C152.302 12.6722 151.404 12.8829 150.586 13.2863C149.768 13.6897 149.053 14.2751 148.496 14.9979C148.306 15.1757 148.143 15.381 148.013 15.6068L141.29 30.1653C141.116 30.468 141.003 30.8021 140.957 31.1487C140.912 31.4952 140.935 31.8475 141.025 32.1851C141.115 32.5227 141.271 32.8393 141.484 33.1165C141.696 33.3938 141.961 33.6263 142.263 33.801C142.565 33.9756 142.898 34.0889 143.244 34.1343C143.59 34.1798 143.941 34.1565 144.278 34.0658C144.614 33.9751 144.93 33.8188 145.206 33.6058C145.483 33.3927 145.715 33.1273 145.889 32.8244L150.629 22.1345V54.9172C150.629 55.2672 150.697 55.614 150.83 55.9376C150.963 56.2612 151.158 56.5554 151.405 56.8032C151.651 57.051 151.944 57.2475 152.267 57.3817C152.589 57.5158 152.935 57.5849 153.284 57.5849C153.633 57.5849 153.979 57.5158 154.301 57.3817C154.624 57.2475 154.917 57.051 155.163 56.8032C155.41 56.5554 155.605 56.2612 155.738 55.9376C155.871 55.614 155.939 55.2672 155.938 54.9172V38.1393H157.486V54.9172C157.486 55.6229 157.766 56.2997 158.264 56.7987C158.762 57.2978 159.437 57.5781 160.14 57.5781C160.844 57.5781 161.52 57.2978 162.017 56.7987C162.515 56.2997 162.795 55.6229 162.795 54.9172V22.2287L167.487 32.8244C167.661 33.1273 167.893 33.3927 168.17 33.6058C168.446 33.8188 168.762 33.9751 169.099 34.0658C169.435 34.1565 169.787 34.1798 170.132 34.1343C170.478 34.0889 170.811 33.9756 171.113 33.801C171.415 33.6263 171.68 33.3938 171.893 33.1165C172.105 32.8393 172.261 32.5227 172.351 32.1851C172.441 31.8475 172.464 31.4952 172.419 31.1487C172.373 30.8021 172.26 30.468 172.086 30.1653Z" fill="#569FD6"/>
<path d="M203.691 10.6434C204.741 10.6435 205.767 10.3314 206.64 9.74662C207.513 9.16188 208.193 8.33079 208.595 7.35837C208.997 6.38595 209.102 5.31584 208.897 4.28352C208.693 3.25119 208.187 2.30295 207.445 1.55868C206.702 0.814411 205.756 0.307621 204.727 0.102273C203.697 -0.103076 202.63 0.00227763 201.66 0.405067C200.69 0.807856 199.861 1.49001 199.277 2.36517C198.694 3.24033 198.383 4.26915 198.383 5.3217C198.383 6.73309 198.942 8.0867 199.937 9.08471C200.933 10.0827 202.283 10.6434 203.691 10.6434ZM219.064 30.1653L212.441 15.8006L212.429 15.7772L212.342 15.6068C212.282 15.5056 212.217 15.4085 212.144 15.3163C211.597 14.5031 210.859 13.8367 209.995 13.3755C209.131 12.9143 208.168 12.6722 207.189 12.6704H200.192C199.281 12.6722 198.382 12.8828 197.565 13.2862C196.747 13.6896 196.032 14.2751 195.474 14.9979C195.284 15.1757 195.122 15.3809 194.992 15.6068L188.269 30.1653C188.095 30.468 187.981 30.8021 187.936 31.1487C187.89 31.4953 187.913 31.8475 188.004 32.1851C188.094 32.5227 188.25 32.8393 188.462 33.1165C188.674 33.3938 188.939 33.6263 189.241 33.801C189.543 33.9756 189.877 34.0889 190.222 34.1344C190.568 34.1798 190.919 34.1565 191.256 34.0658C191.593 33.9751 191.908 33.8188 192.185 33.6058C192.461 33.3927 192.693 33.1273 192.867 32.8244L197.608 22.1345V54.9172C197.608 55.6229 197.888 56.2997 198.385 56.7987C198.883 57.2978 199.558 57.5781 200.262 57.5781C200.966 57.5781 201.642 57.2978 202.139 56.7987C202.637 56.2997 202.917 55.6229 202.917 54.9172V38.1393H204.465V54.9172C204.465 55.6229 204.745 56.2997 205.242 56.7987C205.74 57.2978 206.415 57.5781 207.119 57.5781C207.823 57.5781 208.498 57.2978 208.996 56.7987C209.494 56.2997 209.773 55.6229 209.773 54.9172V22.2287L214.466 32.8244C214.64 33.1273 214.872 33.3927 215.148 33.6058C215.425 33.8188 215.74 33.9751 216.077 34.0658C216.414 34.1565 216.765 34.1798 217.111 34.1344C217.457 34.0889 217.79 33.9756 218.092 33.801C218.394 33.6263 218.659 33.3938 218.871 33.1165C219.084 32.8393 219.239 32.5227 219.33 32.1851C219.42 31.8475 219.443 31.4953 219.397 31.1487C219.352 30.8021 219.239 30.468 219.064 30.1653Z" fill="#569FD6"/>
<path d="M250.669 10.6434C251.719 10.6435 252.745 10.3314 253.618 9.74662C254.491 9.16188 255.171 8.33079 255.573 7.35837C255.975 6.38595 256.08 5.31584 255.875 4.28352C255.671 3.25119 255.165 2.30295 254.423 1.55868C253.68 0.814411 252.734 0.307621 251.705 0.102273C250.675 -0.103076 249.608 0.00227763 248.638 0.405067C247.668 0.807856 246.839 1.49001 246.255 2.36517C245.672 3.24033 245.361 4.26915 245.361 5.3217C245.361 6.73309 245.92 8.0867 246.915 9.08471C247.911 10.0827 249.261 10.6434 250.669 10.6434ZM266.042 30.1653L259.419 15.8006L259.407 15.7772L259.32 15.6068C259.26 15.5056 259.195 15.4085 259.123 15.3163C258.575 14.5031 257.837 13.8367 256.973 13.3755C256.109 12.9143 255.146 12.6722 254.167 12.6704H247.171C246.259 12.6722 245.36 12.8828 244.543 13.2862C243.725 13.6896 243.01 14.2751 242.452 14.9979C242.262 15.1757 242.1 15.381 241.97 15.6068L235.247 30.1653C235.073 30.468 234.959 30.8021 234.914 31.1487C234.868 31.4953 234.891 31.8475 234.982 32.1851C235.072 32.5227 235.228 32.8393 235.44 33.1165C235.652 33.3938 235.917 33.6263 236.219 33.801C236.521 33.9756 236.855 34.0889 237.2 34.1344C237.546 34.1798 237.897 34.1565 238.234 34.0658C238.571 33.9751 238.887 33.8188 239.163 33.6058C239.44 33.3927 239.671 33.1273 239.845 32.8244L244.586 22.1345V54.9172C244.586 55.6229 244.866 56.2997 245.363 56.7987C245.861 57.2978 246.536 57.5781 247.24 57.5781C247.944 57.5781 248.62 57.2978 249.117 56.7987C249.615 56.2997 249.895 55.6229 249.895 54.9172V38.1393H251.443V54.9172C251.443 55.6229 251.723 56.2997 252.22 56.7987C252.718 57.2978 253.393 57.5781 254.097 57.5781C254.801 57.5781 255.476 57.2978 255.974 56.7987C256.472 56.2997 256.751 55.6229 256.751 54.9172V22.2287L261.444 32.8244C261.618 33.128 261.849 33.3941 262.126 33.6078C262.402 33.8215 262.718 33.9784 263.055 34.0696C263.392 34.1607 263.744 34.1842 264.09 34.1389C264.436 34.0936 264.77 33.9803 265.073 33.8054C265.375 33.6305 265.64 33.3975 265.853 33.1198C266.065 32.8421 266.221 32.5252 266.311 32.1871C266.401 31.8489 266.423 31.4962 266.377 31.1493C266.331 30.8024 266.218 30.468 266.042 30.1653Z" fill="#569FD6"/>
<path d="M297.647 10.6434C298.697 10.6435 299.723 10.3314 300.596 9.74662C301.469 9.16187 302.149 8.33079 302.551 7.35837C302.953 6.38595 303.058 5.31584 302.853 4.28352C302.649 3.25119 302.143 2.30295 301.401 1.55868C300.658 0.814411 299.712 0.307621 298.683 0.102273C297.653 -0.103076 296.586 0.00227763 295.616 0.405067C294.646 0.807855 293.817 1.49001 293.233 2.36517C292.65 3.24033 292.339 4.26915 292.339 5.3217C292.339 6.73309 292.898 8.0867 293.893 9.08471C294.889 10.0827 296.239 10.6434 297.647 10.6434ZM313.02 30.1653L306.397 15.8006L306.385 15.7772L306.298 15.6068C306.238 15.5056 306.173 15.4085 306.1 15.3163C305.553 14.5031 304.815 13.8367 303.951 13.3755C303.087 12.9143 302.124 12.6722 301.145 12.6704H294.148C293.237 12.6722 292.338 12.8829 291.521 13.2863C290.703 13.6897 289.988 14.2751 289.43 14.9979C289.24 15.1757 289.078 15.381 288.948 15.6068L282.225 30.1653C282.051 30.468 281.937 30.8021 281.892 31.1487C281.846 31.4952 281.87 31.8475 281.96 32.1851C282.05 32.5227 282.206 32.8393 282.418 33.1165C282.63 33.3938 282.895 33.6263 283.197 33.801C283.499 33.9756 283.833 34.0889 284.178 34.1343C284.524 34.1798 284.875 34.1565 285.212 34.0658C285.549 33.9751 285.865 33.8188 286.141 33.6058C286.418 33.3927 286.649 33.1273 286.823 32.8244L291.564 22.1345V54.9172C291.564 55.6229 291.844 56.2997 292.341 56.7987C292.839 57.2978 293.514 57.5781 294.218 57.5781C294.922 57.5781 295.598 57.2978 296.095 56.7987C296.593 56.2997 296.873 55.6229 296.873 54.9172V38.1393H298.421V54.9172C298.42 55.2672 298.488 55.614 298.621 55.9376C298.754 56.2612 298.949 56.5554 299.196 56.8032C299.442 57.051 299.735 57.2475 300.058 57.3817C300.38 57.5158 300.726 57.5849 301.075 57.5849C301.424 57.5849 301.77 57.5158 302.092 57.3817C302.415 57.2475 302.708 57.051 302.954 56.8032C303.201 56.5554 303.396 56.2612 303.529 55.9376C303.662 55.614 303.73 55.2672 303.729 54.9172V22.2287L308.422 32.8244C308.596 33.1273 308.828 33.3927 309.104 33.6058C309.381 33.8188 309.697 33.9751 310.033 34.0658C310.37 34.1565 310.721 34.1798 311.067 34.1343C311.413 34.0889 311.746 33.9756 312.048 33.801C312.35 33.6263 312.615 33.3938 312.827 33.1165C313.04 32.8393 313.195 32.5227 313.286 32.1851C313.376 31.8475 313.399 31.4952 313.354 31.1487C313.308 30.8021 313.195 30.468 313.02 30.1653Z" fill="#569FD6"/>
<path d="M344.625 10.6434C345.675 10.6435 346.702 10.3314 347.575 9.74662C348.448 9.16188 349.128 8.33079 349.53 7.35837C349.931 6.38595 350.037 5.31584 349.832 4.28352C349.627 3.25119 349.121 2.30295 348.379 1.55868C347.637 0.814411 346.691 0.307621 345.661 0.102273C344.631 -0.103076 343.564 0.00227763 342.594 0.405067C341.624 0.807856 340.795 1.49001 340.212 2.36517C339.629 3.24033 339.317 4.26915 339.317 5.3217C339.317 6.73309 339.877 8.0867 340.872 9.08471C341.867 10.0827 343.218 10.6434 344.625 10.6434ZM359.999 30.1653L353.375 15.8006L353.364 15.7772L353.276 15.6068C353.217 15.5056 353.151 15.4085 353.079 15.3163C352.531 14.5031 351.793 13.8367 350.929 13.3755C350.065 12.9143 349.102 12.6722 348.123 12.6704H341.127C340.216 12.6722 339.317 12.8829 338.499 13.2863C337.681 13.6897 336.966 14.2751 336.409 14.9979C336.219 15.1758 336.056 15.381 335.926 15.6068L329.203 30.1653C329.029 30.468 328.916 30.8021 328.87 31.1487C328.825 31.4953 328.848 31.8475 328.938 32.1851C329.029 32.5227 329.184 32.8393 329.397 33.1165C329.609 33.3938 329.874 33.6263 330.176 33.801C330.478 33.9756 330.811 34.0889 331.157 34.1344C331.503 34.1798 331.854 34.1565 332.191 34.0658C332.528 33.9751 332.843 33.8188 333.12 33.6058C333.396 33.3927 333.628 33.1273 333.802 32.8244L338.543 22.1345V54.9172C338.543 55.6229 338.822 56.2997 339.32 56.7987C339.818 57.2978 340.493 57.5781 341.197 57.5781C341.901 57.5781 342.576 57.2978 343.074 56.7987C343.571 56.2997 343.851 55.6229 343.851 54.9172V38.1393H345.399V54.9172C345.399 55.6229 345.679 56.2997 346.177 56.7987C346.675 57.2978 347.35 57.5781 348.054 57.5781C348.757 57.5781 349.433 57.2978 349.93 56.7987C350.428 56.2997 350.708 55.6229 350.708 54.9172V22.2287L355.4 32.8244C355.574 33.1273 355.806 33.3927 356.083 33.6058C356.359 33.8188 356.675 33.9751 357.012 34.0658C357.348 34.1565 357.7 34.1798 358.045 34.1344C358.391 34.0889 358.724 33.9756 359.026 33.801C359.328 33.6263 359.593 33.3938 359.806 33.1165C360.018 32.8393 360.174 32.5227 360.264 32.1851C360.354 31.8475 360.377 31.4953 360.332 31.1487C360.286 30.8021 360.173 30.468 359.999 30.1653Z" fill="#569FD6"/>
<path d="M391.781 10.6434C392.831 10.6435 393.857 10.3314 394.73 9.74662C395.603 9.16188 396.283 8.33079 396.685 7.35837C397.087 6.38595 397.192 5.31584 396.987 4.28352C396.782 3.25119 396.277 2.30295 395.534 1.55868C394.792 0.814411 393.846 0.307621 392.816 0.102273C391.787 -0.103076 390.719 0.00227763 389.749 0.405067C388.779 0.807856 387.95 1.49001 387.367 2.36517C386.784 3.24033 386.472 4.26915 386.472 5.3217C386.472 6.73309 387.032 8.0867 388.027 9.08471C389.023 10.0827 390.373 10.6434 391.781 10.6434ZM407.154 30.1653L400.531 15.8006L400.519 15.7772L400.432 15.6068C400.372 15.5056 400.306 15.4085 400.234 15.3163C399.687 14.5031 398.948 13.8367 398.085 13.3755C397.221 12.9143 396.257 12.6722 395.279 12.6704H388.282C387.371 12.6722 386.472 12.8829 385.654 13.2863C384.837 13.6897 384.122 14.2751 383.564 14.9979C383.374 15.1758 383.211 15.381 383.081 15.6068L376.359 30.1653C376.184 30.468 376.071 30.8021 376.026 31.1487C375.98 31.4953 376.003 31.8475 376.094 32.1851C376.184 32.5227 376.34 32.8393 376.552 33.1165C376.764 33.3938 377.029 33.6263 377.331 33.801C377.633 33.9756 377.966 34.0889 378.312 34.1344C378.658 34.1798 379.009 34.1565 379.346 34.0658C379.683 33.9751 379.998 33.8188 380.275 33.6058C380.551 33.3927 380.783 33.1273 380.957 32.8244L385.698 22.1345V54.9172C385.698 55.6229 385.977 56.2997 386.475 56.7987C386.973 57.2978 387.648 57.5781 388.352 57.5781C389.056 57.5781 389.731 57.2978 390.229 56.7987C390.727 56.2997 391.006 55.6229 391.006 54.9172V38.1393H392.555V54.9172C392.555 55.6229 392.834 56.2997 393.332 56.7987C393.83 57.2978 394.505 57.5781 395.209 57.5781C395.913 57.5781 396.588 57.2978 397.086 56.7987C397.583 56.2997 397.863 55.6229 397.863 54.9172V22.2287L402.556 32.8244C402.73 33.1273 402.962 33.3927 403.238 33.6058C403.515 33.8188 403.83 33.9751 404.167 34.0658C404.504 34.1565 404.855 34.1798 405.201 34.1344C405.546 34.0889 405.88 33.9756 406.182 33.801C406.484 33.6263 406.749 33.3938 406.961 33.1165C407.173 32.8393 407.329 32.5227 407.419 32.1851C407.51 31.8475 407.533 31.4953 407.487 31.1487C407.442 30.8021 407.329 30.468 407.154 30.1653Z" fill="#569FD6"/>
<path d="M438.781 10.6434C439.831 10.6435 440.857 10.3314 441.73 9.74662C442.603 9.16188 443.283 8.33079 443.685 7.35837C444.087 6.38595 444.192 5.31584 443.987 4.28352C443.782 3.25119 443.277 2.30295 442.534 1.55868C441.792 0.814411 440.846 0.307621 439.816 0.102273C438.787 -0.103076 437.719 0.00227763 436.749 0.405067C435.779 0.807856 434.95 1.49001 434.367 2.36517C433.784 3.24033 433.472 4.26915 433.472 5.3217C433.472 6.73309 434.032 8.0867 435.027 9.08471C436.023 10.0827 437.373 10.6434 438.781 10.6434ZM454.154 30.1653L447.531 15.8006L447.519 15.7772L447.432 15.6068C447.372 15.5056 447.306 15.4085 447.234 15.3163C446.687 14.5031 445.948 13.8367 445.085 13.3755C444.221 12.9143 443.257 12.6722 442.279 12.6704H435.282C434.371 12.6722 433.472 12.8829 432.654 13.2863C431.837 13.6897 431.122 14.2751 430.564 14.9979C430.374 15.1758 430.211 15.381 430.081 15.6068L423.359 30.1653C423.184 30.468 423.071 30.8021 423.026 31.1487C422.98 31.4953 423.003 31.8475 423.094 32.1851C423.184 32.5227 423.34 32.8393 423.552 33.1165C423.764 33.3938 424.029 33.6263 424.331 33.801C424.633 33.9756 424.966 34.0889 425.312 34.1344C425.658 34.1798 426.009 34.1565 426.346 34.0658C426.683 33.9751 426.998 33.8188 427.275 33.6058C427.551 33.3927 427.783 33.1273 427.957 32.8244L432.698 22.1345V54.9172C432.698 55.6229 432.977 56.2997 433.475 56.7987C433.973 57.2978 434.648 57.5781 435.352 57.5781C436.056 57.5781 436.731 57.2978 437.229 56.7987C437.727 56.2997 438.006 55.6229 438.006 54.9172V38.1393H439.555V54.9172C439.555 55.6229 439.834 56.2997 440.332 56.7987C440.83 57.2978 441.505 57.5781 442.209 57.5781C442.913 57.5781 443.588 57.2978 444.086 56.7987C444.583 56.2997 444.863 55.6229 444.863 54.9172V22.2287L449.556 32.8244C449.73 33.1273 449.962 33.3927 450.238 33.6058C450.515 33.8188 450.83 33.9751 451.167 34.0658C451.504 34.1565 451.855 34.1798 452.201 34.1344C452.546 34.0889 452.88 33.9756 453.182 33.801C453.484 33.6263 453.749 33.3938 453.961 33.1165C454.173 32.8393 454.329 32.5227 454.419 32.1851C454.51 31.8475 454.533 31.4953 454.487 31.1487C454.442 30.8021 454.329 30.468 454.154 30.1653Z" fill="#569FD6"/>
<path d="M109.758 80.5423C110.819 80.5423 111.856 80.2269 112.738 79.636C113.621 79.0451 114.308 78.2052 114.714 77.2227C115.12 76.2401 115.226 75.1589 115.019 74.1158C114.812 73.0727 114.301 72.1145 113.551 71.3625C112.801 70.6105 111.845 70.0983 110.805 69.8908C109.764 69.6833 108.686 69.7898 107.706 70.1968C106.725 70.6038 105.888 71.2931 105.298 72.1774C104.709 73.0617 104.395 74.1014 104.395 75.1649C104.395 75.8711 104.533 76.5703 104.803 77.2228C105.072 77.8752 105.467 78.468 105.966 78.9674C106.464 79.4667 107.055 79.8628 107.706 80.133C108.357 80.4032 109.054 80.5424 109.758 80.5423Z" fill="#F47D39"/>
<path d="M126.823 100.284L118.601 85.7541L118.588 85.7297L118.5 85.5577C118.44 85.4555 118.373 85.3574 118.301 85.2641C117.747 84.4424 117.001 83.769 116.129 83.3029C115.256 82.8369 114.282 82.5922 113.293 82.5904H106.223C105.302 82.5923 104.394 82.8053 103.568 83.2129C102.742 83.6206 102.019 84.2121 101.456 84.9425C101.264 85.1223 101.1 85.3296 100.968 85.5577L92.6449 100.284C92.469 100.59 92.3547 100.928 92.3089 101.278C92.2631 101.628 92.2866 101.984 92.3779 102.325C92.4693 102.666 92.6267 102.985 92.8412 103.266C93.0557 103.546 93.323 103.78 93.6281 103.957C93.9332 104.133 94.2702 104.248 94.6194 104.294C94.9686 104.34 95.3234 104.316 95.6636 104.225C96.0038 104.133 96.3225 103.975 96.6019 103.76C96.8812 103.545 97.1155 103.277 97.2915 102.971L101.695 95.8947L98.2802 113.056C98.2237 113.283 98.2208 113.52 98.272 113.748C98.3232 113.976 98.4269 114.19 98.5749 114.37C98.7228 114.551 98.9109 114.695 99.1241 114.79C99.3373 114.884 99.5696 114.928 99.8026 114.917H103.612V125.311C103.613 126.023 103.897 126.705 104.4 127.208C104.902 127.711 105.584 127.993 106.294 127.993C107.004 127.993 107.685 127.711 108.188 127.208C108.691 126.705 108.974 126.023 108.976 125.311V114.917H110.54V125.311C110.542 126.023 110.825 126.705 111.328 127.208C111.831 127.711 112.512 127.993 113.222 127.993C113.932 127.993 114.614 127.711 115.116 127.208C115.619 126.705 115.903 126.023 115.904 125.311V114.917H119.665C119.898 114.928 120.13 114.885 120.344 114.79C120.557 114.695 120.745 114.551 120.893 114.37C121.041 114.19 121.144 113.976 121.195 113.748C121.247 113.52 121.244 113.283 121.187 113.056L117.773 95.8947L122.176 102.971C122.352 103.277 122.587 103.545 122.866 103.76C123.145 103.975 123.464 104.133 123.804 104.225C124.144 104.316 124.499 104.34 124.848 104.294C125.198 104.248 125.534 104.133 125.84 103.957C126.145 103.78 126.412 103.546 126.627 103.266C126.841 102.985 126.999 102.666 127.09 102.325C127.181 101.984 127.205 101.628 127.159 101.278C127.113 100.928 126.999 100.59 126.823 100.284Z" fill="#F47D39"/>
<path d="M156.734 80.5423C157.794 80.5423 158.831 80.2269 159.714 79.636C160.596 79.0451 161.283 78.2052 161.689 77.2227C162.095 76.2401 162.201 75.1589 161.994 74.1158C161.787 73.0727 161.276 72.1145 160.526 71.3625C159.776 70.6105 158.82 70.0983 157.78 69.8908C156.739 69.6833 155.661 69.7898 154.681 70.1968C153.701 70.6038 152.863 71.2931 152.274 72.1774C151.684 73.0617 151.37 74.1014 151.37 75.1649C151.37 75.8711 151.508 76.5703 151.778 77.2228C152.047 77.8752 152.443 78.468 152.941 78.9674C153.439 79.4667 154.03 79.8628 154.681 80.133C155.332 80.4032 156.029 80.5424 156.734 80.5423Z" fill="#F47D39"/>
<path d="M173.798 100.284L165.576 85.7541L165.563 85.7297L165.475 85.5577C165.415 85.4555 165.349 85.3574 165.276 85.2641C164.722 84.4424 163.977 83.769 163.104 83.3029C162.231 82.8369 161.257 82.5922 160.268 82.5904H153.199C152.278 82.5923 151.369 82.8053 150.543 83.2129C149.717 83.6206 148.994 84.2121 148.431 84.9425C148.239 85.1223 148.075 85.3296 147.943 85.5577L139.62 100.284C139.444 100.59 139.33 100.928 139.284 101.278C139.238 101.628 139.262 101.984 139.353 102.325C139.444 102.666 139.602 102.985 139.816 103.265C140.031 103.545 140.298 103.78 140.603 103.957C140.908 104.133 141.245 104.248 141.594 104.294C141.944 104.34 142.298 104.316 142.639 104.225C142.979 104.133 143.297 103.975 143.577 103.76C143.856 103.545 144.091 103.277 144.267 102.971L148.67 95.8947L145.255 113.056C145.199 113.283 145.196 113.52 145.247 113.748C145.298 113.976 145.402 114.19 145.55 114.37C145.698 114.551 145.886 114.695 146.099 114.79C146.312 114.884 146.545 114.928 146.778 114.917H150.587V125.311C150.587 126.024 150.869 126.708 151.372 127.212C151.875 127.717 152.557 128 153.269 128C153.98 128 154.662 127.717 155.165 127.212C155.668 126.708 155.951 126.024 155.951 125.311V114.917H157.515V125.311C157.515 126.024 157.798 126.708 158.301 127.212C158.804 127.717 159.486 128 160.197 128C160.909 128 161.591 127.717 162.094 127.212C162.597 126.708 162.879 126.024 162.879 125.311V114.917H166.64C166.873 114.928 167.106 114.885 167.319 114.79C167.532 114.695 167.72 114.551 167.868 114.37C168.016 114.19 168.119 113.976 168.171 113.748C168.222 113.52 168.219 113.283 168.162 113.056L164.748 95.8947L169.151 102.971C169.327 103.277 169.562 103.545 169.841 103.76C170.12 103.975 170.439 104.133 170.779 104.225C171.12 104.316 171.474 104.34 171.823 104.294C172.173 104.248 172.51 104.133 172.815 103.957C173.12 103.78 173.387 103.545 173.602 103.265C173.816 102.985 173.974 102.666 174.065 102.325C174.156 101.984 174.18 101.628 174.134 101.278C174.088 100.928 173.974 100.59 173.798 100.284Z" fill="#F47D39"/>
<path d="M203.708 80.5423C204.769 80.5423 205.806 80.2269 206.688 79.636C207.57 79.0451 208.258 78.2052 208.664 77.2227C209.07 76.2401 209.176 75.1589 208.969 74.1158C208.762 73.0727 208.251 72.1145 207.501 71.3625C206.751 70.6105 205.795 70.0983 204.755 69.8908C203.714 69.6833 202.636 69.7898 201.655 70.1968C200.675 70.6038 199.838 71.2931 199.248 72.1774C198.659 73.0617 198.344 74.1014 198.344 75.1649C198.344 75.8711 198.483 76.5703 198.753 77.2228C199.022 77.8752 199.417 78.468 199.915 78.9674C200.413 79.4667 201.005 79.8628 201.655 80.133C202.306 80.4032 203.004 80.5424 203.708 80.5423Z" fill="#F47D39"/>
<path d="M220.773 100.284L212.55 85.7541L212.538 85.7297L212.45 85.5577C212.39 85.4555 212.323 85.3574 212.25 85.2641C211.697 84.4424 210.951 83.769 210.078 83.3029C209.205 82.8369 208.232 82.5922 207.243 82.5904H200.173C199.252 82.5923 198.344 82.8053 197.518 83.2129C196.691 83.6206 195.969 84.2121 195.406 84.9425C195.214 85.1223 195.049 85.3296 194.918 85.5577L186.595 100.284C186.419 100.59 186.304 100.928 186.259 101.278C186.213 101.628 186.236 101.984 186.328 102.325C186.419 102.666 186.576 102.985 186.791 103.266C187.005 103.546 187.273 103.78 187.578 103.957C187.883 104.133 188.22 104.248 188.569 104.294C188.918 104.34 189.273 104.316 189.613 104.225C189.953 104.133 190.272 103.975 190.552 103.76C190.831 103.545 191.065 103.277 191.241 102.971L195.645 95.8947L192.23 113.056C192.173 113.283 192.171 113.52 192.222 113.748C192.273 113.976 192.376 114.19 192.524 114.37C192.672 114.551 192.86 114.695 193.074 114.79C193.287 114.884 193.519 114.928 193.752 114.917H197.561V125.311C197.563 126.023 197.847 126.705 198.349 127.208C198.852 127.711 199.533 127.993 200.244 127.993C200.954 127.993 201.635 127.711 202.138 127.208C202.64 126.705 202.924 126.023 202.926 125.311V114.917H204.49V125.311C204.492 126.023 204.775 126.705 205.278 127.208C205.781 127.711 206.462 127.993 207.172 127.993C207.882 127.993 208.563 127.711 209.066 127.208C209.569 126.705 209.852 126.023 209.854 125.311V114.917H213.615C213.848 114.928 214.08 114.885 214.293 114.79C214.507 114.695 214.695 114.551 214.843 114.37C214.99 114.19 215.094 113.976 215.145 113.748C215.196 113.52 215.194 113.283 215.137 113.056L211.722 95.8947L216.126 102.971C216.481 103.589 217.067 104.04 217.754 104.225C218.441 104.41 219.173 104.313 219.789 103.957C220.405 103.601 220.855 103.013 221.04 102.325C221.224 101.636 221.128 100.902 220.773 100.284Z" fill="#F47D39"/>
<path d="M250.683 80.5423C251.744 80.5423 252.781 80.2269 253.663 79.636C254.545 79.0451 255.232 78.2052 255.638 77.2227C256.044 76.2401 256.151 75.1589 255.944 74.1158C255.737 73.0727 255.226 72.1145 254.476 71.3625C253.726 70.6105 252.77 70.0983 251.729 69.8908C250.689 69.6833 249.61 69.7898 248.63 70.1968C247.65 70.6038 246.812 71.2931 246.223 72.1774C245.633 73.0617 245.319 74.1014 245.319 75.1649C245.319 75.8711 245.458 76.5703 245.727 77.2228C245.997 77.8752 246.392 78.468 246.89 78.9674C247.388 79.4667 247.979 79.8628 248.63 80.133C249.281 80.4032 249.978 80.5424 250.683 80.5423Z" fill="#F47D39"/>
<path d="M267.747 100.284L259.525 85.7541L259.512 85.7297L259.424 85.5577C259.364 85.4555 259.298 85.3574 259.225 85.2641C258.672 84.4424 257.926 83.769 257.053 83.3029C256.18 82.8369 255.206 82.5922 254.217 82.5904H247.148C246.227 82.5923 245.319 82.8053 244.492 83.2129C243.666 83.6206 242.943 84.2121 242.38 84.9425C242.188 85.1223 242.024 85.3296 241.892 85.5577L233.569 100.284C233.393 100.59 233.279 100.928 233.233 101.278C233.187 101.628 233.211 101.984 233.302 102.325C233.394 102.666 233.551 102.985 233.765 103.265C233.98 103.545 234.247 103.78 234.552 103.957C234.858 104.133 235.194 104.248 235.543 104.294C235.893 104.34 236.248 104.316 236.588 104.225C236.928 104.133 237.247 103.975 237.526 103.76C237.806 103.545 238.04 103.277 238.216 102.971L242.619 95.8947L239.205 113.056C239.148 113.283 239.145 113.52 239.196 113.748C239.247 113.976 239.351 114.19 239.499 114.37C239.647 114.551 239.835 114.695 240.048 114.79C240.262 114.884 240.494 114.928 240.727 114.917H244.536V125.311C244.536 126.024 244.819 126.708 245.322 127.212C245.825 127.717 246.507 128 247.218 128C247.93 128 248.612 127.717 249.115 127.212C249.618 126.708 249.9 126.024 249.9 125.311V114.917H251.465V125.311C251.465 126.024 251.747 126.708 252.25 127.212C252.753 127.717 253.435 128 254.147 128C254.858 128 255.54 127.717 256.043 127.212C256.546 126.708 256.829 126.024 256.829 125.311V114.917H260.589C260.822 114.928 261.055 114.885 261.268 114.79C261.481 114.695 261.669 114.551 261.817 114.37C261.965 114.19 262.069 113.976 262.12 113.748C262.171 113.52 262.168 113.283 262.112 113.056L258.697 95.8947L263.101 102.971C263.276 103.277 263.511 103.545 263.79 103.76C264.07 103.975 264.388 104.133 264.729 104.225C265.069 104.316 265.424 104.34 265.773 104.294C266.122 104.248 266.459 104.133 266.764 103.957C267.069 103.78 267.336 103.545 267.551 103.265C267.766 102.985 267.923 102.666 268.014 102.325C268.106 101.984 268.129 101.628 268.083 101.278C268.037 100.928 267.923 100.59 267.747 100.284Z" fill="#F47D39"/>
<path d="M297.657 80.5423C298.718 80.5423 299.755 80.2269 300.637 79.636C301.519 79.0451 302.207 78.2052 302.613 77.2227C303.019 76.2401 303.125 75.1589 302.918 74.1158C302.711 73.0727 302.2 72.1145 301.45 71.3625C300.7 70.6105 299.744 70.0983 298.704 69.8908C297.663 69.6833 296.585 69.7898 295.604 70.1968C294.624 70.6038 293.787 71.2931 293.197 72.1774C292.608 73.0617 292.293 74.1014 292.293 75.1649C292.293 75.8711 292.432 76.5703 292.702 77.2228C292.971 77.8752 293.366 78.468 293.864 78.9674C294.363 79.4667 294.954 79.8628 295.605 80.133C296.255 80.4032 296.953 80.5424 297.657 80.5423Z" fill="#F47D39"/>
<path d="M314.722 100.284L306.499 85.7541L306.487 85.7297L306.399 85.5577C306.339 85.4555 306.272 85.3574 306.2 85.2641C305.646 84.4424 304.9 83.769 304.027 83.3029C303.154 82.8369 302.181 82.5922 301.192 82.5904H294.122C293.201 82.5923 292.293 82.8053 291.467 83.2129C290.64 83.6206 289.918 84.2122 289.355 84.9425C289.163 85.1223 288.998 85.3296 288.867 85.5577L280.544 100.284C280.368 100.59 280.254 100.928 280.208 101.278C280.162 101.628 280.185 101.984 280.277 102.325C280.368 102.666 280.525 102.985 280.74 103.265C280.955 103.545 281.222 103.78 281.527 103.957C281.832 104.133 282.169 104.248 282.518 104.294C282.867 104.34 283.222 104.316 283.562 104.225C283.903 104.133 284.221 103.975 284.501 103.76C284.78 103.545 285.014 103.277 285.19 102.971L289.594 95.8947L286.179 113.056C286.122 113.283 286.12 113.52 286.171 113.748C286.222 113.976 286.326 114.19 286.474 114.37C286.622 114.551 286.81 114.695 287.023 114.79C287.236 114.884 287.469 114.928 287.702 114.917H291.511V125.311C291.512 126.023 291.796 126.705 292.299 127.208C292.801 127.711 293.482 127.993 294.193 127.993C294.903 127.993 295.584 127.711 296.087 127.208C296.59 126.705 296.873 126.023 296.875 125.311V114.917H298.439V125.311C298.441 126.023 298.724 126.705 299.227 127.208C299.73 127.711 300.411 127.993 301.121 127.993C301.831 127.993 302.512 127.711 303.015 127.208C303.518 126.705 303.801 126.023 303.803 125.311V114.917H307.564C307.797 114.928 308.029 114.885 308.243 114.79C308.456 114.695 308.644 114.551 308.792 114.37C308.94 114.19 309.043 113.976 309.094 113.748C309.146 113.52 309.143 113.283 309.086 113.056L305.671 95.8947L310.075 102.971C310.251 103.277 310.485 103.545 310.765 103.76C311.044 103.975 311.363 104.133 311.703 104.225C312.043 104.316 312.398 104.34 312.747 104.294C313.096 104.248 313.433 104.133 313.739 103.957C314.044 103.78 314.311 103.545 314.525 103.265C314.74 102.985 314.897 102.666 314.989 102.325C315.08 101.984 315.103 101.628 315.058 101.278C315.012 100.928 314.898 100.59 314.722 100.284Z" fill="#F47D39"/>
<path d="M344.632 80.5423C345.693 80.5423 346.73 80.2269 347.612 79.636C348.494 79.0451 349.181 78.2052 349.587 77.2227C349.993 76.2401 350.1 75.1589 349.893 74.1158C349.686 73.0727 349.175 72.1145 348.425 71.3625C347.675 70.6105 346.719 70.0983 345.678 69.8908C344.638 69.6833 343.559 69.7898 342.579 70.1968C341.599 70.6038 340.761 71.2931 340.172 72.1774C339.583 73.0617 339.268 74.1014 339.268 75.1649C339.268 75.8711 339.407 76.5703 339.676 77.2228C339.946 77.8752 340.341 78.468 340.839 78.9674C341.337 79.4667 341.928 79.8628 342.579 80.133C343.23 80.4032 343.928 80.5424 344.632 80.5423Z" fill="#F47D39"/>
<path d="M361.697 100.284L353.474 85.7541L353.462 85.7297L353.373 85.5577C353.313 85.4555 353.247 85.3574 353.174 85.2641C352.621 84.4424 351.875 83.769 351.002 83.3029C350.129 82.8369 349.156 82.5922 348.167 82.5904H341.097C340.176 82.5923 339.268 82.8053 338.441 83.2129C337.615 83.6206 336.893 84.2121 336.329 84.9425C336.137 85.1223 335.973 85.3296 335.842 85.5577L327.518 100.284C327.342 100.59 327.228 100.928 327.182 101.278C327.137 101.628 327.16 101.984 327.251 102.325C327.343 102.666 327.5 102.985 327.715 103.265C327.929 103.545 328.197 103.78 328.502 103.957C328.807 104.133 329.144 104.248 329.493 104.294C329.842 104.34 330.197 104.316 330.537 104.225C330.877 104.133 331.196 103.975 331.475 103.76C331.755 103.545 331.989 103.277 332.165 102.971L336.569 95.8947L333.154 113.056C333.097 113.283 333.094 113.52 333.146 113.748C333.197 113.976 333.3 114.19 333.448 114.37C333.596 114.551 333.784 114.695 333.997 114.79C334.211 114.884 334.443 114.928 334.676 114.917H338.485V125.311C338.485 126.024 338.768 126.708 339.271 127.212C339.774 127.717 340.456 128 341.167 128C341.879 128 342.561 127.717 343.064 127.212C343.567 126.708 343.849 126.024 343.849 125.311V114.917H345.414V125.311C345.414 126.024 345.696 126.708 346.199 127.212C346.702 127.717 347.384 128 348.096 128C348.807 128 349.489 127.717 349.992 127.212C350.495 126.708 350.778 126.024 350.778 125.311V114.917H354.538C354.771 114.928 355.004 114.885 355.217 114.79C355.43 114.695 355.618 114.551 355.766 114.37C355.914 114.19 356.018 113.976 356.069 113.748C356.12 113.52 356.117 113.283 356.061 113.056L352.646 95.8947L357.05 102.971C357.226 103.277 357.46 103.545 357.739 103.76C358.019 103.975 358.338 104.133 358.678 104.225C359.018 104.316 359.373 104.34 359.722 104.294C360.071 104.248 360.408 104.133 360.713 103.957C361.018 103.78 361.286 103.545 361.5 103.265C361.715 102.985 361.872 102.666 361.963 102.325C362.055 101.984 362.078 101.628 362.032 101.278C361.987 100.928 361.872 100.59 361.697 100.284Z" fill="#F47D39"/>
<path d="M391.607 80.5423C392.668 80.5423 393.705 80.2269 394.587 79.636C395.469 79.0451 396.156 78.2052 396.562 77.2227C396.968 76.2401 397.074 75.1589 396.867 74.1158C396.66 73.0727 396.149 72.1145 395.399 71.3625C394.649 70.6105 393.693 70.0983 392.653 69.8908C391.612 69.6833 390.534 69.7898 389.554 70.1968C388.574 70.6038 387.736 71.2931 387.147 72.1774C386.557 73.0617 386.243 74.1014 386.243 75.1649C386.243 75.8711 386.382 76.5703 386.651 77.2228C386.921 77.8752 387.316 78.468 387.814 78.9674C388.312 79.4667 388.903 79.8628 389.554 80.133C390.205 80.4032 390.902 80.5424 391.607 80.5423Z" fill="#F47D39"/>
<path d="M408.671 100.284L400.449 85.7541L400.436 85.7297L400.348 85.5577C400.288 85.4555 400.222 85.3574 400.149 85.2641C399.595 84.4424 398.85 83.769 397.977 83.3029C397.104 82.8369 396.13 82.5922 395.141 82.5904H388.072C387.151 82.5923 386.242 82.8053 385.416 83.2129C384.59 83.6206 383.867 84.2121 383.304 84.9425C383.112 85.1223 382.948 85.3296 382.816 85.5577L374.493 100.284C374.317 100.59 374.203 100.928 374.157 101.278C374.111 101.628 374.135 101.984 374.226 102.325C374.317 102.666 374.475 102.985 374.689 103.265C374.904 103.545 375.171 103.78 375.476 103.957C375.781 104.133 376.118 104.248 376.467 104.294C376.817 104.34 377.171 104.316 377.512 104.225C377.852 104.133 378.171 103.975 378.45 103.76C378.729 103.545 378.964 103.277 379.14 102.971L383.543 95.8947L380.128 113.056C380.072 113.283 380.069 113.52 380.12 113.748C380.171 113.976 380.275 114.19 380.423 114.37C380.571 114.551 380.759 114.695 380.972 114.79C381.185 114.884 381.418 114.928 381.651 114.917H385.46V125.311C385.46 126.024 385.743 126.708 386.246 127.212C386.749 127.717 387.431 128 388.142 128C388.853 128 389.536 127.717 390.039 127.212C390.542 126.708 390.824 126.024 390.824 125.311V114.917H392.388V125.311C392.388 126.024 392.671 126.708 393.174 127.212C393.677 127.717 394.359 128 395.07 128C395.782 128 396.464 127.717 396.967 127.212C397.47 126.708 397.753 126.024 397.753 125.311V114.917H401.513C401.746 114.928 401.979 114.885 402.192 114.79C402.405 114.695 402.593 114.551 402.741 114.37C402.889 114.19 402.993 113.976 403.044 113.748C403.095 113.52 403.092 113.283 403.035 113.056L399.621 95.8947L404.024 102.971C404.2 103.277 404.435 103.545 404.714 103.76C404.993 103.975 405.312 104.133 405.652 104.225C405.993 104.316 406.347 104.34 406.697 104.294C407.046 104.248 407.383 104.133 407.688 103.957C407.993 103.78 408.26 103.545 408.475 103.265C408.689 102.985 408.847 102.666 408.938 102.325C409.029 101.984 409.053 101.628 409.007 101.278C408.961 100.928 408.847 100.59 408.671 100.284Z" fill="#F47D39"/>
<path d="M438.582 80.5423C439.642 80.5423 440.68 80.2269 441.562 79.636C442.444 79.0451 443.131 78.2052 443.537 77.2227C443.943 76.2401 444.049 75.1589 443.842 74.1158C443.635 73.0727 443.125 72.1145 442.374 71.3625C441.624 70.6105 440.668 70.0983 439.628 69.8908C438.587 69.6833 437.509 69.7898 436.529 70.1968C435.549 70.6038 434.711 71.2931 434.122 72.1774C433.532 73.0617 433.218 74.1014 433.218 75.1649C433.218 75.8711 433.356 76.5703 433.626 77.2228C433.896 77.8752 434.291 78.468 434.789 78.9674C435.287 79.4667 435.878 79.8628 436.529 80.133C437.18 80.4032 437.877 80.5424 438.582 80.5423Z" fill="#F47D39"/>
<path d="M455.646 100.284L447.424 85.7541L447.412 85.7297L447.323 85.5577C447.263 85.4555 447.197 85.3574 447.124 85.2641C446.57 84.4424 445.825 83.769 444.952 83.3029C444.079 82.8369 443.105 82.5922 442.116 82.5904H435.047C434.126 82.5923 433.217 82.8053 432.391 83.2129C431.565 83.6206 430.842 84.2121 430.279 84.9425C430.087 85.1223 429.923 85.3296 429.791 85.5577L421.468 100.284C421.292 100.59 421.178 100.928 421.132 101.278C421.086 101.628 421.11 101.984 421.201 102.325C421.292 102.666 421.45 102.985 421.664 103.265C421.879 103.545 422.146 103.78 422.451 103.957C422.756 104.133 423.093 104.248 423.443 104.294C423.792 104.34 424.146 104.316 424.487 104.225C424.827 104.133 425.146 103.975 425.425 103.76C425.704 103.545 425.939 103.277 426.115 102.971L430.518 95.8947L427.103 113.056C427.047 113.283 427.044 113.52 427.095 113.748C427.146 113.976 427.25 114.19 427.398 114.37C427.546 114.551 427.734 114.695 427.947 114.79C428.161 114.884 428.393 114.928 428.626 114.917H432.435V125.311C432.435 126.024 432.718 126.708 433.221 127.212C433.724 127.717 434.406 128 435.117 128C435.828 128 436.511 127.717 437.014 127.212C437.517 126.708 437.799 126.024 437.799 125.311V114.917H439.363V125.311C439.363 126.024 439.646 126.708 440.149 127.212C440.652 127.717 441.334 128 442.045 128C442.757 128 443.439 127.717 443.942 127.212C444.445 126.708 444.728 126.024 444.728 125.311V114.917H448.488C448.721 114.928 448.954 114.885 449.167 114.79C449.38 114.695 449.568 114.551 449.716 114.37C449.864 114.19 449.968 113.976 450.019 113.748C450.07 113.52 450.067 113.283 450.01 113.056L446.596 95.8947L450.999 102.971C451.175 103.277 451.41 103.545 451.689 103.76C451.969 103.975 452.287 104.133 452.628 104.225C452.968 104.316 453.323 104.34 453.672 104.294C454.021 104.248 454.358 104.133 454.663 103.957C454.968 103.78 455.235 103.545 455.45 103.265C455.664 102.985 455.822 102.666 455.913 102.325C456.004 101.984 456.028 101.628 455.982 101.278C455.936 100.928 455.822 100.59 455.646 100.284Z" fill="#F47D39"/>
<path d="M62.4751 80.7549C63.536 80.7548 64.5732 80.4394 65.4552 79.8485C66.3373 79.2577 67.0247 78.4178 67.4307 77.4352C67.8367 76.4526 67.9428 75.3714 67.7358 74.3283C67.5288 73.2852 67.0181 72.3271 66.2679 71.575C65.5178 70.823 64.5621 70.3108 63.5216 70.1033C62.4811 69.8958 61.4024 70.0023 60.4223 70.4093C59.4422 70.8163 58.6045 71.5056 58.0152 72.3899C57.4258 73.2742 57.1113 74.3139 57.1113 75.3774C57.1113 76.0836 57.25 76.7829 57.5195 77.4353C57.7891 78.0877 58.1842 78.6806 58.6823 79.1799C59.1804 79.6793 59.7717 80.0753 60.4225 80.3455C61.0733 80.6157 61.7707 80.7549 62.4751 80.7549Z" fill="#F47D39"/>
<path d="M79.5399 100.497L71.3175 85.9666L71.3051 85.9423L71.2167 85.7702C71.1568 85.6681 71.0902 85.5699 71.0175 85.4766C70.464 84.6549 69.7183 83.9815 68.8453 83.5155C67.9724 83.0494 66.999 82.8048 66.01 82.8029H58.9402C58.0192 82.8048 57.111 83.0178 56.2848 83.4255C55.4585 83.8331 54.736 84.4247 54.1726 85.155C53.9806 85.3348 53.8164 85.5421 53.685 85.7702L45.3617 100.497C45.1858 100.803 45.0715 101.14 45.0257 101.49C44.9799 101.841 45.0034 102.196 45.0947 102.537C45.186 102.878 45.3435 103.198 45.558 103.478C45.7725 103.758 46.0398 103.993 46.3449 104.169C46.65 104.346 46.987 104.46 47.3362 104.506C47.6854 104.552 48.0402 104.529 48.3804 104.437C48.7206 104.346 49.0393 104.188 49.3187 103.973C49.598 103.758 49.8323 103.49 50.0083 103.184L54.412 96.1073L50.997 113.269C50.9405 113.496 50.9376 113.733 50.9888 113.961C51.04 114.189 51.1437 114.402 51.2916 114.583C51.4396 114.764 51.6277 114.907 51.8409 115.002C52.0541 115.097 52.2864 115.141 52.5194 115.129H56.3285V125.524C56.3302 126.236 56.6136 126.918 57.1164 127.421C57.6192 127.923 58.3005 128.206 59.0107 128.206C59.7208 128.206 60.4021 127.923 60.9049 127.421C61.4077 126.918 61.6911 126.236 61.6929 125.524V115.129H63.257V125.524C63.2588 126.236 63.5422 126.918 64.045 127.421C64.5478 127.923 65.2289 128.206 65.939 128.206C66.6492 128.206 67.3305 127.923 67.8333 127.421C68.3361 126.918 68.6195 126.236 68.6212 125.524V115.129H72.3819C72.6149 115.141 72.8472 115.097 73.0604 115.002C73.2736 114.907 73.4617 114.764 73.6096 114.583C73.7575 114.402 73.8611 114.189 73.9123 113.961C73.9634 113.733 73.9606 113.496 73.904 113.269L70.4895 96.1073L74.893 103.184C75.069 103.49 75.3035 103.758 75.5828 103.973C75.8621 104.188 76.1809 104.346 76.5211 104.437C76.8612 104.529 77.2161 104.552 77.5653 104.506C77.9145 104.46 78.2512 104.346 78.5563 104.169C78.8614 103.993 79.1289 103.758 79.3435 103.478C79.558 103.198 79.7154 102.878 79.8067 102.537C79.898 102.196 79.9214 101.841 79.8756 101.49C79.8297 101.14 79.7159 100.803 79.5399 100.497Z" fill="#F47D39"/>
<path d="M15.7807 80.6434C16.8306 80.6435 17.8569 80.3314 18.7299 79.7466C19.6028 79.1619 20.2831 78.3308 20.6849 77.3584C21.0867 76.386 21.192 75.3158 20.9872 74.2835C20.7824 73.2512 20.2767 72.303 19.5343 71.5587C18.792 70.8144 17.8462 70.3076 16.8165 70.1023C15.7867 69.8969 14.7193 70.0023 13.7494 70.4051C12.7794 70.8079 11.9504 71.49 11.3671 72.3652C10.7838 73.2403 10.4724 74.2692 10.4724 75.3217C10.4724 76.7331 11.0318 78.0867 12.0273 79.0847C13.0227 80.0827 14.3729 80.6434 15.7807 80.6434ZM31.1542 100.165L24.5307 85.8006L24.519 85.7772L24.4316 85.6068C24.3724 85.5056 24.3065 85.4085 24.2343 85.3163C23.6866 84.5031 22.9484 83.8367 22.0846 83.3755C21.2207 82.9143 20.2574 82.6722 19.2787 82.6704H12.2823C11.3709 82.6722 10.472 82.8829 9.6543 83.2863C8.8366 83.6897 8.12168 84.2751 7.5642 84.9979C7.37406 85.1758 7.21136 85.381 7.08136 85.6068L0.358742 100.165C0.184375 100.468 0.0710792 100.802 0.0255799 101.149C-0.0199195 101.495 0.00331457 101.847 0.0936143 102.185C0.183914 102.523 0.339576 102.839 0.551919 103.117C0.764261 103.394 1.02898 103.626 1.33102 103.801C1.63305 103.976 1.96643 104.089 2.31215 104.134C2.65788 104.18 3.00933 104.157 3.34607 104.066C3.68281 103.975 3.99838 103.819 4.27484 103.606C4.5513 103.393 4.78319 103.127 4.95725 102.824L9.6978 92.1345V124.917C9.6978 125.623 9.97748 126.3 10.4752 126.799C10.973 127.298 11.6482 127.578 12.3522 127.578C13.0561 127.578 13.7311 127.298 14.2289 126.799C14.7267 126.3 15.0063 125.623 15.0063 124.917V108.139H16.5546V124.917C16.5546 125.623 16.8343 126.3 17.3321 126.799C17.8299 127.298 18.5048 127.578 19.2088 127.578C19.9128 127.578 20.588 127.298 21.0857 126.799C21.5835 126.3 21.8632 125.623 21.8632 124.917V92.2287L26.5557 102.824C26.7298 103.127 26.9616 103.393 27.2381 103.606C27.5146 103.819 27.8301 103.975 28.1669 104.066C28.5036 104.157 28.8549 104.18 29.2006 104.134C29.5463 104.089 29.8797 103.976 30.1817 103.801C30.4838 103.626 30.7487 103.394 30.961 103.117C31.1734 102.839 31.329 102.523 31.4193 102.185C31.5096 101.847 31.5326 101.495 31.4872 101.149C31.4417 100.802 31.3286 100.468 31.1542 100.165Z" fill="#569FD6"/>
</svg>
