<svg width="197" height="241" viewBox="0 0 197 241" fill="none" xmlns="http://www.w3.org/2000/svg">
<g clip-path="url(#clip0_137_1270)">
<g clip-path="url(#clip1_137_1270)">
<path d="M98.4809 136.564C99.647 136.564 100.771 136.13 101.635 135.346C102.499 134.563 103.041 133.487 103.155 132.326C103.269 131.166 102.947 130.004 102.252 129.068C101.557 128.131 100.539 127.487 99.3949 127.26C98.2512 127.033 97.0639 127.239 96.0639 127.839C95.0639 128.439 94.3228 129.389 93.9848 130.505C93.6467 131.621 93.7359 132.823 94.2349 133.877C94.7339 134.931 95.6071 135.761 96.6846 136.207C97.2542 136.443 97.8646 136.564 98.4809 136.564ZM112.074 153.753L106.218 141.105L106.207 141.084L106.13 140.934C106.078 140.845 106.02 140.76 105.956 140.678C105.471 139.962 104.819 139.375 104.055 138.969C103.291 138.563 102.439 138.35 101.574 138.348H95.3875C94.582 138.35 93.7875 138.535 93.0645 138.89C92.3415 139.246 91.7092 139.761 91.2157 140.398C91.0476 140.555 90.9037 140.735 90.7887 140.934L84.8443 153.753C84.6905 154.02 84.5909 154.315 84.551 154.62C84.5111 154.926 84.5318 155.236 84.6119 155.534C84.6919 155.831 84.8298 156.11 85.0177 156.354C85.2055 156.598 85.4396 156.803 85.7066 156.957C85.9735 157.111 86.2682 157.21 86.5737 157.25C86.8792 157.29 87.1895 157.269 87.487 157.189C87.7845 157.109 88.0633 156.971 88.3075 156.784C88.5518 156.596 88.7566 156.362 88.9103 156.095L93.1023 146.682V175.548C93.1023 176.17 93.3496 176.767 93.7898 177.207C94.2299 177.647 94.8269 177.895 95.4493 177.895C96.0718 177.895 96.6688 177.647 97.1089 177.207C97.5491 176.767 97.7963 176.17 97.7963 175.548V160.775H99.1653V175.548C99.1653 176.17 99.4126 176.767 99.8528 177.207C100.293 177.647 100.89 177.895 101.512 177.895C102.135 177.895 102.732 177.647 103.172 177.207C103.612 176.767 103.859 176.17 103.859 175.548V146.765L108.008 156.094C108.162 156.362 108.366 156.597 108.61 156.786C108.855 156.975 109.134 157.113 109.432 157.194C109.73 157.274 110.04 157.296 110.346 157.256C110.653 157.216 110.948 157.116 111.215 156.962C111.483 156.808 111.717 156.603 111.905 156.358C112.093 156.114 112.231 155.834 112.311 155.536C112.39 155.238 112.411 154.927 112.37 154.621C112.33 154.315 112.229 154.02 112.074 153.753Z" fill="#569FD6"/>
<path d="M140.02 136.564C141.105 136.563 142.157 136.186 142.995 135.497C143.833 134.808 144.407 133.85 144.618 132.785C144.829 131.721 144.664 130.617 144.152 129.66C143.64 128.703 142.812 127.954 141.809 127.539C140.807 127.124 139.691 127.07 138.653 127.386C137.615 127.701 136.718 128.367 136.116 129.269C135.513 130.172 135.242 131.255 135.349 132.335C135.456 133.415 135.934 134.424 136.701 135.191C137.582 136.071 138.776 136.564 140.02 136.564ZM153.614 153.753L147.757 141.105L147.746 141.084L147.669 140.934C147.617 140.845 147.559 140.76 147.495 140.678C147.01 139.962 146.358 139.375 145.594 138.969C144.83 138.563 143.978 138.35 143.113 138.348H136.926C136.121 138.35 135.326 138.535 134.603 138.89C133.88 139.246 133.248 139.761 132.754 140.398C132.586 140.555 132.442 140.735 132.327 140.934L126.383 153.753C126.23 154.02 126.13 154.315 126.09 154.62C126.05 154.926 126.071 155.236 126.151 155.534C126.231 155.831 126.369 156.11 126.557 156.354C126.745 156.598 126.979 156.803 127.246 156.957C127.513 157.111 127.807 157.21 128.113 157.25C128.418 157.29 128.729 157.269 129.026 157.189C129.324 157.109 129.602 156.971 129.847 156.784C130.091 156.596 130.296 156.362 130.449 156.095L134.641 146.682V175.548C134.641 176.17 134.889 176.767 135.329 177.207C135.769 177.648 136.366 177.895 136.988 177.895C137.611 177.895 138.208 177.648 138.648 177.207C139.088 176.767 139.335 176.17 139.335 175.548V160.775H140.704V175.548C140.704 176.17 140.952 176.767 141.392 177.207C141.832 177.648 142.429 177.895 143.051 177.895C143.674 177.895 144.271 177.648 144.711 177.207C145.151 176.767 145.398 176.17 145.398 175.548V146.765L149.547 156.094C149.701 156.362 149.905 156.597 150.15 156.786C150.394 156.974 150.673 157.113 150.971 157.193C151.269 157.274 151.579 157.295 151.885 157.255C152.191 157.215 152.487 157.116 152.754 156.962C153.021 156.808 153.256 156.603 153.444 156.358C153.632 156.113 153.77 155.834 153.85 155.536C153.93 155.238 153.95 154.927 153.91 154.621C153.869 154.315 153.769 154.02 153.614 153.753Z" fill="#569FD6"/>
<path d="M181.561 136.564C182.646 136.563 183.698 136.186 184.536 135.497C185.374 134.808 185.948 133.85 186.159 132.785C186.37 131.721 186.205 130.617 185.693 129.66C185.181 128.703 184.353 127.954 183.35 127.539C182.348 127.124 181.232 127.07 180.194 127.386C179.156 127.701 178.259 128.367 177.657 129.269C177.054 130.172 176.783 131.255 176.89 132.335C176.997 133.415 177.475 134.424 178.242 135.191C179.123 136.071 180.317 136.564 181.561 136.564ZM195.155 153.753L189.298 141.105L189.287 141.084L189.21 140.934C189.158 140.845 189.1 140.76 189.036 140.678C188.551 139.962 187.899 139.375 187.135 138.969C186.371 138.563 185.519 138.35 184.654 138.348H178.467C177.662 138.35 176.867 138.536 176.144 138.891C175.421 139.246 174.789 139.762 174.295 140.398C174.127 140.555 173.983 140.735 173.868 140.934L167.924 153.753C167.614 154.292 167.53 154.933 167.692 155.534C167.854 156.135 168.247 156.646 168.787 156.957C169.326 157.268 169.966 157.351 170.567 157.189C171.168 157.028 171.68 156.634 171.99 156.095L176.182 146.682V175.548C176.182 175.856 176.243 176.162 176.36 176.447C176.478 176.732 176.651 176.991 176.869 177.209C177.087 177.427 177.346 177.6 177.631 177.718C177.916 177.836 178.221 177.897 178.529 177.897C178.838 177.897 179.144 177.836 179.429 177.718C179.714 177.6 179.973 177.427 180.191 177.208C180.409 176.99 180.582 176.731 180.699 176.446C180.817 176.161 180.877 175.856 180.876 175.548V160.775H182.245V175.548C182.245 176.17 182.493 176.767 182.933 177.207C183.373 177.647 183.97 177.895 184.592 177.895C185.215 177.895 185.812 177.647 186.252 177.207C186.692 176.767 186.939 176.17 186.939 175.548V146.765L191.088 156.094C191.242 156.362 191.446 156.597 191.691 156.786C191.935 156.974 192.214 157.113 192.512 157.193C192.81 157.274 193.12 157.295 193.426 157.255C193.732 157.215 194.028 157.116 194.295 156.962C194.562 156.808 194.797 156.603 194.985 156.358C195.173 156.113 195.311 155.834 195.391 155.536C195.471 155.238 195.491 154.927 195.451 154.621C195.41 154.315 195.31 154.02 195.155 153.753Z" fill="#569FD6"/>
<path d="M181.95 73.3808C183.035 73.38 184.086 73.003 184.925 72.314C185.763 71.6251 186.336 70.6668 186.547 69.6024C186.758 68.5381 186.594 67.4335 186.082 66.4768C185.57 65.5202 184.742 64.7707 183.739 64.356C182.736 63.9414 181.621 63.8872 180.583 64.2027C179.544 64.5182 178.648 65.1839 178.045 66.0864C177.443 66.9888 177.172 68.0723 177.279 69.1521C177.386 70.2319 177.863 71.2413 178.631 72.0083C179.512 72.8875 180.705 73.3812 181.95 73.3808ZM195.544 90.5702L189.687 77.9219L189.676 77.9011L189.599 77.7512C189.547 77.6622 189.489 77.5767 189.425 77.4953C188.94 76.779 188.287 76.1922 187.523 75.7861C186.76 75.38 185.908 75.1669 185.043 75.1654H178.856C178.05 75.1671 177.256 75.3526 176.533 75.7078C175.81 76.063 175.178 76.5785 174.684 77.215C174.516 77.3716 174.372 77.5524 174.257 77.7512L168.313 90.5702C168.003 91.1094 167.919 91.7499 168.081 92.3507C168.242 92.9515 168.636 93.4635 169.175 93.774C169.714 94.0845 170.355 94.168 170.956 94.0063C171.557 93.8446 172.069 93.4509 172.379 92.9117L176.571 83.4988V112.365C176.571 112.673 176.631 112.979 176.749 113.263C176.867 113.548 177.04 113.807 177.258 114.026C177.476 114.244 177.735 114.417 178.019 114.535C178.304 114.653 178.61 114.714 178.918 114.714C179.227 114.714 179.532 114.653 179.818 114.535C180.103 114.417 180.362 114.244 180.58 114.025C180.798 113.807 180.971 113.548 181.088 113.263C181.206 112.978 181.266 112.673 181.265 112.365V97.5915H182.634V112.365C182.634 112.987 182.881 113.584 183.321 114.024C183.762 114.464 184.359 114.712 184.981 114.712C185.603 114.712 186.2 114.464 186.641 114.024C187.081 113.584 187.328 112.987 187.328 112.365V83.5818L191.477 92.9114C191.63 93.1791 191.835 93.414 192.079 93.6026C192.324 93.7911 192.603 93.9296 192.9 94.0102C193.198 94.0907 193.509 94.1118 193.815 94.0721C194.121 94.0323 194.416 93.9326 194.684 93.7787C194.951 93.6247 195.185 93.4196 195.373 93.1749C195.562 92.9303 195.699 92.6509 195.779 92.3529C195.859 92.0549 195.88 91.744 195.839 91.4381C195.799 91.1322 195.699 90.8373 195.544 90.5702Z" fill="#569FD6"/>
<path d="M15.4002 199.625C16.4852 199.624 17.5363 199.247 18.3746 198.558C19.2128 197.869 19.7862 196.911 19.9972 195.847C20.2082 194.783 20.0437 193.678 19.5316 192.722C19.0196 191.765 18.1917 191.016 17.1891 190.601C16.1864 190.186 15.071 190.132 14.0329 190.447C12.9948 190.763 12.0982 191.429 11.4958 192.331C10.8934 193.233 10.6225 194.317 10.7292 195.397C10.836 196.476 11.3138 197.486 12.0813 198.253C12.9622 199.131 14.1558 199.625 15.4002 199.625ZM28.9941 216.815L23.1374 204.166L23.127 204.145L23.0497 203.995C22.9973 203.906 22.939 203.821 22.8752 203.74C22.3903 203.023 21.7375 202.436 20.9737 202.03C20.2099 201.624 19.3584 201.411 18.4934 201.41H12.3068C11.5013 201.411 10.7067 201.597 9.98367 201.952C9.26067 202.307 8.62835 202.823 8.13494 203.459C7.96685 203.616 7.82297 203.797 7.708 203.995L1.76348 216.815C1.45465 217.354 1.37229 217.993 1.53445 218.593C1.69661 219.193 2.09006 219.704 2.62847 220.014C3.16689 220.324 3.80629 220.408 4.40643 220.247C5.00657 220.086 5.51842 219.694 5.82968 219.156L10.0217 209.743V238.609C10.0217 239.231 10.269 239.828 10.7091 240.268C11.1493 240.709 11.7462 240.956 12.3687 240.956C12.9911 240.956 13.5881 240.709 14.0283 240.268C14.4684 239.828 14.7157 239.231 14.7157 238.609V223.836H16.0846V238.609C16.0846 239.231 16.3318 239.828 16.772 240.269C17.2122 240.709 17.8092 240.956 18.4316 240.956C19.0541 240.956 19.6511 240.709 20.0912 240.269C20.5314 239.828 20.7787 239.231 20.7787 238.609V209.826L24.928 219.156C25.0816 219.423 25.2864 219.658 25.5306 219.846C25.7748 220.034 26.0537 220.172 26.3513 220.252C26.6489 220.332 26.9594 220.353 27.2651 220.313C27.5707 220.273 27.8655 220.174 28.1326 220.02C28.3997 219.866 28.6339 219.661 28.8217 219.417C29.0096 219.172 29.1475 218.893 29.2275 218.596C29.3075 218.298 29.3281 217.987 29.288 217.682C29.248 217.376 29.1481 217.082 28.9941 216.815Z" fill="#569FD6"/>
<path d="M56.9399 199.625C58.0249 199.624 59.076 199.247 59.9142 198.558C60.7524 197.87 61.3258 196.911 61.5368 195.847C61.7478 194.783 61.5832 193.678 61.0712 192.722C60.5592 191.765 59.7313 191.016 58.7287 190.601C57.7261 190.187 56.6108 190.132 55.5727 190.448C54.5346 190.763 53.638 191.429 53.0356 192.331C52.4332 193.234 52.1623 194.317 52.2691 195.397C52.3758 196.476 52.8536 197.486 53.621 198.253C54.5019 199.131 55.6955 199.625 56.9399 199.625ZM70.5339 216.815L64.6771 204.166L64.6667 204.145L64.5894 203.995C64.5371 203.906 64.4788 203.821 64.4149 203.74C63.9301 203.023 63.2773 202.436 62.5135 202.03C61.7497 201.624 60.8982 201.411 60.0331 201.41H53.8465C53.041 201.411 52.2464 201.597 51.5234 201.952C50.8004 202.307 50.1681 202.823 49.6747 203.459C49.5066 203.616 49.3627 203.797 49.2477 203.995L43.3032 216.815C43.1495 217.082 43.0498 217.376 43.01 217.682C42.9701 217.987 42.9908 218.298 43.0708 218.595C43.1509 218.893 43.2888 219.171 43.4767 219.416C43.6645 219.66 43.8986 219.865 44.1656 220.018C44.4326 220.172 44.7272 220.272 45.0327 220.312C45.3382 220.352 45.6486 220.331 45.9461 220.251C46.2436 220.171 46.5224 220.033 46.7666 219.845C47.0109 219.657 47.2157 219.423 47.3694 219.156L51.5614 209.743V238.609C51.5614 239.231 51.8087 239.828 52.2489 240.269C52.689 240.709 53.286 240.956 53.9084 240.956C54.5309 240.956 55.1279 240.709 55.568 240.269C56.0082 239.828 56.2554 239.231 56.2554 238.609V223.836H57.6244V238.609C57.6244 239.231 57.8717 239.828 58.3118 240.269C58.752 240.709 59.349 240.956 59.9714 240.956C60.5939 240.956 61.1909 240.709 61.631 240.269C62.0711 239.828 62.3184 239.231 62.3184 238.609V209.826L66.4677 219.156C66.6211 219.424 66.8257 219.659 67.07 219.847C67.3142 220.036 67.5933 220.175 67.8911 220.255C68.189 220.336 68.4999 220.357 68.8059 220.317C69.1119 220.277 69.4071 220.177 69.6745 220.023C69.9419 219.869 70.1763 219.664 70.3643 219.42C70.5523 219.175 70.6901 218.895 70.77 218.597C70.8498 218.299 70.87 217.988 70.8295 217.682C70.789 217.377 70.6886 217.082 70.5339 216.815Z" fill="#569FD6"/>
<path d="M98.4809 199.625C99.647 199.625 100.771 199.191 101.635 198.408C102.499 197.625 103.041 196.548 103.155 195.387C103.269 194.227 102.947 193.066 102.252 192.129C101.557 191.193 100.539 190.548 99.395 190.321C98.2512 190.094 97.0639 190.3 96.0639 190.9C95.064 191.5 94.3229 192.45 93.9848 193.566C93.6468 194.682 93.7359 195.884 94.2349 196.938C94.7339 197.992 95.6071 198.823 96.6846 199.269C97.2542 199.504 97.8646 199.625 98.4809 199.625ZM112.074 216.815L106.218 204.166L106.207 204.145L106.13 203.995C106.078 203.907 106.02 203.821 105.956 203.74C105.471 203.023 104.819 202.437 104.055 202.03C103.291 201.624 102.439 201.411 101.574 201.41H95.3875C94.582 201.411 93.7874 201.597 93.0644 201.952C92.3414 202.307 91.7091 202.823 91.2157 203.459C91.0476 203.616 90.9037 203.797 90.7887 203.995L84.8443 216.815C84.6905 217.082 84.5909 217.376 84.551 217.682C84.5111 217.987 84.5318 218.298 84.6119 218.595C84.6919 218.893 84.8298 219.171 85.0177 219.416C85.2055 219.66 85.4396 219.865 85.7066 220.018C85.9735 220.172 86.2682 220.272 86.5737 220.312C86.8792 220.352 87.1895 220.331 87.487 220.251C87.7845 220.171 88.0633 220.033 88.3075 219.845C88.5518 219.657 88.7566 219.423 88.9103 219.156L93.1023 209.743V238.609C93.1023 239.231 93.3496 239.828 93.7898 240.269C94.2299 240.709 94.8269 240.956 95.4493 240.956C96.0718 240.956 96.6688 240.709 97.1089 240.269C97.5491 239.828 97.7963 239.231 97.7963 238.609V223.836H99.1653V238.609C99.1653 239.231 99.4126 239.828 99.8528 240.269C100.293 240.709 100.89 240.956 101.512 240.956C102.135 240.956 102.732 240.709 103.172 240.269C103.612 239.828 103.859 239.231 103.859 238.609V209.826L108.008 219.156C108.319 219.695 108.831 220.089 109.432 220.251C110.032 220.412 110.673 220.329 111.212 220.018C111.751 219.708 112.145 219.196 112.307 218.595C112.468 217.994 112.385 217.354 112.074 216.815Z" fill="#569FD6"/>
<path d="M140.02 199.625C141.105 199.624 142.157 199.247 142.995 198.558C143.833 197.869 144.407 196.911 144.618 195.847C144.829 194.782 144.664 193.678 144.152 192.721C143.64 191.765 142.812 191.015 141.809 190.6C140.807 190.186 139.691 190.131 138.653 190.447C137.615 190.762 136.718 191.428 136.116 192.331C135.513 193.233 135.242 194.317 135.349 195.396C135.456 196.476 135.934 197.486 136.701 198.253C137.582 199.132 138.776 199.626 140.02 199.625ZM153.614 216.815L147.757 204.166L147.746 204.145L147.669 203.995C147.617 203.907 147.559 203.821 147.495 203.74C147.01 203.023 146.358 202.437 145.594 202.03C144.83 201.624 143.978 201.411 143.113 201.41H136.926C136.121 201.411 135.326 201.597 134.603 201.952C133.88 202.307 133.248 202.823 132.754 203.459C132.586 203.616 132.442 203.797 132.327 203.995L126.383 216.815C126.073 217.354 125.989 217.994 126.151 218.595C126.313 219.196 126.706 219.708 127.246 220.018C127.785 220.329 128.425 220.412 129.026 220.251C129.627 220.089 130.139 219.695 130.449 219.156L134.641 209.743V238.609C134.641 239.231 134.889 239.828 135.329 240.269C135.769 240.709 136.366 240.956 136.988 240.956C137.611 240.956 138.208 240.709 138.648 240.269C139.088 239.828 139.335 239.231 139.335 238.609V223.836H140.704V238.609C140.704 239.231 140.952 239.828 141.392 240.269C141.832 240.709 142.429 240.956 143.051 240.956C143.674 240.956 144.271 240.709 144.711 240.269C145.151 239.828 145.398 239.231 145.398 238.609V209.826L149.547 219.156C149.701 219.423 149.906 219.658 150.15 219.846C150.394 220.034 150.673 220.172 150.971 220.252C151.268 220.333 151.579 220.353 151.885 220.314C152.19 220.274 152.485 220.174 152.752 220.02C153.02 219.866 153.254 219.662 153.442 219.417C153.63 219.173 153.768 218.894 153.848 218.596C153.928 218.298 153.948 217.988 153.908 217.682C153.868 217.376 153.768 217.082 153.614 216.815Z" fill="#569FD6"/>
<path d="M181.561 199.625C182.646 199.624 183.698 199.247 184.536 198.558C185.374 197.869 185.948 196.911 186.159 195.847C186.37 194.782 186.205 193.678 185.693 192.721C185.181 191.765 184.353 191.015 183.35 190.6C182.348 190.186 181.232 190.131 180.194 190.447C179.156 190.762 178.259 191.428 177.657 192.331C177.054 193.233 176.783 194.317 176.89 195.396C176.997 196.476 177.475 197.486 178.242 198.253C179.123 199.132 180.317 199.626 181.561 199.625ZM195.155 216.815L189.298 204.166L189.287 204.145L189.21 203.995C189.158 203.907 189.1 203.821 189.036 203.74C188.551 203.023 187.899 202.437 187.135 202.03C186.371 201.624 185.519 201.411 184.654 201.41H178.467C177.662 201.411 176.867 201.597 176.144 201.952C175.421 202.307 174.789 202.823 174.295 203.459C174.127 203.616 173.983 203.797 173.868 203.995L167.924 216.815C167.614 217.354 167.53 217.994 167.692 218.595C167.854 219.196 168.247 219.708 168.787 220.018C169.326 220.329 169.966 220.412 170.567 220.251C171.168 220.089 171.68 219.695 171.99 219.156L176.182 209.743V238.609C176.182 238.917 176.243 239.223 176.36 239.508C176.478 239.793 176.651 240.052 176.869 240.27C177.087 240.488 177.346 240.661 177.631 240.779C177.916 240.897 178.221 240.958 178.529 240.958C179.153 240.958 179.75 240.711 180.191 240.27C180.409 240.052 180.582 239.793 180.699 239.508C180.817 239.223 180.877 238.917 180.876 238.609V223.836H182.245V238.609C182.245 239.231 182.493 239.828 182.933 240.269C183.373 240.709 183.97 240.956 184.592 240.956C185.215 240.956 185.812 240.709 186.252 240.269C186.692 239.828 186.939 239.231 186.939 238.609V209.826L191.088 219.156C191.242 219.423 191.447 219.658 191.691 219.846C191.935 220.034 192.214 220.172 192.512 220.252C192.809 220.333 193.12 220.353 193.426 220.314C193.731 220.274 194.026 220.174 194.293 220.02C194.561 219.866 194.795 219.662 194.983 219.417C195.171 219.173 195.309 218.894 195.389 218.596C195.469 218.298 195.489 217.988 195.449 217.682C195.409 217.376 195.309 217.082 195.155 216.815Z" fill="#569FD6"/>
<path d="M15.4504 9.39712C16.6288 9.39669 17.7649 8.95794 18.6377 8.16622C19.5105 7.37451 20.0576 6.28645 20.1726 5.11369C20.2875 3.94092 19.9621 2.76733 19.2597 1.82119C18.5573 0.875054 17.528 0.22403 16.3722 -0.00523291C15.2163 -0.234496 14.0164 -0.0256168 13.0061 0.580788C11.9957 1.18719 11.247 2.14777 10.9057 3.27563C10.5643 4.40349 10.6547 5.61799 11.1592 6.6829C11.6638 7.74781 12.5464 8.58695 13.6354 9.03712C14.2109 9.27511 14.8276 9.39744 15.4504 9.39712Z" fill="#F47D39"/>
<path d="M30.539 26.7811L23.2684 13.9861L23.2574 13.9651L23.1793 13.8141C23.1264 13.724 23.0676 13.6374 23.0032 13.5551C22.5133 12.8311 21.8536 12.2381 21.0818 11.8278C20.31 11.4174 19.4494 11.2023 18.5753 11.2011H12.3239C11.5099 11.2026 10.707 11.3899 9.97643 11.7488C9.24585 12.1077 8.60686 12.6287 8.10823 13.2721C7.93841 13.4304 7.79309 13.6131 7.67702 13.8141L0.317339 26.7811C0.00412849 27.3259 -0.0799098 27.9728 0.0836962 28.5796C0.247302 29.1864 0.645159 29.7033 1.18981 30.0168C1.73445 30.3303 2.38129 30.4147 2.98815 30.2514C3.595 30.0882 4.11218 29.6906 4.42598 29.1461L8.3199 22.9161L5.30022 38.0271C5.22489 38.3286 5.25844 38.647 5.39495 38.9262C5.53145 39.2054 5.76213 39.4274 6.04634 39.5531C6.23496 39.6364 6.44037 39.6748 6.64635 39.6651H10.0145V48.8171C10.0145 49.1286 10.0759 49.437 10.1951 49.7247C10.3142 50.0124 10.4889 50.2739 10.7092 50.4941C10.9294 50.7144 11.1909 50.8891 11.4786 51.0082C11.7663 51.1274 12.0747 51.1888 12.3862 51.1888C12.6976 51.1888 13.006 51.1274 13.2938 51.0082C13.5815 50.8891 13.843 50.7144 14.0632 50.4941C14.2834 50.2739 14.4581 50.0124 14.5773 49.7247C14.6965 49.437 14.7578 49.1286 14.7578 48.8171V39.6651H16.1409V48.8171C16.1409 49.1286 16.2023 49.437 16.3215 49.7247C16.4406 50.0124 16.6153 50.2739 16.8356 50.4941C17.0558 50.7144 17.3173 50.8891 17.605 51.0082C17.8927 51.1274 18.2011 51.1888 18.5126 51.1888C18.824 51.1888 19.1324 51.1274 19.4202 51.0082C19.7079 50.8891 19.9694 50.7144 20.1896 50.4941C20.4098 50.2739 20.5845 50.0124 20.7037 49.7247C20.8229 49.437 20.8842 49.1286 20.8842 48.8171V39.6651H24.2096C24.5202 39.6804 24.8263 39.5856 25.0739 39.3974C25.3214 39.2091 25.4946 38.9395 25.5629 38.6361C25.6081 38.4353 25.6056 38.2267 25.5555 38.0271L22.5362 22.9161L26.43 29.1461C26.5851 29.4163 26.7919 29.6533 27.0387 29.8436C27.2854 30.0338 27.5672 30.1735 27.868 30.2548C28.1687 30.336 28.4826 30.3571 28.7915 30.317C29.1005 30.2768 29.3985 30.1762 29.6685 30.0208C29.9385 29.8653 30.1753 29.6582 30.3652 29.4112C30.5551 29.1642 30.6944 28.8822 30.7753 28.5814C30.8561 28.2805 30.8769 27.9666 30.8363 27.6577C30.7958 27.3488 30.6947 27.0509 30.539 26.7811Z" fill="#F47D39"/>
<path d="M56.9865 9.39712C58.1649 9.39669 59.301 8.95794 60.1738 8.16622C61.0466 7.37451 61.5937 6.28645 61.7087 5.11369C61.8236 3.94092 61.4983 2.76733 60.7958 1.82119C60.0934 0.875054 59.0641 0.22403 57.9083 -0.00523291C56.7524 -0.234496 55.5526 -0.0256168 54.5422 0.580788C53.5318 1.18719 52.7832 2.14777 52.4418 3.27563C52.1004 4.40349 52.1908 5.61799 52.6954 6.6829C53.1999 7.74781 54.0825 8.58695 55.1715 9.03712C55.747 9.27511 56.3638 9.39744 56.9865 9.39712Z" fill="#F47D39"/>
<path d="M72.0757 26.7811L64.8051 13.9861L64.7941 13.9651L64.716 13.8141C64.6632 13.724 64.6044 13.6374 64.54 13.5551C64.0501 12.8311 63.3905 12.2381 62.6186 11.8277C61.8468 11.4174 60.9862 11.2023 60.112 11.2011H53.8607C53.0467 11.2026 52.2439 11.3899 51.5133 11.7488C50.7827 12.1077 50.1437 12.6287 49.6451 13.2721C49.4752 13.4304 49.3298 13.6131 49.2137 13.8141L41.8541 26.7811C41.5405 27.326 41.4562 27.9731 41.6197 28.5801C41.7832 29.1871 42.1811 29.7043 42.726 30.018C43.2708 30.3316 43.9179 30.4159 44.525 30.2524C45.132 30.0889 45.6492 29.691 45.9628 29.1461L49.8566 22.9161L46.837 38.0271C46.7617 38.3286 46.7952 38.647 46.9318 38.9262C47.0683 39.2054 47.299 39.4274 47.5832 39.5531C47.7718 39.6365 47.9773 39.6748 48.1832 39.6651H51.5514V48.8171C51.5527 49.4453 51.8032 50.0472 52.2478 50.4909C52.6924 50.9346 53.2949 51.1838 53.923 51.1838C54.5511 51.1838 55.1536 50.9346 55.5983 50.4909C56.0429 50.0472 56.2933 49.4453 56.2946 48.8171V39.6651H57.6778V48.8171C57.6791 49.4453 57.9296 50.0472 58.3742 50.4909C58.8188 50.9346 59.4213 51.1838 60.0494 51.1838C60.6776 51.1838 61.2801 50.9346 61.7247 50.4909C62.1693 50.0472 62.4197 49.4453 62.421 48.8171V39.6651H65.7464C65.9523 39.675 66.1577 39.6367 66.3462 39.5532C66.5347 39.4697 66.701 39.3433 66.832 39.1841C66.9627 39.025 67.0543 38.8374 67.0995 38.6365C67.1447 38.4356 67.1423 38.2269 67.0924 38.0271L64.073 22.9161L67.9668 29.1461C68.1217 29.4167 68.3284 29.654 68.5752 29.8446C68.8219 30.0351 69.1039 30.1751 69.4048 30.2565C69.7057 30.338 70.0198 30.3592 70.3289 30.3191C70.6381 30.279 70.9363 30.1783 71.2065 30.0228C71.4767 29.8673 71.7136 29.66 71.9035 29.4128C72.0935 29.1656 72.2329 28.8834 72.3136 28.5823C72.3943 28.2812 72.4149 27.9671 72.3741 27.658C72.3332 27.3489 72.2319 27.0509 72.0757 26.7811Z" fill="#F47D39"/>
<path d="M98.5248 9.39714C99.7032 9.39666 100.839 8.95787 101.712 8.16614C102.585 7.37441 103.132 6.28635 103.247 5.1136C103.362 3.94086 103.036 2.76728 102.334 1.82118C101.631 0.875083 100.602 0.224101 99.4462 -0.00513305C98.2904 -0.234367 97.0906 -0.0254599 96.0802 0.580949C95.0699 1.18736 94.3212 2.14792 93.9799 3.27576C93.6385 4.4036 93.7289 5.61808 94.2335 6.68297C94.738 7.74785 95.6206 8.58698 96.7096 9.03714C97.2852 9.2752 97.902 9.39752 98.5248 9.39714Z" fill="#F47D39"/>
<path d="M113.613 26.7812L106.342 13.9862L106.332 13.9652L106.253 13.8142C106.201 13.7237 106.142 13.6371 106.077 13.5552C105.587 12.831 104.928 12.2379 104.156 11.8275C103.384 11.4172 102.523 11.2021 101.649 11.2012H95.3981C94.5841 11.2026 93.7812 11.39 93.0506 11.7489C92.32 12.1078 91.681 12.6288 91.1823 13.2722C91.0125 13.4305 90.8672 13.6131 90.7511 13.8142L83.3914 26.7812C83.0795 27.3259 82.9965 27.9721 83.1604 28.578C83.3244 29.1839 83.722 29.7001 84.266 30.0132C84.81 30.3264 85.456 30.4109 86.0623 30.2484C86.6686 30.0859 87.1856 29.6895 87.5 29.1462L91.394 22.9162L88.3743 38.0272C88.2991 38.3287 88.3326 38.6471 88.4692 38.9263C88.6057 39.2054 88.8363 39.4274 89.1205 39.5532C89.3091 39.6365 89.5145 39.6749 89.7204 39.6652H93.0887V48.8172C93.09 49.4453 93.3405 50.0473 93.7851 50.491C94.2297 50.9347 94.8322 51.1839 95.4603 51.1839C96.0885 51.1839 96.691 50.9347 97.1356 50.491C97.5802 50.0473 97.8307 49.4453 97.8319 48.8172V39.6652H99.215V48.8172C99.2144 49.129 99.2753 49.4379 99.3941 49.7262C99.513 50.0145 99.6876 50.2765 99.9079 50.4972C100.128 50.7179 100.39 50.893 100.678 51.0125C100.966 51.132 101.275 51.1935 101.586 51.1935C101.898 51.1935 102.207 51.132 102.495 51.0125C102.783 50.893 103.045 50.7179 103.265 50.4972C103.485 50.2765 103.66 50.0145 103.779 49.7262C103.898 49.4379 103.959 49.129 103.958 48.8172V39.6652H107.284C107.49 39.6752 107.695 39.6369 107.883 39.5534C108.072 39.4699 108.238 39.3434 108.369 39.1842C108.5 39.0251 108.591 38.8376 108.637 38.6367C108.682 38.4358 108.68 38.227 108.63 38.0272L105.61 22.9162L109.504 29.1462C109.659 29.416 109.866 29.6526 110.113 29.8424C110.36 30.0322 110.641 30.1716 110.942 30.2526C111.242 30.3336 111.556 30.3545 111.865 30.3143C112.173 30.2741 112.471 30.1735 112.741 30.0182C113.011 29.8629 113.247 29.656 113.437 29.4093C113.627 29.1625 113.766 28.8809 113.847 28.5803C113.928 28.2797 113.949 27.9661 113.909 27.6574C113.869 27.3487 113.768 27.051 113.613 26.7812Z" fill="#F47D39"/>
<path d="M140.061 9.3971C141.238 9.39649 142.373 8.95796 143.245 8.1668C144.117 7.37564 144.664 6.28842 144.779 5.11661C144.893 3.94481 144.568 2.77221 143.866 1.82688C143.164 0.881552 142.136 0.231094 140.981 0.00202025C139.826 -0.227053 138.627 -0.0183652 137.618 0.5875C136.608 1.19337 135.86 2.15309 135.519 3.27999C135.178 4.40689 135.268 5.6204 135.772 6.68448C136.276 7.74857 137.158 8.58714 138.246 9.0371C138.821 9.27509 139.438 9.39742 140.061 9.3971Z" fill="#F47D39"/>
<path d="M155.15 26.7811L147.88 13.9861L147.869 13.9651L147.79 13.8141C147.738 13.7236 147.679 13.637 147.614 13.5551C147.124 12.8311 146.465 12.238 145.693 11.8277C144.921 11.4173 144.061 11.2022 143.187 11.2011H136.935C136.121 11.2025 135.318 11.3898 134.588 11.7487C133.857 12.1077 133.218 12.6287 132.72 13.2721C132.55 13.4303 132.404 13.6129 132.288 13.8141L124.929 26.7811C124.773 27.0499 124.672 27.347 124.632 27.6551C124.562 28.1987 124.682 28.7498 124.972 29.2148C125.262 29.6797 125.704 30.0298 126.223 30.2056C126.743 30.3813 127.307 30.3718 127.82 30.1786C128.332 29.9855 128.763 29.6206 129.037 29.1461L132.931 22.9161L129.912 38.0271C129.862 38.227 129.86 38.4358 129.905 38.6367C129.951 38.8377 130.042 39.0253 130.173 39.1844C130.304 39.3436 130.47 39.4699 130.659 39.5534C130.847 39.6369 131.052 39.6751 131.258 39.6651H134.626V48.8171C134.628 49.4449 134.878 50.0463 135.323 50.4896C135.767 50.9328 136.37 51.1817 136.997 51.1817C137.625 51.1817 138.227 50.9328 138.672 50.4896C139.116 50.0463 139.367 49.4449 139.369 48.8171V39.6651H140.752V48.8171C140.752 49.4462 141.002 50.0495 141.447 50.4944C141.891 50.9392 142.495 51.1891 143.124 51.1891C143.753 51.1891 144.356 50.9392 144.801 50.4944C145.246 50.0495 145.496 49.4462 145.496 48.8171V39.6651H148.821C149.027 39.6752 149.232 39.6371 149.42 39.5536C149.609 39.4702 149.775 39.3438 149.906 39.1846C150.037 39.0254 150.128 38.8379 150.174 38.6369C150.219 38.4359 150.217 38.227 150.167 38.0271L147.147 22.9161L151.041 29.1461C151.196 29.4159 151.403 29.6525 151.65 29.8423C151.897 30.0322 152.178 30.1715 152.479 30.2525C152.779 30.3335 153.093 30.3545 153.402 30.3143C153.71 30.274 154.008 30.1734 154.278 30.0181C154.548 29.8628 154.784 29.6559 154.974 29.4092C155.164 29.1625 155.303 28.8808 155.384 28.5802C155.465 28.2796 155.486 27.966 155.446 27.6573C155.406 27.3487 155.305 27.0509 155.15 26.7811Z" fill="#F47D39"/>
<path d="M181.599 9.3971C182.776 9.39624 183.911 8.9575 184.783 8.16621C185.655 7.37491 186.201 6.28764 186.316 5.11587C186.43 3.94409 186.105 2.77158 185.403 1.82638C184.701 0.881176 183.673 0.230866 182.518 0.00192184C181.363 -0.227022 180.164 -0.0182233 179.155 0.587699C178.145 1.19362 177.397 2.15334 177.056 3.28022C176.715 4.4071 176.805 5.62056 177.309 6.68459C177.813 7.74862 178.695 8.58716 179.783 9.0371C180.359 9.27522 180.976 9.39756 181.599 9.3971Z" fill="#F47D39"/>
<path d="M196.687 26.7811L189.417 13.9861L189.406 13.9651L189.328 13.8141C189.275 13.7241 189.216 13.6375 189.152 13.5551C188.662 12.8312 188.002 12.2382 187.231 11.8279C186.459 11.4175 185.598 11.2024 184.724 11.2011H178.472C177.658 11.2025 176.855 11.3898 176.125 11.7487C175.394 12.1077 174.756 12.6287 174.257 13.2721C174.087 13.4305 173.942 13.6132 173.825 13.8141L166.466 26.7811C166.272 27.1186 166.164 27.4987 166.152 27.8879C166.139 28.277 166.223 28.6632 166.396 29.0123C166.568 29.3613 166.824 29.6624 167.141 29.8889C167.457 30.1155 167.825 30.2605 168.211 30.3111C168.52 30.3515 168.834 30.3308 169.135 30.2501C169.436 30.1698 169.718 30.0309 169.965 29.8415C170.212 29.652 170.419 29.4157 170.574 29.1461L174.468 22.9161L171.449 38.0271C171.399 38.227 171.397 38.4358 171.442 38.6367C171.488 38.8377 171.58 39.0253 171.71 39.1844C171.841 39.3436 172.007 39.4699 172.196 39.5534C172.384 39.6369 172.589 39.6751 172.795 39.6651H176.163V48.8171C176.162 49.2865 176.3 49.7457 176.561 50.1362C176.821 50.5267 177.192 50.8309 177.626 51.0101C178.06 51.19 178.538 51.2371 178.998 51.1455C179.459 51.0538 179.882 50.8274 180.214 50.4951C180.434 50.2746 180.608 50.0129 180.727 49.725C180.846 49.4371 180.907 49.1286 180.906 48.8171V39.6651H182.289V48.8171C182.289 49.4462 182.539 50.0495 182.984 50.4944C183.429 50.9392 184.032 51.1891 184.661 51.1891C185.29 51.1891 185.894 50.9392 186.338 50.4944C186.783 50.0495 187.033 49.4462 187.033 48.8171V39.6651H190.358C190.564 39.6752 190.769 39.6371 190.958 39.5536C191.146 39.4702 191.312 39.3438 191.443 39.1846C191.574 39.0254 191.666 38.8379 191.711 38.6369C191.756 38.4359 191.754 38.227 191.704 38.0271L188.685 22.9161L192.578 29.1461C192.733 29.4159 192.94 29.6525 193.187 29.8423C193.434 30.0322 193.715 30.1715 194.016 30.2525C194.317 30.3335 194.63 30.3545 194.939 30.3143C195.248 30.274 195.545 30.1734 195.815 30.0181C196.085 29.8628 196.321 29.6559 196.511 29.4092C196.701 29.1625 196.841 28.8808 196.921 28.5802C197.002 28.2796 197.023 27.966 196.983 27.6573C196.943 27.3487 196.842 27.0509 196.687 26.7811Z" fill="#F47D39"/>
<path d="M15.4503 73.0291C16.6287 73.0287 17.7648 72.5899 18.6376 71.7982C19.5104 71.0065 20.0575 69.9185 20.1724 68.7457C20.2874 67.573 19.962 66.3994 19.2596 65.4533C18.5572 64.5072 17.5279 63.8562 16.3721 63.6269C15.2162 63.3976 14.0164 63.6065 13.006 64.2129C11.9957 64.8193 11.247 65.7799 10.9057 66.9077C10.5643 68.0356 10.6547 69.25 11.1592 70.3149C11.6638 71.3798 12.5464 72.219 13.6354 72.6691C14.2109 72.9071 14.8276 73.0294 15.4503 73.0291Z" fill="#F47D39"/>
<path d="M30.5391 90.4131L23.2685 77.6181L23.2575 77.5971L23.1794 77.4461C23.1265 77.356 23.0677 77.2695 23.0033 77.1871C22.5134 76.4632 21.8537 75.8701 21.0819 75.4598C20.3101 75.0494 19.4495 74.8343 18.5754 74.8331H12.324C11.51 74.8346 10.7071 75.0219 9.97653 75.3808C9.24595 75.7397 8.60696 76.2608 8.10833 76.9041C7.93851 77.0624 7.79319 77.2451 7.67712 77.4461L0.317439 90.4131C0.00603342 90.9578 -0.0767117 91.6038 0.0873673 92.2094C0.251446 92.815 0.648953 93.3309 1.19274 93.6439C1.73654 93.9569 2.38224 94.0415 2.98834 93.8793C3.59443 93.717 4.11146 93.321 4.42608 92.7781L8.32 86.5481L5.30032 101.659C5.22499 101.961 5.25854 102.279 5.39505 102.558C5.53155 102.837 5.76223 103.059 6.04644 103.185C6.23506 103.268 6.44047 103.307 6.64645 103.297H10.0146V112.449C10.0146 112.761 10.076 113.069 10.1952 113.357C10.3143 113.644 10.489 113.906 10.7093 114.126C10.9295 114.346 11.191 114.521 11.4787 114.64C11.7664 114.759 12.0748 114.821 12.3863 114.821C12.6977 114.821 13.0061 114.759 13.2939 114.64C13.5816 114.521 13.8431 114.346 14.0633 114.126C14.2835 113.906 14.4582 113.644 14.5774 113.357C14.6966 113.069 14.7579 112.761 14.7579 112.449V103.297H16.141V112.449C16.141 112.761 16.2024 113.069 16.3216 113.357C16.4407 113.644 16.6154 113.906 16.8357 114.126C17.0559 114.346 17.3174 114.521 17.6051 114.64C17.8928 114.759 18.2012 114.821 18.5127 114.821C18.8241 114.821 19.1325 114.759 19.4203 114.64C19.708 114.521 19.9695 114.346 20.1897 114.126C20.4099 113.906 20.5846 113.644 20.7038 113.357C20.823 113.069 20.8843 112.761 20.8843 112.449V103.297H24.2097C24.4155 103.307 24.6209 103.269 24.8094 103.186C24.9979 103.103 25.1642 102.976 25.295 102.817C25.4258 102.658 25.5176 102.47 25.5628 102.269C25.6081 102.068 25.6056 101.859 25.5556 101.659L22.5363 86.5481L26.4301 92.7781C26.5852 93.0484 26.792 93.2854 27.0388 93.4756C27.2855 93.6658 27.5673 93.8055 27.8681 93.8868C28.1688 93.968 28.4827 93.9892 28.7916 93.949C29.1006 93.9088 29.3986 93.8082 29.6686 93.6528C29.9386 93.4973 30.1754 93.2902 30.3653 93.0432C30.5552 92.7963 30.6945 92.5143 30.7754 92.2134C30.8562 91.9125 30.877 91.5986 30.8364 91.2897C30.7959 90.9808 30.6948 90.6829 30.5391 90.4131Z" fill="#F47D39"/>
<path d="M56.9875 73.0291C58.1658 73.0287 59.3019 72.5899 60.1747 71.7982C61.0475 71.0065 61.5946 69.9185 61.7096 68.7457C61.8245 67.573 61.4991 66.3994 60.7967 65.4533C60.0943 64.5072 59.065 63.8562 57.9092 63.6269C56.7533 63.3976 55.5535 63.6065 54.5432 64.2129C53.5328 64.8193 52.7841 65.7799 52.4428 66.9077C52.1014 68.0356 52.1918 69.25 52.6963 70.3149C53.2009 71.3798 54.0835 72.219 55.1725 72.6691C55.748 72.9071 56.3647 73.0294 56.9875 73.0291Z" fill="#F47D39"/>
<path d="M72.0764 90.4131L64.8058 77.6181L64.7948 77.5971L64.7167 77.4461C64.6639 77.356 64.6051 77.2695 64.5407 77.1871C64.0508 76.4631 63.3912 75.8701 62.6193 75.4597C61.8475 75.0494 60.9869 74.8343 60.1127 74.8331H53.8614C53.0474 74.8346 52.2445 75.0219 51.514 75.3808C50.7834 75.7397 50.1444 76.2607 49.6458 76.9041C49.4759 77.0624 49.3305 77.2451 49.2144 77.4461L41.8548 90.4131C41.5432 90.9579 41.4604 91.6039 41.6244 92.2097C41.7884 92.8154 42.186 93.3314 42.7298 93.6444C43.2737 93.9575 43.9196 94.0421 44.5257 93.8797C45.1319 93.7173 45.649 93.3212 45.9635 92.7781L49.8573 86.5481L46.8377 101.659C46.7624 101.961 46.7959 102.279 46.9325 102.558C47.069 102.837 47.2997 103.059 47.5839 103.185C47.7725 103.268 47.9779 103.307 48.1839 103.297H51.5521V112.449C51.5534 113.077 51.8038 113.679 52.2485 114.123C52.6931 114.567 53.2956 114.816 53.9237 114.816C54.5518 114.816 55.1543 114.567 55.599 114.123C56.0436 113.679 56.294 113.077 56.2953 112.449V103.297H57.6785V112.449C57.6798 113.077 57.9302 113.679 58.3749 114.123C58.8195 114.567 59.422 114.816 60.0501 114.816C60.6782 114.816 61.2807 114.567 61.7254 114.123C62.17 113.679 62.4204 113.077 62.4217 112.449V103.297H65.7471C65.953 103.307 66.1584 103.269 66.3469 103.185C66.5354 103.102 66.7017 102.975 66.8327 102.816C66.9634 102.657 67.055 102.469 67.1002 102.269C67.1454 102.068 67.143 101.859 67.0931 101.659L64.0737 86.5481L67.9675 92.7781C68.1224 93.0487 68.3291 93.286 68.5759 93.4766C68.8226 93.6671 69.1045 93.8071 69.4055 93.8885C69.7064 93.97 70.0204 93.9913 70.3296 93.9512C70.6388 93.9111 70.937 93.8104 71.2072 93.6548C71.4774 93.4993 71.7143 93.292 71.9042 93.0448C72.0942 92.7977 72.2336 92.5154 72.3143 92.2143C72.395 91.9132 72.4156 91.5991 72.3747 91.29C72.3339 90.981 72.2325 90.683 72.0764 90.4131Z" fill="#F47D39"/>
<path d="M98.5248 73.0291C99.7031 73.0286 100.839 72.5898 101.712 71.7981C102.585 71.0064 103.132 69.9183 103.247 68.7456C103.362 67.5729 103.036 66.3993 102.334 65.4532C101.631 64.5072 100.602 63.8562 99.4461 63.6269C98.2903 63.3977 97.0905 63.6066 96.0802 64.213C95.0699 64.8194 94.3212 65.78 93.9799 66.9078C93.6385 68.0356 93.7289 69.2501 94.2335 70.3149C94.738 71.3798 95.6206 72.219 96.7096 72.6691C97.2851 72.9072 97.9019 73.0295 98.5248 73.0291Z" fill="#F47D39"/>
<path d="M113.613 90.4131L106.342 77.6181L106.332 77.5971L106.253 77.4461C106.201 77.3556 106.142 77.2691 106.077 77.1871C105.587 76.463 104.928 75.8698 104.156 75.4595C103.384 75.0491 102.523 74.8341 101.649 74.8331H95.3981C94.5841 74.8346 93.7812 75.0219 93.0506 75.3808C92.32 75.7398 91.681 76.2608 91.1823 76.9041C91.0125 77.0624 90.8672 77.2451 90.7511 77.4461L83.3914 90.4131C83.0795 90.9579 82.9965 91.6041 83.1604 92.21C83.3244 92.8159 83.722 93.332 84.266 93.6452C84.81 93.9583 85.456 94.0429 86.0623 93.8804C86.6686 93.7178 87.1856 93.3214 87.5 92.7781L91.394 86.5481L88.3743 101.659C88.2991 101.961 88.3326 102.279 88.4692 102.558C88.6057 102.837 88.8363 103.059 89.1205 103.185C89.3091 103.268 89.5145 103.307 89.7204 103.297H93.0887V112.449C93.09 113.077 93.3405 113.679 93.7851 114.123C94.2297 114.567 94.8322 114.816 95.4603 114.816C96.0885 114.816 96.691 114.567 97.1356 114.123C97.5802 113.679 97.8307 113.077 97.8319 112.449V103.297H99.215V112.449C99.2144 112.761 99.2753 113.07 99.3941 113.358C99.513 113.646 99.6876 113.908 99.9079 114.129C100.128 114.35 100.39 114.525 100.678 114.644C100.966 114.764 101.275 114.825 101.586 114.825C101.898 114.825 102.207 114.764 102.495 114.644C102.783 114.525 103.045 114.35 103.265 114.129C103.485 113.908 103.66 113.646 103.779 113.358C103.898 113.07 103.959 112.761 103.958 112.449V103.297H107.284C107.49 103.307 107.695 103.269 107.883 103.185C108.072 103.102 108.238 102.975 108.369 102.816C108.5 102.657 108.591 102.47 108.637 102.269C108.682 102.068 108.68 101.859 108.63 101.659L105.61 86.5481L109.504 92.7781C109.659 93.0488 109.865 93.2863 110.112 93.477C110.359 93.6676 110.641 93.8077 110.942 93.8893C111.243 93.9708 111.557 93.9921 111.866 93.952C112.176 93.912 112.474 93.8113 112.744 93.6557C113.014 93.5001 113.251 93.2928 113.441 93.0455C113.631 92.7982 113.771 92.5159 113.851 92.2147C113.932 91.9135 113.953 91.5993 113.912 91.2902C113.871 90.981 113.769 90.683 113.613 90.4131Z" fill="#F47D39"/>
<path d="M140.061 73.0291C141.238 73.0285 142.373 72.59 143.245 71.7988C144.117 71.0077 144.664 69.9205 144.778 68.7487C144.893 67.5769 144.568 66.4043 143.866 65.459C143.164 64.5137 142.136 63.8632 140.981 63.6342C139.826 63.4051 138.627 63.6138 137.618 64.2196C136.608 64.8255 135.86 65.7852 135.519 66.9121C135.178 68.039 135.268 69.2524 135.772 70.3165C136.276 71.3806 137.158 72.2191 138.246 72.6691C138.821 72.9071 139.438 73.0294 140.061 73.0291Z" fill="#F47D39"/>
<path d="M155.15 90.4131L147.88 77.6181L147.869 77.5971L147.79 77.4461C147.738 77.3556 147.679 77.269 147.614 77.1871C147.124 76.4631 146.465 75.87 145.693 75.4596C144.921 75.0493 144.061 74.8342 143.187 74.8331H136.935C136.121 74.8345 135.318 75.0218 134.588 75.3807C133.857 75.7396 133.218 76.2607 132.72 76.9041C132.55 77.0622 132.404 77.2449 132.288 77.4461L124.929 90.4131C124.773 90.6818 124.672 90.9789 124.632 91.2871C124.562 91.8306 124.682 92.3817 124.972 92.8467C125.262 93.3117 125.704 93.6618 126.223 93.8375C126.743 94.0132 127.307 94.0037 127.819 93.8105C128.332 93.6174 128.763 93.2526 129.037 92.7781L132.931 86.5481L129.912 101.659C129.862 101.859 129.86 102.068 129.905 102.269C129.951 102.47 130.042 102.657 130.173 102.816C130.304 102.976 130.47 103.102 130.659 103.185C130.847 103.269 131.052 103.307 131.258 103.297H134.626V112.449C134.628 113.077 134.878 113.678 135.323 114.122C135.767 114.565 136.37 114.814 136.997 114.814C137.625 114.814 138.227 114.565 138.672 114.122C139.116 113.678 139.367 113.077 139.369 112.449V103.297H140.752V112.449C140.752 113.078 141.002 113.681 141.447 114.126C141.891 114.571 142.495 114.821 143.124 114.821C143.753 114.821 144.356 114.571 144.801 114.126C145.246 113.681 145.496 113.078 145.496 112.449V103.297H148.821C149.027 103.307 149.232 103.269 149.42 103.186C149.609 103.102 149.775 102.976 149.906 102.817C150.037 102.657 150.128 102.47 150.174 102.269C150.219 102.068 150.217 101.859 150.167 101.659L147.147 86.5481L151.041 92.7781C151.196 93.0479 151.403 93.2844 151.65 93.4743C151.897 93.6641 152.178 93.8035 152.479 93.8845C152.779 93.9654 153.093 93.9864 153.402 93.9462C153.71 93.906 154.008 93.8054 154.278 93.6501C154.548 93.4948 154.784 93.2879 154.974 93.0412C155.164 92.7944 155.303 92.5128 155.384 92.2122C155.465 91.9116 155.486 91.598 155.446 91.2893C155.406 90.9806 155.305 90.6829 155.15 90.4131Z" fill="#F47D39"/>
<path d="M14.947 137.38C16.032 137.379 17.0832 137.002 17.9214 136.314C18.7597 135.625 19.3331 134.666 19.5441 133.602C19.7551 132.538 19.5905 131.433 19.0785 130.477C18.5664 129.52 17.7386 128.771 16.736 128.356C15.7333 127.941 14.6179 127.887 13.5798 128.203C12.5417 128.518 11.645 129.184 11.0426 130.086C10.4402 130.989 10.1694 132.072 10.2761 133.152C10.3829 134.231 10.8607 135.241 11.6281 136.008C12.5091 136.887 13.7026 137.38 14.947 137.38ZM28.541 154.57L22.6843 141.921L22.6739 141.901L22.5966 141.751C22.5442 141.661 22.4859 141.576 22.4221 141.495C21.9372 140.778 21.2844 140.192 20.5206 139.785C19.7568 139.379 18.9053 139.166 18.0402 139.165H11.8537C11.0481 139.166 10.2535 139.352 9.53054 139.707C8.80755 140.062 8.17523 140.578 7.68182 141.214C7.51372 141.371 7.36984 141.552 7.25488 141.751L1.31036 154.57C1.00152 155.109 0.919168 155.748 1.08133 156.348C1.24348 156.948 1.63693 157.459 2.17535 157.769C2.71377 158.079 3.35317 158.163 3.9533 158.002C4.55344 157.841 5.0653 157.449 5.37655 156.911L9.56854 147.499V176.364C9.56854 176.986 9.81583 177.583 10.256 178.024C10.6961 178.464 11.2931 178.711 11.9156 178.711C12.538 178.711 13.135 178.464 13.5751 178.024C14.0153 177.583 14.2625 176.986 14.2625 176.364V161.591H15.6315V176.364C15.6315 176.987 15.8787 177.583 16.3189 178.024C16.759 178.464 17.356 178.711 17.9785 178.711C18.601 178.711 19.198 178.464 19.6381 178.024C20.0783 177.583 20.3256 176.987 20.3256 176.364V147.581L24.4748 156.911C24.6285 157.178 24.8333 157.413 25.0775 157.601C25.3217 157.789 25.6006 157.927 25.8982 158.007C26.1958 158.087 26.5063 158.108 26.8119 158.068C27.1176 158.028 27.4124 157.929 27.6795 157.775C27.9466 157.621 28.1808 157.416 28.3686 157.172C28.5565 156.927 28.6944 156.648 28.7744 156.351C28.8544 156.053 28.8749 155.743 28.8349 155.437C28.7948 155.131 28.695 154.837 28.541 154.57Z" fill="#569FD6"/>
<path d="M56.4868 137.38C57.5718 137.379 58.6229 137.002 59.4611 136.314C60.2993 135.625 60.8727 134.667 61.0837 133.602C61.2946 132.538 61.1301 131.434 60.6181 130.477C60.106 129.52 59.2782 128.771 58.2756 128.356C57.273 127.942 56.1576 127.887 55.1196 128.203C54.0815 128.518 53.1848 129.184 52.5824 130.086C51.9801 130.989 51.7092 132.072 51.8159 133.152C51.9227 134.231 52.4005 135.241 53.1679 136.008C54.0488 136.887 55.2424 137.38 56.4868 137.38ZM70.0808 154.57L64.224 141.921L64.2136 141.901L64.1363 141.751C64.084 141.661 64.0257 141.576 63.9618 141.495C63.477 140.778 62.8241 140.192 62.0604 139.785C61.2966 139.379 60.445 139.166 59.58 139.165H53.3934C52.5879 139.166 51.7933 139.352 51.0703 139.707C50.3473 140.062 49.715 140.578 49.2216 141.214C49.0535 141.371 48.9096 141.552 48.7946 141.751L42.8501 154.57C42.6963 154.837 42.5967 155.131 42.5568 155.437C42.517 155.742 42.5376 156.053 42.6177 156.35C42.6978 156.648 42.8357 156.927 43.0235 157.171C43.2114 157.415 43.4455 157.62 43.7125 157.774C43.9794 157.927 44.2741 158.027 44.5796 158.067C44.8851 158.107 45.1955 158.086 45.493 158.006C45.7905 157.926 46.0693 157.788 46.3135 157.6C46.5577 157.412 46.7626 157.178 46.9163 156.911L51.1083 147.499V176.364C51.1083 176.987 51.3556 177.584 51.7957 178.024C52.2359 178.464 52.8328 178.711 53.4553 178.711C54.0778 178.711 54.6747 178.464 55.1149 178.024C55.555 177.584 55.8023 176.987 55.8023 176.364V161.591H57.1713V176.364C57.1713 176.987 57.4186 177.584 57.8587 178.024C58.2989 178.464 58.8958 178.711 59.5183 178.711C60.1408 178.711 60.7377 178.464 61.1779 178.024C61.618 177.584 61.8653 176.987 61.8653 176.364V147.581L66.0146 156.911C66.1679 157.179 66.3726 157.414 66.6168 157.602C66.8611 157.791 67.1401 157.93 67.438 158.01C67.7359 158.091 68.0468 158.112 68.3528 158.072C68.6588 158.032 68.9539 157.933 69.2214 157.779C69.4888 157.625 69.7232 157.419 69.9112 157.175C70.0992 156.93 70.237 156.651 70.3169 156.352C70.3967 156.054 70.4169 155.743 70.3764 155.438C70.3359 155.132 70.2355 154.837 70.0808 154.57Z" fill="#569FD6"/>
</g>
</g>
<defs>
<clipPath id="clip0_137_1270">
<rect width="197" height="241" fill="white"/>
</clipPath>
<clipPath id="clip1_137_1270">
<rect width="197.004" height="241.03" fill="white" transform="translate(0 -0.0720215)"/>
</clipPath>
</defs>
</svg>
