<svg width="457" height="130" viewBox="0 0 457 130" fill="none" xmlns="http://www.w3.org/2000/svg">
<path d="M16.7747 11.6434C17.8246 11.6435 18.8509 11.3314 19.7239 10.7466C20.5968 10.1619 21.2773 9.33079 21.6791 8.35837C22.0809 7.38595 22.186 6.31584 21.9812 5.28352C21.7764 4.25119 21.2709 3.30295 20.5285 2.55868C19.7861 1.81441 18.8402 1.30762 17.8105 1.10227C16.7807 0.896924 15.7135 1.00228 14.7435 1.40507C13.7736 1.80786 12.9444 2.49001 12.3611 3.36517C11.7778 4.24033 11.4666 5.26915 11.4666 6.3217C11.4666 7.73309 12.0258 9.0867 13.0212 10.0847C14.0167 11.0827 15.3668 11.6434 16.7747 11.6434ZM32.1484 31.1653L25.5249 16.8006L25.513 16.7772L25.4256 16.6068C25.3664 16.5056 25.3005 16.4085 25.2283 16.3163C24.6806 15.5031 23.9426 14.8367 23.0788 14.3755C22.2149 13.9143 21.2516 13.6722 20.2729 13.6704H13.2763C12.3649 13.6722 11.4662 13.8828 10.6485 14.2862C9.83079 14.6896 9.11588 15.2751 8.5584 15.9979C8.36825 16.1757 8.20555 16.381 8.07556 16.6068L1.35273 31.1653C1.17836 31.468 1.06527 31.8021 1.01977 32.1487C0.974274 32.4953 0.997302 32.8475 1.0876 33.1851C1.1779 33.5227 1.33377 33.8393 1.54611 34.1165C1.75846 34.3938 2.02317 34.6263 2.32521 34.801C2.62725 34.9756 2.96063 35.0889 3.30635 35.1344C3.65207 35.1798 4.00332 35.1565 4.34006 35.0658C4.6768 34.9751 4.99237 34.8188 5.26883 34.6058C5.54529 34.3927 5.77717 34.1273 5.95124 33.8244L10.692 23.1345V55.9172C10.692 56.6229 10.9717 57.2997 11.4694 57.7987C11.9672 58.2978 12.6424 58.5781 13.3464 58.5781C14.0503 58.5781 14.7253 58.2978 15.2231 57.7987C15.7209 57.2997 16.0005 56.6229 16.0005 55.9172V39.1393H17.5488V55.9172C17.5488 56.6229 17.8283 57.2997 18.3261 57.7987C18.8238 58.2978 19.499 58.5781 20.203 58.5781C20.907 58.5781 21.5821 58.2978 22.0799 57.7987C22.5777 57.2997 22.8574 56.6229 22.8574 55.9172V23.2287L27.5499 33.8244C27.7239 34.1273 27.9558 34.3927 28.2323 34.6058C28.5088 34.8188 28.8243 34.9751 29.1611 35.0658C29.4978 35.1565 29.8491 35.1798 30.1948 35.1344C30.5405 35.0889 30.8739 34.9756 31.1759 34.801C31.478 34.6263 31.7427 34.3938 31.955 34.1165C32.1674 33.8393 32.3232 33.5227 32.4135 33.1851C32.5038 32.8475 32.5268 32.4953 32.4813 32.1487C32.4359 31.8021 32.3228 31.468 32.1484 31.1653Z" fill="#569FD6"/>
<path d="M63.7532 11.6434C64.8031 11.6435 65.8296 11.3314 66.7026 10.7466C67.5756 10.1619 68.2559 9.33079 68.6577 8.35837C69.0594 7.38595 69.1645 6.31584 68.9597 5.28352C68.7549 4.25119 68.2494 3.30295 67.507 2.55868C66.7647 1.81441 65.8187 1.30762 64.789 1.10227C63.7592 0.896924 62.692 1.00228 61.7221 1.40507C60.7521 1.80786 59.9229 2.49001 59.3396 3.36517C58.7563 4.24033 58.4451 5.26915 58.4451 6.3217C58.4451 7.73309 59.0043 9.0867 59.9998 10.0847C60.9952 11.0827 62.3454 11.6434 63.7532 11.6434ZM79.1269 31.1653L72.5035 16.8006L72.4915 16.7772L72.4041 16.6068C72.3449 16.5056 72.279 16.4085 72.2068 16.3163C71.6591 15.5031 70.9212 14.8367 70.0573 14.3755C69.1935 13.9143 68.2301 13.6722 67.2514 13.6704H60.255C59.3437 13.6722 58.4447 13.8829 57.627 14.2863C56.8093 14.6897 56.0944 15.2751 55.5369 15.9979C55.3468 16.1757 55.1841 16.381 55.0541 16.6068L48.3315 31.1653C48.1571 31.468 48.0438 31.8021 47.9983 32.1487C47.9528 32.4952 47.9758 32.8475 48.0661 33.1851C48.1564 33.5227 48.3123 33.8393 48.5246 34.1165C48.737 34.3938 49.0017 34.6263 49.3037 34.801C49.6058 34.9756 49.9391 35.0889 50.2849 35.1343C50.6306 35.1798 50.9818 35.1565 51.3186 35.0658C51.6553 34.9751 51.9709 34.8188 52.2473 34.6058C52.5238 34.3927 52.7557 34.1273 52.9298 33.8244L57.6705 23.1345V55.9172C57.6705 56.2666 57.7392 56.6127 57.8726 56.9355C58.0059 57.2584 58.2015 57.5516 58.448 57.7987C58.6944 58.0458 58.9871 58.2419 59.3091 58.3756C59.6311 58.5093 59.9761 58.5781 60.3247 58.5781C60.6732 58.5781 61.0184 58.5093 61.3405 58.3756C61.6625 58.2419 61.9551 58.0458 62.2016 57.7987C62.4481 57.5516 62.6436 57.2584 62.777 56.9355C62.9104 56.6127 62.979 56.2666 62.979 55.9172V39.1393H64.5271V55.9172C64.5263 56.2672 64.5943 56.614 64.7273 56.9376C64.8603 57.2612 65.0558 57.5554 65.3023 57.8032C65.5489 58.051 65.8416 58.2475 66.1641 58.3817C66.4866 58.5158 66.8324 58.5849 67.1815 58.5849C67.5306 58.5849 67.8763 58.5158 68.1987 58.3817C68.5212 58.2475 68.8141 58.051 69.0607 57.8032C69.3073 57.5554 69.5027 57.2612 69.6357 56.9376C69.7687 56.614 69.8366 56.2672 69.8357 55.9172V23.2287L74.5284 33.8244C74.7025 34.1273 74.9344 34.3927 75.2108 34.6058C75.4873 34.8188 75.8028 34.9751 76.1396 35.0658C76.4763 35.1565 76.8276 35.1798 77.1733 35.1343C77.519 35.0889 77.8524 34.9756 78.1544 34.801C78.4565 34.6263 78.7212 34.3938 78.9335 34.1165C79.1459 33.8393 79.3017 33.5227 79.392 33.1851C79.4823 32.8475 79.5054 32.4952 79.4599 32.1487C79.4144 31.8021 79.3013 31.468 79.1269 31.1653Z" fill="#569FD6"/>
<path d="M110.731 11.6434C111.781 11.6435 112.808 11.3314 113.681 10.7466C114.554 10.1619 115.234 9.33079 115.636 8.35837C116.037 7.38595 116.143 6.31584 115.938 5.28352C115.733 4.25119 115.227 3.30295 114.485 2.55868C113.743 1.81441 112.797 1.30762 111.767 1.10227C110.737 0.896924 109.67 1.00228 108.7 1.40507C107.73 1.80786 106.901 2.49001 106.318 3.36517C105.734 4.24033 105.423 5.26915 105.423 6.3217C105.423 7.73309 105.982 9.0867 106.978 10.0847C107.973 11.0827 109.324 11.6434 110.731 11.6434ZM126.105 31.1653L119.481 16.8006L119.47 16.7772L119.382 16.6068C119.323 16.5056 119.257 16.4085 119.185 16.3163C118.637 15.5031 117.899 14.8367 117.035 14.3755C116.171 13.9143 115.208 13.6722 114.229 13.6704H107.233C106.322 13.6722 105.423 13.8829 104.605 14.2863C103.787 14.6897 103.072 15.2751 102.515 15.9979C102.325 16.1758 102.162 16.381 102.032 16.6068L95.3095 31.1653C95.1351 31.468 95.0218 31.8021 94.9763 32.1487C94.9308 32.4953 94.9538 32.8475 95.0441 33.1851C95.1344 33.5227 95.2903 33.8393 95.5027 34.1165C95.715 34.3938 95.9797 34.6263 96.2818 34.801C96.5838 34.9756 96.9172 35.0889 97.2629 35.1344C97.6086 35.1798 97.9599 35.1565 98.2966 35.0658C98.6333 34.9751 98.9489 34.8188 99.2254 34.6058C99.5018 34.3927 99.7337 34.1273 99.9078 33.8244L104.649 23.1345V55.9172C104.649 56.6229 104.928 57.2997 105.426 57.7987C105.924 58.2978 106.599 58.5781 107.303 58.5781C108.007 58.5781 108.682 58.2978 109.18 57.7987C109.677 57.2997 109.957 56.6229 109.957 55.9172V39.1393H111.505V55.9172C111.505 56.6229 111.785 57.2997 112.283 57.7987C112.78 58.2978 113.456 58.5781 114.16 58.5781C114.863 58.5781 115.539 58.2978 116.036 57.7987C116.534 57.2997 116.814 56.6229 116.814 55.9172V23.2287L121.506 33.8244C121.68 34.1273 121.912 34.3927 122.189 34.6058C122.465 34.8188 122.781 34.9751 123.118 35.0658C123.454 35.1565 123.806 35.1798 124.151 35.1344C124.497 35.0889 124.83 34.9756 125.132 34.801C125.434 34.6263 125.699 34.3938 125.912 34.1165C126.124 33.8393 126.28 33.5227 126.37 33.1851C126.46 32.8475 126.483 32.4953 126.438 32.1487C126.392 31.8021 126.279 31.468 126.105 31.1653Z" fill="#569FD6"/>
<path d="M157.71 11.6434C158.76 11.6435 159.786 11.3314 160.659 10.7466C161.532 10.1619 162.212 9.33079 162.614 8.35837C163.016 7.38595 163.121 6.31584 162.916 5.28352C162.711 4.25119 162.206 3.30295 161.463 2.55868C160.721 1.81441 159.775 1.30762 158.745 1.10227C157.716 0.896924 156.648 1.00228 155.678 1.40507C154.708 1.80786 153.879 2.49001 153.296 3.36517C152.713 4.24033 152.401 5.26915 152.401 6.3217C152.401 7.73309 152.961 9.0867 153.956 10.0847C154.952 11.0827 156.302 11.6434 157.71 11.6434ZM173.083 31.1653L166.46 16.8006L166.448 16.7772L166.36 16.6068C166.301 16.5056 166.235 16.4086 166.163 16.3163C165.615 15.5031 164.877 14.8367 164.014 14.3755C163.15 13.9143 162.186 13.6722 161.208 13.6704H154.211C153.3 13.6722 152.401 13.8829 151.583 14.2863C150.766 14.6897 150.051 15.2751 149.493 15.9979C149.303 16.1757 149.14 16.381 149.01 16.6068L142.288 31.1653C142.113 31.468 142 31.8021 141.955 32.1487C141.909 32.4952 141.932 32.8475 142.022 33.1851C142.113 33.5227 142.269 33.8393 142.481 34.1165C142.693 34.3938 142.958 34.6263 143.26 34.801C143.562 34.9756 143.895 35.0889 144.241 35.1343C144.587 35.1798 144.938 35.1565 145.275 35.0658C145.612 34.9751 145.927 34.8188 146.204 34.6058C146.48 34.3927 146.712 34.1273 146.886 33.8244L151.627 23.1345V55.9172C151.626 56.2672 151.694 56.614 151.827 56.9376C151.96 57.2612 152.155 57.5554 152.402 57.8032C152.649 58.051 152.941 58.2475 153.264 58.3817C153.586 58.5158 153.932 58.5849 154.281 58.5849C154.63 58.5849 154.976 58.5158 155.298 58.3817C155.621 58.2475 155.914 58.051 156.16 57.8032C156.407 57.5554 156.602 57.2612 156.735 56.9376C156.868 56.614 156.936 56.2672 156.936 55.9172V39.1393H158.484V55.9172C158.484 56.6229 158.763 57.2997 159.261 57.7987C159.759 58.2978 160.434 58.5781 161.138 58.5781C161.842 58.5781 162.517 58.2978 163.015 57.7987C163.513 57.2997 163.792 56.6229 163.792 55.9172V23.2287L168.485 33.8244C168.659 34.1273 168.891 34.3927 169.167 34.6058C169.444 34.8188 169.759 34.9751 170.096 35.0658C170.433 35.1565 170.784 35.1798 171.13 35.1343C171.475 35.0889 171.809 34.9756 172.111 34.801C172.413 34.6263 172.678 34.3938 172.89 34.1165C173.102 33.8393 173.258 33.5227 173.348 33.1851C173.439 32.8475 173.462 32.4952 173.416 32.1487C173.371 31.8021 173.258 31.468 173.083 31.1653Z" fill="#569FD6"/>
<path d="M204.688 11.6434C205.738 11.6435 206.764 11.3314 207.637 10.7466C208.51 10.1619 209.19 9.33079 209.592 8.35837C209.994 7.38595 210.099 6.31584 209.894 5.28352C209.689 4.25119 209.184 3.30295 208.441 2.55868C207.699 1.81441 206.753 1.30762 205.724 1.10227C204.694 0.896924 203.626 1.00228 202.656 1.40507C201.686 1.80786 200.857 2.49001 200.274 3.36517C199.691 4.24033 199.379 5.26915 199.379 6.3217C199.379 7.73309 199.939 9.0867 200.934 10.0847C201.93 11.0827 203.28 11.6434 204.688 11.6434ZM220.061 31.1653L213.438 16.8006L213.426 16.7772L213.338 16.6068C213.279 16.5056 213.214 16.4085 213.141 16.3163C212.594 15.5031 211.855 14.8367 210.992 14.3755C210.128 13.9143 209.164 13.6722 208.186 13.6704H201.189C200.278 13.6722 199.379 13.8828 198.561 14.2862C197.744 14.6896 197.029 15.2751 196.471 15.9979C196.281 16.1757 196.118 16.3809 195.988 16.6068L189.266 31.1653C189.091 31.468 188.978 31.8021 188.933 32.1487C188.887 32.4953 188.91 32.8475 189 33.1851C189.091 33.5227 189.247 33.8393 189.459 34.1165C189.671 34.3938 189.936 34.6263 190.238 34.801C190.54 34.9756 190.873 35.0889 191.219 35.1344C191.565 35.1798 191.916 35.1565 192.253 35.0658C192.59 34.9751 192.905 34.8188 193.182 34.6058C193.458 34.3927 193.69 34.1273 193.864 33.8244L198.605 23.1345V55.9172C198.605 56.6229 198.885 57.2997 199.382 57.7987C199.88 58.2978 200.555 58.5781 201.259 58.5781C201.963 58.5781 202.638 58.2978 203.136 57.7987C203.634 57.2997 203.913 56.6229 203.913 55.9172V39.1393H205.462V55.9172C205.462 56.6229 205.741 57.2997 206.239 57.7987C206.737 58.2978 207.412 58.5781 208.116 58.5781C208.82 58.5781 209.495 58.2978 209.993 57.7987C210.491 57.2997 210.77 56.6229 210.77 55.9172V23.2287L215.463 33.8244C215.637 34.1273 215.869 34.3927 216.145 34.6058C216.422 34.8188 216.737 34.9751 217.074 35.0658C217.411 35.1565 217.762 35.1798 218.108 35.1344C218.453 35.0889 218.787 34.9756 219.089 34.801C219.391 34.6263 219.656 34.3938 219.868 34.1165C220.08 33.8393 220.236 33.5227 220.326 33.1851C220.417 32.8475 220.44 32.4953 220.394 32.1487C220.349 31.8021 220.236 31.468 220.061 31.1653Z" fill="#569FD6"/>
<path d="M251.666 11.6434C252.716 11.6435 253.742 11.3314 254.615 10.7466C255.488 10.1619 256.168 9.33079 256.57 8.35837C256.972 7.38595 257.077 6.31584 256.872 5.28352C256.668 4.25119 256.162 3.30295 255.42 2.55868C254.677 1.81441 253.731 1.30762 252.702 1.10227C251.672 0.896924 250.605 1.00228 249.635 1.40507C248.665 1.80786 247.836 2.49001 247.252 3.36517C246.669 4.24033 246.358 5.26915 246.358 6.3217C246.358 7.73309 246.917 9.0867 247.912 10.0847C248.908 11.0827 250.258 11.6434 251.666 11.6434ZM267.04 31.1653L260.416 16.8006L260.404 16.7772L260.317 16.6068C260.258 16.5056 260.192 16.4085 260.12 16.3163C259.572 15.5031 258.834 14.8367 257.97 14.3755C257.106 13.9143 256.143 13.6722 255.164 13.6704H248.168C247.256 13.6722 246.357 13.8828 245.54 14.2862C244.722 14.6896 244.007 15.2751 243.45 15.9979C243.259 16.1757 243.097 16.381 242.967 16.6068L236.244 31.1653C236.07 31.468 235.956 31.8021 235.911 32.1487C235.865 32.4953 235.888 32.8475 235.979 33.1851C236.069 33.5227 236.225 33.8393 236.437 34.1165C236.65 34.3938 236.914 34.6263 237.216 34.801C237.518 34.9756 237.852 35.0889 238.197 35.1344C238.543 35.1798 238.894 35.1565 239.231 35.0658C239.568 34.9751 239.884 34.8188 240.16 34.6058C240.437 34.3927 240.668 34.1273 240.843 33.8244L245.583 23.1345V55.9172C245.583 56.6229 245.863 57.2997 246.361 57.7987C246.858 58.2978 247.534 58.5781 248.237 58.5781C248.941 58.5781 249.617 58.2978 250.114 57.7987C250.612 57.2997 250.892 56.6229 250.892 55.9172V39.1393H252.44V55.9172C252.44 56.6229 252.72 57.2997 253.217 57.7987C253.715 58.2978 254.39 58.5781 255.094 58.5781C255.798 58.5781 256.473 58.2978 256.971 57.7987C257.469 57.2997 257.748 56.6229 257.748 55.9172V23.2287L262.441 33.8244C262.615 34.128 262.847 34.3941 263.123 34.6078C263.399 34.8215 263.715 34.9784 264.052 35.0696C264.389 35.1607 264.741 35.1842 265.087 35.1389C265.433 35.0936 265.767 34.9803 266.07 34.8054C266.372 34.6305 266.637 34.3975 266.85 34.1198C267.062 33.8421 267.218 33.5252 267.308 33.1871C267.398 32.8489 267.421 32.4962 267.375 32.1493C267.328 31.8024 267.215 31.468 267.04 31.1653Z" fill="#569FD6"/>
<path d="M298.644 11.6434C299.694 11.6435 300.72 11.3314 301.593 10.7466C302.466 10.1619 303.146 9.33079 303.548 8.35837C303.95 7.38595 304.055 6.31584 303.85 5.28352C303.646 4.25119 303.14 3.30295 302.398 2.55868C301.655 1.81441 300.709 1.30762 299.68 1.10227C298.65 0.896924 297.583 1.00228 296.613 1.40507C295.643 1.80786 294.814 2.49001 294.23 3.36517C293.647 4.24033 293.336 5.26915 293.336 6.3217C293.336 7.73309 293.895 9.0867 294.89 10.0847C295.886 11.0827 297.236 11.6434 298.644 11.6434ZM314.017 31.1653L307.394 16.8006L307.382 16.7772L307.295 16.6068C307.235 16.5056 307.17 16.4085 307.098 16.3163C306.55 15.5031 305.812 14.8367 304.948 14.3755C304.084 13.9143 303.121 13.6722 302.142 13.6704H295.146C294.234 13.6722 293.335 13.8829 292.518 14.2863C291.7 14.6897 290.985 15.2751 290.427 15.9979C290.237 16.1757 290.075 16.381 289.945 16.6068L283.222 31.1653C283.048 31.468 282.934 31.8021 282.889 32.1487C282.843 32.4952 282.867 32.8475 282.957 33.1851C283.047 33.5227 283.203 33.8393 283.415 34.1165C283.628 34.3938 283.892 34.6263 284.194 34.801C284.496 34.9756 284.83 35.0889 285.175 35.1343C285.521 35.1798 285.872 35.1565 286.209 35.0658C286.546 34.9751 286.862 34.8188 287.138 34.6058C287.415 34.3927 287.646 34.1273 287.821 33.8244L292.561 23.1345V55.9172C292.561 56.6229 292.841 57.2997 293.339 57.7987C293.836 58.2978 294.511 58.5781 295.215 58.5781C295.919 58.5781 296.595 58.2978 297.092 57.7987C297.59 57.2997 297.87 56.6229 297.87 55.9172V39.1393H299.418V55.9172C299.417 56.2672 299.485 56.614 299.618 56.9376C299.751 57.2612 299.946 57.5554 300.193 57.8032C300.439 58.051 300.732 58.2475 301.055 58.3817C301.377 58.5158 301.723 58.5849 302.072 58.5849C302.421 58.5849 302.767 58.5158 303.09 58.3817C303.412 58.2475 303.705 58.051 303.951 57.8032C304.198 57.5554 304.393 57.2612 304.526 56.9376C304.659 56.614 304.727 56.2672 304.726 55.9172V23.2287L309.419 33.8244C309.593 34.1273 309.825 34.3927 310.101 34.6058C310.378 34.8188 310.694 34.9751 311.03 35.0658C311.367 35.1565 311.718 35.1798 312.064 35.1343C312.41 35.0889 312.743 34.9756 313.045 34.801C313.347 34.6263 313.612 34.3938 313.824 34.1165C314.037 33.8393 314.192 33.5227 314.283 33.1851C314.373 32.8475 314.396 32.4952 314.351 32.1487C314.305 31.8021 314.192 31.468 314.017 31.1653Z" fill="#569FD6"/>
<path d="M345.622 11.6434C346.672 11.6435 347.698 11.3314 348.571 10.7466C349.444 10.1619 350.125 9.33079 350.526 8.35837C350.928 7.38595 351.034 6.31584 350.829 5.28352C350.624 4.25119 350.118 3.30295 349.376 2.55868C348.634 1.81441 347.688 1.30762 346.658 1.10227C345.628 0.896924 344.561 1.00228 343.591 1.40507C342.621 1.80786 341.792 2.49001 341.209 3.36517C340.625 4.24033 340.314 5.26915 340.314 6.3217C340.314 7.73309 340.873 9.0867 341.869 10.0847C342.864 11.0827 344.214 11.6434 345.622 11.6434ZM360.996 31.1653L354.372 16.8006L354.361 16.7772L354.273 16.6068C354.214 16.5056 354.148 16.4085 354.076 16.3163C353.528 15.5031 352.79 14.8367 351.926 14.3755C351.062 13.9143 350.099 13.6722 349.12 13.6704H342.124C341.212 13.6722 340.314 13.8829 339.496 14.2863C338.678 14.6897 337.963 15.2751 337.406 15.9979C337.216 16.1758 337.053 16.381 336.923 16.6068L330.2 31.1653C330.026 31.468 329.913 31.8021 329.867 32.1487C329.822 32.4953 329.845 32.8475 329.935 33.1851C330.025 33.5227 330.181 33.8393 330.393 34.1165C330.606 34.3938 330.871 34.6263 331.173 34.801C331.475 34.9756 331.808 35.0889 332.154 35.1344C332.499 35.1798 332.851 35.1565 333.188 35.0658C333.524 34.9751 333.84 34.8188 334.116 34.6058C334.393 34.3927 334.625 34.1273 334.799 33.8244L339.539 23.1345V55.9172C339.539 56.6229 339.819 57.2997 340.317 57.7987C340.815 58.2978 341.49 58.5781 342.194 58.5781C342.898 58.5781 343.573 58.2978 344.07 57.7987C344.568 57.2997 344.848 56.6229 344.848 55.9172V39.1393H346.396V55.9172C346.396 56.6229 346.676 57.2997 347.174 57.7987C347.671 58.2978 348.346 58.5781 349.05 58.5781C349.754 58.5781 350.43 58.2978 350.927 57.7987C351.425 57.2997 351.705 56.6229 351.705 55.9172V23.2287L356.397 33.8244C356.571 34.1273 356.803 34.3927 357.08 34.6058C357.356 34.8188 357.672 34.9751 358.008 35.0658C358.345 35.1565 358.696 35.1798 359.042 35.1344C359.388 35.0889 359.721 34.9756 360.023 34.801C360.325 34.6263 360.59 34.3938 360.803 34.1165C361.015 33.8393 361.171 33.5227 361.261 33.1851C361.351 32.8475 361.374 32.4953 361.329 32.1487C361.283 31.8021 361.17 31.468 360.996 31.1653Z" fill="#569FD6"/>
<path d="M392.472 11.5423C393.533 11.5423 394.57 11.2269 395.452 10.636C396.334 10.0451 397.022 9.20525 397.428 8.22265C397.834 7.24006 397.94 6.15887 397.733 5.11576C397.526 4.07265 397.015 3.11454 396.265 2.3625C395.515 1.61047 394.559 1.09828 393.519 0.890802C392.478 0.683322 391.4 0.789794 390.42 1.1968C389.44 1.6038 388.602 2.29306 388.012 3.17736C387.423 4.06167 387.108 5.10135 387.108 6.16489C387.108 6.87108 387.247 7.57033 387.517 8.22276C387.786 8.87519 388.181 9.46805 388.68 9.96739C389.178 10.4667 389.769 10.8628 390.42 11.133C391.07 11.4032 391.768 11.5424 392.472 11.5423Z" fill="#F47D39"/>
<path d="M409.537 31.2842L401.314 16.7541L401.302 16.7297L401.214 16.5576C401.154 16.4555 401.087 16.3574 401.015 16.264C400.461 15.4423 399.715 14.7689 398.842 14.3029C397.97 13.8368 396.996 13.5922 396.007 13.5903H388.937C388.016 13.5923 387.108 13.8052 386.282 14.2129C385.456 14.6205 384.733 15.2121 384.17 15.9424C383.978 16.1222 383.813 16.3295 383.682 16.5576L375.359 31.2842C375.183 31.5901 375.069 31.9277 375.023 32.2778C374.977 32.6279 375 32.9836 375.092 33.3246C375.183 33.6657 375.34 33.9853 375.555 34.2654C375.769 34.5454 376.037 34.7804 376.342 34.9568C376.647 35.1333 376.984 35.2477 377.333 35.2936C377.682 35.3396 378.037 35.3161 378.377 35.2246C378.717 35.1331 379.036 34.9753 379.316 34.7602C379.595 34.5451 379.829 34.2769 380.005 33.9711L384.409 26.8947L380.994 44.0563C380.938 44.2831 380.935 44.5201 380.986 44.7482C381.037 44.9764 381.141 45.1895 381.289 45.3703C381.437 45.5511 381.625 45.6946 381.838 45.7895C382.051 45.8844 382.283 45.9281 382.516 45.9168H386.326V56.311C386.326 57.0242 386.608 57.7081 387.111 58.2123C387.614 58.7166 388.296 58.9999 389.008 58.9999C389.719 58.9999 390.401 58.7166 390.904 58.2123C391.407 57.7081 391.69 57.0242 391.69 56.311V45.9168H393.254V56.311C393.254 57.0242 393.537 57.7081 394.04 58.2123C394.543 58.7166 395.225 58.9999 395.936 58.9999C396.647 58.9999 397.33 58.7166 397.833 58.2123C398.336 57.7081 398.618 57.0242 398.618 56.311V45.9168H402.379C402.612 45.9281 402.844 45.8845 403.058 45.7896C403.271 45.6947 403.459 45.5511 403.607 45.3703C403.755 45.1894 403.858 44.9764 403.909 44.7482C403.96 44.5201 403.958 44.2831 403.901 44.0563L400.487 26.8947L404.89 33.9711C405.066 34.2769 405.3 34.5451 405.58 34.7602C405.859 34.9753 406.178 35.1331 406.518 35.2246C406.858 35.3161 407.213 35.3396 407.562 35.2936C407.912 35.2477 408.248 35.1333 408.553 34.9568C408.859 34.7804 409.126 34.5454 409.341 34.2654C409.555 33.9853 409.713 33.6657 409.804 33.3246C409.895 32.9836 409.919 32.6279 409.873 32.2778C409.827 31.9277 409.713 31.5901 409.537 31.2842Z" fill="#F47D39"/>
<path d="M439.447 11.5423C440.508 11.5423 441.545 11.2269 442.427 10.636C443.309 10.0451 443.997 9.20525 444.403 8.22265C444.809 7.24006 444.915 6.15887 444.708 5.11576C444.501 4.07265 443.99 3.11454 443.24 2.3625C442.49 1.61047 441.534 1.09828 440.494 0.890802C439.453 0.683322 438.375 0.789794 437.395 1.1968C436.414 1.6038 435.577 2.29306 434.987 3.17736C434.398 4.06167 434.083 5.10135 434.083 6.16489C434.083 6.87108 434.222 7.57032 434.492 8.22276C434.761 8.87519 435.156 9.46805 435.654 9.96739C436.153 10.4667 436.744 10.8628 437.395 11.133C438.046 11.4032 438.743 11.5424 439.447 11.5423Z" fill="#F47D39"/>
<path d="M456.512 31.2842L448.29 16.7541L448.277 16.7297L448.189 16.5576C448.129 16.4555 448.062 16.3574 447.99 16.264C447.436 15.4423 446.69 14.769 445.818 14.3029C444.945 13.8368 443.971 13.5922 442.982 13.5903H435.912C434.991 13.5923 434.083 13.8052 433.257 14.2129C432.431 14.6205 431.708 15.2121 431.145 15.9424C430.953 16.1222 430.789 16.3295 430.657 16.5576L422.334 31.2842C422.158 31.5901 422.044 31.9277 421.998 32.2778C421.952 32.6279 421.976 32.9836 422.067 33.3246C422.158 33.6657 422.316 33.9853 422.53 34.2654C422.745 34.5454 423.012 34.7804 423.317 34.9568C423.622 35.1333 423.959 35.2477 424.308 35.2936C424.658 35.3396 425.012 35.3161 425.352 35.2246C425.693 35.1331 426.011 34.9753 426.291 34.7602C426.57 34.5451 426.804 34.2769 426.98 33.9711L431.384 26.8947L427.969 44.0563C427.913 44.2831 427.91 44.5201 427.961 44.7482C428.012 44.9764 428.116 45.1895 428.264 45.3703C428.412 45.5511 428.6 45.6946 428.813 45.7895C429.026 45.8844 429.259 45.9281 429.492 45.9168H433.301V56.311C433.301 57.0242 433.583 57.7081 434.086 58.2123C434.589 58.7166 435.271 58.9999 435.983 58.9999C436.694 58.9999 437.376 58.7166 437.879 58.2123C438.382 57.7081 438.665 57.0242 438.665 56.311V45.9168H440.229V56.311C440.229 57.0242 440.512 57.7081 441.015 58.2123C441.518 58.7166 442.2 58.9999 442.911 58.9999C443.623 58.9999 444.305 58.7166 444.808 58.2123C445.311 57.7081 445.593 57.0242 445.593 56.311V45.9168H449.354C449.587 45.9281 449.819 45.8845 450.033 45.7896C450.246 45.6947 450.434 45.5511 450.582 45.3703C450.73 45.1894 450.833 44.9764 450.884 44.7482C450.936 44.5201 450.933 44.2831 450.876 44.0563L447.462 26.8947L451.865 33.9711C452.041 34.2769 452.276 34.5451 452.555 34.7602C452.834 34.9753 453.153 35.1331 453.493 35.2246C453.833 35.3161 454.188 35.3396 454.537 35.2936C454.887 35.2477 455.223 35.1333 455.528 34.9568C455.834 34.7804 456.101 34.5454 456.316 34.2654C456.53 33.9853 456.688 33.6657 456.779 33.3246C456.87 32.9836 456.894 32.6279 456.848 32.2778C456.802 31.9277 456.688 31.5901 456.512 31.2842Z" fill="#F47D39"/>
<path d="M110.756 81.5423C111.817 81.5423 112.854 81.2269 113.736 80.636C114.618 80.0451 115.305 79.2052 115.711 78.2227C116.117 77.2401 116.223 76.1589 116.016 75.1158C115.809 74.0727 115.299 73.1145 114.548 72.3625C113.798 71.6105 112.843 71.0983 111.802 70.8908C110.762 70.6833 109.683 70.7898 108.703 71.1968C107.723 71.6038 106.885 72.2931 106.296 73.1774C105.706 74.0617 105.392 75.1014 105.392 76.1649C105.392 76.8711 105.53 77.5703 105.8 78.2228C106.07 78.8752 106.465 79.468 106.963 79.9674C107.461 80.4667 108.052 80.8628 108.703 81.133C109.354 81.4032 110.051 81.5424 110.756 81.5423Z" fill="#F47D39"/>
<path d="M127.82 101.284L119.598 86.7542L119.586 86.7298L119.497 86.5577C119.437 86.4556 119.371 86.3575 119.298 86.2641C118.745 85.4424 117.999 84.7691 117.126 84.303C116.253 83.8369 115.279 83.5923 114.29 83.5905H107.221C106.3 83.5924 105.392 83.8054 104.565 84.213C103.739 84.6206 103.016 85.2122 102.453 85.9425C102.261 86.1223 102.097 86.3297 101.966 86.5577L93.6422 101.284C93.4663 101.59 93.352 101.928 93.3062 102.278C93.2604 102.628 93.284 102.984 93.3753 103.325C93.4666 103.666 93.624 103.986 93.8385 104.266C94.053 104.546 94.3203 104.781 94.6254 104.957C94.9305 105.133 95.2675 105.248 95.6167 105.294C95.9659 105.34 96.3207 105.316 96.6609 105.225C97.0011 105.133 97.3198 104.975 97.5992 104.76C97.8785 104.545 98.1128 104.277 98.2888 103.971L102.692 96.8948L99.2776 114.056C99.221 114.283 99.2181 114.52 99.2693 114.748C99.3205 114.977 99.4242 115.19 99.5722 115.37C99.7201 115.551 99.9082 115.695 100.121 115.79C100.335 115.885 100.567 115.928 100.8 115.917H104.609V126.311C104.611 127.023 104.894 127.705 105.397 128.208C105.9 128.711 106.581 128.993 107.291 128.993C108.001 128.993 108.683 128.711 109.185 128.208C109.688 127.705 109.972 127.023 109.973 126.311V115.917H111.538V126.311C111.539 127.023 111.823 127.705 112.326 128.208C112.828 128.711 113.509 128.993 114.22 128.993C114.93 128.993 115.611 128.711 116.114 128.208C116.617 127.705 116.9 127.023 116.902 126.311V115.917H120.662C120.895 115.928 121.128 115.885 121.341 115.79C121.554 115.695 121.742 115.551 121.89 115.37C122.038 115.19 122.142 114.977 122.193 114.748C122.244 114.52 122.241 114.283 122.185 114.056L118.77 96.8948L123.174 103.971C123.349 104.277 123.584 104.545 123.863 104.76C124.143 104.975 124.461 105.133 124.802 105.225C125.142 105.316 125.497 105.34 125.846 105.294C126.195 105.248 126.532 105.133 126.837 104.957C127.142 104.781 127.409 104.546 127.624 104.266C127.839 103.986 127.996 103.666 128.087 103.325C128.179 102.984 128.202 102.628 128.156 102.278C128.11 101.928 127.996 101.59 127.82 101.284Z" fill="#F47D39"/>
<path d="M157.73 81.5423C158.791 81.5423 159.828 81.2269 160.71 80.636C161.592 80.0451 162.28 79.2052 162.686 78.2227C163.092 77.2401 163.198 76.1589 162.991 75.1158C162.784 74.0727 162.273 73.1145 161.523 72.3625C160.773 71.6105 159.817 71.0983 158.777 70.8908C157.736 70.6833 156.658 70.7898 155.678 71.1968C154.698 71.6038 153.86 72.2931 153.27 73.1774C152.681 74.0617 152.366 75.1014 152.366 76.1649C152.366 76.8711 152.505 77.5703 152.775 78.2228C153.044 78.8752 153.439 79.468 153.937 79.9674C154.436 80.4667 155.027 80.8628 155.678 81.133C156.328 81.4032 157.026 81.5424 157.73 81.5423Z" fill="#F47D39"/>
<path d="M174.795 101.284L166.572 86.7541L166.56 86.7297L166.472 86.5576C166.412 86.4555 166.345 86.3574 166.273 86.264C165.719 85.4423 164.973 84.7689 164.101 84.3029C163.228 83.8368 162.254 83.5922 161.265 83.5903H154.195C153.274 83.5923 152.366 83.8052 151.54 84.2129C150.713 84.6205 149.991 85.2121 149.428 85.9424C149.236 86.1222 149.071 86.3295 148.94 86.5576L140.617 101.284C140.441 101.59 140.327 101.928 140.281 102.278C140.235 102.628 140.258 102.984 140.35 103.325C140.441 103.666 140.598 103.985 140.813 104.265C141.028 104.545 141.295 104.78 141.6 104.957C141.905 105.133 142.242 105.248 142.591 105.294C142.94 105.34 143.295 105.316 143.635 105.225C143.976 105.133 144.294 104.975 144.574 104.76C144.853 104.545 145.087 104.277 145.263 103.971L149.667 96.8947L146.252 114.056C146.195 114.283 146.193 114.52 146.244 114.748C146.295 114.976 146.399 115.189 146.547 115.37C146.695 115.551 146.883 115.695 147.096 115.79C147.309 115.884 147.542 115.928 147.775 115.917H151.584V126.311C151.584 127.024 151.866 127.708 152.369 128.212C152.872 128.717 153.554 129 154.266 129C154.977 129 155.659 128.717 156.162 128.212C156.665 127.708 156.948 127.024 156.948 126.311V115.917H158.512V126.311C158.512 127.024 158.795 127.708 159.298 128.212C159.8 128.717 160.483 129 161.194 129C161.906 129 162.588 128.717 163.091 128.212C163.594 127.708 163.876 127.024 163.876 126.311V115.917H167.637C167.87 115.928 168.102 115.885 168.316 115.79C168.529 115.695 168.717 115.551 168.865 115.37C169.013 115.189 169.116 114.976 169.167 114.748C169.219 114.52 169.216 114.283 169.159 114.056L165.744 96.8947L170.148 103.971C170.324 104.277 170.558 104.545 170.838 104.76C171.117 104.975 171.436 105.133 171.776 105.225C172.116 105.316 172.471 105.34 172.82 105.294C173.169 105.248 173.506 105.133 173.812 104.957C174.117 104.78 174.384 104.545 174.598 104.265C174.813 103.985 174.97 103.666 175.062 103.325C175.153 102.984 175.177 102.628 175.131 102.278C175.085 101.928 174.971 101.59 174.795 101.284Z" fill="#F47D39"/>
<path d="M204.705 81.5423C205.766 81.5423 206.803 81.2269 207.685 80.636C208.567 80.0451 209.255 79.2052 209.661 78.2227C210.067 77.2401 210.173 76.1589 209.966 75.1158C209.759 74.0727 209.248 73.1145 208.498 72.3625C207.748 71.6105 206.792 71.0983 205.751 70.8908C204.711 70.6833 203.632 70.7898 202.652 71.1968C201.672 71.6038 200.834 72.2931 200.245 73.1774C199.656 74.0617 199.341 75.1014 199.341 76.1649C199.341 76.8711 199.48 77.5703 199.749 78.2228C200.019 78.8752 200.414 79.468 200.912 79.9674C201.41 80.4667 202.001 80.8628 202.652 81.133C203.303 81.4032 204.001 81.5424 204.705 81.5423Z" fill="#F47D39"/>
<path d="M221.77 101.284L213.547 86.7541L213.535 86.7297L213.446 86.5576C213.387 86.4555 213.32 86.3574 213.247 86.264C212.694 85.4423 211.948 84.769 211.075 84.3029C210.202 83.8368 209.229 83.5922 208.24 83.5903H201.17C200.249 83.5923 199.341 83.8052 198.514 84.2129C197.688 84.6205 196.966 85.2121 196.402 85.9424C196.21 86.1222 196.046 86.3295 195.915 86.5576L187.592 101.284C187.416 101.59 187.301 101.928 187.255 102.278C187.21 102.628 187.233 102.984 187.324 103.325C187.416 103.666 187.573 103.985 187.788 104.265C188.002 104.546 188.27 104.78 188.575 104.957C188.88 105.133 189.217 105.248 189.566 105.294C189.915 105.34 190.27 105.316 190.61 105.225C190.95 105.133 191.269 104.975 191.548 104.76C191.828 104.545 192.062 104.277 192.238 103.971L196.642 96.8947L193.227 114.056C193.17 114.283 193.167 114.52 193.219 114.748C193.27 114.976 193.373 115.189 193.521 115.37C193.669 115.551 193.857 115.695 194.07 115.79C194.284 115.884 194.516 115.928 194.749 115.917H198.558V126.311C198.56 127.023 198.843 127.705 199.346 128.208C199.849 128.711 200.53 128.993 201.24 128.993C201.951 128.993 202.632 128.711 203.134 128.208C203.637 127.705 203.921 127.023 203.922 126.311V115.917H205.487V126.311C205.488 127.023 205.772 127.705 206.275 128.208C206.777 128.711 207.459 128.993 208.169 128.993C208.879 128.993 209.56 128.711 210.063 128.208C210.566 127.705 210.849 127.023 210.851 126.311V115.917H214.612C214.845 115.928 215.077 115.885 215.29 115.79C215.503 115.695 215.691 115.551 215.839 115.37C215.987 115.189 216.091 114.976 216.142 114.748C216.193 114.52 216.19 114.283 216.134 114.056L212.719 96.8947L217.123 103.971C217.478 104.589 218.064 105.04 218.751 105.225C219.438 105.409 220.17 105.313 220.786 104.957C221.402 104.601 221.852 104.013 222.037 103.325C222.221 102.636 222.125 101.902 221.77 101.284Z" fill="#F47D39"/>
<path d="M251.68 81.5423C252.741 81.5423 253.778 81.2269 254.66 80.636C255.542 80.0451 256.229 79.2052 256.635 78.2227C257.041 77.2401 257.147 76.1589 256.94 75.1158C256.733 74.0727 256.223 73.1145 255.472 72.3625C254.722 71.6105 253.766 71.0983 252.726 70.8908C251.685 70.6833 250.607 70.7898 249.627 71.1968C248.647 71.6038 247.809 72.2931 247.22 73.1774C246.63 74.0617 246.316 75.1014 246.316 76.1649C246.316 76.8711 246.455 77.5703 246.724 78.2228C246.994 78.8752 247.389 79.468 247.887 79.9674C248.385 80.4667 248.976 80.8628 249.627 81.133C250.278 81.4032 250.975 81.5424 251.68 81.5423Z" fill="#F47D39"/>
<path d="M268.744 101.284L260.522 86.7541L260.509 86.7297L260.421 86.5576C260.361 86.4555 260.295 86.3574 260.222 86.264C259.669 85.4423 258.923 84.7689 258.05 84.3029C257.177 83.8368 256.204 83.5922 255.215 83.5903H248.145C247.224 83.5923 246.316 83.8052 245.489 84.2129C244.663 84.6205 243.941 85.2121 243.377 85.9424C243.185 86.1222 243.021 86.3295 242.889 86.5576L234.566 101.284C234.39 101.59 234.276 101.928 234.23 102.278C234.184 102.628 234.208 102.984 234.299 103.325C234.391 103.666 234.548 103.985 234.762 104.265C234.977 104.545 235.244 104.78 235.55 104.957C235.855 105.133 236.191 105.248 236.541 105.294C236.89 105.34 237.245 105.316 237.585 105.225C237.925 105.133 238.244 104.975 238.523 104.76C238.803 104.545 239.037 104.277 239.213 103.971L243.617 96.8947L240.202 114.056C240.145 114.283 240.142 114.52 240.193 114.748C240.245 114.976 240.348 115.189 240.496 115.37C240.644 115.551 240.832 115.695 241.045 115.79C241.259 115.884 241.491 115.928 241.724 115.917H245.533V126.311C245.533 127.024 245.816 127.708 246.319 128.212C246.822 128.717 247.504 129 248.215 129C248.927 129 249.609 128.717 250.112 128.212C250.615 127.708 250.897 127.024 250.897 126.311V115.917H252.462V126.311C252.462 127.024 252.744 127.708 253.247 128.212C253.75 128.717 254.432 129 255.144 129C255.855 129 256.537 128.717 257.04 128.212C257.543 127.708 257.826 127.024 257.826 126.311V115.917H261.586C261.819 115.928 262.052 115.885 262.265 115.79C262.478 115.695 262.666 115.551 262.814 115.37C262.962 115.189 263.066 114.976 263.117 114.748C263.168 114.52 263.165 114.283 263.109 114.056L259.694 96.8947L264.098 103.971C264.274 104.277 264.508 104.545 264.787 104.76C265.067 104.975 265.385 105.133 265.726 105.225C266.066 105.316 266.421 105.34 266.77 105.294C267.119 105.248 267.456 105.133 267.761 104.957C268.066 104.78 268.334 104.545 268.548 104.265C268.763 103.985 268.92 103.666 269.011 103.325C269.103 102.984 269.126 102.628 269.08 102.278C269.034 101.928 268.92 101.59 268.744 101.284Z" fill="#F47D39"/>
<path d="M298.654 81.5423C299.715 81.5423 300.752 81.2269 301.634 80.636C302.516 80.0451 303.204 79.2052 303.61 78.2227C304.016 77.2401 304.122 76.1589 303.915 75.1158C303.708 74.0727 303.197 73.1145 302.447 72.3625C301.697 71.6105 300.741 71.0983 299.701 70.8908C298.66 70.6833 297.582 70.7898 296.602 71.1968C295.621 71.6038 294.784 72.2931 294.194 73.1774C293.605 74.0617 293.291 75.1014 293.291 76.1649C293.291 76.8711 293.429 77.5703 293.699 78.2228C293.968 78.8752 294.363 79.468 294.862 79.9674C295.36 80.4667 295.951 80.8628 296.602 81.133C297.253 81.4032 297.95 81.5424 298.654 81.5423Z" fill="#F47D39"/>
<path d="M315.719 101.284L307.497 86.7541L307.484 86.7297L307.396 86.5576C307.336 86.4555 307.269 86.3574 307.197 86.264C306.643 85.4423 305.897 84.7689 305.024 84.3029C304.151 83.8368 303.178 83.5922 302.189 83.5903H295.119C294.198 83.5923 293.29 83.8052 292.464 84.2129C291.638 84.6205 290.915 85.2121 290.352 85.9424C290.16 86.1222 289.995 86.3295 289.864 86.5576L281.541 101.284C281.365 101.59 281.251 101.928 281.205 102.278C281.159 102.628 281.182 102.984 281.274 103.325C281.365 103.666 281.523 103.985 281.737 104.265C281.952 104.545 282.219 104.78 282.524 104.957C282.829 105.133 283.166 105.248 283.515 105.294C283.864 105.34 284.219 105.316 284.559 105.225C284.9 105.133 285.218 104.975 285.498 104.76C285.777 104.545 286.011 104.277 286.187 103.971L290.591 96.8947L287.176 114.056C287.12 114.283 287.117 114.52 287.168 114.748C287.219 114.976 287.323 115.189 287.471 115.37C287.619 115.551 287.807 115.695 288.02 115.79C288.233 115.884 288.466 115.928 288.699 115.917H292.508V126.311C292.509 127.023 292.793 127.705 293.296 128.208C293.798 128.711 294.48 128.993 295.19 128.993C295.9 128.993 296.581 128.711 297.084 128.208C297.587 127.705 297.87 127.023 297.872 126.311V115.917H299.436V126.311C299.438 127.023 299.721 127.705 300.224 128.208C300.727 128.711 301.408 128.993 302.118 128.993C302.828 128.993 303.51 128.711 304.012 128.208C304.515 127.705 304.799 127.023 304.8 126.311V115.917H308.561C308.794 115.928 309.026 115.885 309.24 115.79C309.453 115.695 309.641 115.551 309.789 115.37C309.937 115.189 310.04 114.976 310.092 114.748C310.143 114.52 310.14 114.283 310.083 114.056L306.669 96.8947L311.072 103.971C311.248 104.277 311.483 104.545 311.762 104.76C312.041 104.975 312.36 105.133 312.7 105.225C313.04 105.316 313.395 105.34 313.744 105.294C314.094 105.248 314.43 105.133 314.736 104.957C315.041 104.78 315.308 104.545 315.523 104.265C315.737 103.985 315.894 103.666 315.986 103.325C316.077 102.984 316.1 102.628 316.055 102.278C316.009 101.928 315.895 101.59 315.719 101.284Z" fill="#F47D39"/>
<path d="M345.63 81.5423C346.69 81.5423 347.727 81.2269 348.61 80.636C349.492 80.0451 350.179 79.2052 350.585 78.2227C350.991 77.2401 351.097 76.1589 350.89 75.1158C350.683 74.0727 350.172 73.1145 349.422 72.3625C348.672 71.6105 347.716 71.0983 346.676 70.8908C345.635 70.6833 344.557 70.7898 343.577 71.1968C342.597 71.6038 341.759 72.2931 341.17 73.1774C340.58 74.0617 340.266 75.1014 340.266 76.1649C340.266 76.8711 340.404 77.5703 340.674 78.2228C340.943 78.8752 341.339 79.468 341.837 79.9674C342.335 80.4667 342.926 80.8628 343.577 81.133C344.228 81.4032 344.925 81.5424 345.63 81.5423Z" fill="#F47D39"/>
<path d="M362.694 101.284L354.471 86.7541L354.459 86.7297L354.371 86.5576C354.311 86.4555 354.244 86.3574 354.172 86.264C353.618 85.4423 352.872 84.769 351.999 84.3029C351.127 83.8368 350.153 83.5922 349.164 83.5903H342.094C341.173 83.5923 340.265 83.8052 339.439 84.2129C338.612 84.6205 337.89 85.2121 337.327 85.9424C337.135 86.1222 336.97 86.3295 336.839 86.5576L328.516 101.284C328.34 101.59 328.226 101.928 328.18 102.278C328.134 102.628 328.157 102.984 328.249 103.325C328.34 103.666 328.497 103.985 328.712 104.265C328.926 104.545 329.194 104.78 329.499 104.957C329.804 105.133 330.141 105.248 330.49 105.294C330.839 105.34 331.194 105.316 331.534 105.225C331.874 105.133 332.193 104.975 332.473 104.76C332.752 104.545 332.986 104.277 333.162 103.971L337.566 96.8947L334.151 114.056C334.094 114.283 334.092 114.52 334.143 114.748C334.194 114.976 334.298 115.189 334.446 115.37C334.593 115.551 334.782 115.695 334.995 115.79C335.208 115.884 335.44 115.928 335.673 115.917H339.483V126.311C339.483 127.024 339.765 127.708 340.268 128.212C340.771 128.717 341.453 129 342.165 129C342.876 129 343.558 128.717 344.061 128.212C344.564 127.708 344.847 127.024 344.847 126.311V115.917H346.411V126.311C346.411 127.024 346.693 127.708 347.196 128.212C347.699 128.717 348.382 129 349.093 129C349.804 129 350.487 128.717 350.99 128.212C351.493 127.708 351.775 127.024 351.775 126.311V115.917H355.536C355.769 115.928 356.001 115.885 356.214 115.79C356.428 115.695 356.616 115.551 356.764 115.37C356.912 115.189 357.015 114.976 357.066 114.748C357.117 114.52 357.115 114.283 357.058 114.056L353.643 96.8947L358.047 103.971C358.223 104.277 358.457 104.545 358.737 104.76C359.016 104.975 359.335 105.133 359.675 105.225C360.015 105.316 360.37 105.34 360.719 105.294C361.069 105.248 361.405 105.133 361.71 104.957C362.016 104.78 362.283 104.545 362.498 104.265C362.712 103.985 362.869 103.666 362.961 103.325C363.052 102.984 363.076 102.628 363.03 102.278C362.984 101.928 362.87 101.59 362.694 101.284Z" fill="#F47D39"/>
<path d="M392.604 81.5423C393.665 81.5423 394.702 81.2269 395.584 80.636C396.466 80.0451 397.153 79.2052 397.559 78.2227C397.965 77.2401 398.071 76.1589 397.864 75.1158C397.657 74.0727 397.147 73.1145 396.396 72.3625C395.646 71.6105 394.691 71.0983 393.65 70.8908C392.61 70.6833 391.531 70.7898 390.551 71.1968C389.571 71.6038 388.733 72.2931 388.144 73.1774C387.554 74.0617 387.24 75.1014 387.24 76.1649C387.24 76.8711 387.379 77.5703 387.648 78.2228C387.918 78.8752 388.313 79.468 388.811 79.9674C389.309 80.4667 389.9 80.8628 390.551 81.133C391.202 81.4032 391.899 81.5424 392.604 81.5423Z" fill="#F47D39"/>
<path d="M409.668 101.284L401.446 86.7541L401.433 86.7297L401.345 86.5576C401.285 86.4555 401.219 86.3574 401.146 86.264C400.593 85.4423 399.847 84.7689 398.974 84.3029C398.101 83.8368 397.127 83.5922 396.138 83.5903H389.069C388.148 83.5923 387.24 83.8052 386.413 84.2129C385.587 84.6205 384.864 85.2121 384.301 85.9424C384.109 86.1222 383.945 86.3295 383.813 86.5576L375.49 101.284C375.314 101.59 375.2 101.928 375.154 102.278C375.108 102.628 375.132 102.984 375.223 103.325C375.314 103.666 375.472 103.985 375.686 104.265C375.901 104.545 376.168 104.78 376.473 104.957C376.778 105.133 377.115 105.248 377.464 105.294C377.814 105.34 378.168 105.316 378.509 105.225C378.849 105.133 379.168 104.975 379.447 104.76C379.726 104.545 379.961 104.277 380.137 103.971L384.54 96.8947L381.126 114.056C381.069 114.283 381.066 114.52 381.117 114.748C381.168 114.976 381.272 115.189 381.42 115.37C381.568 115.551 381.756 115.695 381.969 115.79C382.183 115.884 382.415 115.928 382.648 115.917H386.457V126.311C386.457 127.024 386.74 127.708 387.243 128.212C387.746 128.717 388.428 129 389.139 129C389.85 129 390.533 128.717 391.036 128.212C391.539 127.708 391.821 127.024 391.821 126.311V115.917H393.385V126.311C393.385 127.024 393.668 127.708 394.171 128.212C394.674 128.717 395.356 129 396.068 129C396.779 129 397.461 128.717 397.964 128.212C398.467 127.708 398.75 127.024 398.75 126.311V115.917H402.51C402.743 115.928 402.976 115.885 403.189 115.79C403.402 115.695 403.59 115.551 403.738 115.37C403.886 115.189 403.99 114.976 404.041 114.748C404.092 114.52 404.089 114.283 404.032 114.056L400.618 96.8947L405.021 103.971C405.197 104.277 405.432 104.545 405.711 104.76C405.99 104.975 406.309 105.133 406.65 105.225C406.99 105.316 407.345 105.34 407.694 105.294C408.043 105.248 408.38 105.133 408.685 104.957C408.99 104.78 409.257 104.545 409.472 104.265C409.686 103.985 409.844 103.666 409.935 103.325C410.026 102.984 410.05 102.628 410.004 102.278C409.958 101.928 409.844 101.59 409.668 101.284Z" fill="#F47D39"/>
<path d="M439.579 81.5423C440.639 81.5423 441.677 81.2269 442.559 80.636C443.441 80.0451 444.128 79.2052 444.534 78.2227C444.94 77.2401 445.046 76.1589 444.839 75.1158C444.632 74.0727 444.122 73.1145 443.371 72.3625C442.621 71.6105 441.665 71.0983 440.625 70.8908C439.584 70.6833 438.506 70.7898 437.526 71.1968C436.546 71.6038 435.708 72.2931 435.119 73.1774C434.529 74.0617 434.215 75.1014 434.215 76.1649C434.215 76.8711 434.353 77.5703 434.623 78.2228C434.893 78.8752 435.288 79.468 435.786 79.9674C436.284 80.4667 436.875 80.8628 437.526 81.133C438.177 81.4032 438.874 81.5424 439.579 81.5423Z" fill="#F47D39"/>
<path d="M456.643 101.284L448.421 86.7541L448.409 86.7297L448.32 86.5576C448.26 86.4555 448.194 86.3574 448.121 86.264C447.568 85.4423 446.822 84.769 445.949 84.3029C445.076 83.8368 444.102 83.5922 443.113 83.5903H436.044C435.123 83.5923 434.215 83.8052 433.388 84.2129C432.562 84.6205 431.839 85.2121 431.276 85.9424C431.084 86.1222 430.92 86.3295 430.789 86.5576L422.465 101.284C422.289 101.59 422.175 101.928 422.129 102.278C422.083 102.628 422.107 102.984 422.198 103.325C422.29 103.666 422.447 103.985 422.662 104.265C422.876 104.545 423.143 104.78 423.448 104.957C423.754 105.133 424.09 105.248 424.44 105.294C424.789 105.34 425.144 105.316 425.484 105.225C425.824 105.133 426.143 104.975 426.422 104.76C426.702 104.545 426.936 104.277 427.112 103.971L431.515 96.8947L428.101 114.056C428.044 114.283 428.041 114.52 428.092 114.748C428.143 114.976 428.247 115.189 428.395 115.37C428.543 115.551 428.731 115.695 428.944 115.79C429.158 115.884 429.39 115.928 429.623 115.917H433.432V126.311C433.432 127.024 433.715 127.708 434.218 128.212C434.721 128.717 435.403 129 436.114 129C436.826 129 437.508 128.717 438.011 128.212C438.514 127.708 438.796 127.024 438.796 126.311V115.917H440.361V126.311C440.361 127.024 440.643 127.708 441.146 128.212C441.649 128.717 442.331 129 443.043 129C443.754 129 444.436 128.717 444.939 128.212C445.442 127.708 445.725 127.024 445.725 126.311V115.917H449.485C449.718 115.928 449.951 115.885 450.164 115.79C450.377 115.695 450.565 115.551 450.713 115.37C450.861 115.189 450.965 114.976 451.016 114.748C451.067 114.52 451.064 114.283 451.008 114.056L447.593 96.8947L451.996 103.971C452.172 104.277 452.407 104.545 452.686 104.76C452.966 104.975 453.284 105.133 453.625 105.225C453.965 105.316 454.32 105.34 454.669 105.294C455.018 105.248 455.355 105.133 455.66 104.957C455.965 104.78 456.232 104.545 456.447 104.265C456.662 103.985 456.819 103.666 456.91 103.325C457.002 102.984 457.025 102.628 456.979 102.278C456.933 101.928 456.819 101.59 456.643 101.284Z" fill="#F47D39"/>
<path d="M63.4722 81.7549C64.5331 81.7548 65.5702 81.4394 66.4523 80.8485C67.3344 80.2577 68.0218 79.4178 68.4278 78.4352C68.8337 77.4526 68.9399 76.3714 68.7329 75.3283C68.5259 74.2852 68.0152 73.3271 67.265 72.575C66.5149 71.823 65.5592 71.3108 64.5187 71.1033C63.4782 70.8958 62.3995 71.0023 61.4194 71.4093C60.4393 71.8163 59.6016 72.5056 59.0122 73.3899C58.4228 74.2742 58.1084 75.3139 58.1084 76.3774C58.1084 77.0836 58.247 77.7829 58.5166 78.4353C58.7862 79.0877 59.1813 79.6806 59.6794 80.1799C60.1775 80.6793 60.7688 81.0753 61.4196 81.3455C62.0704 81.6157 62.7678 81.7549 63.4722 81.7549Z" fill="#F47D39"/>
<path d="M80.537 101.497L72.3145 86.9667L72.3022 86.9423L72.2137 86.7703C72.1539 86.6681 72.0873 86.57 72.0146 86.4767C71.4611 85.6549 70.7153 84.9816 69.8424 84.5155C68.9695 84.0495 67.996 83.8048 67.007 83.803H59.9372C59.0163 83.8049 58.1081 84.0179 57.2818 84.4255C56.4555 84.8331 55.733 85.4247 55.1697 86.1551C54.9777 86.3349 54.8135 86.5422 54.6821 86.7703L46.3588 101.497C46.1828 101.803 46.0686 102.14 46.0228 102.491C45.9769 102.841 46.0005 103.196 46.0918 103.537C46.1831 103.878 46.3405 104.198 46.5551 104.478C46.7696 104.758 47.0369 104.993 47.342 105.169C47.6471 105.346 47.984 105.46 48.3332 105.506C48.6825 105.552 49.0373 105.529 49.3775 105.437C49.7176 105.346 50.0364 105.188 50.3157 104.973C50.5951 104.758 50.8294 104.49 51.0053 104.184L55.409 97.1073L51.9941 114.269C51.9376 114.496 51.9347 114.733 51.9859 114.961C52.037 115.189 52.1408 115.402 52.2887 115.583C52.4367 115.764 52.6248 115.907 52.8379 116.002C53.0511 116.097 53.2834 116.141 53.5164 116.129H57.3255V126.524C57.3273 127.236 57.6107 127.918 58.1135 128.421C58.6163 128.923 59.2976 129.206 60.0077 129.206C60.7179 129.206 61.3992 128.923 61.902 128.421C62.4048 127.918 62.6882 127.236 62.6899 126.524V116.129H64.2541V126.524C64.2559 127.236 64.5393 127.918 65.0421 128.421C65.5449 128.923 66.2259 129.206 66.9361 129.206C67.6463 129.206 68.3275 128.923 68.8303 128.421C69.3332 127.918 69.6165 127.236 69.6183 126.524V116.129H73.379C73.612 116.141 73.8443 116.097 74.0575 116.002C74.2706 115.907 74.4588 115.764 74.6067 115.583C74.7546 115.402 74.8582 115.189 74.9093 114.961C74.9604 114.733 74.9577 114.496 74.9011 114.269L71.4866 97.1073L75.8901 104.184C76.066 104.49 76.3005 104.758 76.5799 104.973C76.8592 105.188 77.178 105.346 77.5181 105.437C77.8583 105.529 78.2131 105.552 78.5624 105.506C78.9116 105.46 79.2483 105.346 79.5534 105.169C79.8585 104.993 80.126 104.758 80.3405 104.478C80.5551 104.198 80.7125 103.878 80.8038 103.537C80.8951 103.196 80.9185 102.841 80.8726 102.491C80.8268 102.14 80.713 101.803 80.537 101.497Z" fill="#F47D39"/>
<path d="M17.4722 81.7549C18.5331 81.7548 19.5702 81.4394 20.4523 80.8485C21.3344 80.2577 22.0218 79.4178 22.4278 78.4352C22.8337 77.4526 22.9399 76.3714 22.7329 75.3283C22.5259 74.2852 22.0152 73.3271 21.265 72.575C20.5149 71.823 19.5592 71.3108 18.5187 71.1033C17.4782 70.8958 16.3995 71.0023 15.4194 71.4093C14.4393 71.8163 13.6016 72.5056 13.0122 73.3899C12.4228 74.2742 12.1084 75.3139 12.1084 76.3774C12.1084 77.0836 12.247 77.7829 12.5166 78.4353C12.7862 79.0877 13.1813 79.6806 13.6794 80.1799C14.1775 80.6793 14.7688 81.0753 15.4196 81.3455C16.0704 81.6157 16.7678 81.7549 17.4722 81.7549Z" fill="#F47D39"/>
<path d="M34.537 101.497L26.3145 86.9667L26.3022 86.9423L26.2137 86.7703C26.1539 86.6681 26.0873 86.57 26.0146 86.4767C25.4611 85.6549 24.7153 84.9816 23.8424 84.5155C22.9695 84.0495 21.996 83.8048 21.007 83.803H13.9372C13.0163 83.8049 12.1081 84.0179 11.2818 84.4255C10.4555 84.8331 9.73305 85.4247 9.16967 86.1551C8.9777 86.3349 8.81348 86.5422 8.68209 86.7703L0.3588 101.497C0.182823 101.803 0.0685762 102.14 0.0227513 102.491C-0.0230737 102.841 0.000512977 103.196 0.0918165 103.537C0.18312 103.878 0.340537 104.198 0.555069 104.478C0.769601 104.758 1.0369 104.993 1.342 105.169C1.6471 105.346 1.98402 105.46 2.33324 105.506C2.68246 105.552 3.03729 105.529 3.37746 105.437C3.71764 105.346 4.03638 105.188 4.31572 104.973C4.59506 104.758 4.82937 104.49 5.00534 104.184L9.40902 97.1073L5.99411 114.269C5.93758 114.496 5.9347 114.733 5.98586 114.961C6.03702 115.189 6.14078 115.402 6.28872 115.583C6.43666 115.764 6.62475 115.907 6.83794 116.002C7.05113 116.097 7.28343 116.141 7.51643 116.129H11.3255V126.524C11.3273 127.236 11.6107 127.918 12.1135 128.421C12.6163 128.923 13.2976 129.206 14.0077 129.206C14.7179 129.206 15.3992 128.923 15.902 128.421C16.4048 127.918 16.6882 127.236 16.6899 126.524V116.129H18.2541V126.524C18.2559 127.236 18.5393 127.918 19.0421 128.421C19.5449 128.923 20.2259 129.206 20.9361 129.206C21.6463 129.206 22.3275 128.923 22.8303 128.421C23.3332 127.918 23.6165 127.236 23.6183 126.524V116.129H27.379C27.612 116.141 27.8443 116.097 28.0575 116.002C28.2706 115.907 28.4588 115.764 28.6067 115.583C28.7546 115.402 28.8582 115.189 28.9093 114.961C28.9604 114.733 28.9577 114.496 28.9011 114.269L25.4866 97.1073L29.8901 104.184C30.066 104.49 30.3005 104.758 30.5799 104.973C30.8592 105.188 31.178 105.346 31.5181 105.437C31.8583 105.529 32.2131 105.552 32.5624 105.506C32.9116 105.46 33.2483 105.346 33.5534 105.169C33.8585 104.993 34.126 104.758 34.3405 104.478C34.5551 104.198 34.7125 103.878 34.8038 103.537C34.8951 103.196 34.9185 102.841 34.8726 102.491C34.8268 102.14 34.713 101.803 34.537 101.497Z" fill="#F47D39"/>
</svg>
