<svg width="41" height="53" viewBox="0 0 41 53" fill="none" xmlns="http://www.w3.org/2000/svg">
<g clip-path="url(#clip0_64_1325)">
<path d="M33.4372 32.0647C34.4233 32.0647 35.3872 31.7751 36.2072 31.2323C37.0272 30.6895 37.6663 29.918 38.0437 29.0153C38.4211 28.1126 38.5198 27.1192 38.3275 26.161C38.1351 25.2027 37.6603 24.3224 36.963 23.6315C36.2657 22.9406 35.3772 22.4702 34.4101 22.2796C33.4429 22.089 32.4404 22.1869 31.5294 22.5608C30.6183 22.9348 29.8395 23.568 29.2917 24.3804C28.7439 25.1929 28.4516 26.148 28.4517 27.1251C28.4532 28.4347 28.9791 29.6901 29.9137 30.6162C30.8483 31.5422 32.1155 32.0631 33.4372 32.0647ZM33.4372 23.8302C34.0948 23.8301 34.7376 24.0233 35.2844 24.3852C35.8312 24.7472 36.2575 25.2616 36.5093 25.8636C36.761 26.4655 36.827 27.128 36.6988 27.767C36.5706 28.4061 36.254 28.9932 35.789 29.454C35.324 29.9148 34.7315 30.2286 34.0865 30.3558C33.4415 30.483 32.7729 30.4179 32.1653 30.1686C31.5577 29.9193 31.0385 29.4971 30.6731 28.9553C30.3077 28.4136 30.1124 27.7767 30.1124 27.1251C30.1135 26.2517 30.4642 25.4144 31.0875 24.7967C31.7107 24.179 32.5557 23.8315 33.4372 23.8302ZM21.0776 31.1913C22.0136 30.661 22.8013 29.9079 23.3696 29C23.938 28.0922 24.2691 27.0583 24.3328 25.9918C24.3964 24.9254 24.1907 23.86 23.7343 22.8921C23.278 21.9242 22.5854 21.0844 21.7191 20.4485C20.8527 19.8125 19.8399 19.4005 18.7725 19.2498C17.7051 19.0992 16.6167 19.2146 15.6056 19.5856C14.5944 19.9565 13.6925 20.5713 12.9815 21.3744C12.2705 22.1776 11.7729 23.1436 11.5335 24.1853C11.3518 24.8332 10.9207 25.3846 10.333 25.7209C9.74518 26.0571 9.04766 26.1514 8.39047 25.9834C7.26066 25.6359 6.0562 25.602 4.90831 25.8854C3.76042 26.1688 2.71303 26.7586 1.87984 27.5907C1.04666 28.4228 0.459587 29.4653 0.182653 30.6048C-0.0942803 31.7444 -0.0504522 32.9373 0.309152 34.054C0.602478 34.9709 1.09972 35.811 1.76429 36.5121C2.42886 37.2133 3.24372 37.7577 4.14891 38.1053C5.0541 38.4528 6.02643 38.5947 6.99432 38.5204C7.96221 38.4461 8.90107 38.1575 9.74141 37.6759C10.5105 37.2387 11.1792 36.6475 11.705 35.9401C12.2308 35.2327 12.602 34.4245 12.7952 33.5671C12.9737 32.9117 13.4072 32.3531 14.0006 32.0138C14.594 31.6745 15.2989 31.5821 15.9609 31.7569C16.8068 32.0192 17.6984 32.1044 18.5793 32.007C19.4601 31.9096 20.3109 31.6319 21.0776 31.1913ZM13.1682 30.5895C12.6736 30.8664 12.2416 31.2409 11.899 31.69C11.5564 32.139 11.3106 32.6529 11.1767 33.1999C11.0335 33.8364 10.7581 34.4364 10.368 34.9616C9.97796 35.4868 9.48177 35.9258 8.91106 36.2506C8.28949 36.6076 7.595 36.8221 6.87877 36.8783C6.16255 36.9345 5.4428 36.8309 4.77228 36.5752C4.09329 36.315 3.4817 35.9075 2.98245 35.3825C2.4832 34.8575 2.10894 34.2284 1.88714 33.5414C1.66116 32.8292 1.60675 32.0745 1.72841 31.3377C1.85008 30.601 2.14447 29.9028 2.58775 29.2991C3.03103 28.6954 3.61084 28.2031 4.28089 27.8616C4.95093 27.5202 5.69252 27.3392 6.44596 27.3331C6.93882 27.3343 7.42868 27.4091 7.89907 27.5548C8.44323 27.7052 9.0121 27.7464 9.57254 27.6761C10.133 27.6059 10.6737 27.4255 11.1629 27.1456C11.6521 26.8657 12.08 26.4918 12.4216 26.046C12.7632 25.6001 13.0114 25.0913 13.152 24.5491C13.3459 23.7004 13.7707 22.9205 14.3803 22.294C14.9899 21.6675 15.7609 21.2183 16.6098 20.9953C17.4588 20.7723 18.3532 20.7838 19.196 21.0287C20.0388 21.2737 20.7978 21.7426 21.3906 22.3847C21.8801 22.9184 22.2427 23.5539 22.4521 24.2445C22.6614 24.9352 22.7122 25.6636 22.6005 26.3762C22.4889 27.0795 22.2195 27.7491 21.8123 28.3358C21.4051 28.9224 20.8703 29.4111 20.2473 29.7659C19.6778 30.0928 19.0457 30.2988 18.3916 30.3707C17.7374 30.4426 17.0754 30.3789 16.4475 30.1837C15.902 30.0249 15.3294 29.979 14.7653 30.0488C14.2011 30.1186 13.6575 30.3027 13.1682 30.5895ZM38.8199 41.7679C37.9872 41.0365 36.9782 40.5302 35.8903 40.2982C34.8025 40.0661 33.6728 40.116 32.6101 40.443C31.9529 40.6109 31.2554 40.5167 30.6676 40.1805C30.0799 39.8442 29.6488 39.2928 29.4671 38.6449C29.2062 37.5017 28.6338 36.4513 27.8123 35.608C26.9907 34.7648 25.9514 34.1608 24.8075 33.8621C23.6637 33.5633 22.4591 33.5811 21.3248 33.9136C20.1904 34.246 19.1699 34.8804 18.3741 35.7476C17.7204 36.4582 17.2357 37.3048 16.9557 38.2254C16.6757 39.1459 16.6074 40.1169 16.756 41.067C16.9046 42.017 17.2662 42.922 17.8142 43.7154C18.3622 44.5088 19.0829 45.1704 19.9229 45.6516C20.6891 46.0934 21.54 46.372 22.4211 46.4694C23.3021 46.5668 24.194 46.4809 25.0396 46.2172C25.7018 46.0423 26.4069 46.1347 27.0004 46.4742C27.5938 46.8137 28.0272 47.3726 28.2054 48.0282C28.3986 48.8855 28.77 49.6935 29.2958 50.4008C29.8216 51.108 30.4902 51.699 31.2592 52.1362C32.6504 52.9326 34.2903 53.1893 35.8616 52.8565C37.4328 52.5237 38.8236 51.625 39.7646 50.3346C40.7056 49.0441 41.1299 47.4537 40.9554 45.8711C40.7808 44.2886 40.0199 42.8265 38.8199 41.7679ZM39.1118 48.0018C38.8909 48.6888 38.5173 49.3179 38.0185 49.843C37.5198 50.368 36.9086 50.7756 36.2299 51.0356C35.5592 51.2919 34.839 51.3958 34.1224 51.3396C33.4058 51.2834 32.7112 51.0686 32.0895 50.711C31.5189 50.3863 31.0228 49.9474 30.6327 49.4224C30.2427 48.8973 29.9672 48.2974 29.8239 47.6611C29.6901 47.1136 29.4441 46.5992 29.1012 46.1498C28.7583 45.7005 28.3259 45.3259 27.8307 45.0491C27.1839 44.6764 26.4496 44.4786 25.7013 44.4755C25.3123 44.4751 24.9253 44.5319 24.5531 44.6442C23.9253 44.8405 23.2629 44.9047 22.6086 44.8328C21.9543 44.7609 21.3224 44.5543 20.7533 44.2264C20.1303 43.8714 19.5955 43.3825 19.1883 42.7958C18.781 42.209 18.5117 41.5393 18.4001 40.8359C18.2881 40.1233 18.3388 39.3948 18.5485 38.7042C18.7581 38.0136 19.1214 37.3783 19.6116 36.8452C20.2371 36.1659 21.048 35.681 21.9461 35.4491C22.8442 35.2172 23.7909 35.2483 24.6715 35.5387C25.4609 35.7916 26.1695 36.2451 26.7269 36.854C27.2843 37.4628 27.6711 38.2057 27.8486 39.0087C27.989 39.5511 28.2373 40.0601 28.579 40.5061C28.9206 40.9522 29.3487 41.3261 29.8381 41.6061C30.3275 41.886 30.8684 42.0663 31.429 42.1364C31.9897 42.2066 32.5589 42.1651 33.1031 42.0144C33.8936 41.764 34.7366 41.7238 35.5477 41.8976C36.3589 42.0714 37.1098 42.4533 37.7252 43.005C38.4195 43.6156 38.92 44.4128 39.1661 45.2997C39.4123 46.1866 39.3934 47.1253 39.1118 48.0018ZM7.56336 41.2352C6.57728 41.2351 5.61331 41.5248 4.79337 42.0675C3.97343 42.6103 3.33433 43.3817 2.95691 44.2843C2.57948 45.187 2.48059 46.1803 2.67289 47.1386C2.8652 48.0969 3.34 48.9771 4.03721 49.668C4.73443 50.3589 5.62277 50.8294 6.58989 51.0201C7.55702 51.2108 8.55952 51.113 9.47057 50.7392C10.3816 50.3654 11.1603 49.7323 11.7082 48.92C12.2561 48.1077 12.5486 47.1526 12.5487 46.1755C12.5474 44.8658 12.0217 43.6101 11.0871 42.6839C10.1524 41.7577 8.88524 41.2367 7.56336 41.2352ZM7.56336 49.4697C6.9057 49.4697 6.26281 49.2766 5.71596 48.9146C5.1691 48.5526 4.74281 48.0381 4.49111 47.4361C4.2394 46.834 4.17347 46.1716 4.30177 45.5325C4.43006 44.8934 4.74674 44.3063 5.21179 43.8456C5.67683 43.3848 6.26942 43.071 6.91445 42.9439C7.55948 42.8168 8.22806 42.8821 8.83565 43.1315C9.44324 43.3809 9.96256 43.8033 10.3279 44.3451C10.6932 44.8869 10.8881 45.5239 10.888 46.1755C10.8869 47.0489 10.5364 47.8862 9.91312 48.5037C9.28984 49.1213 8.4448 49.4686 7.56336 49.4697ZM3.83003 12.2871H8.08558L5.59939 20.4975C5.51713 20.7707 5.53227 21.0636 5.64237 21.327C5.75246 21.5904 5.95079 21.8082 6.20391 21.9438C6.45703 22.0794 6.74971 22.1245 7.03243 22.0715C7.31516 22.0185 7.57071 21.8706 7.75636 21.6528L18.6385 8.90779C18.7915 8.72812 18.8904 8.50936 18.9237 8.27658C18.957 8.04381 18.9233 7.80646 18.8266 7.59175L18.8185 7.57327C18.7159 7.36134 18.5551 7.18229 18.3547 7.05656C18.1542 6.93083 17.9221 6.86347 17.6849 6.86222H13.9078L16.7945 1.85516C16.9029 1.66639 16.9594 1.45275 16.9583 1.2356C16.9573 1.01845 16.8988 0.8053 16.7886 0.617552C16.6785 0.429805 16.5206 0.273992 16.3307 0.165615C16.1408 0.0572386 15.9255 0.000167479 15.7063 5.1533e-06H8.7797C8.54688 -0.000660811 8.3185 0.063233 8.12044 0.184496C7.92239 0.305759 7.76259 0.479537 7.65905 0.686146L2.71263 10.4874C2.61654 10.6765 2.57095 10.8868 2.58005 11.0984C2.58914 11.3099 2.65275 11.5157 2.76473 11.696C2.87671 11.8764 3.03336 12.0254 3.21984 12.1288C3.40632 12.2322 3.61632 12.2868 3.83003 12.2871ZM9.03107 1.64546H15.0025L11.7557 7.2768C11.6836 7.40199 11.646 7.54375 11.6466 7.68786C11.6472 7.83197 11.686 7.97341 11.7591 8.09802C11.8322 8.22263 11.9369 8.32602 12.063 8.39791C12.189 8.46979 12.3319 8.50758 12.4774 8.50758H16.8043L7.75311 19.1082L9.99603 11.7005C10.0334 11.5777 10.0412 11.448 10.0189 11.3216C9.99663 11.1953 9.94495 11.0759 9.86771 10.9729C9.79047 10.87 9.68985 10.7864 9.57417 10.7289C9.45848 10.6714 9.33081 10.6414 9.20136 10.6415H4.49172L9.03107 1.64546Z" fill="black"/>
</g>
<defs>
<clipPath id="clip0_64_1325">
<rect width="41" height="53" fill="white"/>
</clipPath>
</defs>
</svg>
