<svg width="121" height="121" viewBox="0 0 121 121" fill="none" xmlns="http://www.w3.org/2000/svg">
<path d="M60.7154 120.432C93.7312 120.432 120.496 93.6668 120.496 60.6509C120.496 27.635 93.7312 0.870361 60.7154 0.870361C27.6995 0.870361 0.934814 27.635 0.934814 60.6509C0.934814 93.6668 27.6995 120.432 60.7154 120.432Z" fill="#F36D20"/>
<path fill-rule="evenodd" clip-rule="evenodd" d="M60.7154 43.8962C47.81 30.8606 32.0356 37.1608 32.0356 54.0356C32.0356 64.1371 43.5632 74.8201 52.0016 81.2874C55.8218 84.2153 57.7318 85.6792 60.7154 85.6792C63.6989 85.6792 65.6089 84.2154 69.4291 81.2874C77.8674 74.8201 89.3951 64.1367 89.3951 54.0356C89.3951 37.1607 73.6208 30.8606 60.7154 43.8962ZM68.9096 63.177H63.2419V68.8446C63.2419 69.5147 62.9757 70.1574 62.5019 70.6312C62.0281 71.105 61.3854 71.3712 60.7154 71.3712C60.0453 71.3712 59.4026 71.105 58.9288 70.6312C58.455 70.1574 58.1888 69.5147 58.1888 68.8446V63.177H52.5212C51.8518 63.1759 51.2103 62.9092 50.7373 62.4355C50.2644 61.9619 49.9988 61.3198 49.9988 60.6504C49.9988 59.9811 50.2644 59.3392 50.7373 58.8655C51.2103 58.3918 51.8518 58.125 52.5212 58.1239H58.1888V52.4562C58.1888 51.7861 58.455 51.1435 58.9288 50.6697C59.4026 50.1958 60.0453 49.9297 60.7154 49.9297C61.3854 49.9297 62.0281 50.1958 62.5019 50.6697C62.9757 51.1435 63.2419 51.7861 63.2419 52.4562V58.1239H68.9096C69.5789 58.125 70.2204 58.3918 70.6934 58.8655C71.1663 59.3392 71.4319 59.9811 71.4319 60.6504C71.4319 61.3198 71.1663 61.9619 70.6934 62.4355C70.2204 62.9092 69.5789 63.1759 68.9096 63.177Z" fill="white"/>
</svg>
