<svg width="49" height="42" viewBox="0 0 49 42" fill="none" xmlns="http://www.w3.org/2000/svg">
<g clip-path="url(#clip0_47_1244)">
<path d="M34.0225 30.0697H18.8032C18.6397 30.0696 18.4797 30.02 18.3428 29.9268C18.2058 29.8337 18.0978 29.701 18.0319 29.5451C17.9662 29.3889 17.9455 29.2162 17.9724 29.048C17.9993 28.8798 18.0725 28.7234 18.1832 28.5979L25.2508 20.59C25.3298 20.5006 25.4256 20.4293 25.5324 20.3805C25.6391 20.3316 25.7544 20.3063 25.8709 20.3063H41.0902C41.2537 20.3064 41.4137 20.356 41.5507 20.4491C41.6876 20.5423 41.7957 20.6749 41.8616 20.8309C41.9273 20.9871 41.9479 21.1598 41.9211 21.328C41.8942 21.4962 41.821 21.6525 41.7103 21.7781L34.6426 29.7859C34.5637 29.8753 34.4678 29.9467 34.3611 29.9955C34.2544 30.0443 34.1391 30.0696 34.0225 30.0697ZM20.7227 28.3141H33.6524L39.1707 22.0618H26.241L20.7227 28.3141Z" fill="black"/>
<path d="M48.1577 41.9999H18.8031C18.6925 42 18.5829 41.9774 18.4807 41.9333C18.3785 41.8892 18.2857 41.8245 18.2075 41.743C18.1292 41.6615 18.0672 41.5647 18.0249 41.4582C17.9826 41.3517 17.9609 41.2374 17.9609 41.1222V29.1918C17.9609 29.0766 17.9826 28.9623 18.0249 28.8558C18.0672 28.7493 18.1292 28.6525 18.2075 28.571C18.2857 28.4895 18.3785 28.4248 18.4807 28.3807C18.5829 28.3366 18.6925 28.314 18.8031 28.3141C18.9137 28.314 19.0232 28.3366 19.1254 28.3807C19.2276 28.4248 19.3205 28.4895 19.3987 28.571C19.4769 28.6525 19.5389 28.7493 19.5812 28.8558C19.6235 28.9623 19.6453 29.0766 19.6452 29.1918V40.2444H47.3156V29.5339L40.4699 21.7779C40.3189 21.6065 40.2392 21.3797 40.2485 21.1471C40.2578 20.9146 40.3551 20.6954 40.5193 20.5376C40.684 20.3802 40.9018 20.2974 41.125 20.3072C41.3483 20.317 41.5586 20.4187 41.7101 20.59L48.7777 28.5978C48.9207 28.7597 49 28.9718 48.9998 29.1918V41.1222C48.9998 41.2374 48.9781 41.3515 48.9358 41.4581C48.8935 41.5646 48.8315 41.6615 48.7533 41.743C48.6751 41.8245 48.5822 41.8892 48.48 41.9333C48.3778 41.9774 48.2683 42 48.1577 41.9999Z" fill="black"/>
<path d="M34.0223 42C33.9117 42.0001 33.8022 41.9774 33.7 41.9333C33.5978 41.8893 33.5049 41.8246 33.4267 41.743C33.3485 41.6615 33.2865 41.5648 33.2442 41.4582C33.2019 41.3517 33.1801 41.2375 33.1802 41.1222V29.1919C33.1801 29.0766 33.2019 28.9624 33.2441 28.8559C33.2864 28.7494 33.3485 28.6526 33.4267 28.5711C33.5049 28.4896 33.5978 28.4249 33.7 28.3808C33.8022 28.3367 33.9117 28.3141 34.0223 28.3141C34.1329 28.3141 34.2425 28.3367 34.3447 28.3808C34.4469 28.4249 34.5397 28.4896 34.6179 28.5711C34.6961 28.6526 34.7582 28.7494 34.8005 28.8559C34.8428 28.9624 34.8645 29.0766 34.8644 29.1919V41.1222C34.8645 41.2375 34.8428 41.3517 34.8005 41.4582C34.7582 41.5648 34.6961 41.6615 34.6179 41.743C34.5397 41.8246 34.4469 41.8893 34.3447 41.9333C34.2425 41.9774 34.1329 42.0001 34.0223 42Z" fill="black"/>
<path d="M24.9055 32.668H22.9756V37.063H24.9055V32.668Z" fill="black"/>
<path d="M29.9465 32.668H28.0166V37.063H29.9465V32.668Z" fill="black"/>
<path d="M42.0554 32.668H40.1255V37.063H42.0554V32.668Z" fill="black"/>
<path d="M19.022 24.732H13.2142C13.1036 24.732 12.9941 24.7094 12.8919 24.6653C12.7897 24.6212 12.6968 24.5565 12.6186 24.475C12.5404 24.3935 12.4783 24.2967 12.436 24.1902C12.3937 24.0837 12.372 23.9695 12.3721 23.8542C12.372 23.7389 12.3937 23.6247 12.436 23.5182C12.4783 23.4117 12.5404 23.3149 12.6186 23.2334C12.6968 23.1519 12.7897 23.0872 12.8919 23.0431C12.9941 22.999 13.1036 22.9764 13.2142 22.9764H19.017L17.2258 19.6188C17.1123 19.4184 17.0797 19.1792 17.1352 18.9538C17.1907 18.7283 17.3298 18.535 17.5219 18.4163C17.7143 18.2979 17.9438 18.2638 18.1602 18.3215C18.3766 18.3792 18.5623 18.5239 18.6766 18.724L20.5319 21.9891C20.6488 22.1965 20.7248 22.4261 20.7556 22.6645C20.7864 22.903 20.7713 23.1454 20.7112 23.3777C20.6528 23.6101 20.5506 23.8279 20.4105 24.0187C20.2704 24.2094 20.0953 24.3691 19.8953 24.4885C19.6297 24.648 19.3285 24.732 19.022 24.732Z" fill="black"/>
<path d="M14.8938 26.4832C14.7832 26.4833 14.6737 26.4607 14.5715 26.4165C14.4693 26.3724 14.3765 26.3077 14.2984 26.226L12.6191 24.4748C12.4692 24.319 12.3813 24.1102 12.3728 23.8898C12.3642 23.6694 12.4357 23.4537 12.573 23.2859L14.0007 21.5355C14.1456 21.3583 14.3519 21.2483 14.5746 21.2295C14.7972 21.2107 15.0179 21.2847 15.1882 21.4352C15.3581 21.5862 15.4636 21.8012 15.4814 22.0331C15.4993 22.265 15.4282 22.4949 15.2836 22.6721L14.3592 23.8062L15.4892 24.9848C15.5674 25.0663 15.6295 25.163 15.6718 25.2695C15.7141 25.376 15.7359 25.4902 15.7359 25.6054C15.7359 25.7207 15.7141 25.8348 15.6718 25.9412C15.6295 26.0477 15.5674 26.1444 15.4892 26.2259C15.4111 26.3076 15.3183 26.3724 15.2161 26.4165C15.114 26.4607 15.0044 26.4833 14.8938 26.4832Z" fill="black"/>
<path d="M5.70745 24.732C5.48007 24.7324 5.25486 24.6859 5.04483 24.5952C4.83479 24.5044 4.64408 24.3711 4.48372 24.2031C4.3209 24.0354 4.1918 23.8355 4.10397 23.6152C4.01614 23.3948 3.97134 23.1584 3.9722 22.9198C3.97036 22.5903 4.05573 22.2667 4.21892 21.9846L7.04139 16.8775C7.09641 16.7772 7.16991 16.6893 7.25767 16.6188C7.34542 16.5483 7.4457 16.4966 7.55271 16.4667C7.65973 16.4367 7.77137 16.4291 7.88121 16.4443C7.99106 16.4595 8.09693 16.4972 8.19273 16.5552C8.28853 16.6127 8.37251 16.6894 8.4399 16.7807C8.50728 16.8721 8.55674 16.9763 8.58545 17.0876C8.61417 17.1989 8.62158 17.315 8.60725 17.4293C8.59292 17.5436 8.55714 17.6537 8.50195 17.7535L5.67127 22.8744L9.01512 22.9764C9.12573 22.9763 9.23527 22.999 9.33747 23.0431C9.43967 23.0872 9.53254 23.1518 9.61075 23.2333C9.68896 23.3148 9.75099 23.4117 9.79328 23.5182C9.83558 23.6247 9.85732 23.7388 9.85726 23.8541C9.85732 23.9694 9.83558 24.0836 9.79328 24.1901C9.75099 24.2967 9.68896 24.3934 9.61075 24.4749C9.53254 24.5565 9.43967 24.6212 9.33747 24.6652C9.23527 24.7093 9.12573 24.732 9.01512 24.7319L5.70745 24.732Z" fill="black"/>
<path d="M8.57741 20.2849C8.40358 20.2849 8.23401 20.2288 8.09203 20.1242C7.95005 20.0197 7.84265 19.8719 7.78461 19.7011L7.30598 18.3022L5.76319 18.7316C5.65632 18.7619 5.54475 18.7698 5.43493 18.7549C5.32512 18.74 5.21922 18.7026 5.12334 18.6448C5.02747 18.5871 4.94351 18.5101 4.87633 18.4183C4.80914 18.3266 4.76006 18.2218 4.73189 18.1102C4.67452 17.8852 4.70518 17.6458 4.81713 17.4444C4.92909 17.243 5.11318 17.0961 5.32895 17.0361L7.62179 16.3975C7.8261 16.3403 8.04357 16.3656 8.23079 16.4682C8.418 16.5709 8.56117 16.7434 8.6317 16.9513L9.37022 19.1131C9.44514 19.3322 9.43352 19.5735 9.3379 19.7837C9.24229 19.994 9.07052 20.156 8.86032 20.2343C8.76943 20.2677 8.67378 20.2848 8.57741 20.2849Z" fill="black"/>
<path d="M16.0105 16.4507C15.8624 16.4508 15.717 16.4102 15.5887 16.333C15.4605 16.2558 15.3541 16.1447 15.2802 16.011L12.3755 10.759L10.5169 14.0618C10.409 14.2653 10.2281 14.416 10.0138 14.4807C9.79954 14.5455 9.56938 14.519 9.37377 14.4072C9.27682 14.3517 9.19135 14.2767 9.12224 14.1867C9.05313 14.0967 9.00175 13.9933 8.97104 13.8825C8.94033 13.7717 8.93089 13.6558 8.94327 13.5412C8.95564 13.4267 8.98959 13.3157 9.04316 13.2149L10.7982 9.89754C10.9123 9.68624 11.0658 9.50091 11.2497 9.35237C11.4336 9.20384 11.6441 9.0951 11.8689 9.03264C12.0908 8.97006 12.3224 8.95401 12.5503 8.9855C12.7781 9.01699 12.9977 9.0954 13.1963 9.21608C13.4599 9.3751 13.6792 9.60285 13.8328 9.87697L16.7408 15.135C16.8523 15.3366 16.8823 15.5761 16.8243 15.8009C16.7663 16.0256 16.625 16.2171 16.4316 16.3333C16.3035 16.4103 16.1583 16.4508 16.0105 16.4507Z" fill="black"/>
<path d="M16.0366 16.4421C15.9859 16.4423 15.9352 16.4374 15.8853 16.4275L13.7175 16.0161C13.4979 15.9742 13.3033 15.8433 13.1762 15.6521C13.0492 15.4608 13.0001 15.2249 13.0398 14.996C13.059 14.8822 13.0996 14.7734 13.1594 14.6761C13.2192 14.5788 13.297 14.4948 13.3882 14.4291C13.4794 14.3634 13.5822 14.3173 13.6907 14.2933C13.7992 14.2694 13.9111 14.2681 14.0201 14.2897L15.423 14.5554L15.8342 12.9482C15.8624 12.8366 15.9116 12.7319 15.9788 12.6401C16.046 12.5484 16.1299 12.4714 16.2258 12.4136C16.3216 12.3559 16.4275 12.3185 16.5373 12.3036C16.6471 12.2887 16.7587 12.2965 16.8655 12.3267C17.0813 12.3866 17.2655 12.5334 17.3775 12.7349C17.4894 12.9363 17.5201 13.1758 17.4626 13.4008L16.8507 15.7906C16.8026 15.9774 16.6968 16.1424 16.5496 16.2601C16.4025 16.3779 16.2222 16.4419 16.0366 16.4421Z" fill="black"/>
<path d="M12.3721 34.8947C9.12769 34.9278 6.00311 33.6182 3.68376 31.2533C1.3644 28.8884 0.0396224 25.6612 0 22.2796C0 10.7736 11.3458 0.633083 11.8277 0.207072C11.9801 0.0733726 12.1729 6.10352e-05 12.3721 6.10352e-05C12.5713 6.10352e-05 12.7641 0.0733726 12.9166 0.207072C13.3985 0.633083 24.7426 10.7745 24.7426 22.2796C24.7426 22.6019 24.7327 22.9216 24.7097 23.238C24.7035 23.3538 24.6749 23.4671 24.6256 23.5712C24.5764 23.6753 24.5074 23.7679 24.4229 23.8435C24.3384 23.919 24.2401 23.976 24.1339 24.011C24.0278 24.046 23.9159 24.0583 23.8051 24.047C23.5824 24.0294 23.3756 23.9204 23.23 23.7439C23.0844 23.5674 23.0121 23.3379 23.0287 23.1058C23.0485 22.8324 23.0583 22.5571 23.0583 22.2796C23.0583 12.9586 14.6206 4.21866 12.3721 2.05602C10.1236 4.22042 1.68427 12.9698 1.68427 22.2796C1.72351 25.1958 2.87071 27.9766 4.87429 30.0124C6.87787 32.0482 9.57427 33.1726 12.3721 33.1392C14.4927 33.1446 16.5681 32.5011 18.3411 31.2885C18.4334 31.2251 18.5368 31.1811 18.6454 31.1593C18.754 31.1375 18.8656 31.1383 18.974 31.1616C19.0823 31.1848 19.1851 31.2301 19.2766 31.2949C19.3681 31.3596 19.4465 31.4425 19.5072 31.5388C19.568 31.6352 19.61 31.7431 19.6307 31.8563C19.6515 31.9696 19.6506 32.086 19.6282 32.1989C19.6057 32.3118 19.5621 32.4189 19.4999 32.5142C19.4376 32.6095 19.358 32.6911 19.2655 32.7543C17.2186 34.1566 14.8215 34.9009 12.3721 34.8947Z" fill="black"/>
</g>
<defs>
<clipPath id="clip0_47_1244">
<rect width="49" height="42" fill="white"/>
</clipPath>
</defs>
</svg>
