<svg width="58" height="43" viewBox="0 0 58 43" fill="none" xmlns="http://www.w3.org/2000/svg">
<g clip-path="url(#clip0_262_1484)">
<path d="M42.1147 32.2947C38.4397 32.2919 34.8794 30.994 32.0403 28.6221C29.2011 26.2502 27.2589 22.9511 26.5444 19.2869C25.8299 15.6226 26.3873 11.8197 28.1217 8.52636C29.8562 5.23301 32.6604 2.65279 36.0565 1.22534C39.4525 -0.202105 43.2305 -0.388402 46.7466 0.698019C50.2627 1.78444 53.2994 4.07648 55.3395 7.18361C57.3795 10.2907 58.2966 14.0207 57.9346 17.7381C57.5726 21.4555 55.9538 24.9303 53.354 27.5705C51.879 29.0717 50.1269 30.2617 48.1981 31.0724C46.2693 31.8831 44.2019 32.2985 42.1147 32.2947ZM42.1162 1.56251C38.7968 1.56452 35.5807 2.73638 33.016 4.87843C30.4513 7.02047 28.6965 10.0002 28.0507 13.3099C27.4049 16.6196 27.9081 20.0546 29.4744 23.0295C31.0407 26.0044 33.5732 28.3352 36.6406 29.6249C39.708 30.9145 43.1204 31.0832 46.2964 30.1022C49.4724 29.1211 52.2156 27.0511 54.0585 24.2447C55.9014 21.4383 56.7299 18.0692 56.4031 14.7114C56.0763 11.3537 54.6143 8.21487 52.2661 5.82998C50.9342 4.47418 49.3518 3.39914 47.61 2.6668C45.8682 1.93445 44.0012 1.55923 42.1162 1.56251Z" fill="black"/>
<path d="M19.3775 43.0002C18.9149 43.0011 18.4568 42.9092 18.0293 42.7296C17.6017 42.5501 17.2132 42.2865 16.8862 41.9539L16.7284 41.7936C16.0681 41.1214 15.6973 40.2103 15.6973 39.2604C15.6973 38.3105 16.0681 37.3994 16.7284 36.7273L24.4517 28.8766C25.1133 28.2061 26.0095 27.8296 26.9437 27.8296C27.878 27.8296 28.7741 28.2061 29.4357 28.8766L29.5935 29.037C30.2531 29.7092 30.6235 30.6199 30.6235 31.5694C30.6235 32.5188 30.2531 33.4295 29.5935 34.1017L21.8687 41.9539C21.5417 42.2865 21.1534 42.5501 20.7258 42.7296C20.2983 42.9092 19.84 43.0011 19.3775 43.0002ZM17.9741 40.8481C18.3469 41.2252 18.8515 41.4369 19.3775 41.4369C19.9034 41.4369 20.408 41.2252 20.7809 40.8481L28.5056 32.9959C28.8773 32.6173 29.086 32.1042 29.086 31.5694C29.086 31.0345 28.8773 30.5214 28.5056 30.1428L28.3479 29.9824C27.9754 29.6039 27.4703 29.3913 26.9437 29.3913C26.4171 29.3913 25.912 29.6039 25.5395 29.9824L17.8163 37.8331C17.4446 38.212 17.2359 38.7253 17.2359 39.2604C17.2359 39.7955 17.4446 40.3088 17.8163 40.6877L17.9741 40.8481Z" fill="black"/>
<path d="M28.9695 30.2907C28.8173 30.2906 28.6685 30.2447 28.542 30.1587C28.4155 30.0728 28.317 29.9507 28.2587 29.8078C28.2005 29.6649 28.1853 29.5078 28.215 29.3561C28.2447 29.2044 28.318 29.0651 28.4255 28.9557L30.8762 26.4646C31.021 26.3204 31.2158 26.2402 31.4185 26.2412C31.6211 26.2423 31.8152 26.3245 31.9585 26.4701C32.1018 26.6158 32.1828 26.813 32.1839 27.019C32.1849 27.225 32.106 27.4233 31.9641 27.5704L29.5134 30.0616C29.4421 30.1343 29.3571 30.192 29.2638 30.2313C29.1704 30.2706 29.0705 30.2908 28.9695 30.2907Z" fill="black"/>
<path d="M49.4513 24.8578H34.7771C34.6761 24.8578 34.576 24.8377 34.4826 24.7984C34.3893 24.7591 34.3045 24.7015 34.233 24.6289C34.1616 24.5562 34.1049 24.47 34.0662 24.3751C34.0276 24.2802 34.0078 24.1785 34.0078 24.0758V19.9045C34.0053 18.5098 34.4383 17.1504 35.2446 16.0219C36.051 14.8935 37.189 14.0544 38.4945 13.6255C37.7575 12.7556 37.3522 11.6455 37.3526 10.4975C37.3526 9.21375 37.8542 7.98253 38.7472 7.07482C39.6401 6.1671 40.8514 5.65723 42.1142 5.65723C43.3771 5.65723 44.5882 6.1671 45.4812 7.07482C46.3741 7.98253 46.8759 9.21375 46.8759 10.4975C46.8763 11.6455 46.471 12.7556 45.734 13.6255C47.0395 14.0544 48.1774 14.8935 48.9837 16.0219C49.79 17.1504 50.2232 18.5098 50.2207 19.9045V24.0758C50.2207 24.1785 50.2007 24.2802 50.1621 24.3751C50.1234 24.47 50.0669 24.5562 49.9955 24.6289C49.924 24.7015 49.8392 24.7591 49.7459 24.7984C49.6525 24.8377 49.5524 24.8578 49.4513 24.8578ZM35.5465 23.2938H48.682V19.9045C48.6832 18.5999 48.186 17.3458 47.2951 16.4067C46.4043 15.4675 45.1895 14.9167 43.9068 14.8703C43.7372 14.8632 43.5746 14.7992 43.4444 14.6884C43.3142 14.5775 43.2236 14.4262 43.1869 14.2576C43.1502 14.0891 43.1695 13.913 43.2416 13.7567C43.3136 13.6004 43.4344 13.4726 43.5853 13.3933C44.2291 13.0579 44.7433 12.5121 45.045 11.8436C45.3468 11.1752 45.4185 10.4231 45.2488 9.70819C45.0791 8.99328 44.6777 8.35723 44.1093 7.90227C43.5409 7.44731 42.8385 7.19987 42.115 7.19987C41.3915 7.19987 40.6889 7.44731 40.1205 7.90227C39.5521 8.35723 39.1507 8.99328 38.981 9.70819C38.8113 10.4231 38.883 11.1752 39.1848 11.8436C39.4865 12.5121 40.0009 13.0579 40.6447 13.3933C40.7956 13.4726 40.9164 13.6004 40.9884 13.7567C41.0605 13.913 41.0796 14.0891 41.0429 14.2576C41.0062 14.4262 40.9158 14.5775 40.7856 14.6884C40.6554 14.7992 40.4926 14.8632 40.323 14.8703C39.0401 14.9163 37.8251 15.4669 36.9339 16.4061C36.0428 17.3453 35.5452 18.5997 35.5463 19.9045L35.5465 23.2938Z" fill="black"/>
<path d="M8.1827 14.3109C8.82757 13.9744 9.34235 13.4272 9.64434 12.7573C9.94632 12.0875 10.018 11.3339 9.84775 10.6177C9.67746 9.90147 9.2752 9.26426 8.7056 8.80852C8.136 8.35279 7.43205 8.10498 6.70717 8.10498C5.98229 8.10498 5.27852 8.35279 4.70892 8.80852C4.13932 9.26426 3.73706 9.90147 3.56677 10.6177C3.39649 11.3339 3.46802 12.0875 3.77 12.7573C4.07198 13.4272 4.58676 13.9744 5.23163 14.3109C4.03368 14.3577 2.90014 14.8738 2.06832 15.7514C1.23651 16.6289 0.771037 17.7996 0.769531 19.0182V22.3943H12.6448V19.0182C12.6433 17.7996 12.1778 16.6289 11.346 15.7514C10.5142 14.8738 9.38064 14.3577 8.1827 14.3109Z" fill="white"/>
<path d="M12.6457 23.1762H0.769328C0.668282 23.1762 0.568187 23.1561 0.474822 23.1168C0.381457 23.0775 0.296655 23.0199 0.225205 22.9472C0.153756 22.8746 0.0970602 22.7884 0.058419 22.6935C0.0197777 22.5986 -5.25208e-05 22.4969 6.13644e-06 22.3941V19.0187C-0.00166097 17.8952 0.336389 16.7984 0.968232 15.8767C1.60007 14.9549 2.49519 14.2528 3.53257 13.8653C2.9968 13.1608 2.70663 12.2952 2.70766 11.4047C2.70766 10.3264 3.12917 9.29214 3.87929 8.52964C4.62942 7.76715 5.64669 7.33887 6.70753 7.33887C7.76836 7.33887 8.78583 7.76715 9.53595 8.52964C10.2861 9.29214 10.7074 10.3264 10.7074 11.4047C10.7084 12.2952 10.4182 13.1608 9.88248 13.8653C10.9199 14.2528 11.8152 14.9549 12.447 15.8767C13.0789 16.7984 13.4167 17.8952 13.415 19.0187V22.3941C13.4151 22.4969 13.3953 22.5986 13.3566 22.6935C13.318 22.7884 13.2613 22.8746 13.1898 22.9472C13.1184 23.0199 13.0336 23.0775 12.9402 23.1168C12.8469 23.1561 12.7468 23.1762 12.6457 23.1762ZM1.53865 21.6121H11.8764V19.0187C11.8768 18.0013 11.4888 17.0236 10.794 16.2913C10.0991 15.5591 9.15171 15.1296 8.15151 15.0933C7.98193 15.0861 7.81943 15.0223 7.68928 14.9116C7.55912 14.8008 7.46861 14.6494 7.43177 14.481C7.39493 14.3126 7.41376 14.1366 7.48549 13.9802C7.55721 13.8239 7.67786 13.6959 7.82845 13.6164C8.32035 13.3606 8.71321 12.9439 8.94393 12.4336C9.17465 11.9233 9.2298 11.3489 9.10039 10.8029C8.97098 10.2569 8.66462 9.77106 8.23058 9.42353C7.79654 9.07601 7.26004 8.88705 6.70753 8.88705C6.15501 8.88705 5.61851 9.07601 5.18447 9.42353C4.75044 9.77106 4.44408 10.2569 4.31467 10.8029C4.18526 11.3489 4.24041 11.9233 4.47112 12.4336C4.70184 12.9439 5.09471 13.3606 5.5866 13.6164C5.7372 13.6959 5.85784 13.8239 5.92957 13.9802C6.00129 14.1366 6.02013 14.3126 5.98328 14.481C5.94644 14.6494 5.85594 14.8008 5.72578 14.9116C5.59562 15.0223 5.43312 15.0861 5.26355 15.0933C4.26334 15.1296 3.31591 15.5591 2.62107 16.2913C1.92624 17.0236 1.53826 18.0013 1.53865 19.0187V21.6121Z" fill="black"/>
<path d="M18.6327 14.3109C19.2776 13.9744 19.7926 13.4272 20.0945 12.7573C20.3965 12.0875 20.468 11.3339 20.2978 10.6177C20.1275 9.90148 19.7252 9.26426 19.1556 8.80852C18.586 8.35279 17.8822 8.10498 17.1574 8.10498C16.4325 8.10498 15.7285 8.35279 15.1589 8.80852C14.5893 9.26426 14.1871 9.90148 14.0168 10.6177C13.8465 11.3339 13.9182 12.0875 14.2202 12.7573C14.5222 13.4272 15.037 13.9744 15.6818 14.3109C14.4839 14.3577 13.3501 14.8738 12.5183 15.7514C11.6865 16.6289 11.2212 17.7996 11.2197 19.0182V22.3943H23.0948V19.0182C23.0933 17.7996 22.628 16.6289 21.7962 15.7514C20.9644 14.8738 19.8306 14.3577 18.6327 14.3109Z" fill="white"/>
<path d="M23.0949 23.1762H11.2185C11.1175 23.1762 11.0174 23.1561 10.924 23.1168C10.8307 23.0775 10.7459 23.0199 10.6744 22.9472C10.603 22.8746 10.5463 22.7884 10.5076 22.6935C10.469 22.5986 10.4492 22.4969 10.4492 22.3941V19.0187C10.4476 17.8952 10.7856 16.7984 11.4175 15.8767C12.0493 14.9549 12.9444 14.2528 13.9818 13.8653C13.446 13.1608 13.1558 12.2952 13.1569 11.4047C13.1569 10.3264 13.5784 9.29214 14.3285 8.52964C15.0786 7.76715 16.0959 7.33887 17.1567 7.33887C18.2176 7.33887 19.235 7.76715 19.9852 8.52964C20.7353 9.29214 21.1566 10.3264 21.1566 11.4047C21.1576 12.2952 20.8675 13.1608 20.3317 13.8653C21.3691 14.2528 22.2644 14.9549 22.8962 15.8767C23.5281 16.7984 23.8659 17.8952 23.8643 19.0187V22.3941C23.8643 22.4969 23.8445 22.5986 23.8059 22.6935C23.7672 22.7884 23.7105 22.8746 23.6391 22.9472C23.5676 23.0199 23.4828 23.0775 23.3895 23.1168C23.2961 23.1561 23.196 23.1762 23.0949 23.1762ZM11.9879 21.6121H22.3256V19.0187C22.326 18.0013 21.9378 17.0236 21.243 16.2913C20.5482 15.5591 19.6009 15.1296 18.6007 15.0933C18.4311 15.0861 18.2687 15.0223 18.1385 14.9116C18.0083 14.8008 17.9178 14.6494 17.881 14.481C17.8441 14.3126 17.863 14.1366 17.9347 13.9802C18.0064 13.8239 18.1271 13.6959 18.2777 13.6164C18.7696 13.3606 19.1624 12.9441 19.3931 12.4338C19.6239 11.9235 19.679 11.3489 19.5496 10.8029C19.4202 10.2569 19.1138 9.77106 18.6798 9.42353C18.2458 9.07601 17.7093 8.88705 17.1567 8.88705C16.6042 8.88705 16.0677 9.07601 15.6337 9.42353C15.1997 9.77106 14.8933 10.2569 14.7639 10.8029C14.6345 11.3489 14.6896 11.9235 14.9203 12.4338C15.1511 12.9441 15.5439 13.3606 16.0358 13.6164C16.1864 13.6959 16.3069 13.8239 16.3786 13.9802C16.4503 14.1366 16.4693 14.3126 16.4325 14.481C16.3957 14.6494 16.3052 14.8008 16.175 14.9116C16.0448 15.0223 15.8823 15.0861 15.7128 15.0933C14.7126 15.1296 13.7651 15.5591 13.0703 16.2913C12.3755 17.0236 11.9875 18.0013 11.9879 19.0187V21.6121Z" fill="black"/>
</g>
<defs>
<clipPath id="clip0_262_1484">
<rect width="58" height="43" fill="white"/>
</clipPath>
</defs>
</svg>
