<svg width="108" height="106" viewBox="0 0 108 106" fill="none" xmlns="http://www.w3.org/2000/svg">
<path d="M107.016 53.2544C105.823 123.105 1.92197 123.094 0.739258 53.2523C1.93209 -16.5957 105.833 -16.5849 107.016 53.2544Z" fill="#7DC0F1"/>
<path d="M34.2717 74.1138L34.818 72.7494C39.7988 60.2738 45.4439 46.1332 66.7217 41.4051L66.6583 40.828C66.4092 40.828 41.8196 41.0886 33.5984 63.5747C31.3631 61.1441 29.9784 58.0528 29.6531 54.7667C29.6542 49.807 34.6908 39.4818 46.8243 37.055C50.3521 36.3497 54.3236 35.7885 58.1651 35.2462C65.7992 34.1676 73.1091 33.1349 76.9296 31.0416C77.0658 30.9696 77.2199 30.9385 77.3734 30.9521C77.5269 30.9657 77.6731 31.0234 77.7945 31.1183C77.916 31.2132 78.0073 31.3411 78.0576 31.4868C78.1079 31.6324 78.1151 31.7894 78.0782 31.939C76.5912 38.0742 74.4443 44.0303 71.6751 49.7033C66.8916 59.2656 58.2557 70.6647 44.2805 70.6647C43.2171 70.5769 42.1725 70.3325 41.1804 69.9394L40.918 69.8356L38.4273 75.5645L34.2717 74.1138Z" fill="white"/>
</svg>
