<svg width="30" height="29" viewBox="0 0 30 29" fill="none" xmlns="http://www.w3.org/2000/svg">
<path d="M17.9711 22.5898C16.8597 22.5886 15.7942 22.1466 15.0084 21.3608C14.2225 20.5749 13.7805 19.5094 13.7793 18.3981C13.7793 15.8079 11.1658 15.1815 10.6419 15.0823C9.55652 14.875 8.59578 14.2501 7.96618 13.342C7.33657 12.4339 7.08838 11.3149 7.27493 10.2258C7.44486 9.25717 7.95056 8.3794 8.70326 7.74655C9.45595 7.1137 10.4075 6.76623 11.3909 6.76514C11.6179 6.76518 11.8446 6.78401 12.0685 6.82142C15.5604 7.40209 22.164 10.5685 22.164 18.3981C22.1625 19.5095 21.7203 20.5751 20.9342 21.3609C20.1482 22.1467 19.0826 22.5887 17.9711 22.5898ZM11.3942 8.24914C10.7587 8.24989 10.1438 8.47457 9.65749 8.88365C9.17116 9.29274 8.84453 9.86009 8.73495 10.4861C8.61527 11.1909 8.77696 11.9146 9.18525 12.5015C9.59354 13.0884 10.2158 13.4917 10.9183 13.6246C11.6439 13.7617 15.2639 14.636 15.2639 18.3981C15.2644 19.1161 15.5498 19.8045 16.0573 20.3122C16.5649 20.82 17.2532 21.1056 17.9711 21.1065C18.6891 21.1057 19.3775 20.82 19.8853 20.3123C20.393 19.8045 20.6786 19.1162 20.6793 18.3981C20.6793 11.5638 14.8882 8.79426 11.8266 8.28487C11.6837 8.26123 11.5391 8.24926 11.3942 8.24914Z" fill="black"/>
<path d="M10.1427 8.40147C9.99835 8.40156 9.85715 8.35953 9.73638 8.28054C9.61561 8.20155 9.52053 8.08902 9.46279 7.95677L8.75172 6.32732C8.67365 6.14698 8.67003 5.94309 8.74164 5.76009C8.81326 5.57709 8.95431 5.42981 9.13405 5.35036C9.2277 5.31008 9.32857 5.28923 9.43052 5.28906C9.5749 5.28895 9.71618 5.33091 9.83712 5.40978C9.95805 5.48865 10.0534 5.60103 10.1115 5.7332L10.8225 7.36265C10.9006 7.54299 10.9042 7.74688 10.8326 7.92988C10.761 8.11288 10.6199 8.26016 10.4402 8.33961C10.3463 8.38043 10.245 8.40149 10.1427 8.40147Z" fill="black"/>
<path d="M8.10779 10.2633C7.98989 10.2637 7.87365 10.2356 7.76897 10.1814L6.11834 9.33432C5.94358 9.24422 5.81161 9.08859 5.75125 8.90146C5.69089 8.71434 5.70707 8.51093 5.79625 8.3357C5.85892 8.21423 5.95388 8.11238 6.07068 8.04139C6.18748 7.97041 6.32159 7.93304 6.45827 7.93335C6.5757 7.93328 6.69146 7.96117 6.79598 8.01471L8.44661 8.86176C8.62137 8.95186 8.75334 9.10749 8.8137 9.29461C8.87406 9.48174 8.85788 9.68514 8.76871 9.86038C8.70642 9.98196 8.61171 10.0839 8.49507 10.155C8.37843 10.2261 8.2444 10.2636 8.10779 10.2633Z" fill="black"/>
<path d="M6.2451 13.7478C6.08619 13.7486 5.93128 13.6979 5.80353 13.6034C5.67577 13.5089 5.58202 13.3756 5.53626 13.2234C5.50735 13.1308 5.4971 13.0334 5.50609 12.9368C5.51508 12.8402 5.54314 12.7463 5.58864 12.6606C5.63377 12.5739 5.69578 12.4971 5.77099 12.4347C5.8462 12.3723 5.93312 12.3256 6.02664 12.2972L7.91689 11.7149C7.98782 11.6939 8.06139 11.6832 8.13535 11.6831C8.29425 11.6821 8.44921 11.7325 8.577 11.827C8.70479 11.9214 8.79854 12.0547 8.84418 12.207C8.8731 12.2996 8.88335 12.397 8.87436 12.4936C8.86537 12.5902 8.83731 12.6841 8.79181 12.7698C8.74667 12.8565 8.68468 12.9333 8.60946 12.9957C8.53424 13.0581 8.44732 13.1048 8.3538 13.1331L6.46355 13.7155C6.39273 13.737 6.31912 13.7479 6.2451 13.7478Z" fill="black"/>
<path d="M9.43678 16.8405C9.34409 16.8405 9.25223 16.8231 9.16595 16.7893C9.07481 16.7539 8.99162 16.7007 8.92121 16.6329C8.85079 16.5651 8.79457 16.4839 8.7558 16.3942C8.67771 16.2135 8.6745 16.0093 8.74688 15.8263L9.43009 14.0949C9.48411 13.9561 9.57899 13.837 9.70218 13.7533C9.82537 13.6696 9.97107 13.6253 10.12 13.6262C10.2126 13.6262 10.3044 13.6432 10.3908 13.6764C10.5741 13.7486 10.7213 13.8907 10.7998 14.0714C10.8784 14.252 10.882 14.4566 10.8099 14.6399L10.1267 16.3713C10.0727 16.5102 9.97784 16.6294 9.85465 16.7131C9.73147 16.7969 9.58576 16.8414 9.43678 16.8405Z" fill="black"/>
<path d="M13.4339 21.9925C13.3127 21.9926 13.1934 21.963 13.0863 21.9062C12.9792 21.8495 12.8877 21.7674 12.8198 21.667C12.7096 21.5041 12.6686 21.3041 12.7058 21.111C12.743 20.9179 12.8553 20.7475 13.0182 20.6372L14.5886 19.5717C14.7112 19.4885 14.8561 19.444 15.0043 19.4441C15.1254 19.444 15.2447 19.4736 15.3517 19.5302C15.4588 19.5868 15.5503 19.6688 15.6184 19.769C15.7283 19.9321 15.7692 20.1322 15.732 20.3254C15.6948 20.5186 15.5826 20.6892 15.42 20.7999L13.8496 21.8649C13.7269 21.9481 13.5821 21.9925 13.4339 21.9925Z" fill="black"/>
<path d="M17.3177 24.0734C17.122 24.0632 16.9383 23.9759 16.8067 23.8307C16.6751 23.6854 16.6064 23.494 16.6156 23.2982L16.6846 21.7953C16.6921 21.6026 16.7748 21.4205 16.9151 21.2882C17.0553 21.1558 17.2419 21.0838 17.4347 21.0875C17.5339 21.0897 17.6316 21.1116 17.7222 21.1519C17.8127 21.1922 17.8944 21.2502 17.9623 21.3224C18.0303 21.3946 18.0832 21.4796 18.1179 21.5724C18.1527 21.6653 18.1686 21.7642 18.1647 21.8633L18.0956 23.3662C18.0877 23.557 18.0062 23.7373 17.8682 23.8692C17.7302 24.0012 17.5465 24.0745 17.3556 24.0739L17.3177 24.0734Z" fill="black"/>
<path d="M21.3722 22.8055C21.1784 22.8061 20.9921 22.7302 20.8539 22.5943L19.7706 21.5371C19.6298 21.3999 19.5492 21.2124 19.5465 21.0157C19.5437 20.8191 19.6192 20.6295 19.7561 20.4884C19.8256 20.4175 19.9085 20.3612 20 20.3229C20.0914 20.2845 20.1897 20.2648 20.2889 20.2649C20.4823 20.2641 20.6682 20.3398 20.806 20.4755L21.8893 21.5327C22.0302 21.6699 22.1108 21.8574 22.1135 22.0541C22.1162 22.2507 22.0408 22.4404 21.9038 22.5815C21.8348 22.6527 21.7522 22.7092 21.6609 22.7477C21.5695 22.7862 21.4713 22.8058 21.3722 22.8055Z" fill="black"/>
<path d="M21.6559 19.1492C21.4591 19.149 21.2705 19.0709 21.1314 18.9318C20.9922 18.7928 20.9139 18.6042 20.9136 18.4075C20.9139 18.2108 20.9922 18.0222 21.1314 17.8832C21.2705 17.7441 21.4591 17.666 21.6559 17.6658H23.2964C23.4932 17.666 23.6818 17.7441 23.8209 17.8832C23.9601 18.0222 24.0384 18.2108 24.0387 18.4075C24.0384 18.6042 23.9601 18.7928 23.8209 18.9318C23.6818 19.0709 23.4932 19.149 23.2964 19.1492H21.6559Z" fill="black"/>
<path d="M21.1745 15.9385C21.0147 15.9391 20.859 15.8879 20.7308 15.7926C20.6026 15.6973 20.5088 15.5629 20.4634 15.4097C20.435 15.3164 20.4255 15.2183 20.4355 15.1213C20.4454 15.0243 20.4746 14.9302 20.5213 14.8446C20.5674 14.7587 20.63 14.6828 20.7055 14.6213C20.7811 14.5598 20.8681 14.5139 20.9616 14.4862L22.5353 14.0159C22.6051 13.9948 22.6775 13.9841 22.7504 13.9841C22.9099 13.9839 23.0652 14.0354 23.193 14.1308C23.3208 14.2263 23.4142 14.3605 23.4592 14.5135C23.4876 14.6068 23.4971 14.7049 23.4872 14.8019C23.4772 14.8989 23.448 14.993 23.4013 15.0786C23.3553 15.1645 23.2927 15.2404 23.2171 15.3019C23.1415 15.3634 23.0545 15.4094 22.9611 15.437L21.3873 15.9073C21.3182 15.9279 21.2465 15.9384 21.1745 15.9385Z" fill="black"/>
<path d="M19.761 13.0028C19.6253 13.0031 19.4922 12.966 19.3762 12.8956C19.2602 12.8253 19.1658 12.7243 19.1034 12.6038C19.0582 12.5175 19.0305 12.4232 19.0219 12.3263C19.0133 12.2293 19.024 12.1316 19.0533 12.0388C19.0825 11.9456 19.1298 11.8591 19.1926 11.7843C19.2553 11.7095 19.3322 11.6479 19.4189 11.6029L21.0093 10.7754C21.1144 10.7198 21.2315 10.6907 21.3503 10.6907C21.4862 10.6905 21.6195 10.7277 21.7357 10.7982C21.8519 10.8686 21.9464 10.9696 22.009 11.0902C22.0542 11.1765 22.0819 11.2708 22.0905 11.3678C22.0991 11.4648 22.0885 11.5625 22.0592 11.6554C22.03 11.7485 21.9827 11.835 21.9199 11.9098C21.8572 11.9846 21.7803 12.0461 21.6936 12.0911L20.1032 12.9186C19.9977 12.9741 19.8802 13.003 19.761 13.0028Z" fill="black"/>
<path d="M16.4958 9.95663C16.3921 9.95674 16.2896 9.93503 16.1949 9.89303C16.1056 9.85386 16.0251 9.79736 15.9579 9.72675C15.8908 9.65615 15.8383 9.57284 15.8037 9.48177C15.7682 9.39091 15.7512 9.29389 15.7537 9.19638C15.7561 9.09887 15.7781 9.00284 15.8182 8.91391L16.624 7.09778C16.6823 6.96647 16.7774 6.85498 16.8979 6.77673C17.0184 6.69848 17.159 6.65684 17.3027 6.65698C17.406 6.65687 17.5082 6.67858 17.6025 6.72058C17.6918 6.75974 17.7723 6.81625 17.8395 6.88686C17.9066 6.95746 17.9591 7.04076 17.9937 7.13184C18.0292 7.2227 18.0462 7.31972 18.0437 7.41723C18.0413 7.51474 18.0193 7.61077 17.9792 7.6997L17.1734 9.51583C17.1152 9.64697 17.0202 9.75837 16.8999 9.83661C16.7797 9.91484 16.6393 9.95657 16.4958 9.95663Z" fill="black"/>
<path d="M13.3401 8.45538C13.2762 8.45525 13.2125 8.44701 13.1507 8.43086C12.9606 8.38052 12.7983 8.25688 12.6992 8.08702C12.6002 7.91717 12.5726 7.71494 12.6224 7.52474L13.0604 5.86464C13.1022 5.70652 13.1949 5.5666 13.3243 5.46655C13.4537 5.3665 13.6124 5.31192 13.776 5.31128C13.8411 5.31132 13.9059 5.31973 13.9688 5.33636C14.1586 5.38699 14.3207 5.51079 14.4195 5.68061C14.5183 5.85042 14.5458 6.05242 14.496 6.24247L14.058 7.90257C14.0158 8.06086 13.9226 8.20086 13.7928 8.3008C13.6631 8.40075 13.5039 8.45507 13.3401 8.45538Z" fill="black"/>
<path d="M14.6853 28.7332C12.7973 28.7395 10.9268 28.3713 9.18204 27.6499C7.43729 26.9285 5.85297 25.8682 4.52076 24.5303C1.82935 21.8325 0.317871 18.1774 0.317871 14.3666C0.317871 10.5559 1.82935 6.90077 4.52076 4.20298C5.85297 2.86514 7.43729 1.80476 9.18204 1.08334C10.9268 0.361909 12.7973 -0.00624557 14.6853 8.01536e-05C16.5733 -0.00624431 18.4438 0.361978 20.1886 1.08341C21.9333 1.80483 23.5176 2.86515 24.8498 4.20298C27.5412 6.90077 29.0527 10.5559 29.0527 14.3666C29.0527 18.1774 27.5412 21.8325 24.8498 24.5303C23.5176 25.8682 21.9333 26.9285 20.1886 27.6499C18.4438 28.3713 16.5733 28.7395 14.6853 28.7332ZM14.6853 1.48283C12.9923 1.47723 11.315 1.80744 9.75051 2.45435C8.18599 3.10126 6.76529 4.05202 5.57065 5.25162C3.15704 7.67107 1.80158 10.9491 1.80158 14.3665C1.80158 17.784 3.15704 21.062 5.57065 23.4815C6.76512 24.681 8.18563 25.6316 9.74997 26.2785C11.3143 26.9253 12.9914 27.2554 14.6842 27.2497C16.3773 27.2553 18.0547 26.9251 19.6194 26.2783C21.1841 25.6315 22.605 24.6809 23.7999 23.4815C26.2136 21.062 27.569 17.784 27.569 14.3665C27.569 10.9491 26.2136 7.67107 23.7999 5.25162C22.6054 4.05194 21.1847 3.10119 19.6201 2.45428C18.0556 1.80737 16.3783 1.47712 14.6853 1.48283Z" fill="black"/>
<path d="M5.04603 24.7477C4.9485 24.748 4.85186 24.729 4.76174 24.6917C4.67162 24.6544 4.58981 24.5995 4.52105 24.5303C4.45209 24.4615 4.39739 24.3798 4.3601 24.2898C4.3228 24.1998 4.30365 24.1034 4.30371 24.006C4.30365 23.9085 4.3228 23.8121 4.3601 23.7221C4.39739 23.6321 4.45209 23.5504 4.52105 23.4816L23.8002 4.20293C23.869 4.13376 23.9508 4.07891 24.0409 4.04161C24.1311 4.0043 24.2277 3.98527 24.3252 3.9856C24.4228 3.98527 24.5194 4.0043 24.6095 4.04161C24.6996 4.07891 24.7814 4.13376 24.8502 4.20293C24.9192 4.27174 24.9739 4.35348 25.0112 4.44346C25.0484 4.53345 25.0676 4.62991 25.0675 4.72732C25.0676 4.82473 25.0484 4.92119 25.0112 5.01118C24.9739 5.10116 24.9192 5.18291 24.8502 5.25171L5.57102 24.5303C5.50226 24.5995 5.42044 24.6544 5.33032 24.6917C5.2402 24.729 5.14357 24.748 5.04603 24.7477Z" fill="black"/>
</svg>
