<svg width="60" height="60" viewBox="0 0 60 60" fill="none" xmlns="http://www.w3.org/2000/svg">
<g clip-path="url(#clip0_3_620)">
<path d="M44.3769 47V40.5168C44.3758 37.4929 43.3171 34.5647 41.3841 32.2394C39.4512 29.914 36.7658 28.338 33.793 27.7843C35.3314 26.942 36.5455 25.6116 37.2441 24.0028C37.9426 22.3941 38.0859 20.5986 37.6511 18.8995C37.2164 17.2004 36.2284 15.6943 34.8431 14.6188C33.4577 13.5433 31.7537 12.9595 29.9999 12.9595C28.246 12.9595 26.5421 13.5433 25.1567 14.6188C23.7714 15.6943 22.7834 17.2004 22.3487 18.8995C21.9139 20.5986 22.0571 22.3941 22.7557 24.0028C23.4543 25.6116 24.6684 26.942 26.2068 27.7843C23.2341 28.3381 20.5487 29.9141 18.6157 32.2395C16.6828 34.5648 15.624 37.493 15.6228 40.5168V47H44.3769Z" fill="#00476B"/>
</g>
<defs>
<clipPath id="clip0_3_620">
<rect width="28.7542" height="34" fill="white" transform="translate(15.6228 13)"/>
</clipPath>
</defs>
</svg>
