<svg width="44" height="50" viewBox="0 0 44 50" fill="none" xmlns="http://www.w3.org/2000/svg">
<path d="M21.6726 33.2153C19.0022 33.2154 16.3917 32.4171 14.1713 30.9215C11.9509 29.4258 10.2203 27.3 9.19829 24.8128C8.17632 22.3255 7.90887 19.5885 8.42981 16.9481C8.95075 14.3076 10.2367 11.8821 12.125 9.97847C14.0132 8.07479 16.419 6.77838 19.0381 6.25319C21.6572 5.728 24.372 5.99762 26.8391 7.02795C29.3062 8.05827 31.4149 9.80301 32.8984 12.0415C34.3819 14.2801 35.1737 16.9119 35.1736 19.6041C35.1694 23.2127 33.7457 26.6724 31.2147 29.224C28.6836 31.7757 25.252 33.2111 21.6726 33.2153ZM21.6726 7.22547C19.2443 7.22535 16.8704 7.95119 14.8513 9.31121C12.8322 10.6712 11.2584 12.6043 10.329 14.866C9.39965 17.1278 9.15636 19.6166 9.62998 22.0177C10.1036 24.4189 11.2729 26.6245 12.9899 28.3556C14.7069 30.0868 16.8945 31.2658 19.2761 31.7435C21.6578 32.2213 24.1264 31.9763 26.3699 31.0395C28.6135 30.1028 30.5311 28.5163 31.8803 26.4808C33.2295 24.4453 33.9497 22.0522 33.9498 19.6041C33.9463 16.3223 32.6518 13.176 30.3501 10.8553C28.0485 8.53468 24.9278 7.22926 21.6726 7.22547Z" fill="black"/>
<path d="M21.6726 39.207C20.9341 39.2067 20.2199 38.9415 19.6577 38.4588L19.0004 37.8973C18.7559 37.6859 18.4615 37.5416 18.1457 37.4783C17.8298 37.415 17.503 37.4348 17.197 37.5359L16.3771 37.8009C15.6743 38.0295 14.9137 37.9985 14.2315 37.7135C13.5492 37.4286 12.9898 36.9082 12.6532 36.2455L12.26 35.4731C12.1138 35.184 11.8966 34.9375 11.629 34.7572C11.3614 34.5768 11.0524 34.4686 10.7315 34.4429L9.87345 34.3718C9.13698 34.3129 8.44546 33.9913 7.92306 33.4646C7.40066 32.9379 7.08159 32.2408 7.02315 31.4983L6.95264 30.6344C6.92765 30.3108 6.82069 29.999 6.64199 29.729C6.46329 29.459 6.21881 29.2397 5.93199 29.0922L5.1659 28.697C4.50764 28.3581 3.99083 27.7937 3.70826 27.1051C3.4257 26.4165 3.39589 25.649 3.62423 24.9403L3.88715 24.115C3.98579 23.8061 4.00453 23.477 3.94157 23.1588C3.87861 22.8406 3.73606 22.5439 3.52743 22.2969L2.97171 21.6354C2.49223 21.0688 2.22874 20.3484 2.22852 19.6036C2.22829 18.8588 2.49137 18.1383 2.97052 17.5714L3.52863 16.91C3.73754 16.6631 3.88008 16.3662 3.94265 16.0479C4.00522 15.7296 3.9857 15.4004 3.88596 15.0919L3.62304 14.2653C3.39519 13.5568 3.42537 12.7896 3.70815 12.1015C3.99093 11.4134 4.50779 10.8495 5.1659 10.511L5.93199 10.1134C6.21871 9.96639 6.46312 9.74756 6.64184 9.47794C6.82056 9.20832 6.92757 8.89693 6.9526 8.57363L7.02311 7.70855C7.08155 6.96606 7.40062 6.2689 7.92302 5.74223C8.44542 5.21557 9.13694 4.8939 9.87341 4.83498L10.7315 4.7639C11.0525 4.7383 11.3618 4.63016 11.6296 4.44981C11.8974 4.26946 12.1148 4.02292 12.2612 3.73371L12.6544 2.96261C12.9884 2.29759 13.5476 1.77512 14.2307 1.4898C14.9138 1.20447 15.6757 1.17517 16.3783 1.40715L17.197 1.67101C17.503 1.7723 17.8298 1.79225 18.1458 1.72892C18.4617 1.66559 18.756 1.52113 19.0004 1.30952L19.6577 0.748062C20.22 0.265107 20.9345 -0.000148773 21.6732 -0.000148773C22.4119 -0.000148773 23.1264 0.265107 23.6887 0.748062L24.3448 1.31073C24.5897 1.52088 24.8839 1.66441 25.1993 1.72768C25.5147 1.79095 25.841 1.77186 26.147 1.67222L26.968 1.40598C27.671 1.17634 28.4321 1.20692 29.1147 1.49224C29.7972 1.77757 30.3565 2.29892 30.692 2.96265L31.0852 3.73375C31.2313 4.0229 31.4486 4.26941 31.7162 4.44977C31.9838 4.63013 32.2928 4.73831 32.6137 4.76394L33.4718 4.83502C34.2083 4.89394 34.8998 5.2156 35.4222 5.74227C35.9446 6.26894 36.2636 6.9661 36.3221 7.70859L36.3926 8.57367C36.418 8.89718 36.5253 9.20872 36.7042 9.47851C36.8831 9.74829 37.1276 9.9673 37.4144 10.1146L38.1793 10.511C38.8374 10.8495 39.3544 11.4134 39.6373 12.1014C39.9203 12.7895 39.9508 13.5567 39.7233 14.2654L39.4604 15.0919C39.3603 15.4002 39.3406 15.7293 39.4032 16.0475C39.4658 16.3657 39.6085 16.6623 39.8178 16.9088L40.3747 17.5715C40.8544 18.1381 41.1178 18.8587 41.1176 19.6037C41.1173 20.3486 40.8535 21.0691 40.3735 21.6354L39.819 22.2969C39.6098 22.5437 39.4669 22.8404 39.404 23.1587C39.341 23.477 39.36 23.8062 39.4592 24.115L39.7221 24.9403C39.9497 25.649 39.9195 26.4163 39.6367 27.1045C39.354 27.7928 38.8373 28.357 38.1793 28.6958L37.4144 29.0922C37.1276 29.2398 36.883 29.4591 36.7041 29.7291C36.5252 29.9991 36.4179 30.3108 36.3925 30.6344L36.322 31.4983C36.2636 32.2408 35.9445 32.938 35.4221 33.4646C34.8997 33.9913 34.2082 34.313 33.4717 34.3719L32.6137 34.443C32.2929 34.4691 31.9841 34.5774 31.7166 34.7577C31.4491 34.938 31.2317 35.1843 31.0852 35.4732L30.6932 36.2455C30.3572 36.9093 29.7974 37.4305 29.1143 37.7154C28.4313 38.0003 27.6698 38.0302 26.9669 37.7998L26.1483 37.5359C25.8422 37.435 25.5155 37.4153 25.1996 37.4786C24.8838 37.5419 24.5894 37.6861 24.3449 37.8974L23.6888 38.4576C23.1266 38.9413 22.4117 39.207 21.6726 39.207ZM17.7826 36.2081C18.5189 36.2091 19.2309 36.4739 19.7915 36.9552L20.4488 37.5166C20.7903 37.8103 21.2244 37.9716 21.6732 37.9716C22.122 37.9716 22.5562 37.8103 22.8976 37.5166L23.5537 36.9564C23.9571 36.6105 24.4413 36.3742 24.9606 36.2698C25.4799 36.1655 26.017 36.1965 26.5211 36.36L27.341 36.625C27.7679 36.7652 28.2304 36.7472 28.6453 36.5742C29.0602 36.4013 29.4003 36.0848 29.6045 35.6816L29.9964 34.9093C30.2375 34.4336 30.5953 34.028 31.0359 33.7313C31.4765 33.4345 31.9851 33.2565 32.5133 33.2141L33.3714 33.143C33.8188 33.1072 34.2389 32.9118 34.5562 32.5918C34.8736 32.2718 35.0675 31.8483 35.103 31.3972L35.1735 30.5333C35.2151 30.0007 35.3915 29.4878 35.6859 29.0435C35.9803 28.5993 36.3828 28.2386 36.855 27.9959L37.6199 27.5995C38.0196 27.3935 38.3334 27.0507 38.5051 26.6325C38.6768 26.2143 38.6952 25.7481 38.5568 25.3176L38.2951 24.4934C38.1308 23.9852 38.0988 23.4429 38.2022 22.9186C38.3056 22.3943 38.5409 21.9056 38.8855 21.4994L39.44 20.8379C39.732 20.4941 39.8926 20.0564 39.8928 19.6038C39.893 19.1511 39.7329 18.7133 39.4412 18.3692L38.8843 17.7077C38.5398 17.3016 38.3047 16.8131 38.2015 16.289C38.0983 15.7648 38.1306 15.2228 38.2951 14.7149L38.5569 13.8895C38.6952 13.459 38.6769 12.9928 38.5052 12.5746C38.3335 12.1564 38.0197 11.8136 37.6199 11.6075L36.8551 11.2111C36.3831 10.9686 35.9806 10.6081 35.6862 10.1641C35.3919 9.72007 35.2154 9.20734 35.1736 8.67491L35.1031 7.80983C35.0676 7.35876 34.8737 6.93522 34.5564 6.61526C34.239 6.2953 33.8189 6.09986 33.3715 6.06404L32.5134 5.99296C31.9853 5.95087 31.4767 5.77294 31.0363 5.47615C30.5958 5.17936 30.2382 4.77364 29.9977 4.29777L29.6045 3.52667C29.4006 3.12357 29.0608 2.80695 28.6462 2.63361C28.2316 2.46027 27.7693 2.44158 27.3422 2.58086L26.5212 2.84713C26.0174 3.01259 25.48 3.04478 24.9603 2.94055C24.4407 2.83632 23.9564 2.59919 23.5538 2.25194L22.8977 1.69048C22.5565 1.39626 22.1223 1.2346 21.6733 1.2346C21.2243 1.2346 20.7901 1.39626 20.4489 1.69048L19.7916 2.25194C19.3893 2.60007 18.9047 2.83766 18.3846 2.94171C17.8646 3.04577 17.3267 3.01277 16.823 2.84593L16.0044 2.58207C15.5778 2.44031 15.1148 2.45769 14.6998 2.63105C14.2848 2.80442 13.9454 3.12224 13.7433 3.52667L13.3489 4.29777C13.1082 4.77379 12.7505 5.17962 12.3098 5.47641C11.8691 5.77321 11.3603 5.95105 10.832 5.99296L9.97395 6.06404C9.52653 6.09986 9.10642 6.2953 8.78905 6.61526C8.47168 6.93522 8.27783 7.35876 8.24229 7.80983L8.17178 8.67491C8.1306 9.20734 7.95446 9.72016 7.66025 10.1643C7.36603 10.6083 6.96359 10.9688 6.49152 11.2111L5.72547 11.6087C5.32577 11.8141 5.01183 12.1565 4.84009 12.5743C4.66835 12.9922 4.65007 13.4581 4.78852 13.8883L5.05263 14.716C5.21605 15.224 5.24756 15.7657 5.1442 16.2894C5.04085 16.8132 4.80604 17.3014 4.46222 17.7077L3.90415 18.3691C3.61303 18.7135 3.45322 19.1512 3.45345 19.6037C3.45367 20.0562 3.61388 20.4938 3.90534 20.8379L4.46106 21.4994C4.80501 21.9057 5.03997 22.3941 5.14353 22.9181C5.24709 23.442 5.21579 23.9839 5.05263 24.4922L4.78852 25.3187C4.65018 25.7491 4.66853 26.2151 4.84024 26.6331C5.01195 27.0511 5.3258 27.3937 5.72547 27.5995L6.49156 27.9947C6.96362 28.2376 7.36596 28.5986 7.66014 29.043C7.95431 29.4875 8.13048 30.0006 8.17178 30.5333L8.24233 31.3972C8.27786 31.8483 8.47168 32.2718 8.78905 32.5917C9.10642 32.9117 9.52653 33.1071 9.97395 33.1429L10.832 33.214C11.3603 33.2561 11.869 33.434 12.3097 33.7308C12.7503 34.0276 13.1081 34.4333 13.3489 34.9092L13.7433 35.6816C13.9465 36.0847 14.2858 36.4014 14.7002 36.5746C15.1146 36.7478 15.5766 36.7661 16.0032 36.6262L16.8242 36.3599C17.134 36.2599 17.4573 36.2087 17.7826 36.2081Z" fill="black"/>
<path d="M22.4465 12.8063L24.0231 15.9169C24.0854 16.0397 24.1755 16.146 24.2862 16.2271C24.3969 16.3082 24.525 16.3617 24.6601 16.3835L28.0818 16.934C28.2399 16.9594 28.388 17.0284 28.5096 17.1333C28.6313 17.2382 28.7219 17.375 28.7714 17.5285C28.8209 17.682 28.8273 17.8463 28.79 18.0033C28.7528 18.1603 28.6732 18.3038 28.5601 18.4181L26.1129 20.8911C26.0163 20.9887 25.9439 21.108 25.9016 21.2391C25.8593 21.3703 25.8483 21.5097 25.8696 21.646L26.4076 25.0968C26.4325 25.2563 26.4132 25.4196 26.3518 25.5687C26.2904 25.7177 26.1894 25.8469 26.0599 25.9417C25.9304 26.0366 25.7774 26.0936 25.6177 26.1064C25.4581 26.1191 25.2981 26.0872 25.1554 26.0141L22.0663 24.4318C21.9443 24.3693 21.8094 24.3368 21.6726 24.3368C21.5358 24.3368 21.4009 24.3693 21.2789 24.4318L18.1898 26.0141C18.047 26.0872 17.8871 26.1191 17.7274 26.1064C17.5678 26.0936 17.4148 26.0366 17.2853 25.9417C17.1557 25.8469 17.0547 25.7178 16.9934 25.5687C16.932 25.4196 16.9127 25.2563 16.9376 25.0968L17.4756 21.646C17.4968 21.5097 17.4859 21.3703 17.4436 21.2391C17.4013 21.108 17.3289 20.9887 17.2323 20.8911L14.7851 18.4181C14.672 18.3038 14.5924 18.1603 14.5551 18.0033C14.5179 17.8463 14.5243 17.682 14.5738 17.5285C14.6233 17.375 14.7139 17.2382 14.8355 17.1333C14.9572 17.0284 15.1053 16.9594 15.2634 16.934L18.6851 16.3835C18.8202 16.3618 18.9483 16.3082 19.059 16.2271C19.1697 16.146 19.2598 16.0397 19.322 15.9169L20.8987 12.8063C20.9716 12.6626 21.0824 12.542 21.2189 12.4577C21.3555 12.3735 21.5125 12.3289 21.6726 12.3289C21.8327 12.3289 21.9897 12.3735 22.1262 12.4577C22.2628 12.542 22.3736 12.6626 22.4465 12.8063Z" fill="#569FD6"/>
<path d="M16.231 50C16.1448 50 16.0596 49.9816 15.9809 49.9461C15.9023 49.9106 15.8319 49.8588 15.7745 49.794L12.3219 45.8951L7.2846 47.6228C7.17905 47.6595 7.0655 47.6662 6.95647 47.6419C6.84744 47.6177 6.74717 47.5635 6.66673 47.4855C6.58585 47.4082 6.52743 47.3101 6.49774 47.2019C6.46805 47.0936 6.46819 46.9792 6.49823 46.8711L10.1158 33.9491C10.1376 33.8711 10.1744 33.7981 10.2242 33.7345C10.274 33.6708 10.3357 33.6177 10.4058 33.5781C10.4759 33.5385 10.5531 33.5132 10.6329 33.5037C10.7128 33.4941 10.7937 33.5006 10.8711 33.5226C10.9484 33.5445 11.0208 33.5817 11.0839 33.6319C11.147 33.682 11.1998 33.7442 11.239 33.8149C11.2783 33.8856 11.3034 33.9635 11.3129 34.044C11.3223 34.1244 11.3159 34.206 11.2941 34.284L7.99209 46.0771L12.3112 44.5951C12.425 44.5568 12.5476 44.5528 12.6637 44.5836C12.7798 44.6144 12.8845 44.6787 12.9649 44.7686L15.9454 48.1338L18.9105 37.5443C18.955 37.3874 19.0595 37.2547 19.2009 37.1752C19.3423 37.0957 19.5093 37.0759 19.6651 37.1202C19.821 37.1645 19.953 37.2693 20.0325 37.4115C20.1119 37.5538 20.1321 37.722 20.0888 37.8793L16.8202 49.5507C16.7903 49.6571 16.7326 49.7535 16.6532 49.8298C16.5737 49.9061 16.4754 49.9595 16.3685 49.9844C16.3234 49.995 16.2773 50.0002 16.231 50Z" fill="black"/>
<path d="M27.1136 50C27.0673 50.0001 27.0212 49.9949 26.9762 49.9843C26.8693 49.9594 26.7709 49.906 26.6915 49.8297C26.612 49.7534 26.5543 49.657 26.5244 49.5506L23.3192 38.1033C23.2759 37.946 23.2961 37.7778 23.3755 37.6356C23.455 37.4933 23.5871 37.3885 23.7429 37.3442C23.8988 37.2999 24.0657 37.3197 24.2071 37.3992C24.3485 37.4787 24.453 37.6114 24.4975 37.7684L27.3992 48.1337L30.381 44.7685C30.4615 44.6788 30.5662 44.6145 30.6823 44.5837C30.7983 44.5529 30.9208 44.5569 31.0347 44.595L35.3538 46.077L32.0505 34.2839C32.0287 34.2059 32.0224 34.1244 32.0318 34.0439C32.0413 33.9634 32.0664 33.8856 32.1057 33.8149C32.1449 33.7442 32.1976 33.6819 32.2608 33.6318C32.3239 33.5816 32.3962 33.5445 32.4736 33.5225C32.551 33.5005 32.6319 33.4941 32.7117 33.5036C32.7915 33.5131 32.8687 33.5384 32.9389 33.578C33.009 33.6176 33.0707 33.6708 33.1205 33.7344C33.1702 33.7981 33.2071 33.871 33.2289 33.949L36.8476 46.871C36.8775 46.9792 36.8777 47.0936 36.8479 47.2019C36.8182 47.3102 36.7598 47.4083 36.6789 47.4856C36.5981 47.5629 36.4978 47.6165 36.389 47.6407C36.2801 47.6649 36.1668 47.6587 36.0612 47.6228L31.0239 45.8951L27.5701 49.794C27.5127 49.8588 27.4423 49.9106 27.3637 49.9461C27.285 49.9816 27.1998 50 27.1136 50Z" fill="black"/>
</svg>
