<svg width="60" height="60" viewBox="0 0 60 60" fill="none" xmlns="http://www.w3.org/2000/svg">
<g clip-path="url(#clip0_3_598)">
<path d="M22.0867 31.1382C21.394 29.8504 21.0313 28.4111 21.031 26.9489C21.0314 25.4844 21.3915 24.0425 22.0796 22.7498C22.7677 21.4572 23.7627 20.3533 24.9773 19.5352C24.9893 19.3806 24.9968 19.2247 24.9968 19.0668C25.0023 17.9947 24.7236 16.9403 24.1891 16.011C23.6546 15.0816 22.8834 14.3104 21.954 13.7761C21.0246 13.2417 19.9701 12.9631 18.8981 12.9688C17.826 12.9744 16.7745 13.2641 15.8508 13.8082C14.927 14.3524 14.164 15.1316 13.6393 16.0665C13.1146 17.0015 12.8471 18.0588 12.8639 19.1307C12.8807 20.2027 13.1813 21.2511 13.735 22.1691C14.2888 23.0871 15.0759 23.842 16.0163 24.3569C13.7327 24.7823 11.6699 25.9929 10.1851 27.7792C8.70022 29.5655 7.8869 31.8148 7.88599 34.1376V39.1179H16.3939C17.162 35.81 19.2088 32.941 22.0867 31.1382Z" fill="#969696"/>
<path d="M43.9839 24.3569C44.9193 23.8407 45.7015 23.0863 46.2511 22.1701C46.8007 21.2539 47.0981 20.2086 47.1131 19.1403C47.1281 18.072 46.8602 17.0188 46.3366 16.0876C45.813 15.1563 45.0523 14.3801 44.1317 13.8379C43.2112 13.2956 42.1636 13.0066 41.0952 13.0001C40.0268 12.9936 38.9758 13.2699 38.0487 13.801C37.1216 14.332 36.3516 15.0988 35.8167 16.0237C35.2818 16.9485 35.0011 17.9984 35.0032 19.0668C35.0032 19.2392 35.0128 19.4091 35.0271 19.5776C36.2255 20.3978 37.2061 21.4977 37.8839 22.7821C38.5617 24.0664 38.9163 25.4966 38.917 26.9489C38.9169 28.4112 38.554 29.8506 37.8608 31.1382C40.739 32.9408 42.786 35.8099 43.5541 39.1179H52.114V34.1376C52.1132 31.8148 51.2999 29.5655 49.8151 27.7792C48.3303 25.9929 46.2674 24.7822 43.9839 24.3569Z" fill="#969696"/>
<path d="M41.0442 47V42.0198C41.0434 39.6969 40.2301 37.4476 38.7452 35.6613C37.2604 33.875 35.1975 32.6644 32.9139 32.2391C34.0956 31.592 35.0283 30.57 35.5649 29.3342C36.1016 28.0984 36.2116 26.7192 35.8776 25.414C35.5437 24.1088 34.7847 22.9518 33.7205 22.1256C32.6563 21.2994 31.3474 20.851 30.0001 20.851C28.6529 20.851 27.3439 21.2994 26.2797 22.1256C25.2155 22.9518 24.4566 24.1088 24.1227 25.414C23.7887 26.7192 23.8987 28.0984 24.4353 29.3342C24.972 30.57 25.9046 31.592 27.0863 32.2391C24.8028 32.6645 22.74 33.8751 21.2552 35.6614C19.7703 37.4476 18.957 39.697 18.9561 42.0198V47H41.0442Z" fill="#969696"/>
</g>
<defs>
<clipPath id="clip0_3_598">
<rect width="44.228" height="34" fill="white" transform="translate(7.88599 13)"/>
</clipPath>
</defs>
</svg>
