<svg width="44" height="44" viewBox="0 0 44 44" fill="none" xmlns="http://www.w3.org/2000/svg">
<g clip-path="url(#clip0_111_904)">
<path d="M39.472 40.1977H4.52932C4.43402 40.1977 4.33964 40.179 4.25158 40.1426C4.16352 40.1061 4.08352 40.0526 4.01613 39.9853C3.94874 39.9179 3.89528 39.8379 3.85884 39.7498C3.82239 39.6618 3.80366 39.5673 3.80371 39.472V4.52884C3.80366 4.43354 3.82239 4.33913 3.85884 4.25107C3.89528 4.16301 3.94874 4.08302 4.01613 4.01563C4.08352 3.94824 4.16352 3.89476 4.25158 3.85832C4.33964 3.82187 4.43402 3.80317 4.52932 3.80322H39.472C39.5673 3.80317 39.6616 3.82187 39.7497 3.85832C39.8378 3.89476 39.9178 3.94824 39.9852 4.01563C40.0526 4.08302 40.106 4.16301 40.1424 4.25107C40.1789 4.33913 40.1976 4.43354 40.1976 4.52884V39.472C40.1976 39.5673 40.1789 39.6618 40.1424 39.7498C40.106 39.8379 40.0526 39.9179 39.9852 39.9853C39.9178 40.0526 39.8378 40.1061 39.7497 40.1426C39.6616 40.179 39.5673 40.1977 39.472 40.1977ZM5.25493 38.7464H38.7463V5.25447H5.25493V38.7464Z" fill="black"/>
<path d="M22.0007 36.4264C18.3443 36.4264 16.3716 28.9937 16.3716 22.0004C16.3716 15.0064 18.3443 7.573 22.0007 7.573C25.6557 7.573 27.6284 15.0064 27.6284 22.0004C27.6284 28.9937 25.6557 36.4264 22.0007 36.4264ZM22.0007 9.02424C20.0251 9.02424 17.8228 14.353 17.8228 22.0004C17.8228 29.6463 20.0251 34.9751 22.0007 34.9751C23.9763 34.9751 26.1772 29.6463 26.1772 22.0004C26.1772 14.353 23.9763 9.02424 22.0007 9.02424Z" fill="black"/>
<path d="M30.7805 30.783C30.0242 30.776 29.2701 30.7013 28.5272 30.5597C25.2318 29.8544 22.0756 28.6091 19.1863 26.8742C13.1292 23.3772 7.67866 17.9528 9.50684 14.7867C11.3308 11.6235 18.7584 13.6295 24.8141 17.1258C30.8712 20.6229 36.3218 26.0473 34.4936 29.2134C34.0699 29.7813 33.5026 30.226 32.85 30.5019C32.1974 30.7778 31.4831 30.8748 30.7805 30.783ZM13.183 14.6471C11.9458 14.6471 11.0927 14.9426 10.7624 15.5123C9.77602 17.2236 13.2893 21.7942 19.9119 25.6172C22.657 27.2692 25.656 28.4569 28.7878 29.1326C31.0993 29.5521 32.7617 29.3119 33.2379 28.4878C34.2242 26.7765 30.711 22.2059 24.0884 18.3829C20.803 16.2862 17.0639 15.0054 13.183 14.6471Z" fill="black"/>
<path d="M13.1746 30.7937C12.4778 30.8819 11.7702 30.7819 11.1251 30.504C10.4801 30.2261 9.92135 29.7805 9.50684 29.2135C7.67866 26.0474 13.1292 20.623 19.1863 17.126C22.0756 15.3912 25.2318 14.1459 28.5272 13.4405C31.5557 12.8885 33.6744 13.3675 34.4936 14.7868C36.3218 17.9529 30.8712 23.3774 24.8141 26.8744C20.8742 29.149 16.3548 30.7937 13.1746 30.7937ZM30.8117 14.665C30.1324 14.6724 29.4552 14.7402 28.7879 14.8676C25.6561 15.5433 22.6571 16.731 19.912 18.3831C13.2894 22.206 9.77611 26.7766 10.7625 28.4879C11.7545 30.1985 17.4687 29.4388 24.0885 25.6173C30.7111 21.7943 34.2243 17.2238 33.238 15.5125C32.9163 14.9554 32.0518 14.665 30.8117 14.665Z" fill="black"/>
<path d="M11.5176 5.25438C11.4223 5.25443 11.3279 5.23573 11.2399 5.19928C11.1518 5.16283 11.0718 5.10936 11.0044 5.04197C10.937 4.97458 10.8836 4.89459 10.8471 4.80653C10.8107 4.71847 10.7919 4.62406 10.792 4.52875V0.725621C10.7919 0.630316 10.8107 0.535905 10.8471 0.447844C10.8836 0.359784 10.937 0.279798 11.0044 0.212407C11.0718 0.145017 11.1518 0.0915418 11.2399 0.0550949C11.3279 0.0186479 11.4223 -5.32933e-05 11.5176 1.22379e-07C11.6129 -5.52029e-05 11.7073 0.0186486 11.7954 0.0550949C11.8834 0.0915412 11.9634 0.145016 12.0308 0.212407C12.0982 0.279798 12.1516 0.359783 12.1881 0.447844C12.2245 0.535906 12.2433 0.630316 12.2432 0.725621V4.52875C12.2433 4.62406 12.2245 4.71847 12.1881 4.80653C12.1516 4.89459 12.0982 4.97458 12.0308 5.04197C11.9634 5.10936 11.8834 5.16283 11.7954 5.19928C11.7073 5.23573 11.6129 5.25443 11.5176 5.25438Z" fill="black"/>
<path d="M18.5059 5.25438C18.4106 5.25443 18.3162 5.23573 18.2281 5.19928C18.1401 5.16283 18.0601 5.10936 17.9927 5.04197C17.9253 4.97458 17.8718 4.89459 17.8354 4.80653C17.799 4.71847 17.7802 4.62406 17.7803 4.52875V0.725621C17.7802 0.630316 17.799 0.535905 17.8354 0.447844C17.8718 0.359784 17.9253 0.279798 17.9927 0.212407C18.0601 0.145017 18.1401 0.0915418 18.2281 0.0550949C18.3162 0.0186479 18.4106 -5.32933e-05 18.5059 1.22379e-07C18.6012 -5.52029e-05 18.6956 0.0186486 18.7836 0.0550949C18.8717 0.0915412 18.9517 0.145016 19.0191 0.212407C19.0865 0.279798 19.1399 0.359783 19.1764 0.447844C19.2128 0.535906 19.2315 0.630316 19.2315 0.725621V4.52875C19.2315 4.62406 19.2128 4.71847 19.1764 4.80653C19.1399 4.89459 19.0865 4.97458 19.0191 5.04197C18.9517 5.10936 18.8717 5.16283 18.7836 5.19928C18.6956 5.23573 18.6012 5.25443 18.5059 5.25438Z" fill="black"/>
<path d="M25.4942 5.25438C25.3989 5.25443 25.3045 5.23573 25.2164 5.19928C25.1284 5.16283 25.0484 5.10936 24.981 5.04197C24.9136 4.97458 24.8601 4.89459 24.8237 4.80653C24.7872 4.71847 24.7685 4.62406 24.7686 4.52875V0.725621C24.7685 0.630316 24.7872 0.535905 24.8237 0.447844C24.8601 0.359784 24.9136 0.279798 24.981 0.212407C25.0484 0.145017 25.1284 0.0915418 25.2164 0.0550949C25.3045 0.0186479 25.3989 -5.32933e-05 25.4942 1.22379e-07C25.5895 -5.52029e-05 25.6839 0.0186486 25.7719 0.0550949C25.86 0.0915412 25.94 0.145016 26.0074 0.212407C26.0748 0.279798 26.1282 0.359783 26.1647 0.447844C26.2011 0.535906 26.2198 0.630316 26.2198 0.725621V4.52875C26.2198 4.62406 26.2011 4.71847 26.1647 4.80653C26.1282 4.89459 26.0748 4.97458 26.0074 5.04197C25.94 5.10936 25.86 5.16283 25.7719 5.19928C25.6839 5.23573 25.5895 5.25443 25.4942 5.25438Z" fill="black"/>
<path d="M32.4824 5.25438C32.3871 5.25443 32.2928 5.23573 32.2047 5.19928C32.1166 5.16283 32.0366 5.10936 31.9693 5.04197C31.9019 4.97458 31.8484 4.89459 31.812 4.80653C31.7755 4.71847 31.7568 4.62406 31.7568 4.52875V0.725621C31.7568 0.630316 31.7755 0.535905 31.812 0.447844C31.8484 0.359784 31.9019 0.279798 31.9693 0.212407C32.0366 0.145017 32.1166 0.0915418 32.2047 0.0550949C32.2928 0.0186479 32.3871 -5.32933e-05 32.4824 1.22379e-07C32.5777 -5.52029e-05 32.6721 0.0186486 32.7602 0.0550949C32.8483 0.0915412 32.9283 0.145016 32.9957 0.212407C33.0631 0.279798 33.1165 0.359783 33.1529 0.447844C33.1894 0.535906 33.2081 0.630316 33.2081 0.725621V4.52875C33.2081 4.62406 33.1894 4.71847 33.1529 4.80653C33.1165 4.89459 33.0631 4.97458 32.9957 5.04197C32.9283 5.10936 32.8483 5.16283 32.7602 5.19928C32.6721 5.23573 32.5777 5.25443 32.4824 5.25438Z" fill="black"/>
<path d="M11.5176 44C11.4223 44.0001 11.3279 43.9814 11.2399 43.9449C11.1518 43.9085 11.0718 43.855 11.0044 43.7876C10.937 43.7202 10.8836 43.6402 10.8471 43.5522C10.8107 43.4641 10.7919 43.3697 10.792 43.2744V39.472C10.7919 39.3767 10.8107 39.2822 10.8471 39.1942C10.8836 39.1061 10.937 39.0261 11.0044 38.9587C11.0718 38.8914 11.1518 38.8379 11.2399 38.8014C11.3279 38.765 11.4223 38.7463 11.5176 38.7463C11.6129 38.7463 11.7073 38.765 11.7954 38.8014C11.8834 38.8379 11.9634 38.8914 12.0308 38.9587C12.0982 39.0261 12.1516 39.1061 12.1881 39.1942C12.2245 39.2822 12.2433 39.3767 12.2432 39.472V43.2744C12.2433 43.3697 12.2245 43.4641 12.1881 43.5522C12.1516 43.6402 12.0982 43.7202 12.0308 43.7876C11.9634 43.855 11.8834 43.9085 11.7954 43.9449C11.7073 43.9814 11.6129 44.0001 11.5176 44Z" fill="black"/>
<path d="M18.5059 44C18.4106 44.0001 18.3162 43.9814 18.2281 43.9449C18.1401 43.9085 18.0601 43.855 17.9927 43.7876C17.9253 43.7202 17.8718 43.6402 17.8354 43.5522C17.799 43.4641 17.7802 43.3697 17.7803 43.2744V39.472C17.7802 39.3767 17.799 39.2822 17.8354 39.1942C17.8718 39.1061 17.9253 39.0261 17.9927 38.9587C18.0601 38.8914 18.1401 38.8379 18.2281 38.8014C18.3162 38.765 18.4106 38.7463 18.5059 38.7463C18.6012 38.7463 18.6956 38.765 18.7836 38.8014C18.8717 38.8379 18.9517 38.8914 19.0191 38.9587C19.0865 39.0261 19.1399 39.1061 19.1764 39.1942C19.2128 39.2822 19.2315 39.3767 19.2315 39.472V43.2744C19.2315 43.3697 19.2128 43.4641 19.1764 43.5522C19.1399 43.6402 19.0865 43.7202 19.0191 43.7876C18.9517 43.855 18.8717 43.9085 18.7836 43.9449C18.6956 43.9814 18.6012 44.0001 18.5059 44Z" fill="black"/>
<path d="M25.4942 44C25.3989 44.0001 25.3045 43.9814 25.2164 43.9449C25.1284 43.9085 25.0484 43.855 24.981 43.7876C24.9136 43.7202 24.8601 43.6402 24.8237 43.5522C24.7872 43.4641 24.7685 43.3697 24.7686 43.2744V39.472C24.7685 39.3767 24.7872 39.2822 24.8237 39.1942C24.8601 39.1061 24.9136 39.0261 24.981 38.9587C25.0484 38.8914 25.1284 38.8379 25.2164 38.8014C25.3045 38.765 25.3989 38.7463 25.4942 38.7463C25.5895 38.7463 25.6839 38.765 25.7719 38.8014C25.86 38.8379 25.94 38.8914 26.0074 38.9587C26.0748 39.0261 26.1282 39.1061 26.1647 39.1942C26.2011 39.2822 26.2198 39.3767 26.2198 39.472V43.2744C26.2198 43.3697 26.2011 43.4641 26.1647 43.5522C26.1282 43.6402 26.0748 43.7202 26.0074 43.7876C25.94 43.855 25.86 43.9085 25.7719 43.9449C25.6839 43.9814 25.5895 44.0001 25.4942 44Z" fill="black"/>
<path d="M32.4824 44C32.3871 44.0001 32.2928 43.9814 32.2047 43.9449C32.1166 43.9085 32.0366 43.855 31.9693 43.7876C31.9019 43.7202 31.8484 43.6402 31.812 43.5522C31.7755 43.4641 31.7568 43.3697 31.7568 43.2744V39.472C31.7568 39.3767 31.7755 39.2822 31.812 39.1942C31.8484 39.1061 31.9019 39.0261 31.9693 38.9587C32.0366 38.8914 32.1166 38.8379 32.2047 38.8014C32.2928 38.765 32.3871 38.7463 32.4824 38.7463C32.5777 38.7463 32.6721 38.765 32.7602 38.8014C32.8483 38.8379 32.9283 38.8914 32.9957 38.9587C33.0631 39.0261 33.1165 39.1061 33.1529 39.1942C33.1894 39.2822 33.2081 39.3767 33.2081 39.472V43.2744C33.2081 43.3697 33.1894 43.4641 33.1529 43.5522C33.1165 43.6402 33.063 43.7202 32.9957 43.7876C32.9283 43.855 32.8483 43.9085 32.7602 43.9449C32.6721 43.9814 32.5777 44.0001 32.4824 44Z" fill="black"/>
<path d="M43.2746 12.2427H39.4722C39.3769 12.2428 39.2825 12.2241 39.1944 12.1877C39.1064 12.1512 39.0264 12.0977 38.959 12.0303C38.8916 11.9629 38.8381 11.883 38.8017 11.7949C38.7653 11.7068 38.7465 11.6124 38.7466 11.5171C38.7465 11.4218 38.7653 11.3274 38.8017 11.2393C38.8382 11.1513 38.8916 11.0713 38.959 11.0039C39.0264 10.9365 39.1064 10.883 39.1945 10.8466C39.2825 10.8102 39.3769 10.7915 39.4722 10.7915H43.2746C43.3699 10.7915 43.4642 10.8102 43.5523 10.8466C43.6404 10.883 43.7204 10.9365 43.7878 11.0039C43.8552 11.0713 43.9086 11.1513 43.945 11.2393C43.9815 11.3274 44.0002 11.4218 44.0002 11.5171C44.0002 11.6124 43.9815 11.7068 43.945 11.7949C43.9086 11.883 43.8552 11.9629 43.7878 12.0303C43.7204 12.0977 43.6404 12.1512 43.5523 12.1877C43.4642 12.2241 43.3699 12.2428 43.2746 12.2427Z" fill="black"/>
<path d="M43.2746 19.231H39.4722C39.3769 19.2311 39.2825 19.2124 39.1944 19.1759C39.1064 19.1395 39.0264 19.086 38.959 19.0186C38.8916 18.9512 38.8381 18.8712 38.8017 18.7832C38.7653 18.6951 38.7465 18.6007 38.7466 18.5054C38.7465 18.4101 38.7653 18.3157 38.8017 18.2276C38.8382 18.1396 38.8916 18.0596 38.959 17.9922C39.0264 17.9248 39.1064 17.8713 39.1945 17.8349C39.2825 17.7984 39.3769 17.7797 39.4722 17.7798H43.2746C43.3699 17.7797 43.4642 17.7984 43.5523 17.8349C43.6404 17.8713 43.7204 17.9248 43.7878 17.9922C43.8552 18.0596 43.9086 18.1396 43.945 18.2276C43.9815 18.3157 44.0002 18.4101 44.0002 18.5054C44.0002 18.6007 43.9815 18.6951 43.945 18.7832C43.9086 18.8712 43.8552 18.9512 43.7878 19.0186C43.7204 19.086 43.6404 19.1395 43.5523 19.1759C43.4642 19.2124 43.3699 19.2311 43.2746 19.231Z" fill="black"/>
<path d="M43.2746 26.2203H39.4722C39.3769 26.2203 39.2825 26.2016 39.1944 26.1652C39.1064 26.1287 39.0264 26.0753 38.959 26.0079C38.8916 25.9405 38.8381 25.8605 38.8017 25.7724C38.7653 25.6844 38.7465 25.59 38.7466 25.4947C38.7465 25.3994 38.7653 25.3049 38.8017 25.2169C38.8381 25.1288 38.8916 25.0488 38.959 24.9815C39.0264 24.9141 39.1064 24.8606 39.1944 24.8241C39.2825 24.7877 39.3769 24.769 39.4722 24.769H43.2746C43.3699 24.769 43.4642 24.7877 43.5523 24.8241C43.6404 24.8606 43.7204 24.9141 43.7878 24.9815C43.8552 25.0488 43.9086 25.1288 43.945 25.2169C43.9815 25.3049 44.0002 25.3994 44.0002 25.4947C44.0002 25.59 43.9815 25.6844 43.945 25.7724C43.9086 25.8605 43.8552 25.9405 43.7878 26.0079C43.7204 26.0753 43.6404 26.1287 43.5523 26.1652C43.4642 26.2016 43.3699 26.2203 43.2746 26.2203Z" fill="black"/>
<path d="M43.2746 33.2086H39.4722C39.3769 33.2086 39.2825 33.1899 39.1944 33.1535C39.1064 33.117 39.0264 33.0636 38.959 32.9962C38.8916 32.9288 38.8381 32.8488 38.8017 32.7607C38.7653 32.6727 38.7465 32.5783 38.7466 32.4829C38.7465 32.3876 38.7653 32.2932 38.8017 32.2052C38.8381 32.1171 38.8916 32.0371 38.959 31.9697C39.0264 31.9023 39.1064 31.8489 39.1944 31.8124C39.2825 31.776 39.3769 31.7573 39.4722 31.7573H43.2746C43.3699 31.7573 43.4642 31.776 43.5523 31.8124C43.6404 31.8489 43.7204 31.9023 43.7878 31.9697C43.8552 32.0371 43.9086 32.1171 43.945 32.2052C43.9815 32.2932 44.0002 32.3876 44.0002 32.4829C44.0002 32.5783 43.9815 32.6727 43.945 32.7607C43.9086 32.8488 43.8552 32.9288 43.7878 32.9962C43.7204 33.0636 43.6404 33.117 43.5523 33.1535C43.4642 33.1899 43.3699 33.2086 43.2746 33.2086Z" fill="black"/>
<path d="M4.52939 12.2427H0.725621C0.630317 12.2428 0.53593 12.2241 0.44787 12.1877C0.35981 12.1512 0.279805 12.0977 0.212415 12.0303C0.145025 11.9629 0.091584 11.883 0.0551383 11.7949C0.0186926 11.7068 -5.52023e-05 11.6124 1.22089e-07 11.5171C-5.32927e-05 11.4218 0.0186919 11.3274 0.0551383 11.2393C0.0915847 11.1513 0.145025 11.0713 0.212415 11.0039C0.279805 10.9365 0.359822 10.883 0.447882 10.8466C0.535941 10.8102 0.630317 10.7915 0.725621 10.7915H4.52939C4.62469 10.7915 4.71908 10.8102 4.80714 10.8466C4.8952 10.883 4.97521 10.9365 5.0426 11.0039C5.10999 11.0713 5.16343 11.1513 5.19987 11.2393C5.23632 11.3274 5.25505 11.4218 5.255 11.5171C5.25506 11.6124 5.23633 11.7068 5.19988 11.7949C5.16344 11.883 5.10999 11.9629 5.0426 12.0303C4.97521 12.0977 4.8952 12.1512 4.80714 12.1877C4.71908 12.2241 4.62469 12.2428 4.52939 12.2427Z" fill="black"/>
<path d="M4.52939 19.231H0.725621C0.630317 19.2311 0.53593 19.2124 0.44787 19.1759C0.35981 19.1395 0.279805 19.086 0.212415 19.0186C0.145025 18.9512 0.091584 18.8712 0.0551383 18.7832C0.0186926 18.6951 -5.52023e-05 18.6007 1.22089e-07 18.5054C-5.32927e-05 18.4101 0.0186919 18.3157 0.0551383 18.2276C0.0915847 18.1396 0.145025 18.0596 0.212415 17.9922C0.279805 17.9248 0.359822 17.8713 0.447882 17.8349C0.535941 17.7984 0.630317 17.7797 0.725621 17.7798H4.52939C4.62469 17.7797 4.71908 17.7984 4.80714 17.8349C4.8952 17.8713 4.97521 17.9248 5.0426 17.9922C5.10999 18.0596 5.16343 18.1396 5.19987 18.2276C5.23632 18.3157 5.25505 18.4101 5.255 18.5054C5.25506 18.6007 5.23633 18.6951 5.19988 18.7832C5.16344 18.8712 5.10999 18.9512 5.0426 19.0186C4.97521 19.086 4.8952 19.1395 4.80714 19.1759C4.71908 19.2124 4.62469 19.2311 4.52939 19.231Z" fill="black"/>
<path d="M4.52939 26.2203H0.725621C0.630317 26.2203 0.53593 26.2016 0.44787 26.1652C0.35981 26.1287 0.279805 26.0753 0.212415 26.0079C0.145025 25.9405 0.091584 25.8605 0.0551383 25.7724C0.0186926 25.6844 -5.52023e-05 25.59 1.22089e-07 25.4947C-5.52023e-05 25.3994 0.0186926 25.3049 0.0551383 25.2169C0.091584 25.1288 0.145025 25.0488 0.212415 24.9815C0.279805 24.9141 0.35981 24.8606 0.44787 24.8241C0.53593 24.7877 0.630317 24.769 0.725621 24.769H4.52939C4.62469 24.769 4.71908 24.7877 4.80714 24.8241C4.8952 24.8606 4.97521 24.9141 5.0426 24.9815C5.10999 25.0488 5.16344 25.1288 5.19988 25.2169C5.23633 25.3049 5.25506 25.3994 5.255 25.4947C5.25506 25.59 5.23633 25.6844 5.19988 25.7724C5.16344 25.8605 5.10999 25.9405 5.0426 26.0079C4.97521 26.0753 4.8952 26.1287 4.80714 26.1652C4.71908 26.2016 4.62469 26.2203 4.52939 26.2203Z" fill="black"/>
<path d="M4.52939 33.2086H0.725621C0.630317 33.2086 0.53593 33.1899 0.44787 33.1535C0.35981 33.117 0.279805 33.0636 0.212415 32.9962C0.145025 32.9288 0.091584 32.8488 0.0551383 32.7607C0.0186926 32.6727 -5.52023e-05 32.5783 1.22089e-07 32.4829C-5.52023e-05 32.3876 0.0186926 32.2932 0.0551383 32.2052C0.091584 32.1171 0.145025 32.0371 0.212415 31.9697C0.279805 31.9023 0.35981 31.8489 0.44787 31.8124C0.53593 31.776 0.630317 31.7573 0.725621 31.7573H4.52939C4.62469 31.7573 4.71908 31.776 4.80714 31.8124C4.8952 31.8489 4.97521 31.9023 5.0426 31.9697C5.10999 32.0371 5.16344 32.1171 5.19988 32.2052C5.23633 32.2932 5.25506 32.3876 5.255 32.4829C5.25506 32.5783 5.23633 32.6727 5.19988 32.7607C5.16344 32.8488 5.10999 32.9288 5.0426 32.9962C4.97521 33.0636 4.8952 33.117 4.80714 33.1535C4.71908 33.1899 4.62469 33.2086 4.52939 33.2086Z" fill="black"/>
<path d="M22.0001 23.7239C22.9521 23.7239 23.7238 22.9521 23.7238 22.0001C23.7238 21.0481 22.9521 20.2764 22.0001 20.2764C21.0481 20.2764 20.2764 21.0481 20.2764 22.0001C20.2764 22.9521 21.0481 23.7239 22.0001 23.7239Z" fill="black"/>
</g>
<defs>
<clipPath id="clip0_111_904">
<rect width="44" height="44" fill="white"/>
</clipPath>
</defs>
</svg>
