<svg width="46" height="46" viewBox="0 0 46 46" fill="none" xmlns="http://www.w3.org/2000/svg">
<g clip-path="url(#clip0_67_1563)">
<path d="M35.3481 46H0.722399C0.627517 46 0.533547 45.9815 0.445878 45.9456C0.358208 45.9096 0.278555 45.8568 0.211464 45.7903C0.144372 45.7237 0.0911573 45.6448 0.0548722 45.5578C0.0185872 45.4709 -5.3065e-05 45.3777 1.13463e-07 45.2836V0.716256C-5.3065e-05 0.622165 0.0185872 0.529044 0.0548722 0.442105C0.0911573 0.355166 0.144372 0.276112 0.211464 0.209579C0.278555 0.143047 0.358208 0.0903411 0.445878 0.0543584C0.533547 0.0183758 0.627517 -0.000174685 0.722399 -0.00012195H35.3481C35.443 -0.000176571 35.537 0.0183764 35.6247 0.0543584C35.7123 0.0903405 35.792 0.143047 35.8591 0.209579C35.9262 0.276112 35.9794 0.355165 36.0157 0.442105C36.0519 0.529045 36.0706 0.622164 36.0705 0.716256V19.4148C36.0706 19.5089 36.0519 19.6021 36.0157 19.6891C35.9794 19.776 35.9262 19.855 35.8591 19.9215C35.792 19.988 35.7123 20.0408 35.6247 20.0768C35.537 20.1128 35.443 20.1313 35.3481 20.1312C35.2533 20.1313 35.1593 20.1128 35.0716 20.0768C34.984 20.0408 34.9043 19.988 34.8372 19.9215C34.7701 19.855 34.7169 19.776 34.6806 19.6891C34.6443 19.6021 34.6257 19.5089 34.6257 19.4148V1.43272H1.4448V44.5673H34.6257V40.1185C34.6257 40.0244 34.6443 39.9313 34.6806 39.8444C34.7169 39.7574 34.7701 39.6784 34.8372 39.6118C34.9043 39.5453 34.984 39.4926 35.0716 39.4566C35.1593 39.4206 35.2533 39.4021 35.3481 39.4021C35.443 39.4021 35.537 39.4206 35.6247 39.4566C35.7123 39.4926 35.792 39.5453 35.8591 39.6118C35.9262 39.6784 35.9794 39.7574 36.0157 39.8444C36.0519 39.9313 36.0706 40.0244 36.0705 40.1185V45.2837C36.0706 45.3778 36.0519 45.4709 36.0156 45.5578C35.9794 45.6447 35.9261 45.7237 35.8591 45.7903C35.792 45.8568 35.7123 45.9096 35.6246 45.9456C35.537 45.9815 35.443 46 35.3481 46Z" fill="black"/>
<path d="M26.3551 38.345C24.788 38.3479 23.2357 38.0437 21.7875 37.4499C20.3393 36.8561 19.0237 35.9845 17.9163 34.885C16.8044 33.7887 15.9229 32.4845 15.3227 31.0481C14.7226 29.6116 14.4157 28.0714 14.42 26.5165C14.4157 24.9616 14.7225 23.4213 15.3226 21.9848C15.9228 20.5484 16.8043 19.2443 17.9163 18.148C19.0218 17.0455 20.3369 16.1714 21.7854 15.5763C23.234 14.9813 24.7872 14.6772 26.3551 14.6816C27.9229 14.6775 29.476 14.9817 30.9245 15.5767C32.373 16.1717 33.6882 17.0457 34.7939 18.148C37.0287 20.3692 38.2838 23.3788 38.2838 26.5165C38.2838 29.6542 37.0287 32.6638 34.7939 34.885C33.6863 35.9843 32.3706 36.8559 30.9225 37.4496C29.4743 38.0434 27.9221 38.3477 26.3551 38.345ZM26.3551 16.1142C24.977 16.1104 23.6118 16.3777 22.3386 16.9007C21.0654 17.4236 19.9095 18.1919 18.9378 19.1609C17.9603 20.1244 17.1854 21.2706 16.6579 22.5332C16.1304 23.7958 15.8608 25.1497 15.8648 26.5164C15.8613 27.883 16.1311 29.2367 16.6585 30.4992C17.186 31.7618 17.9607 32.9081 18.9378 33.8719C20.9067 35.8193 23.5741 36.913 26.3551 36.913C29.136 36.913 31.8034 35.8193 33.7723 33.8719C35.7362 31.9193 36.839 29.2741 36.839 26.5164C36.839 23.7587 35.7362 21.1135 33.7723 19.1609C32.8004 18.1922 31.6444 17.4241 30.3713 16.9012C29.0981 16.3782 27.7331 16.1108 26.3551 16.1142Z" fill="black"/>
<path d="M26.3549 34.3757C25.3137 34.3787 24.2822 34.1767 23.3202 33.7816C22.3582 33.3866 21.4849 32.8062 20.7506 32.074C20.0122 31.346 19.4267 30.4799 19.0281 29.526C18.6295 28.572 18.4256 27.5491 18.4282 26.5165C18.4256 25.4839 18.6295 24.461 19.0281 23.5071C19.4267 22.5531 20.0122 21.6871 20.7506 20.959C21.4847 20.2267 22.3581 19.6461 23.3201 19.2509C24.2821 18.8556 25.3136 18.6537 26.3549 18.6566C27.3961 18.6539 28.4276 18.856 29.3895 19.2512C30.3515 19.6464 31.2249 20.2269 31.9591 20.959C33.4425 22.4345 34.2755 24.433 34.2755 26.5165C34.2755 28.6 33.4425 30.5986 31.9591 32.074C31.2248 32.8061 30.3514 33.3864 29.3894 33.7815C28.4275 34.1765 27.3961 34.3785 26.3549 34.3757ZM26.3549 20.0894C25.5034 20.0871 24.66 20.2523 23.8733 20.5754C23.0867 20.8986 22.3725 21.3733 21.7722 21.9721C21.1682 22.5673 20.6894 23.2755 20.3634 24.0555C20.0374 24.8356 19.8707 25.6721 19.873 26.5165C19.8708 27.3609 20.0375 28.1974 20.3635 28.9775C20.6895 29.7576 21.1683 30.4658 21.7722 31.0611C22.3726 31.6598 23.0868 32.1343 23.8734 32.4573C24.66 32.7804 25.5035 32.9454 26.3549 32.9429C27.2063 32.9453 28.0497 32.7802 28.8363 32.4572C29.6229 32.1341 30.3371 31.6597 30.9376 31.0611C32.1506 29.8546 32.8318 28.2203 32.8318 26.5166C32.8318 24.8129 32.1506 23.1786 30.9376 21.9721C30.3372 21.3734 29.623 20.8988 28.8364 20.5756C28.0497 20.2525 27.2063 20.0872 26.3549 20.0894Z" fill="black"/>
<path d="M42.4312 45.9985C41.9622 45.9993 41.4977 45.9083 41.0643 45.7306C40.6309 45.5529 40.2372 45.2921 39.9057 44.9631L31.7575 36.8822C31.6904 36.8157 31.6372 36.7368 31.6009 36.6498C31.5646 36.5629 31.5459 36.4698 31.5459 36.3757C31.5459 36.2816 31.5646 36.1885 31.6009 36.1016C31.6372 36.0147 31.6904 35.9358 31.7575 35.8693C31.8246 35.8028 31.9042 35.75 31.9918 35.714C32.0795 35.678 32.1734 35.6594 32.2682 35.6594C32.3631 35.6594 32.457 35.678 32.5447 35.714C32.6323 35.75 32.7119 35.8028 32.779 35.8693L40.9271 43.9502C41.3266 44.3447 41.8674 44.5661 42.4312 44.5661C42.9949 44.5661 43.5357 44.3447 43.9352 43.9502C44.333 43.5542 44.5564 43.018 44.5564 42.4591C44.5564 41.9001 44.333 41.3639 43.9352 40.9679L35.7856 32.8869C35.7186 32.8204 35.6653 32.7415 35.629 32.6546C35.5927 32.5677 35.574 32.4745 35.574 32.3804C35.574 32.2864 35.5927 32.1932 35.629 32.1063C35.6653 32.0194 35.7186 31.9404 35.7856 31.8739C35.8527 31.8074 35.9323 31.7546 36.02 31.7186C36.1076 31.6826 36.2015 31.6641 36.2964 31.6641C36.3912 31.6641 36.4852 31.6826 36.5728 31.7186C36.6604 31.7546 36.7401 31.8074 36.8071 31.8739L44.9567 39.9549C45.6249 40.6198 46.0001 41.5203 46.0001 42.4591C46.0001 43.3978 45.6249 44.2983 44.9567 44.9632C44.6251 45.2921 44.2314 45.5529 43.798 45.7306C43.3646 45.9082 42.9001 45.9993 42.4312 45.9985Z" fill="black"/>
<path d="M11.4075 18.0844C9.59679 18.0825 7.86078 17.3685 6.58029 16.099C5.2998 14.8294 4.57942 13.108 4.57715 11.3124C4.57939 9.51671 5.29974 7.79521 6.58021 6.52554C7.86068 5.25587 9.59672 4.54171 11.4075 4.53967C13.2181 4.54176 14.954 5.25601 16.2342 6.52571C17.5144 7.79542 18.2345 9.51685 18.2364 11.3124C18.2345 13.1078 17.5144 14.8292 16.2341 16.0988C14.9539 17.3684 13.218 18.0825 11.4075 18.0844ZM11.4075 5.97243C9.97971 5.97385 8.61081 6.53691 7.60116 7.53802C6.5915 8.53913 6.02356 9.89651 6.02195 11.3124C6.02371 12.7281 6.59172 14.0854 7.60137 15.0864C8.61101 16.0874 9.97982 16.6503 11.4075 16.6516C12.8349 16.65 14.2034 16.0869 15.2128 15.086C16.2221 14.085 16.7899 12.7279 16.7916 11.3124C16.79 9.89674 16.2223 8.53953 15.213 7.53846C14.2036 6.53738 12.835 5.97414 11.4075 5.97243Z" fill="black"/>
<path d="M15.7164 16.3018C15.6216 16.3019 15.5276 16.2834 15.4399 16.2474C15.3523 16.2114 15.2727 16.1585 15.2057 16.0919L10.8967 11.8188C10.8296 11.7523 10.7764 11.6734 10.7401 11.5865C10.7038 11.4996 10.6851 11.4064 10.6851 11.3123C10.6851 11.2182 10.7038 11.1251 10.7401 11.0382C10.7764 10.9513 10.8296 10.8723 10.8967 10.8058L15.1888 6.5496C15.2558 6.48306 15.3354 6.43021 15.4231 6.3942C15.5107 6.35819 15.6046 6.33972 15.6995 6.33972C15.7943 6.33972 15.8883 6.35819 15.9759 6.3942C16.0635 6.43021 16.1432 6.48306 16.2102 6.5496C16.2773 6.6161 16.3305 6.69505 16.3668 6.78195C16.4031 6.86885 16.4218 6.96194 16.4218 7.05601C16.4218 7.15008 16.4031 7.24326 16.3668 7.33016C16.3305 7.41707 16.2773 7.49601 16.2102 7.56251L12.429 11.3123L16.2272 15.0789C16.2943 15.1454 16.3475 15.2243 16.3838 15.3112C16.4201 15.3981 16.4388 15.4912 16.4388 15.5853C16.4388 15.6794 16.4201 15.7725 16.3838 15.8594C16.3475 15.9464 16.2943 16.0253 16.2272 16.0918C16.1602 16.1584 16.0806 16.2113 15.993 16.2474C15.9053 16.2834 15.8113 16.3019 15.7164 16.3018Z" fill="black"/>
<path d="M22.0896 11.3152C21.9947 11.3153 21.9007 11.2967 21.8131 11.2607C21.7254 11.2248 21.6457 11.172 21.5786 11.1055C21.5115 11.039 21.4583 10.9599 21.4221 10.873C21.3858 10.7861 21.3671 10.6929 21.3672 10.5988V8.28242C21.3671 8.18833 21.3858 8.09521 21.4221 8.00827C21.4583 7.92133 21.5115 7.84227 21.5786 7.77574C21.6457 7.70921 21.7254 7.6565 21.8131 7.62052C21.9007 7.58454 21.9947 7.56599 22.0896 7.56604C22.1845 7.56599 22.2784 7.58454 22.3661 7.62052C22.4538 7.6565 22.5334 7.7093 22.6005 7.77583C22.6676 7.84236 22.7208 7.92133 22.7571 8.00827C22.7934 8.09521 22.812 8.18833 22.812 8.28242V10.5988C22.812 10.6929 22.7934 10.7861 22.7571 10.873C22.7208 10.9599 22.6676 11.0389 22.6005 11.1054C22.5334 11.172 22.4538 11.2248 22.3661 11.2607C22.2784 11.2967 22.1845 11.3153 22.0896 11.3152Z" fill="black"/>
<path d="M26.0657 11.3153C25.9708 11.3153 25.8768 11.2968 25.7892 11.2608C25.7015 11.2248 25.6218 11.1721 25.5547 11.1056C25.4876 11.039 25.4344 10.96 25.3981 10.8731C25.3619 10.7861 25.3432 10.693 25.3433 10.5989V6.76936C25.3432 6.67527 25.3619 6.58206 25.3981 6.49512C25.4344 6.40818 25.4876 6.32921 25.5547 6.26268C25.6218 6.19615 25.7015 6.14335 25.7892 6.10737C25.8768 6.07139 25.9708 6.05292 26.0657 6.05298C26.1605 6.05292 26.2545 6.07139 26.3422 6.10737C26.4299 6.14335 26.5095 6.19615 26.5766 6.26268C26.6437 6.32921 26.6969 6.40818 26.7332 6.49512C26.7695 6.58206 26.7881 6.67527 26.7881 6.76936V10.5989C26.7881 10.693 26.7695 10.7861 26.7332 10.8731C26.6969 10.96 26.6437 11.039 26.5766 11.1056C26.5095 11.1721 26.4299 11.2248 26.3422 11.2608C26.2545 11.2968 26.1605 11.3153 26.0657 11.3153Z" fill="black"/>
<path d="M30.0432 11.3152C29.9483 11.3152 29.8544 11.2967 29.7667 11.2607C29.679 11.2247 29.5994 11.172 29.5323 11.1055C29.4652 11.0389 29.412 10.9599 29.3757 10.873C29.3394 10.786 29.3207 10.6929 29.3208 10.5988V5.25605C29.3207 5.16196 29.3394 5.06875 29.3757 4.98181C29.412 4.89487 29.4652 4.81591 29.5323 4.74937C29.5994 4.68284 29.679 4.63005 29.7667 4.59407C29.8544 4.55808 29.9483 4.53962 30.0432 4.53967C30.1381 4.53962 30.232 4.55808 30.3197 4.59407C30.4074 4.63005 30.487 4.68284 30.5541 4.74937C30.6212 4.81591 30.6744 4.89487 30.7107 4.98181C30.747 5.06875 30.7657 5.16196 30.7656 5.25605V10.5988C30.7657 10.6929 30.747 10.786 30.7107 10.873C30.6744 10.9599 30.6212 11.0389 30.5541 11.1055C30.487 11.172 30.4074 11.2247 30.3197 11.2607C30.2321 11.2967 30.1381 11.3152 30.0432 11.3152Z" fill="black"/>
<path d="M10.6752 24.685H5.29955C5.20466 24.685 5.1107 24.6665 5.02303 24.6306C4.93536 24.5946 4.8557 24.5418 4.78861 24.4753C4.72152 24.4087 4.66831 24.3298 4.63202 24.2428C4.59574 24.1559 4.57709 24.0627 4.57715 23.9686C4.57709 23.8745 4.59574 23.7813 4.63202 23.6943C4.66831 23.6074 4.72152 23.5284 4.78861 23.4619C4.8557 23.3954 4.93536 23.3426 5.02303 23.3066C5.1107 23.2706 5.20466 23.2521 5.29955 23.2522H10.6752C10.7701 23.2521 10.864 23.2706 10.9517 23.3066C11.0394 23.3426 11.119 23.3954 11.1861 23.4619C11.2532 23.5284 11.3064 23.6074 11.3427 23.6943C11.379 23.7813 11.3977 23.8745 11.3976 23.9686C11.3977 24.0627 11.379 24.1559 11.3427 24.2428C11.3064 24.3298 11.2532 24.4087 11.1861 24.4753C11.119 24.5418 11.0394 24.5946 10.9517 24.6306C10.864 24.6665 10.7701 24.685 10.6752 24.685Z" fill="black"/>
<path d="M14.3902 38.3038H5.29955C5.20466 38.3039 5.11071 38.2854 5.02304 38.2495C4.93537 38.2135 4.8557 38.1607 4.78861 38.0941C4.72152 38.0276 4.66832 37.9486 4.63203 37.8617C4.59575 37.7748 4.57709 37.6816 4.57715 37.5875C4.5771 37.4934 4.59575 37.4002 4.63203 37.3132C4.66832 37.2263 4.72153 37.1473 4.78862 37.0808C4.85571 37.0143 4.93537 36.9615 5.02304 36.9255C5.11071 36.8895 5.20467 36.871 5.29955 36.8711H14.3902C14.4851 36.871 14.5791 36.8895 14.6667 36.9255C14.7544 36.9615 14.8341 37.0143 14.9011 37.0808C14.9682 37.1473 15.0215 37.2263 15.0577 37.3132C15.094 37.4002 15.1127 37.4934 15.1126 37.5875C15.1127 37.6816 15.094 37.7748 15.0577 37.8617C15.0215 37.9486 14.9682 38.0276 14.9011 38.0941C14.8341 38.1607 14.7544 38.2135 14.6667 38.2495C14.5791 38.2854 14.4851 38.3039 14.3902 38.3038Z" fill="black"/>
<path d="M10.6752 29.2246H5.29955C5.20466 29.2247 5.1107 29.2061 5.02303 29.1701C4.93536 29.1342 4.8557 29.0815 4.78861 29.0149C4.72152 28.9484 4.66831 28.8693 4.63202 28.7824C4.59574 28.6955 4.57709 28.6023 4.57715 28.5082C4.57709 28.4142 4.59574 28.3209 4.63202 28.234C4.66831 28.1471 4.72152 28.0681 4.78861 28.0016C4.8557 27.935 4.93536 27.8822 5.02303 27.8463C5.1107 27.8103 5.20466 27.7918 5.29955 27.7919H10.6752C10.7701 27.7918 10.864 27.8103 10.9517 27.8463C11.0394 27.8822 11.119 27.935 11.1861 28.0016C11.2532 28.0681 11.3064 28.1471 11.3427 28.234C11.379 28.3209 11.3977 28.4142 11.3976 28.5082C11.3977 28.6023 11.379 28.6955 11.3427 28.7824C11.3064 28.8693 11.2532 28.9484 11.1861 29.0149C11.119 29.0815 11.0394 29.1342 10.9517 29.1701C10.864 29.2061 10.7701 29.2247 10.6752 29.2246Z" fill="black"/>
<path d="M10.6752 33.7642H5.29955C5.20467 33.7642 5.1107 33.7458 5.02303 33.7098C4.93536 33.6738 4.8557 33.621 4.78861 33.5545C4.72152 33.4879 4.66831 33.409 4.63202 33.322C4.59574 33.2351 4.5771 33.1419 4.57715 33.0478C4.57709 32.9537 4.59574 32.8605 4.63202 32.7736C4.66831 32.6866 4.72152 32.6077 4.78861 32.5411C4.8557 32.4746 4.93536 32.4218 5.02303 32.3858C5.1107 32.3498 5.20466 32.3314 5.29955 32.3314H10.6752C10.7701 32.3314 10.864 32.3498 10.9517 32.3858C11.0394 32.4218 11.119 32.4746 11.1861 32.5411C11.2532 32.6077 11.3064 32.6866 11.3427 32.7736C11.379 32.8605 11.3977 32.9537 11.3976 33.0478C11.3976 33.1419 11.379 33.2351 11.3427 33.322C11.3064 33.409 11.2532 33.4879 11.1861 33.5545C11.119 33.621 11.0394 33.6738 10.9517 33.7098C10.864 33.7458 10.7701 33.7642 10.6752 33.7642Z" fill="black"/>
</g>
<defs>
<clipPath id="clip0_67_1563">
<rect width="46" height="46" fill="white"/>
</clipPath>
</defs>
</svg>
