<svg width="45" height="50" viewBox="0 0 45 50" fill="none" xmlns="http://www.w3.org/2000/svg">
<path d="M3.71528 45.197C3.58911 45.1972 3.4647 45.1664 3.3532 45.1074C3.24171 45.0484 3.14654 44.9628 3.07579 44.8584C1.06895 41.5977 0.00489415 37.8447 0.00195921 34.016C-0.000975728 30.1872 1.05732 26.4326 3.05916 23.1688C3.16802 22.9948 3.34159 22.8712 3.54161 22.8251C3.74163 22.7791 3.95171 22.8143 4.12572 22.9232C4.29974 23.032 4.4234 23.2056 4.46947 23.4056C4.51554 23.6056 4.48025 23.8157 4.37139 23.9897C2.48782 26.9842 1.48712 30.4493 1.48445 33.9869C1.48178 37.5245 2.47723 40.9911 4.35627 43.9884C4.43489 44.1048 4.48035 44.2405 4.4878 44.3809C4.49525 44.5212 4.46445 44.661 4.3986 44.7851C4.33275 44.9093 4.23437 45.0132 4.11401 45.0857C3.99365 45.1583 3.85582 45.1968 3.71528 45.197Z" fill="black"/>
<path d="M35.1015 24.3533H3.71535C3.55824 24.3533 3.40484 24.3056 3.27542 24.2165C1.11206 22.7221 0.780994 18.9978 0.768888 18.8398C0.759837 18.7332 0.772975 18.6258 0.807628 18.5245C0.842281 18.4233 0.897652 18.3303 0.970144 18.2516C1.04264 18.1728 1.13078 18.11 1.22885 18.0671C1.32691 18.0242 1.43267 18.0021 1.53971 18.0024H37.2769C37.384 18.0021 37.49 18.0242 37.5882 18.0671C37.6863 18.1101 37.7744 18.173 37.8469 18.2518C37.9194 18.3306 37.9746 18.4237 38.0092 18.5251C38.0438 18.6265 38.0571 18.7339 38.0479 18.8406C38.0359 18.9979 37.7033 22.7221 35.5414 24.2158C35.4123 24.3056 35.2587 24.3536 35.1015 24.3533ZM3.97689 22.8052H34.8399C35.671 21.9012 36.2081 20.7662 36.3804 19.5504H2.43487C2.6071 20.7665 3.14487 21.9017 3.97689 22.8052Z" fill="black"/>
<path d="M37.2769 49.9999H1.53971C1.43267 50.0001 1.32691 49.9781 1.22885 49.9352C1.13078 49.8923 1.04264 49.8295 0.970144 49.7507C0.897652 49.672 0.842281 49.579 0.807628 49.4778C0.772975 49.3765 0.759837 49.2691 0.768888 49.1625C0.780994 49.0046 1.11206 45.2802 3.27542 43.7858C3.40484 43.6967 3.55824 43.649 3.71535 43.649H35.1015C35.2588 43.6487 35.4123 43.6967 35.5414 43.7866C37.7033 45.2802 38.0359 49.0045 38.0479 49.1617C38.0571 49.2684 38.044 49.3759 38.0094 49.4772C37.9748 49.5786 37.9194 49.6717 37.8469 49.7505C37.7744 49.8293 37.6863 49.8922 37.5882 49.9352C37.49 49.9781 37.384 50.0002 37.2769 49.9999ZM2.43487 48.4519H36.3804C36.2081 47.236 35.671 46.1011 34.8399 45.197H3.97689C3.14486 46.1006 2.60711 47.2357 2.43487 48.4519Z" fill="black"/>
<path d="M35.1012 45.197C34.9607 45.1968 34.8229 45.1583 34.7025 45.0858C34.5822 45.0132 34.4838 44.9093 34.4179 44.7851C34.3521 44.661 34.3213 44.5212 34.3287 44.3809C34.3362 44.2405 34.3816 44.1049 34.4603 43.9884C36.3389 40.9908 37.334 37.5241 37.3313 33.9865C37.3286 30.4489 36.3283 26.9837 34.4451 23.989C34.3913 23.9028 34.3549 23.8069 34.3382 23.7067C34.3214 23.6065 34.3247 23.504 34.3476 23.4051C34.3705 23.3061 34.4126 23.2126 34.4716 23.1299C34.5306 23.0472 34.6054 22.977 34.6916 22.9232C34.7777 22.8694 34.8737 22.8331 34.9739 22.8163C35.0741 22.7996 35.1765 22.8028 35.2755 22.8257C35.3745 22.8486 35.4679 22.8907 35.5506 22.9497C35.6333 23.0087 35.7036 23.0834 35.7574 23.1696C37.7588 26.4334 38.8167 30.1878 38.8138 34.0164C38.8109 37.8449 37.7472 41.5977 35.7407 44.8584C35.67 44.9629 35.5746 45.0484 35.4631 45.1074C35.3516 45.1665 35.2274 45.1972 35.1012 45.197Z" fill="black"/>
<path d="M31.021 19.5503C30.9193 19.5504 30.8186 19.5304 30.7247 19.4915C30.6307 19.4526 30.5454 19.3956 30.4735 19.3237C30.4016 19.2518 30.3446 19.1665 30.3057 19.0726C30.2668 18.9786 30.2469 18.8779 30.247 18.7763C30.2434 17.9599 30.0419 17.1565 29.6598 16.435C29.2778 15.7135 28.7266 15.0953 28.0534 14.6336C27.3801 14.1718 26.6049 13.8801 25.7942 13.7836C24.9835 13.687 24.1615 13.7884 23.3986 14.0792C23.2189 14.1483 23.02 14.148 22.8405 14.0784C22.6611 14.0089 22.5139 13.8749 22.4278 13.7027C22.0522 12.9347 21.4572 12.2954 20.718 11.8658C19.9788 11.4362 19.1288 11.2356 18.2755 11.2894C17.4223 11.3433 16.6042 11.6491 15.9249 12.1682C15.2455 12.6873 14.7353 13.3962 14.4592 14.2054C14.422 14.3119 14.3621 14.4089 14.2835 14.4898C14.2048 14.5706 14.1094 14.6333 14.004 14.6734C13.8986 14.7135 13.7856 14.7302 13.6731 14.722C13.5606 14.7139 13.4512 14.6813 13.3526 14.6265C12.8262 14.3253 12.2311 14.1649 11.6246 14.1608C10.6707 14.162 9.75632 14.5415 9.08181 15.216C8.40729 15.8905 8.02772 16.805 8.02658 17.7589C8.02658 17.9642 7.94516 18.1611 7.8 18.3062C7.65484 18.4514 7.45783 18.5329 7.25255 18.5329C7.04726 18.5329 6.85044 18.4514 6.70528 18.3062C6.56012 18.1611 6.47852 17.9642 6.47852 17.7589C6.48006 16.3945 7.02291 15.0865 7.98765 14.1218C8.9524 13.157 10.2603 12.6143 11.6246 12.6128C12.2077 12.613 12.7861 12.7167 13.3329 12.9189C13.8028 12.0027 14.5059 11.2265 15.3712 10.6684C16.2365 10.1103 17.2335 9.79001 18.2619 9.73982C19.2904 9.68962 20.314 9.91128 21.2295 10.3825C22.1451 10.8537 22.9201 11.5577 23.477 12.4238C24.0378 12.2652 24.6176 12.1841 25.2004 12.1827C26.9487 12.1846 28.6248 12.8799 29.8611 14.116C31.0973 15.3521 31.7927 17.0281 31.7948 18.7763C31.7949 18.878 31.7749 18.9786 31.7361 19.0726C31.6972 19.1665 31.6403 19.2518 31.5684 19.3237C31.4966 19.3956 31.411 19.4526 31.3171 19.4915C31.2232 19.5304 31.1226 19.5503 31.021 19.5503Z" fill="black"/>
<path d="M33.2544 19.313C33.112 19.3132 32.9722 19.274 32.8506 19.1999C32.729 19.1257 32.6302 19.0194 32.5652 18.8927C32.5002 18.766 32.4714 18.6238 32.4821 18.4817C32.4927 18.3397 32.5423 18.2033 32.6255 18.0877L35.3089 14.3521C35.4218 14.2146 35.4806 14.0404 35.4739 13.8626C35.4672 13.6847 35.3956 13.5155 35.2726 13.3868L31.6247 10.1047C31.4837 9.99583 31.3077 9.94235 31.13 9.95447C30.9522 9.96659 30.785 10.0435 30.6602 10.1705L26.855 13.5667C26.7793 13.6351 26.6908 13.6879 26.5946 13.7219C26.4984 13.756 26.3964 13.7707 26.2945 13.7652C26.1926 13.7598 26.0928 13.7342 26.0009 13.69C25.9089 13.6458 25.8265 13.5838 25.7586 13.5077C25.6906 13.4316 25.6385 13.3428 25.605 13.2464C25.5714 13.15 25.5573 13.048 25.5634 12.9461C25.5695 12.8443 25.5956 12.7446 25.6403 12.6529C25.685 12.5612 25.7475 12.4792 25.824 12.4117L29.6291 9.01551C30.038 8.6341 30.5732 8.41694 31.1322 8.40565C31.6912 8.39435 32.2348 8.5897 32.6587 8.95428L36.3082 12.2364C36.7156 12.6194 36.9672 13.1393 37.0149 13.6964C37.0627 14.2535 36.903 14.8087 36.5667 15.2554L33.8833 18.9903C33.8117 19.0902 33.7174 19.1717 33.608 19.2278C33.4986 19.284 33.3774 19.3132 33.2544 19.313Z" fill="black"/>
<path d="M33.9676 11.9461C33.8181 11.9459 33.6717 11.9024 33.5464 11.8209C33.421 11.7394 33.3219 11.6234 33.261 11.4868C33.2001 11.3502 33.18 11.1989 33.2032 11.0512C33.2264 10.9035 33.2918 10.7656 33.3916 10.6543L37.9844 5.54746C38.1218 5.39503 38.3141 5.30335 38.519 5.29259C38.7239 5.28182 38.9248 5.35286 39.0774 5.49006C39.23 5.62726 39.3221 5.81941 39.3331 6.02434C39.3441 6.22926 39.2734 6.43022 39.1364 6.58303L34.5436 11.6898C34.471 11.7707 34.3822 11.8353 34.283 11.8794C34.1837 11.9236 34.0762 11.9463 33.9676 11.9461Z" fill="black"/>
<path d="M38.5609 6.84004C38.4355 6.83989 38.312 6.8093 38.2011 6.7509C38.0902 6.69249 37.9952 6.60799 37.9241 6.50471C37.853 6.40144 37.8081 6.28247 37.7931 6.15799C37.7782 6.03352 37.7937 5.90727 37.8383 5.79011L39.858 0.498824C39.9028 0.381454 39.9754 0.276748 40.0697 0.193774C40.164 0.110801 40.2771 0.0520489 40.3992 0.0226123C40.5212 -0.00777036 40.6487 -0.00753708 40.7706 0.0233209C40.8924 0.0541789 41.0049 0.114716 41.0977 0.199491L44.1258 2.92297C44.2195 3.00681 44.2912 3.11224 44.335 3.23014C44.3787 3.34805 44.3931 3.47485 44.3767 3.59954C44.3604 3.72422 44.3138 3.84304 44.2411 3.94564C44.1684 4.04824 44.0717 4.13155 43.9595 4.18833L38.9116 6.75609C38.8029 6.81117 38.6828 6.83993 38.5609 6.84004ZM40.9012 2.10438L40.0001 4.46503L42.2527 3.31986L40.9012 2.10438Z" fill="black"/>
<path d="M22.037 40.2338L15.3776 39.2867C15.1933 39.26 15.0247 39.1679 14.9029 39.0271C14.781 38.8863 14.7139 38.7064 14.7139 38.5202V36.0583C14.7137 35.8718 14.781 35.6915 14.9032 35.5507C15.0255 35.4099 15.1944 35.3179 15.3791 35.2918L21.9568 34.3522C22.0604 34.3614 22.1646 34.3495 22.2634 34.3172C22.3621 34.2849 22.4533 34.2328 22.5313 34.1642C22.6094 34.0955 22.6726 34.0117 22.7173 33.9179C22.7619 33.8241 22.7873 33.7221 22.7913 33.6183C22.7913 33.4257 22.7148 33.2409 22.5787 33.1046C22.4427 32.9683 22.2583 32.8915 22.0657 32.8911H18.318C16.9621 32.8895 15.6621 32.3501 14.7033 31.3914C13.7445 30.4326 13.2052 29.1327 13.2036 27.7767C13.2036 27.6751 13.2235 27.5744 13.2624 27.4805C13.3013 27.3865 13.3583 27.3012 13.4302 27.2293C13.5021 27.1574 13.5874 27.1004 13.6813 27.0615C13.7753 27.0226 13.876 27.0026 13.9776 27.0027H22.037C22.9066 27.0014 23.7678 27.1715 24.5717 27.5034C25.3755 27.8353 26.106 28.3224 26.7214 28.9368C27.3368 29.5512 27.8249 30.281 28.158 31.0843C28.4911 31.8876 28.6625 32.7487 28.6625 33.6183C28.6625 34.4879 28.4911 35.349 28.158 36.1523C27.8249 36.9556 27.3368 37.6853 26.7214 38.2997C26.106 38.9142 25.3755 39.4013 24.5717 39.7331C23.7678 40.065 22.9066 40.2352 22.037 40.2338ZM16.262 37.849L22.1473 38.6933C23.4818 38.6631 24.7505 38.1081 25.6785 37.1485C26.6064 36.189 27.1186 34.9023 27.1041 33.5675C27.0896 32.2328 26.5496 30.9575 25.601 30.0184C24.6524 29.0792 23.3718 28.5519 22.037 28.5508H14.8363C15.0134 29.3424 15.4546 30.0501 16.0873 30.5576C16.7201 31.0651 17.5068 31.3421 18.318 31.343H22.0657C22.669 31.343 23.2476 31.5827 23.6742 32.0094C24.1008 32.436 24.3405 33.0146 24.3405 33.6179C24.3405 34.2213 24.1008 34.7999 23.6742 35.2265C23.2476 35.6531 22.669 35.8928 22.0657 35.8928L16.262 36.7288V37.849Z" fill="black"/>
<path d="M12.4629 41.6965C12.3363 41.6965 12.2116 41.6654 12.0999 41.6059C11.9881 41.5465 11.8927 41.4605 11.8219 41.3556C10.9817 40.1794 10.5329 38.7687 10.5391 37.3233C10.5454 35.8779 11.0063 34.4712 11.8566 33.3023C11.9825 33.1447 12.1647 33.0422 12.3648 33.0167C12.5649 32.9911 12.7671 33.0445 12.9285 33.1655L15.9536 35.44C16.0493 35.5122 16.127 35.6056 16.1805 35.7129C16.234 35.8201 16.2619 35.9384 16.262 36.0583V38.5202C16.2621 38.6369 16.2357 38.752 16.1849 38.857C16.1341 38.962 16.0602 39.0541 15.9687 39.1265L12.9436 41.5287C12.807 41.6375 12.6375 41.6967 12.4629 41.6965ZM12.673 34.9109C12.2823 35.6603 12.0787 36.4931 12.0794 37.3382C12.0802 38.1833 12.2855 39.0157 12.6775 39.7644L14.7139 38.1468V36.4446L12.673 34.9109Z" fill="black"/>
<path d="M20.9288 32.8911C20.8272 32.8912 20.7264 32.8712 20.6325 32.8323C20.5386 32.7934 20.4533 32.7364 20.3814 32.6645C20.3095 32.5926 20.2524 32.5073 20.2136 32.4133C20.1747 32.3194 20.1547 32.2187 20.1548 32.1171V27.99C20.1548 27.7847 20.2362 27.5878 20.3814 27.4426C20.5265 27.2974 20.7235 27.2159 20.9288 27.2159C21.1341 27.2159 21.3309 27.2974 21.4761 27.4426C21.6212 27.5878 21.7029 27.7847 21.7029 27.99V32.1171C21.7029 32.2187 21.683 32.3194 21.6441 32.4133C21.6052 32.5073 21.5482 32.5926 21.4763 32.6645C21.4044 32.7364 21.3191 32.7934 21.2251 32.8323C21.1312 32.8712 21.0305 32.8912 20.9288 32.8911Z" fill="black"/>
<path d="M20.7276 40.0743C20.626 40.0744 20.5253 40.0544 20.4313 40.0155C20.3374 39.9766 20.2521 39.9196 20.1802 39.8478C20.1083 39.7759 20.0513 39.6905 20.0124 39.5966C19.9735 39.5026 19.9536 39.402 19.9536 39.3003V35.31C19.9536 35.1047 20.035 34.9078 20.1802 34.7626C20.3254 34.6175 20.5224 34.5359 20.7276 34.5359C20.9329 34.5359 21.1298 34.6175 21.2749 34.7626C21.4201 34.9078 21.5017 35.1047 21.5017 35.31V39.3003C21.5017 39.402 21.4818 39.5026 21.4429 39.5966C21.404 39.6905 21.347 39.7759 21.2751 39.8478C21.2032 39.9196 21.1179 39.9766 21.024 40.0155C20.93 40.0544 20.8293 40.0744 20.7276 40.0743Z" fill="black"/>
<path d="M27.8545 34.3923H23.5655C23.3603 34.3923 23.1632 34.3107 23.0181 34.1656C22.8729 34.0204 22.7915 33.8236 22.7915 33.6183C22.7915 33.413 22.8729 33.2161 23.0181 33.071C23.1632 32.9258 23.3603 32.8442 23.5655 32.8442H27.8545C28.0598 32.8442 28.2566 32.9258 28.4017 33.071C28.5469 33.2161 28.6285 33.413 28.6285 33.6183C28.6285 33.8236 28.5469 34.0204 28.4017 34.1656C28.2566 34.3107 28.0598 34.3923 27.8545 34.3923Z" fill="black"/>
</svg>
