<svg width="48" height="47" viewBox="0 0 48 47" fill="none" xmlns="http://www.w3.org/2000/svg">
<g clip-path="url(#clip0_65_1331)">
<path d="M26.8536 33.728C26.754 33.7281 26.6552 33.7095 26.5622 33.6732L8.11415 26.4581C7.96248 26.3988 7.832 26.2946 7.74008 26.1592C7.64817 26.0238 7.59912 25.8636 7.59912 25.6995C7.59912 25.5354 7.64817 25.3751 7.74008 25.2398C7.832 25.1044 7.96248 25.0002 8.11415 24.9409L26.5622 17.7266C26.7497 17.6535 26.9575 17.6535 27.145 17.7266L45.5947 24.9409C45.7463 25.0002 45.8766 25.1044 45.9685 25.2398C46.0604 25.3751 46.1097 25.5354 46.1097 25.6995C46.1097 25.8636 46.0604 26.0238 45.9685 26.1592C45.8766 26.2946 45.7463 26.3988 45.5947 26.4581L27.145 33.6732C27.0521 33.7095 26.9533 33.7281 26.8536 33.728ZM10.6357 25.6995L26.8536 32.0424L43.0731 25.6995L26.8536 19.3574L10.6357 25.6995Z" fill="black"/>
<path d="M26.8538 47C17.8857 47 14.4475 43.3928 14.3057 43.2387C14.1659 43.0886 14.0881 42.8902 14.0884 42.6842V28.2374C14.0884 28.0216 14.1732 27.8148 14.3244 27.6623C14.4757 27.5097 14.6809 27.424 14.8948 27.424C15.1087 27.424 15.3137 27.5097 15.4649 27.6623C15.6162 27.8148 15.7012 28.0216 15.7012 28.2374V42.3252C16.5359 43.0266 19.8528 45.3731 26.8536 45.3731C33.8498 45.3731 37.1668 43.0314 38.0079 42.3245V28.4583C38.0079 28.2426 38.0929 28.0356 38.2441 27.8831C38.3953 27.7305 38.6004 27.6449 38.8143 27.6449C39.0281 27.6449 39.2334 27.7305 39.3846 27.8831C39.5358 28.0356 39.6207 28.2426 39.6207 28.4583V42.6843C39.6209 42.8903 39.5432 43.0887 39.4033 43.2388C39.2616 43.3928 35.8234 47 26.8538 47Z" fill="black"/>
<path d="M45.3034 37.1477C45.1975 37.1477 45.0926 37.1268 44.9947 37.0859C44.8969 37.045 44.808 36.9851 44.7331 36.9096C44.6582 36.834 44.5988 36.7444 44.5583 36.6456C44.5178 36.5469 44.497 36.4411 44.497 36.3342V26.5129H26.8538C26.6399 26.5129 26.4348 26.4272 26.2836 26.2747C26.1324 26.1221 26.0474 25.9152 26.0474 25.6995C26.0474 25.4837 26.1324 25.2768 26.2836 25.1243C26.4348 24.9717 26.6399 24.886 26.8538 24.886H45.3034C45.4093 24.886 45.5143 24.907 45.6121 24.9478C45.71 24.9887 45.7989 25.0486 45.8738 25.1242C45.9487 25.1997 46.0081 25.2894 46.0486 25.3881C46.0891 25.4868 46.1099 25.5926 46.1098 25.6995V36.3342C46.1099 36.4411 46.0891 36.5469 46.0486 36.6456C46.0081 36.7444 45.9487 36.834 45.8738 36.9096C45.7989 36.9851 45.71 37.045 45.6121 37.0859C45.5143 37.1268 45.4093 37.1477 45.3034 37.1477Z" fill="black"/>
<path d="M47.1967 41.9757H43.4104C43.3045 41.9758 43.1996 41.9548 43.1017 41.914C43.0038 41.8731 42.915 41.8132 42.8401 41.7376C42.7652 41.6621 42.7057 41.5724 42.6652 41.4737C42.6247 41.375 42.6039 41.2691 42.604 41.1623C42.604 40.2202 42.7347 35.5208 45.3036 35.5208C47.8724 35.5208 48.0031 40.2202 48.0031 41.1623C48.0032 41.2691 47.9824 41.375 47.9419 41.4737C47.9014 41.5724 47.842 41.6621 47.7671 41.7376C47.6922 41.8132 47.6033 41.8731 47.5054 41.914C47.4076 41.9548 47.3026 41.9758 47.1967 41.9757ZM44.2452 40.3489H46.362C46.2423 38.6355 45.7761 37.1476 45.3036 37.1476C44.8311 37.1476 44.3649 38.6355 44.2452 40.3489Z" fill="black"/>
<path d="M14.8946 38.0254H0.809335C0.703419 38.0255 0.598498 38.0045 0.500633 37.9637C0.402768 37.9228 0.313878 37.8629 0.238984 37.7873C0.164091 37.7118 0.104662 37.6221 0.0641583 37.5234C0.0236545 37.4247 0.00286834 37.3188 0.00292982 37.212V0.813206C0.00288974 0.685854 0.032462 0.5603 0.0893585 0.446613C0.146255 0.332925 0.228925 0.234352 0.330532 0.158759C0.432139 0.0831666 0.549794 0.0326614 0.674278 0.0114069C0.798761 -0.00984749 0.926551 -0.00132129 1.04716 0.0363297L20.3158 6.03528C20.4806 6.08633 20.6246 6.18934 20.7269 6.32919C20.8293 6.46903 20.8846 6.63833 20.8844 6.81215V21.1351C20.8844 21.3508 20.7994 21.5578 20.6482 21.7103C20.4969 21.8629 20.2919 21.9485 20.078 21.9485C19.8641 21.9485 19.6589 21.8629 19.5077 21.7103C19.3564 21.5578 19.2716 21.3508 19.2716 21.1351V7.41268L1.61574 1.91577V36.3986H14.8946C15.1085 36.3986 15.3136 36.4843 15.4648 36.6369C15.616 36.7894 15.7011 36.9963 15.7011 37.212C15.7011 37.4277 15.616 37.6347 15.4648 37.7872C15.3136 37.9398 15.1085 38.0254 14.8946 38.0254Z" fill="black"/>
<path d="M5.48072 33.0099C5.37481 33.0099 5.26988 32.989 5.17202 32.9481C5.07416 32.9073 4.98526 32.8473 4.91037 32.7718C4.83548 32.6962 4.77605 32.6066 4.73555 32.5078C4.69504 32.4091 4.67426 32.3033 4.67432 32.1965V7.77728C4.67432 7.56155 4.75914 7.35462 4.91037 7.20207C5.0616 7.04953 5.26685 6.96387 5.48072 6.96387C5.69459 6.96387 5.89964 7.04953 6.05087 7.20207C6.20211 7.35462 6.28713 7.56155 6.28713 7.77728V32.1965C6.28719 32.3033 6.2664 32.4091 6.2259 32.5078C6.18539 32.6066 6.12597 32.6962 6.05107 32.7718C5.97618 32.8473 5.88729 32.9073 5.78942 32.9481C5.69156 32.989 5.58664 33.0099 5.48072 33.0099Z" fill="black"/>
<path d="M10.4436 21.4417C10.3377 21.4418 10.2328 21.4208 10.1349 21.38C10.037 21.3391 9.94816 21.2792 9.87326 21.2036C9.79837 21.1281 9.73894 21.0384 9.69844 20.9397C9.65793 20.841 9.63715 20.7352 9.63721 20.6283V9.19452C9.63721 8.97879 9.72203 8.77185 9.87326 8.61931C10.0245 8.46676 10.2297 8.3811 10.4436 8.3811C10.6575 8.3811 10.8625 8.46676 11.0138 8.61931C11.165 8.77185 11.25 8.97879 11.25 9.19452V20.6284C11.2501 20.7353 11.2293 20.841 11.1888 20.9397C11.1483 21.0384 11.0889 21.1281 11.014 21.2036C10.9391 21.2792 10.8502 21.3391 10.7523 21.38C10.6545 21.4208 10.5495 21.4418 10.4436 21.4417Z" fill="black"/>
<path d="M15.405 19.5869C15.2991 19.587 15.1942 19.566 15.0963 19.5252C14.9985 19.4843 14.9096 19.4244 14.8347 19.3488C14.7598 19.2733 14.7004 19.1836 14.6599 19.0849C14.6194 18.9862 14.5986 18.8803 14.5986 18.7735V10.7385C14.5986 10.5228 14.6835 10.316 14.8347 10.1634C14.9859 10.0109 15.1912 9.92511 15.405 9.92511C15.6189 9.92511 15.824 10.0109 15.9752 10.1634C16.1264 10.316 16.2114 10.5228 16.2114 10.7385V18.7735C16.2115 18.8803 16.1907 18.9862 16.1502 19.0849C16.1097 19.1836 16.0503 19.2733 15.9754 19.3488C15.9005 19.4244 15.8116 19.4843 15.7137 19.5252C15.6159 19.566 15.511 19.587 15.405 19.5869Z" fill="black"/>
</g>
<defs>
<clipPath id="clip0_65_1331">
<rect width="48" height="47" fill="white" transform="translate(0.00292969)"/>
</clipPath>
</defs>
</svg>
