<svg width="56" height="45" viewBox="0 0 56 45" fill="none" xmlns="http://www.w3.org/2000/svg">
<path d="M37.0871 44.7003H19.7536C19.6496 44.7004 19.5466 44.6799 19.4505 44.6401C19.3545 44.6003 19.2672 44.5421 19.1937 44.4686C19.1201 44.395 19.0618 44.3077 19.022 44.2116C18.9823 44.1155 18.9619 44.0126 18.9619 43.9086V18.1789C18.9619 18.0749 18.9823 17.9719 19.022 17.8758C19.0618 17.7797 19.1201 17.6925 19.1937 17.619C19.2672 17.5454 19.3545 17.4871 19.4505 17.4473C19.5466 17.4076 19.6496 17.3871 19.7536 17.3872H37.0871C37.1911 17.3871 37.2941 17.4076 37.3902 17.4473C37.4863 17.4871 37.5736 17.5454 37.6471 17.619C37.7206 17.6925 37.779 17.7797 37.8187 17.8758C37.8585 17.9719 37.8789 18.0749 37.8788 18.1789V43.9086C37.8789 44.0126 37.8585 44.1155 37.8187 44.2116C37.779 44.3077 37.7206 44.395 37.6471 44.4686C37.5736 44.5421 37.4863 44.6003 37.3902 44.6401C37.2941 44.6799 37.1911 44.7004 37.0871 44.7003ZM20.5453 43.1169H36.2955V18.9706H20.5453V43.1169Z" fill="black"/>
<path d="M37.0871 40.1796H19.7536C19.5436 40.1796 19.3421 40.0962 19.1937 39.9477C19.0452 39.7992 18.9619 39.5978 18.9619 39.3879C18.9619 39.1779 19.0452 38.9766 19.1937 38.8281C19.3421 38.6797 19.5436 38.5962 19.7536 38.5962H37.0871C37.2971 38.5962 37.4984 38.6797 37.6469 38.8281C37.7954 38.9766 37.8788 39.1779 37.8788 39.3879C37.8788 39.5978 37.7954 39.7992 37.6469 39.9477C37.4984 40.0962 37.2971 40.1796 37.0871 40.1796Z" fill="black"/>
<path d="M28.4207 34.0232C27.1947 34.0232 25.9962 33.6597 24.9768 32.9786C23.9574 32.2974 23.1627 31.3292 22.6935 30.1965C22.2244 29.0638 22.1016 27.8175 22.3408 26.615C22.58 25.4126 23.1705 24.308 24.0374 23.441C24.9044 22.5741 26.0088 21.9838 27.2113 21.7446C28.4138 21.5054 29.6601 21.6282 30.7928 22.0973C31.9255 22.5665 32.8936 23.361 33.5747 24.3804C34.2559 25.3998 34.6196 26.5984 34.6196 27.8244C34.6179 29.4679 33.9641 31.0435 32.802 32.2056C31.6399 33.3678 30.0642 34.0215 28.4207 34.0232ZM28.4207 23.2087C27.5078 23.2087 26.6154 23.4794 25.8564 23.9866C25.0974 24.4937 24.5058 25.2146 24.1565 26.058C23.8072 26.9014 23.7157 27.8294 23.8938 28.7247C24.0719 29.62 24.5114 30.4424 25.1569 31.0879C25.8024 31.7334 26.6249 32.173 27.5202 32.3511C28.4155 32.5292 29.3435 32.4377 30.1869 32.0884C31.0303 31.7391 31.7511 31.1475 32.2583 30.3885C32.7655 29.6295 33.0363 28.7371 33.0363 27.8242C33.0349 26.6005 32.5482 25.4274 31.6829 24.5621C30.8176 23.6968 29.6444 23.2101 28.4207 23.2087Z" fill="black"/>
<path d="M28.4198 29.3377C29.2557 29.3377 29.9334 28.66 29.9334 27.8241C29.9334 26.9882 29.2557 26.3105 28.4198 26.3105C27.5839 26.3105 26.9062 26.9882 26.9062 27.8241C26.9062 28.66 27.5839 29.3377 28.4198 29.3377Z" fill="black"/>
<path d="M47.8322 21.1286C46.7649 21.1284 45.7215 20.8117 44.8342 20.2185C43.9469 19.6254 43.2554 18.7824 42.8471 17.7963C42.4388 16.8102 42.332 15.7251 42.5403 14.6783C42.7487 13.6315 43.2626 12.67 44.0174 11.9153C44.7722 11.1606 45.7337 10.6468 46.7806 10.4386C47.8274 10.2304 48.9125 10.3373 49.8986 10.7458C50.8847 11.1542 51.7276 11.8458 52.3206 12.7333C52.9136 13.6207 53.2301 14.664 53.2302 15.7314C53.2285 17.1624 52.6592 18.5344 51.6472 19.5462C50.6352 20.558 49.2633 21.1271 47.8322 21.1286ZM47.8322 11.9183C47.078 11.9185 46.3408 12.1424 45.7138 12.5615C45.0869 12.9807 44.5983 13.5765 44.3098 14.2733C44.0214 14.9702 43.946 15.7369 44.0934 16.4766C44.2407 17.2162 44.6039 17.8956 45.1373 18.4288C45.6707 18.962 46.3503 19.3251 47.09 19.4721C47.8297 19.6191 48.5965 19.5434 49.2932 19.2547C49.99 18.966 50.5854 18.4772 51.0044 17.85C51.4233 17.2229 51.6469 16.4856 51.6468 15.7314C51.6458 14.7201 51.2435 13.7506 50.5283 13.0357C49.8131 12.3208 48.8434 11.9189 47.8322 11.9183Z" fill="black"/>
<path d="M47.8316 31.6896C47.2903 31.6896 46.7611 31.529 46.3111 31.2283C45.861 30.9276 45.5102 30.5001 45.3031 30C45.0959 29.4999 45.0417 28.9497 45.1473 28.4188C45.2529 27.8879 45.5135 27.4002 45.8963 27.0175C46.279 26.6347 46.7667 26.374 47.2976 26.2684C47.8285 26.1628 48.3789 26.217 48.879 26.4242C49.3791 26.6313 49.8064 26.9821 50.1071 27.4322C50.4079 27.8822 50.5685 28.4114 50.5685 28.9527C50.5678 29.6783 50.2791 30.3741 49.766 30.8872C49.2529 31.4003 48.5573 31.6889 47.8316 31.6896ZM47.8316 27.7992C47.6035 27.7992 47.3804 27.8669 47.1907 27.9936C47.001 28.1204 46.8532 28.3006 46.7659 28.5113C46.6785 28.7221 46.6556 28.954 46.7001 29.1778C46.7446 29.4015 46.8546 29.6071 47.016 29.7685C47.1773 29.9298 47.3827 30.0396 47.6064 30.0841C47.8302 30.1286 48.0623 30.1058 48.2731 30.0185C48.4838 29.9312 48.6639 29.7833 48.7907 29.5936C48.9174 29.4039 48.9851 29.1809 48.9851 28.9528C48.9851 28.6469 48.8636 28.3535 48.6473 28.1371C48.4309 27.9208 48.1375 27.7992 47.8316 27.7992Z" fill="black"/>
<path d="M47.8328 38.6737C47.2916 38.6736 46.7626 38.513 46.3127 38.2123C45.8627 37.9116 45.512 37.4842 45.3049 36.9842C45.0978 36.4842 45.0437 35.934 45.1493 35.4032C45.2549 34.8725 45.5156 34.3848 45.8983 34.0021C46.2809 33.6195 46.7684 33.3589 47.2992 33.2533C47.83 33.1477 48.3802 33.2019 48.8802 33.409C49.3802 33.616 49.8076 33.9667 50.1083 34.4166C50.409 34.8666 50.5696 35.3956 50.5697 35.9368C50.569 36.6624 50.2803 37.3582 49.7672 37.8713C49.2541 38.3844 48.5585 38.673 47.8328 38.6737ZM47.8328 34.7841C47.6048 34.7841 47.3819 34.8518 47.1923 34.9786C47.0027 35.1054 46.8548 35.2856 46.7676 35.4963C46.6804 35.707 46.6577 35.9389 46.7023 36.1626C46.7469 36.3862 46.8568 36.5916 47.0181 36.7528C47.1795 36.914 47.3849 37.0238 47.6086 37.0682C47.8323 37.1126 48.0642 37.0897 48.2749 37.0024C48.4855 36.915 48.6656 36.7671 48.7923 36.5774C48.9189 36.3878 48.9864 36.1649 48.9863 35.9368C48.9861 35.631 48.8644 35.3378 48.6481 35.1216C48.4318 34.9055 48.1386 34.7841 47.8328 34.7841Z" fill="black"/>
<path d="M47.8329 17.0203C48.5448 17.0203 49.1219 16.4432 49.1219 15.7314C49.1219 15.0195 48.5448 14.4424 47.8329 14.4424C47.121 14.4424 46.5439 15.0195 46.5439 15.7314C46.5439 16.4432 47.121 17.0203 47.8329 17.0203Z" fill="black"/>
<path d="M55.2086 44.7002H40.4557C40.3518 44.7003 40.2488 44.6798 40.1527 44.64C40.0566 44.6003 39.9693 44.542 39.8958 44.4685C39.8223 44.395 39.7639 44.3076 39.7242 44.2115C39.6844 44.1154 39.664 44.0125 39.6641 43.9086V5.27752C39.664 5.17354 39.6844 5.07054 39.7242 4.97446C39.7639 4.87838 39.8223 4.79111 39.8958 4.71759C39.9693 4.64406 40.0566 4.58572 40.1527 4.54595C40.2488 4.50619 40.3518 4.48578 40.4557 4.48584H55.2086C55.3126 4.48578 55.4156 4.50619 55.5117 4.54595C55.6077 4.58572 55.695 4.64406 55.7685 4.71759C55.8421 4.79111 55.9004 4.87838 55.9402 4.97446C55.9799 5.07054 56.0003 5.17354 56.0003 5.27752V43.9086C56.0003 44.0125 55.9799 44.1154 55.9402 44.2115C55.9004 44.3076 55.8421 44.395 55.7685 44.4685C55.695 44.542 55.6077 44.6003 55.5117 44.64C55.4156 44.6798 55.3126 44.7003 55.2086 44.7002ZM41.2474 43.1169H54.4169V6.06921H41.2474V43.1169Z" fill="black"/>
<path d="M9.0076 21.1286C7.9402 21.1287 6.89675 20.8123 6.00921 20.2193C5.12166 19.6264 4.42984 18.7835 4.0213 17.7974C3.61276 16.8113 3.50582 15.7262 3.71398 14.6793C3.92215 13.6324 4.43614 12.6707 5.19085 11.9159C5.94556 11.1611 6.90715 10.6471 7.95401 10.4388C9.00088 10.2304 10.0859 10.3372 11.072 10.7456C12.0582 11.154 12.9012 11.8456 13.4943 12.7331C14.0873 13.6206 14.404 14.664 14.404 15.7314C14.4024 17.1622 13.8333 18.5339 12.8216 19.5457C11.81 20.5575 10.4384 21.1267 9.0076 21.1286ZM9.0076 11.9183C8.25333 11.9183 7.51601 12.1419 6.88884 12.5609C6.26166 12.9799 5.77274 13.5755 5.48406 14.2723C5.19538 14.9691 5.11987 15.7359 5.267 16.4756C5.41414 17.2154 5.77738 17.895 6.31073 18.4284C6.84407 18.9617 7.52349 19.3249 8.26327 19.472C9.00304 19.6191 9.76985 19.5436 10.4667 19.2549C11.1635 18.9663 11.7592 18.4773 12.1782 17.8502C12.5972 17.223 12.8207 16.4857 12.8207 15.7314C12.8197 14.7204 12.4176 13.7511 11.7027 13.0363C10.9879 12.3214 10.0186 11.9193 9.0076 11.9183Z" fill="black"/>
<path d="M9.00641 31.6896C8.46511 31.6896 7.93594 31.529 7.48586 31.2283C7.03578 30.9276 6.68504 30.5001 6.4779 30C6.27075 29.4999 6.21651 28.9497 6.32211 28.4188C6.42772 27.8879 6.68832 27.4002 7.07108 27.0175C7.45384 26.6347 7.94147 26.374 8.47238 26.2684C9.00328 26.1628 9.55371 26.217 10.0538 26.4242C10.5539 26.6313 10.9812 26.9821 11.2819 27.4322C11.5827 27.8822 11.7433 28.4114 11.7433 28.9527C11.7426 29.6783 11.4539 30.3741 10.9408 30.8872C10.4277 31.4003 9.73206 31.6889 9.00641 31.6896ZM9.00641 27.7992C8.77827 27.7992 8.55519 27.8669 8.36549 27.9936C8.1758 28.1204 8.02796 28.3006 7.94066 28.5113C7.85335 28.7221 7.83043 28.954 7.87494 29.1778C7.91945 29.4015 8.02944 29.6071 8.19076 29.7685C8.35209 29.9298 8.55748 30.0396 8.78124 30.0841C9.005 30.1286 9.23709 30.1058 9.44787 30.0185C9.65865 29.9312 9.83873 29.7833 9.96548 29.5936C10.0922 29.4039 10.1599 29.1809 10.1599 28.9528C10.1599 28.6469 10.0384 28.3535 9.82207 28.1371C9.60575 27.9208 9.31234 27.7992 9.00641 27.7992Z" fill="black"/>
<path d="M9.00567 38.6737C8.46448 38.6736 7.93546 38.513 7.48551 38.2123C7.03556 37.9116 6.6848 37.4842 6.47773 36.9842C6.27067 36.4842 6.21654 35.934 6.32214 35.4032C6.42774 34.8725 6.68843 34.3848 7.07111 34.0021C7.45379 33.6195 7.94123 33.3589 8.47202 33.2533C9.00281 33.1477 9.55306 33.2019 10.0531 33.409C10.5531 33.616 10.9805 33.9667 11.2812 34.4166C11.5819 34.8666 11.7425 35.3956 11.7425 35.9368C11.7418 36.6624 11.4531 37.3582 10.94 37.8713C10.4269 38.3844 9.73132 38.673 9.00567 38.6737ZM9.00567 34.7841C8.77761 34.7841 8.55472 34.8518 8.36514 34.9786C8.17555 35.1054 8.0277 35.2856 7.94049 35.4963C7.85329 35.707 7.83059 35.9389 7.87516 36.1626C7.91974 36.3862 8.02966 36.5916 8.19099 36.7528C8.35231 36.914 8.55776 37.0238 8.78147 37.0682C9.00517 37.1126 9.23703 37.0897 9.44771 37.0024C9.65838 36.915 9.83849 36.7671 9.96513 36.5774C10.0918 36.3878 10.1593 36.1649 10.1592 35.9368C10.159 35.631 10.0372 35.3378 9.82094 35.1216C9.60464 34.9055 9.31146 34.7841 9.00567 34.7841Z" fill="black"/>
<path d="M9.00772 17.0203C9.7196 17.0203 10.2967 16.4432 10.2967 15.7314C10.2967 15.0195 9.7196 14.4424 9.00772 14.4424C8.29584 14.4424 7.71875 15.0195 7.71875 15.7314C7.71875 16.4432 8.29584 17.0203 9.00772 17.0203Z" fill="black"/>
<path d="M16.3834 44.7002H1.63055C1.52657 44.7003 1.42356 44.6798 1.32748 44.64C1.23141 44.6003 1.14414 44.542 1.07061 44.4685C0.997086 44.395 0.938743 44.3076 0.898978 44.2115C0.859213 44.1154 0.838809 44.0125 0.838867 43.9086V5.27752C0.838807 5.17354 0.859214 5.07054 0.898978 4.97446C0.938743 4.87838 0.997086 4.79111 1.07061 4.71759C1.14414 4.64406 1.23141 4.58572 1.32748 4.54595C1.42356 4.50619 1.52657 4.48578 1.63055 4.48584H16.3834C16.4874 4.48578 16.5904 4.50619 16.6865 4.54595C16.7825 4.58572 16.8698 4.64406 16.9433 4.71759C17.0169 4.79111 17.0752 4.87838 17.115 4.97446C17.1547 5.07054 17.1751 5.17354 17.1751 5.27752V43.9086C17.1751 44.0125 17.1547 44.1154 17.115 44.2115C17.0752 44.3076 17.0169 44.395 16.9433 44.4685C16.8698 44.542 16.7825 44.6003 16.6865 44.64C16.5904 44.6798 16.4874 44.7003 16.3834 44.7002ZM2.42224 43.1169H15.5917V6.06921H2.42224V43.1169Z" fill="black"/>
<path d="M24.0568 9.58419C23.9117 9.58417 23.7694 9.54431 23.6455 9.46899C23.5215 9.39368 23.4206 9.28576 23.3538 9.15704C23.287 9.02831 23.2567 8.88369 23.2664 8.73897C23.2761 8.59425 23.3254 8.45501 23.4089 8.33636C23.9726 7.53067 24.7222 6.87285 25.5943 6.41861C26.4664 5.96438 27.4353 5.72713 28.4186 5.72705C29.4019 5.72697 30.3706 5.96403 31.2428 6.41813C32.115 6.87223 32.8648 7.52999 33.4286 8.33559C33.5496 8.50742 33.5974 8.72028 33.5614 8.92732C33.5255 9.13437 33.4087 9.31864 33.2369 9.43962C33.1518 9.49952 33.0556 9.54208 32.9541 9.56486C32.8526 9.58765 32.7476 9.59021 32.6451 9.5724C32.438 9.53644 32.2538 9.41971 32.1329 9.24788C31.7156 8.64967 31.1598 8.1611 30.5132 7.82378C29.8665 7.48645 29.1479 7.31034 28.4186 7.31042C27.6892 7.3105 26.9706 7.4868 26.324 7.82426C25.6773 8.16172 25.1218 8.65036 24.7046 9.24865C24.6314 9.35236 24.5342 9.43699 24.4215 9.49538C24.3087 9.55377 24.1837 9.58421 24.0568 9.58419Z" fill="black"/>
<path d="M36.2938 6.28621C36.1757 6.28635 36.0591 6.26003 35.9526 6.20919C35.8461 6.15835 35.7524 6.08427 35.6783 5.99242C34.804 4.90879 33.698 4.03468 32.4418 3.43414C31.1856 2.83359 29.811 2.52184 28.4187 2.52184C27.0263 2.52184 25.6515 2.83359 24.3953 3.43414C23.1391 4.03468 22.0333 4.90879 21.159 5.99242C21.0937 6.07369 21.013 6.14128 20.9216 6.19131C20.8302 6.24134 20.7299 6.27285 20.6263 6.28399C20.5227 6.29512 20.4178 6.28571 20.3178 6.25625C20.2179 6.22679 20.1248 6.1778 20.0437 6.11226C19.9627 6.04671 19.8955 5.96584 19.8458 5.87423C19.7961 5.78262 19.7649 5.68216 19.7542 5.57851C19.7435 5.47485 19.7534 5.37007 19.7832 5.27022C19.813 5.17037 19.8623 5.07739 19.9282 4.99663C20.9509 3.7295 22.2442 2.70732 23.7134 2.0051C25.1826 1.30289 26.7903 0.938477 28.4187 0.938477C30.047 0.938477 31.6548 1.30289 33.1239 2.0051C34.5931 2.70732 35.8864 3.7295 36.9092 4.99663C37.0032 5.11285 37.0623 5.2533 37.0798 5.40175C37.0973 5.5502 37.0725 5.70057 37.0081 5.83548C36.9437 5.97038 36.8425 6.08429 36.7161 6.16405C36.5897 6.24382 36.4432 6.28619 36.2938 6.28621Z" fill="black"/>
</svg>
