<svg width="81" height="50" viewBox="0 0 81 50" fill="none" xmlns="http://www.w3.org/2000/svg">
<path d="M64.7336 28.7127H31.465C30.3814 28.7112 29.3425 28.28 28.5764 27.5136C27.8104 26.7473 27.3796 25.7084 27.3784 24.6248V6.08723C27.3796 5.00371 27.8105 3.96492 28.5766 3.19869C29.3427 2.43246 30.3815 2.00137 31.465 2H64.7336C65.8173 2.00109 66.8563 2.43202 67.6226 3.19827C68.389 3.96452 68.8202 5.0035 68.8215 6.08723V24.6248C68.8202 25.7086 68.3892 26.7476 67.6228 27.514C66.8564 28.2803 65.8174 28.7114 64.7336 28.7127ZM31.465 3.35298C30.7401 3.35387 30.0452 3.64224 29.5327 4.15485C29.0202 4.66745 28.7321 5.36243 28.7314 6.08727V24.6248C28.7319 25.3498 29.02 26.0449 29.5325 26.5576C30.045 27.0703 30.74 27.3588 31.465 27.3598H64.7336C65.4587 27.3589 66.1537 27.0704 66.6664 26.5577C67.1791 26.045 67.4676 25.3499 67.4685 24.6248V6.08723C67.4675 5.36225 67.1789 4.66726 66.6662 4.15468C66.1535 3.6421 65.4586 3.35379 64.7336 3.35294L31.465 3.35298Z" fill="black"/>
<path d="M61.2552 8.24084H43.009C42.8296 8.24084 42.6574 8.16956 42.5305 8.0427C42.4037 7.91583 42.3325 7.74378 42.3325 7.56437C42.3325 7.38496 42.4037 7.2129 42.5305 7.08604C42.6574 6.95918 42.8296 6.8879 43.009 6.8879H61.2552C61.4346 6.8879 61.6066 6.95918 61.7335 7.08604C61.8603 7.2129 61.9317 7.38496 61.9317 7.56437C61.9317 7.74378 61.8603 7.91583 61.7335 8.0427C61.6066 8.16956 61.4346 8.24084 61.2552 8.24084Z" fill="black"/>
<path d="M61.2552 13.4353H46.8591C46.6797 13.4353 46.5075 13.364 46.3806 13.2371C46.2538 13.1103 46.1826 12.9382 46.1826 12.7588C46.1826 12.5794 46.2538 12.4073 46.3806 12.2804C46.5075 12.1536 46.6797 12.0823 46.8591 12.0823H61.2552C61.4346 12.0823 61.6067 12.1536 61.7335 12.2804C61.8604 12.4073 61.9317 12.5794 61.9317 12.7588C61.9317 12.9382 61.8604 13.1103 61.7335 13.2371C61.6067 13.364 61.4346 13.4353 61.2552 13.4353Z" fill="black"/>
<path d="M61.2552 18.6297H43.009C42.8296 18.6297 42.6574 18.5584 42.5305 18.4316C42.4037 18.3047 42.3325 18.1326 42.3325 17.9532C42.3325 17.7738 42.4037 17.6018 42.5305 17.4749C42.6574 17.348 42.8296 17.2768 43.009 17.2768H61.2552C61.4346 17.2768 61.6066 17.348 61.7335 17.4749C61.8603 17.6018 61.9317 17.7738 61.9317 17.9532C61.9317 18.1326 61.8603 18.3047 61.7335 18.4316C61.6066 18.5584 61.4346 18.6297 61.2552 18.6297Z" fill="black"/>
<path d="M61.2552 23.8241H46.8591C46.6797 23.8241 46.5075 23.7528 46.3806 23.626C46.2538 23.4991 46.1826 23.3271 46.1826 23.1477C46.1826 22.9682 46.2538 22.7962 46.3806 22.6693C46.5075 22.5425 46.6797 22.4712 46.8591 22.4712H61.2552C61.4346 22.4712 61.6067 22.5425 61.7335 22.6693C61.8604 22.7962 61.9317 22.9682 61.9317 23.1477C61.9317 23.3271 61.8604 23.4991 61.7335 23.626C61.6067 23.7528 61.4346 23.8241 61.2552 23.8241Z" fill="black"/>
<path d="M17.8657 12.063C20.279 12.063 22.2353 10.1066 22.2353 7.69333C22.2353 5.28006 20.279 3.32371 17.8657 3.32371C15.4524 3.32371 13.4961 5.28006 13.4961 7.69333C13.4961 10.1066 15.4524 12.063 17.8657 12.063Z" fill="white"/>
<path d="M17.8659 12.7396C16.8679 12.7397 15.8923 12.4438 15.0624 11.8894C14.2325 11.335 13.5856 10.5469 13.2036 9.62487C12.8216 8.70284 12.7216 7.68827 12.9162 6.70941C13.1109 5.73054 13.5914 4.83137 14.2971 4.12561C15.0027 3.41986 15.9019 2.9392 16.8807 2.74443C17.8596 2.54966 18.8741 2.64952 19.7962 3.03139C20.7183 3.41325 21.5064 4.05995 22.061 4.88974C22.6155 5.71953 22.9116 6.69512 22.9117 7.69315C22.9103 9.03101 22.3782 10.3137 21.4322 11.2598C20.4863 12.2058 19.2038 12.7381 17.8659 12.7396ZM17.8659 4.00035C17.1354 4.00028 16.4212 4.21686 15.8139 4.62265C15.2065 5.02843 14.733 5.60519 14.4535 6.28005C14.1739 6.9549 14.1007 7.69752 14.2432 8.41396C14.3857 9.1304 14.7375 9.7885 15.254 10.305C15.7705 10.8215 16.4287 11.1733 17.1452 11.3158C17.8616 11.4582 18.6041 11.3851 19.2789 11.1055C19.9538 10.8259 20.5306 10.3525 20.9364 9.74514C21.3422 9.13775 21.5588 8.42366 21.5587 7.69319C21.5576 6.71415 21.1681 5.77555 20.4758 5.08326C19.7835 4.39097 18.8449 4.00152 17.8659 4.00035Z" fill="black"/>
<path d="M17.8654 12.0629C19.2858 12.0629 20.648 12.6271 21.6524 13.6315C22.6567 14.6359 23.221 15.9981 23.221 17.4185V33.8749H12.5098V17.4185C12.5098 15.9981 13.074 14.6359 14.0784 13.6315C15.0828 12.6271 16.445 12.0629 17.8654 12.0629Z" fill="white"/>
<path d="M23.2207 34.5512H12.5095C12.4206 34.5512 12.3326 34.5338 12.2505 34.4998C12.1684 34.4658 12.0939 34.416 12.031 34.3532C11.9682 34.2903 11.9183 34.2157 11.8844 34.1336C11.8504 34.0515 11.833 33.9636 11.833 33.8747V17.4188C11.833 15.819 12.4684 14.2847 13.5997 13.1535C14.7309 12.0222 16.2653 11.3867 17.8651 11.3867C19.4649 11.3867 20.9991 12.0222 22.1304 13.1535C23.2616 14.2847 23.8972 15.819 23.8972 17.4188V33.8747C23.8972 33.9636 23.8798 34.0515 23.8458 34.1336C23.8118 34.2157 23.762 34.2903 23.6992 34.3532C23.6363 34.416 23.5618 34.4658 23.4797 34.4998C23.3976 34.5338 23.3096 34.5512 23.2207 34.5512ZM13.1859 33.1982H22.5442V17.4188C22.5442 16.1778 22.0513 14.9876 21.1738 14.1101C20.2963 13.2326 19.1061 12.7396 17.8651 12.7396C16.6241 12.7396 15.4339 13.2326 14.5564 14.1101C13.6789 14.9876 13.1859 16.1778 13.1859 17.4188V33.1982Z" fill="black"/>
<path d="M31.5696 16.7198C31.4391 16.7199 31.3113 16.6822 31.2018 16.6113C31.0922 16.5403 31.0056 16.4393 30.9522 16.3202C30.8989 16.2011 30.8811 16.0691 30.901 15.9402C30.921 15.8113 30.978 15.6908 31.0649 15.5935L38.506 7.24331C38.5649 7.17618 38.6363 7.12138 38.7164 7.08204C38.7966 7.0427 38.8838 7.01962 38.9729 7.01412C39.062 7.00863 39.1513 7.0208 39.2357 7.05C39.32 7.0792 39.3978 7.12479 39.4644 7.18419C39.5311 7.24358 39.5851 7.31558 39.6238 7.39604C39.6625 7.47649 39.6849 7.56384 39.6897 7.65298C39.6944 7.74212 39.6814 7.8313 39.6515 7.91541C39.6216 7.99952 39.5754 8.07689 39.5155 8.14303L32.0743 16.4932C32.011 16.5646 31.9332 16.6216 31.8462 16.6607C31.7592 16.6998 31.6649 16.72 31.5696 16.7198Z" fill="black"/>
<path d="M17.478 18.5984L19.4556 24.1556C19.5925 24.5405 19.8174 24.8881 20.1124 25.1706C20.4074 25.4532 20.7644 25.6629 21.1548 25.783C21.5453 25.9032 21.9583 25.9304 22.3611 25.8626C22.764 25.7949 23.1455 25.6339 23.4751 25.3926L32.3259 18.9126C32.8839 18.5005 33.2558 17.8841 33.3604 17.1983C33.4649 16.5125 33.2936 15.8133 32.8838 15.2536C32.4739 14.6939 31.8591 14.3194 31.1737 14.212C30.4884 14.1046 29.7885 14.2731 29.2271 14.6806L23.2211 18.8265L17.478 18.5984Z" fill="white"/>
<path d="M21.926 26.5756C21.2451 26.5752 20.5809 26.3642 20.0246 25.9716C19.4683 25.5789 19.047 25.0238 18.8185 24.3823L16.8419 18.8252C16.8122 18.7416 16.7991 18.6529 16.8036 18.5643C16.8081 18.4756 16.8301 18.3887 16.8682 18.3085C16.9063 18.2284 16.9597 18.1565 17.0256 18.097C17.0914 18.0375 17.1685 17.9916 17.2522 17.9618C17.3358 17.932 17.4245 17.919 17.5131 17.9235C17.6018 17.928 17.6886 17.95 17.7688 17.9881C17.8489 18.0262 17.9208 18.0797 17.9803 18.1455C18.0398 18.2114 18.0858 18.2884 18.1156 18.372L20.0921 23.9291C20.194 24.2148 20.361 24.4727 20.5802 24.6823C20.7993 24.892 21.0644 25.0475 21.3543 25.1366C21.6442 25.2256 21.951 25.2457 22.2501 25.1953C22.5491 25.1449 22.8322 25.0253 23.0768 24.846L31.9264 18.3667C32.3414 18.0611 32.6183 17.6034 32.6964 17.094C32.7744 16.5846 32.6471 16.065 32.3426 15.6492C32.0381 15.2334 31.581 14.9554 31.0717 14.8761C30.5625 14.7968 30.0427 14.9227 29.6262 15.2262L23.6053 19.3834C23.4576 19.485 23.2756 19.5238 23.0993 19.4914C22.923 19.4589 22.7666 19.3579 22.6648 19.2103C22.5629 19.0628 22.5238 18.8809 22.5559 18.7045C22.5881 18.5281 22.689 18.3717 22.8363 18.2696L28.8427 14.1236C29.5502 13.6112 30.432 13.4004 31.2947 13.5373C32.1575 13.6743 32.9307 14.1478 33.4448 14.8541C33.9589 15.5603 34.1719 16.4416 34.0371 17.3047C33.9023 18.1678 33.4307 18.9422 32.7258 19.4581L23.8748 25.938C23.3101 26.3534 22.6271 26.5768 21.926 26.5756Z" fill="black"/>
<path d="M68.1453 48.0001H53.3752C53.2864 48.0001 53.1983 47.9826 53.1162 47.9486C53.0341 47.9147 52.9596 47.8649 52.8968 47.802C52.8339 47.7392 52.7841 47.6646 52.7501 47.5825C52.7161 47.5004 52.6987 47.4124 52.6987 47.3236C52.6974 45.8498 53.1399 44.4098 53.9688 43.1911C54.7976 41.9725 55.9743 41.0317 57.3455 40.4915C56.7025 39.8221 56.2704 38.9785 56.1031 38.0655C55.9357 37.1525 56.0405 36.2104 56.4043 35.3565C56.7681 34.5026 57.375 33.7744 58.1493 33.2626C58.9237 32.7508 59.8314 32.4779 60.7596 32.4779C61.6878 32.4779 62.5955 32.7508 63.3698 33.2626C64.1442 33.7744 64.751 34.5026 65.1148 35.3565C65.4786 36.2104 65.5833 37.1525 65.4159 38.0655C65.2486 38.9785 64.8166 39.8221 64.1736 40.4915C65.5439 41.0301 66.7201 41.969 67.5492 43.1857C68.3783 44.4025 68.8217 45.8407 68.8217 47.313C68.8222 47.4936 68.7514 47.667 68.6247 47.7957C68.498 47.9243 68.3258 47.9978 68.1453 48.0001ZM54.0887 46.6471H67.4318C67.2891 45.3741 66.741 44.1806 65.8684 43.2427C64.9959 42.3048 63.845 41.6722 62.5855 41.4382C62.4485 41.4127 62.3227 41.3456 62.2253 41.246C62.1279 41.1463 62.0636 41.0191 62.0412 40.8815C62.0188 40.744 62.0394 40.603 62.1001 40.4776C62.1609 40.3522 62.2589 40.2486 62.3807 40.181C63.0395 39.8209 63.5596 39.2517 63.859 38.5632C64.1584 37.8748 64.2201 37.1062 64.0342 36.3788C63.8484 35.6514 63.4255 35.0066 62.8326 34.5461C62.2396 34.0856 61.5103 33.8357 60.7596 33.8357C60.0088 33.8357 59.2795 34.0856 58.6866 34.5461C58.0936 35.0066 57.6709 35.6514 57.4851 36.3788C57.2992 37.1062 57.3607 37.8748 57.6601 38.5632C57.9595 39.2517 58.4797 39.8209 59.1384 40.181C59.2602 40.2486 59.3582 40.3522 59.419 40.4776C59.4798 40.603 59.5004 40.744 59.478 40.8815C59.4556 41.0191 59.3912 41.1463 59.2938 41.246C59.1964 41.3456 59.0706 41.4127 58.9336 41.4382C57.6743 41.6723 56.5237 42.305 55.6514 43.2429C54.779 44.1808 54.2311 45.3742 54.0887 46.6471Z" fill="black"/>
<path d="M38.6037 47.9998H23.8337C23.7449 47.9998 23.6568 47.9824 23.5747 47.9484C23.4926 47.9144 23.4181 47.8646 23.3552 47.8018C23.2924 47.7389 23.2426 47.6643 23.2086 47.5822C23.1746 47.5001 23.1572 47.4122 23.1572 47.3233C23.1559 45.8494 23.5985 44.4092 24.4276 43.1905C25.2567 41.9718 26.4338 41.0312 27.8053 40.4912C27.1623 39.8219 26.7302 38.9784 26.5629 38.0655C26.3955 37.1527 26.5002 36.2107 26.8639 35.3569C27.2277 34.503 27.8344 33.7749 28.6086 33.2632C29.3829 32.7514 30.2906 32.4786 31.2187 32.4786C32.1468 32.4786 33.0544 32.7514 33.8287 33.2632C34.6029 33.7749 35.2096 34.503 35.5733 35.3569C35.9371 36.2107 36.0418 37.1527 35.8744 38.0655C35.7071 38.9784 35.2751 39.8219 34.6321 40.4912C36.0024 41.0299 37.1786 41.9687 38.0077 43.1855C38.8368 44.4022 39.2802 45.8404 39.2802 47.3127C39.2807 47.4933 39.2099 47.6668 39.0832 47.7954C38.9565 47.9241 38.7843 47.9975 38.6037 47.9998ZM24.5472 46.6468H37.8903C37.7476 45.3738 37.1995 44.1803 36.3269 43.2424C35.4544 42.3045 34.3035 41.6719 33.044 41.4379C32.907 41.4124 32.7812 41.3453 32.6838 41.2457C32.5864 41.1461 32.5221 41.0188 32.4997 40.8813C32.4773 40.7438 32.4979 40.6027 32.5586 40.4773C32.6194 40.3519 32.7174 40.2484 32.8392 40.1807C33.4983 39.8207 34.0187 39.2515 34.3183 38.5629C34.618 37.8743 34.6798 37.1055 34.4941 36.3778C34.3083 35.6502 33.8855 35.0051 33.2924 34.5444C32.6993 34.0837 31.9697 33.8336 31.2187 33.8336C30.4677 33.8336 29.7381 34.0837 29.1451 34.5444C28.552 35.0051 28.1292 35.6502 27.9434 36.3778C27.7576 37.1055 27.8195 37.8743 28.1191 38.5629C28.4188 39.2515 28.9392 39.8207 29.5982 40.1807C29.72 40.2484 29.8181 40.3519 29.8788 40.4773C29.9396 40.6027 29.9602 40.7438 29.9378 40.8813C29.9154 41.0188 29.8511 41.1461 29.7536 41.2457C29.6562 41.3453 29.5304 41.4124 29.3934 41.4379C28.134 41.6719 26.9831 42.3045 26.1105 43.2424C25.2379 44.1803 24.6898 45.3738 24.5472 46.6468Z" fill="black"/>
<path d="M53.3751 48H38.6037C38.5149 48.0001 38.4269 47.9826 38.3448 47.9486C38.2627 47.9146 38.1881 47.8648 38.1253 47.802C38.0624 47.7392 38.0126 47.6646 37.9786 47.5825C37.9446 47.5004 37.9272 47.4124 37.9272 47.3235C37.9259 45.8496 38.3685 44.4094 39.1976 43.1907C40.0267 41.9721 41.2038 41.0314 42.5753 40.4915C41.9328 39.8221 41.5011 38.9787 41.334 38.0661C41.167 37.1534 41.2718 36.2118 41.6356 35.3583C41.9994 34.5047 42.6061 33.777 43.3801 33.2654C44.1542 32.7539 45.0616 32.4812 45.9894 32.4812C46.9172 32.4812 47.8244 32.7539 48.5985 33.2654C49.3726 33.777 49.9792 34.5047 50.343 35.3583C50.7068 36.2118 50.8117 37.1534 50.6446 38.0661C50.4775 38.9787 50.046 39.8221 49.4035 40.4915C50.7737 41.0301 51.95 41.969 52.779 43.1857C53.6081 44.4024 54.0516 45.8406 54.0516 47.313C54.0521 47.4935 53.9812 47.6669 53.8545 47.7956C53.7279 47.9242 53.5556 47.9977 53.3751 48ZM39.3172 46.6471H52.6616C52.519 45.374 51.9709 44.1805 51.0983 43.2426C50.2257 42.3047 49.0748 41.6721 47.8153 41.4381C47.6784 41.4126 47.5526 41.3455 47.4551 41.2459C47.3577 41.1463 47.2934 41.019 47.271 40.8815C47.2486 40.744 47.2692 40.6029 47.33 40.4775C47.3907 40.3522 47.4887 40.2486 47.6106 40.181C48.2697 39.8208 48.7902 39.2515 49.0898 38.5627C49.3895 37.8739 49.4512 37.1051 49.2654 36.3773C49.0795 35.6495 48.6566 35.0044 48.0634 34.5436C47.4702 34.0829 46.7405 33.8328 45.9894 33.8328C45.2383 33.8328 44.5086 34.0829 43.9154 34.5436C43.3222 35.0044 42.8993 35.6495 42.7134 36.3773C42.5276 37.1051 42.5893 37.8739 42.889 38.5627C43.1886 39.2515 43.7091 39.8208 44.3683 40.181C44.4901 40.2486 44.5881 40.3522 44.6488 40.4775C44.7096 40.6029 44.7302 40.744 44.7078 40.8815C44.6854 41.0191 44.6211 41.1463 44.5237 41.2459C44.4262 41.3455 44.3004 41.4127 44.1635 41.4381C42.904 41.6721 41.753 42.3047 40.8804 43.2426C40.0078 44.1805 39.4598 45.374 39.3172 46.6471Z" fill="black"/>
</svg>
