<svg width="52" height="46" viewBox="0 0 52 46" fill="none" xmlns="http://www.w3.org/2000/svg">
<g clip-path="url(#clip0_261_1438)">
<path d="M25.9985 46.0002C22.9513 46.0442 19.9296 45.4334 17.1329 44.2079C14.3361 42.9825 11.8278 41.1703 9.77373 38.8911C9.64077 38.7387 9.56766 38.5423 9.56827 38.339C9.56887 38.1357 9.64315 37.9397 9.777 37.7882L13.8236 33.2057C13.9925 33.0441 14.2113 32.9464 14.4431 32.9294C14.5596 32.9307 14.6746 32.957 14.7803 33.0068C14.8859 33.0565 14.98 33.1285 15.0561 33.2179C16.4026 34.8225 18.0803 36.1088 19.9708 36.9861C21.8614 37.8633 23.9189 38.3103 25.9985 38.2955C29.3709 38.2299 32.6247 37.0237 35.2415 34.8689C37.8584 32.7141 39.6878 29.7348 40.4385 26.4053L40.5345 26.0204H36.9986C36.8486 26.0203 36.7015 25.9786 36.5734 25.8997C36.4452 25.8209 36.3409 25.7078 36.2718 25.5731C36.2025 25.4383 36.1711 25.2869 36.181 25.1353C36.1908 24.9837 36.2417 24.8377 36.3279 24.7133L43.419 14.5127C43.4985 14.4093 43.6002 14.3258 43.7164 14.2683C43.8327 14.2108 43.9603 14.1808 44.0897 14.1808C44.219 14.1808 44.3467 14.2108 44.4629 14.2683C44.5792 14.3258 44.6809 14.4093 44.7604 14.5127L51.8515 24.7133C51.9377 24.8377 51.9885 24.9837 51.9984 25.1353C52.0083 25.2869 51.9768 25.4383 51.9075 25.5731C51.8385 25.7079 51.7342 25.8209 51.606 25.8997C51.4779 25.9786 51.3308 26.0203 51.1808 26.0204H48.4276L48.3876 26.2862C47.5889 31.7347 44.8942 36.7152 40.7891 40.3298C36.684 43.9445 31.4386 45.9554 25.9985 46.0002ZM11.4945 38.3336C13.3887 40.2711 15.6495 41.8018 18.1417 42.834C20.6339 43.8662 23.3061 44.3786 25.9985 44.3406C31.0458 44.2974 35.9118 42.4301 39.7196 39.0754C43.5273 35.7207 46.0263 31.0992 46.766 26.0439L46.9101 25.069C46.9386 24.8722 47.0362 24.6923 47.1849 24.5623C47.3336 24.4322 47.5235 24.3607 47.72 24.3608H49.6024L44.0896 16.4316L38.5767 24.3608H41.5829C41.7075 24.3608 41.8306 24.3896 41.9426 24.445C42.0546 24.5003 42.1528 24.5807 42.2296 24.6801C42.3061 24.7794 42.3593 24.8951 42.3851 25.0184C42.4109 25.1417 42.4086 25.2693 42.3784 25.3915L42.0295 26.8072C41.1905 30.4961 39.1563 33.7946 36.2511 36.1773C33.3459 38.5601 29.7367 39.89 25.9984 39.9551C23.8397 39.9709 21.7006 39.5392 19.7128 38.6868C17.725 37.8343 15.9305 36.5791 14.4397 34.9982L11.4945 38.3336ZM7.91051 31.8403C7.77897 31.8404 7.64934 31.8083 7.5326 31.747C7.41586 31.6856 7.31542 31.5966 7.2398 31.4877L0.148686 21.2871C0.0624745 21.1627 0.0116574 21.0168 0.00177771 20.8652C-0.008102 20.7136 0.0233357 20.562 0.0926615 20.4273C0.161729 20.2925 0.266025 20.1796 0.394176 20.1007C0.522326 20.0218 0.669409 19.98 0.819382 19.98H3.56939L3.6094 19.7151C4.40799 14.2664 7.10269 9.28577 11.2078 5.67101C15.3128 2.05625 20.5582 0.0452017 25.9985 0.000218726C29.0096 -0.0130931 31.9932 0.581353 34.7749 1.74884C37.5565 2.91633 40.0805 4.63344 42.1992 6.79982C42.3386 6.94831 42.4189 7.14371 42.4245 7.34852C42.4301 7.55333 42.3607 7.75308 42.2296 7.90918L38.1654 12.7518C38.0876 12.8423 37.9917 12.9152 37.8842 12.9656C37.7766 13.016 37.6597 13.0428 37.5412 13.0443C37.4235 13.0445 37.3072 13.0189 37.2003 12.9693C37.0934 12.9196 36.9983 12.847 36.9217 12.7567C35.5829 11.1496 33.9089 9.86314 32.0201 8.98977C30.1313 8.1164 28.0747 7.67787 25.9985 7.70578C22.6053 7.70175 19.3148 8.88419 16.6834 11.0532C14.052 13.2222 12.2411 16.2448 11.5569 19.6097L11.4833 19.9801H15.0016C15.1516 19.9801 15.2987 20.0218 15.4268 20.1007C15.555 20.1796 15.6593 20.2926 15.7283 20.4274C15.7977 20.5621 15.8291 20.7137 15.8192 20.8653C15.8093 21.0169 15.7585 21.1628 15.6723 21.2872L8.5812 31.4878C8.50557 31.5967 8.40514 31.6856 8.2884 31.747C8.17165 31.8083 8.04204 31.8404 7.91051 31.8403ZM2.39768 21.6396L7.91051 29.5689L13.4233 21.6396H10.4827C10.3615 21.6395 10.2417 21.6122 10.1321 21.5596C10.0225 21.5071 9.9258 21.4307 9.84887 21.3358C9.77215 21.2406 9.71715 21.1293 9.68782 21.0101C9.65849 20.8909 9.65554 20.7667 9.6792 20.6462L9.94965 19.2831C10.7091 15.5425 12.721 12.1822 15.6452 9.77034C18.5695 7.35843 22.2266 6.04293 25.9983 6.0462C28.1475 6.03037 30.2773 6.45791 32.2579 7.30274C34.2386 8.14757 36.0285 9.39189 37.5186 10.96L40.4943 7.41477C36.5622 3.69776 31.3777 1.63957 25.9983 1.6598C20.9509 1.70308 16.0847 3.57044 12.277 6.92532C8.46922 10.2802 5.97034 14.9018 5.23075 19.9573L5.08669 20.9314C5.05814 21.1282 4.96059 21.308 4.81188 21.4381C4.66317 21.5681 4.47322 21.6396 4.27673 21.6396H2.39768Z" fill="black"/>
<path d="M32.9024 23.83H19.0979C18.9902 23.8301 18.8836 23.8087 18.7842 23.767C18.6847 23.7253 18.5943 23.6642 18.5182 23.5871C18.4421 23.51 18.3818 23.4186 18.3406 23.3179C18.2994 23.2172 18.2783 23.1092 18.2783 23.0002C18.2783 22.8912 18.2994 22.7833 18.3406 22.6825C18.3818 22.5818 18.4421 22.4904 18.5182 22.4133C18.5943 22.3362 18.6847 22.2751 18.7842 22.2334C18.8836 22.1917 18.9902 22.1703 19.0979 22.1704H32.9024C33.01 22.1703 33.1166 22.1917 33.2161 22.2334C33.3155 22.2751 33.4059 22.3362 33.482 22.4133C33.5581 22.4904 33.6185 22.5818 33.6597 22.6825C33.7008 22.7833 33.722 22.8912 33.7219 23.0002C33.722 23.1092 33.7008 23.2172 33.6597 23.3179C33.6185 23.4186 33.5581 23.51 33.482 23.5871C33.4059 23.6642 33.3155 23.7253 33.2161 23.767C33.1166 23.8087 33.01 23.8301 32.9024 23.83Z" fill="black"/>
<path d="M32.9022 18.8017H25.3469C25.2393 18.8017 25.1327 18.7804 25.0332 18.7387C24.9337 18.697 24.8434 18.6358 24.7673 18.5588C24.6911 18.4817 24.6308 18.3902 24.5896 18.2895C24.5484 18.1888 24.5273 18.0809 24.5273 17.9719C24.5273 17.8629 24.5484 17.7549 24.5896 17.6542C24.6308 17.5535 24.6911 17.4621 24.7673 17.385C24.8434 17.3079 24.9337 17.2468 25.0332 17.2051C25.1327 17.1634 25.2393 17.142 25.3469 17.1421H32.9022C33.0099 17.142 33.1165 17.1634 33.2159 17.2051C33.3154 17.2468 33.4058 17.3079 33.4819 17.385C33.558 17.4621 33.6184 17.5535 33.6595 17.6542C33.7007 17.7549 33.7219 17.8629 33.7218 17.9719C33.7219 18.0809 33.7007 18.1888 33.6595 18.2895C33.6184 18.3902 33.558 18.4817 33.4819 18.5588C33.4058 18.6358 33.3154 18.697 33.2159 18.7387C33.1165 18.7804 33.0099 18.8017 32.9022 18.8017Z" fill="black"/>
<path d="M26.6532 28.8588H19.0979C18.9902 28.8589 18.8836 28.8375 18.7842 28.7958C18.6847 28.7541 18.5943 28.693 18.5182 28.6159C18.4421 28.5388 18.3818 28.4474 18.3406 28.3467C18.2994 28.246 18.2783 28.138 18.2783 28.029C18.2783 27.92 18.2994 27.8121 18.3406 27.7114C18.3818 27.6107 18.4421 27.5192 18.5182 27.4421C18.5943 27.3651 18.6847 27.3039 18.7842 27.2622C18.8836 27.2205 18.9902 27.1992 19.0979 27.1992H26.6532C26.7609 27.1992 26.8675 27.2205 26.9669 27.2622C27.0664 27.3039 27.1568 27.3651 27.2329 27.4421C27.309 27.5192 27.3694 27.6107 27.4105 27.7114C27.4517 27.8121 27.4728 27.92 27.4728 28.029C27.4728 28.138 27.4517 28.246 27.4105 28.3467C27.3694 28.4474 27.309 28.5388 27.2329 28.6159C27.1568 28.693 27.0664 28.7541 26.9669 28.7958C26.8675 28.8375 26.7609 28.8589 26.6532 28.8588Z" fill="black"/>
<path d="M21.9295 18.8017H19.0979C18.9902 18.8017 18.8836 18.7804 18.7842 18.7387C18.6847 18.697 18.5943 18.6358 18.5182 18.5588C18.4421 18.4817 18.3818 18.3902 18.3406 18.2895C18.2994 18.1888 18.2783 18.0809 18.2783 17.9719C18.2783 17.8629 18.2994 17.7549 18.3406 17.6542C18.3818 17.5535 18.4421 17.4621 18.5182 17.385C18.5943 17.3079 18.6847 17.2468 18.7842 17.2051C18.8836 17.1634 18.9902 17.142 19.0979 17.1421H21.9295C22.0372 17.142 22.1438 17.1634 22.2432 17.2051C22.3427 17.2468 22.4331 17.3079 22.5092 17.385C22.5853 17.4621 22.6457 17.5535 22.6868 17.6542C22.728 17.7549 22.7492 17.8629 22.7491 17.9719C22.7492 18.0809 22.728 18.1888 22.6868 18.2895C22.6457 18.3902 22.5853 18.4817 22.5092 18.5588C22.4331 18.6358 22.3427 18.697 22.2432 18.7387C22.1438 18.7803 22.0372 18.8017 21.9295 18.8017Z" fill="black"/>
<path d="M32.9022 28.8588H30.0705C29.9629 28.8589 29.8563 28.8375 29.7568 28.7958C29.6574 28.7541 29.567 28.693 29.4909 28.6159C29.4148 28.5388 29.3544 28.4474 29.3132 28.3467C29.2721 28.246 29.2509 28.138 29.251 28.029C29.2509 27.92 29.2721 27.8121 29.3132 27.7114C29.3544 27.6107 29.4148 27.5192 29.4909 27.4421C29.567 27.3651 29.6574 27.3039 29.7568 27.2622C29.8563 27.2205 29.9629 27.1992 30.0705 27.1992H32.9022C33.0098 27.1992 33.1164 27.2205 33.2159 27.2622C33.3154 27.3039 33.4057 27.3651 33.4818 27.4421C33.558 27.5192 33.6183 27.6107 33.6595 27.7114C33.7007 27.8121 33.7218 27.92 33.7218 28.029C33.7218 28.138 33.7007 28.246 33.6595 28.3467C33.6183 28.4474 33.558 28.5388 33.4819 28.6159C33.4057 28.693 33.3154 28.754 33.2159 28.7957C33.1165 28.8374 33.0099 28.8589 32.9022 28.8588Z" fill="black"/>
</g>
<defs>
<clipPath id="clip0_261_1438">
<rect width="52" height="46" fill="white"/>
</clipPath>
</defs>
</svg>
