<svg width="34" height="39" viewBox="0 0 34 39" fill="none" xmlns="http://www.w3.org/2000/svg">
<g clip-path="url(#clip0_46_1194)">
<path d="M22.389 6.39343C22.2773 6.3935 22.1666 6.37152 22.0634 6.32868C21.9601 6.28584 21.8663 6.22298 21.7873 6.14377C21.7082 6.06456 21.6456 5.97054 21.6028 5.86704C21.5601 5.76353 21.5381 5.65256 21.5382 5.54054C21.4354 4.43304 20.9025 3.41037 20.0544 2.69304C19.2064 1.97571 18.1111 1.62119 17.0046 1.70584C15.8984 1.62122 14.8033 1.97589 13.9555 2.69325C13.1077 3.41061 12.5752 4.43319 12.4727 5.54054C12.4728 5.65256 12.4508 5.76353 12.4081 5.86704C12.3654 5.97054 12.3027 6.06456 12.2237 6.14377C12.1446 6.22298 12.0508 6.28584 11.9476 6.32868C11.8443 6.37152 11.7336 6.3935 11.6219 6.39343C11.5101 6.3935 11.3994 6.37152 11.2962 6.32868C11.1929 6.28584 11.0991 6.22298 11.0201 6.14377C10.9411 6.06456 10.8784 5.97054 10.8356 5.86704C10.7929 5.76353 10.7709 5.65256 10.771 5.54054C10.872 3.97998 11.5835 2.52244 12.7508 1.48491C13.9181 0.447382 15.4469 -0.0862291 17.0046 4.58956e-05C18.5626 -0.0865493 20.0917 0.446946 21.2594 1.48449C22.4271 2.52204 23.1388 3.97972 23.2399 5.54054C23.24 5.65256 23.218 5.76353 23.1753 5.86704C23.1326 5.97054 23.0699 6.06456 22.9909 6.14377C22.9118 6.22298 22.818 6.28584 22.7147 6.32868C22.6115 6.37152 22.5008 6.3935 22.389 6.39343Z" fill="black"/>
<path d="M33.1545 6.39337C33.0427 6.39343 32.9321 6.37145 32.8288 6.32861C32.7256 6.28577 32.6317 6.22292 32.5527 6.14371C32.4737 6.0645 32.411 5.97048 32.3683 5.86697C32.3255 5.76347 32.3036 5.6525 32.3036 5.54047C32.2012 4.43312 31.6687 3.41055 30.8209 2.69318C29.9731 1.97582 28.878 1.62116 27.7717 1.70577C26.6655 1.62116 25.5704 1.97582 24.7226 2.69318C23.8748 3.41055 23.3423 4.43312 23.2398 5.54047C23.2399 5.6525 23.2179 5.76347 23.1752 5.86697C23.1325 5.97048 23.0698 6.0645 22.9908 6.14371C22.9117 6.22292 22.8179 6.28577 22.7147 6.32861C22.6114 6.37145 22.5007 6.39343 22.389 6.39337C22.2772 6.39343 22.1665 6.37145 22.0633 6.32861C21.96 6.28577 21.8662 6.22292 21.7872 6.14371C21.7081 6.0645 21.6455 5.97048 21.6027 5.86697C21.56 5.76347 21.538 5.6525 21.5381 5.54047C21.6391 3.97991 22.3506 2.52237 23.5179 1.48485C24.6852 0.447318 26.214 -0.0862936 27.7717 -1.85044e-05C29.3295 -0.0862936 30.8582 0.447318 32.0256 1.48485C33.1929 2.52237 33.9044 3.97991 34.0054 5.54047C34.0054 5.6525 33.9835 5.76347 33.9407 5.86697C33.898 5.97048 33.8353 6.0645 33.7563 6.14371C33.6773 6.22292 33.5835 6.28577 33.4802 6.32861C33.3769 6.37145 33.2663 6.39343 33.1545 6.39337Z" fill="black"/>
<path d="M11.6218 6.39337C11.51 6.39343 11.3994 6.37145 11.2961 6.32861C11.1928 6.28577 11.099 6.22292 11.02 6.14371C10.941 6.0645 10.8783 5.97048 10.8356 5.86697C10.7928 5.76347 10.7709 5.6525 10.7709 5.54047C10.6685 4.43312 10.1359 3.41055 9.28816 2.69318C8.44037 1.97582 7.34527 1.62116 6.23902 1.70577C5.13277 1.62116 4.03766 1.97582 3.18987 2.69318C2.34208 3.41055 1.80955 4.43312 1.70712 5.54047C1.70718 5.6525 1.68522 5.76347 1.64249 5.86697C1.59975 5.97048 1.53707 6.0645 1.45805 6.14371C1.37902 6.22292 1.2852 6.28577 1.18194 6.32861C1.07868 6.37145 0.968 6.39343 0.856244 6.39337C0.744488 6.39343 0.633819 6.37145 0.530558 6.32861C0.427297 6.28577 0.333479 6.22292 0.254456 6.14371C0.175432 6.0645 0.112753 5.97048 0.070015 5.86697C0.0272768 5.76347 0.00530859 5.6525 0.00537123 5.54047C0.106345 3.97991 0.817852 2.52237 1.98518 1.48485C3.15251 0.447318 4.68127 -0.0862936 6.23902 -1.85044e-05C7.79678 -0.0862936 9.32553 0.447318 10.4929 1.48485C11.6602 2.52237 12.3717 3.97991 12.4727 5.54047C12.4727 5.6525 12.4508 5.76347 12.408 5.86697C12.3653 5.97048 12.3026 6.0645 12.2236 6.14371C12.1446 6.22292 12.0507 6.28577 11.9475 6.32861C11.8442 6.37145 11.7335 6.39343 11.6218 6.39337Z" fill="black"/>
<path d="M22.389 39C22.2773 39.0001 22.1666 38.9781 22.0634 38.9353C21.9601 38.8924 21.8663 38.8296 21.7873 38.7504C21.7082 38.6712 21.6456 38.5771 21.6028 38.4736C21.5601 38.3701 21.5381 38.2592 21.5382 38.1471C21.4354 37.0396 20.9025 36.017 20.0544 35.2996C19.2064 34.5823 18.1111 34.2278 17.0046 34.3124C15.8984 34.2278 14.8033 34.5824 13.9555 35.2997C13.1077 36.0171 12.5752 37.0398 12.4727 38.1471C12.4728 38.2592 12.4508 38.3701 12.4081 38.4736C12.3654 38.5771 12.3027 38.6712 12.2237 38.7504C12.1446 38.8296 12.0508 38.8924 11.9476 38.9353C11.8443 38.9781 11.7336 39.0001 11.6219 39C11.5101 39.0001 11.3994 38.9781 11.2962 38.9353C11.1929 38.8924 11.0991 38.8296 11.0201 38.7504C10.941 38.6712 10.8784 38.5771 10.8356 38.4736C10.7929 38.3701 10.7709 38.2592 10.771 38.1471C10.872 36.5866 11.5835 35.129 12.7508 34.0915C13.9181 33.054 15.4469 32.5204 17.0046 32.6066C18.5626 32.52 20.0917 33.0535 21.2594 34.0911C22.4271 35.1286 23.1388 36.5863 23.2399 38.1471C23.24 38.2592 23.218 38.3701 23.1753 38.4736C23.1326 38.5771 23.0699 38.6712 22.9909 38.7504C22.9118 38.8296 22.818 38.8924 22.7147 38.9353C22.6115 38.9781 22.5008 39.0001 22.389 39Z" fill="black"/>
<path d="M33.1545 39C33.0427 39 32.9321 38.9781 32.8288 38.9352C32.7256 38.8924 32.6317 38.8295 32.5527 38.7503C32.4737 38.6711 32.411 38.5771 32.3683 38.4736C32.3255 38.3701 32.3036 38.2591 32.3036 38.1471C32.2012 37.0397 31.6687 36.0171 30.8209 35.2997C29.9731 34.5823 28.878 34.2277 27.7717 34.3123C26.6655 34.2277 25.5704 34.5823 24.7226 35.2997C23.8748 36.0171 23.3423 37.0396 23.2398 38.147C23.2399 38.259 23.2179 38.37 23.1752 38.4735C23.1325 38.577 23.0698 38.671 22.9908 38.7502C22.9117 38.8294 22.8179 38.8923 22.7147 38.9351C22.6114 38.978 22.5007 38.9999 22.389 38.9999C22.2772 38.9999 22.1665 38.978 22.0633 38.9351C21.96 38.8923 21.8662 38.8294 21.7872 38.7502C21.7081 38.671 21.6455 38.577 21.6027 38.4735C21.56 38.37 21.538 38.259 21.5381 38.147C21.6391 36.5864 22.3506 35.129 23.5179 34.0915C24.6852 33.0539 26.214 32.5202 27.7717 32.6065C29.3295 32.5202 30.8582 33.0539 32.0256 34.0915C33.1929 35.129 33.9044 36.5864 34.0054 38.147C34.0054 38.259 33.9835 38.37 33.9408 38.4735C33.898 38.577 33.8354 38.6711 33.7563 38.7503C33.6773 38.8295 33.5835 38.8924 33.4802 38.9352C33.377 38.9781 33.2663 39 33.1545 39Z" fill="black"/>
<path d="M11.6218 38.9999C11.51 39 11.3994 38.978 11.2961 38.9352C11.1928 38.8923 11.099 38.8295 11.02 38.7503C10.941 38.6711 10.8783 38.577 10.8356 38.4735C10.7928 38.37 10.7709 38.2591 10.7709 38.147C10.6685 37.0397 10.1359 36.017 9.28816 35.2996C8.44037 34.5823 7.34527 34.2277 6.23902 34.3123C5.13277 34.2277 4.03766 34.5823 3.18987 35.2996C2.34208 36.017 1.80955 37.0397 1.70712 38.147C1.70718 38.2591 1.68522 38.37 1.64249 38.4735C1.59975 38.577 1.53707 38.6711 1.45805 38.7503C1.37902 38.8295 1.2852 38.8923 1.18194 38.9352C1.07868 38.978 0.968 39 0.856244 38.9999C0.744488 39 0.633819 38.978 0.530558 38.9352C0.427297 38.8923 0.333479 38.8295 0.254456 38.7503C0.175432 38.6711 0.112753 38.577 0.070015 38.4735C0.0272768 38.37 0.00530859 38.2591 0.00537123 38.147C0.106345 36.5865 0.817852 35.1289 1.98518 34.0914C3.15251 33.0539 4.68127 32.5203 6.23902 32.6065C7.79678 32.5203 9.32553 33.0539 10.4929 34.0914C11.6602 35.1289 12.3717 36.5865 12.4727 38.147C12.4727 38.2591 12.4508 38.37 12.408 38.4735C12.3653 38.577 12.3026 38.6711 12.2236 38.7503C12.1446 38.8295 12.0507 38.8923 11.9475 38.9352C11.8442 38.978 11.7335 39 11.6218 38.9999Z" fill="black"/>
<path d="M24.9884 26.573H18.0169C17.9051 26.5731 17.7945 26.5511 17.6912 26.5083C17.5879 26.4654 17.4941 26.4026 17.4151 26.3233C17.3361 26.2441 17.2734 26.1501 17.2307 26.0466C17.1879 25.9431 17.166 25.8321 17.166 25.7201C17.166 25.6081 17.1879 25.4971 17.2307 25.3936C17.2734 25.2901 17.3361 25.1961 17.4151 25.1169C17.4941 25.0377 17.5879 24.9748 17.6912 24.932C17.7945 24.8891 17.9051 24.8672 18.0169 24.8672H24.9833C25.2043 24.7798 25.2525 24.6082 25.196 24.5107L22.9724 20.7485C22.9153 20.6522 22.8776 20.5456 22.8617 20.4347C22.8457 20.3238 22.8517 20.2108 22.8793 20.1023C22.9069 19.9937 22.9557 19.8918 23.0227 19.8021C23.0897 19.7125 23.1737 19.637 23.2699 19.5799C23.366 19.5228 23.4723 19.4852 23.5829 19.4693C23.6934 19.4534 23.8061 19.4595 23.9143 19.4873C24.0225 19.515 24.1241 19.5639 24.2135 19.6312C24.3028 19.6984 24.378 19.7826 24.4349 19.8789L26.6634 23.6487C26.7919 23.8699 26.8756 24.1143 26.9097 24.368C26.9438 24.6217 26.9277 24.8796 26.8622 25.127C26.7968 25.3744 26.6833 25.6065 26.5283 25.8099C26.3733 26.0133 26.1797 26.184 25.9588 26.3123C25.6638 26.4831 25.3291 26.5731 24.9884 26.573Z" fill="black"/>
<path d="M20.0342 28.5945C19.9224 28.5947 19.8118 28.5727 19.7085 28.5298C19.6053 28.4869 19.5115 28.424 19.4326 28.3447L17.4151 26.3232C17.2637 26.1717 17.1748 25.9686 17.1662 25.7543C17.1576 25.5401 17.2298 25.3304 17.3686 25.1671L19.0836 23.1465C19.2301 22.9744 19.4387 22.8677 19.6636 22.8496C19.8885 22.8315 20.1115 22.9035 20.2835 23.0499C20.4551 23.1967 20.5616 23.4058 20.5797 23.6313C20.5978 23.8567 20.5259 24.0802 20.3799 24.2526L19.1733 25.6735L20.6357 27.1386C20.7148 27.2178 20.7775 27.3118 20.8202 27.4153C20.863 27.5187 20.885 27.6297 20.885 27.7417C20.885 27.8536 20.863 27.9645 20.8202 28.0679C20.7775 28.1714 20.7148 28.2655 20.6357 28.3447C20.5568 28.424 20.4631 28.4869 20.3598 28.5298C20.2566 28.5727 20.146 28.5947 20.0342 28.5945Z" fill="black"/>
<path d="M9.0093 26.573C8.49892 26.572 8.00968 26.3685 7.64847 26.007C7.28726 25.6456 7.08344 25.1556 7.08154 24.644C7.08128 24.2911 7.17724 23.9449 7.35906 23.6428L10.7459 17.7459C10.8016 17.6486 10.8759 17.5632 10.9646 17.4947C11.0533 17.4263 11.1546 17.3761 11.2627 17.347C11.3708 17.3179 11.4835 17.3104 11.5945 17.3251C11.7055 17.3398 11.8124 17.3765 11.9092 17.4328C12.006 17.4887 12.0909 17.5631 12.159 17.6518C12.2271 17.7406 12.277 17.842 12.306 17.9501C12.3351 18.0582 12.3425 18.171 12.3281 18.282C12.3136 18.393 12.2774 18.5001 12.2217 18.5971L8.82484 24.509C8.7833 24.7648 8.88631 24.8673 9.01096 24.8673H12.9761C13.0879 24.8672 13.1986 24.8892 13.3018 24.9321C13.4051 24.9749 13.4989 25.0377 13.578 25.117C13.657 25.1962 13.7197 25.2902 13.7624 25.3937C13.8051 25.4972 13.8271 25.6082 13.827 25.7202C13.8271 25.8322 13.8051 25.9432 13.7624 26.0467C13.7197 26.1502 13.657 26.2442 13.578 26.3234C13.4989 26.4026 13.4051 26.4655 13.3018 26.5083C13.1986 26.5512 13.0879 26.5732 12.9761 26.5731L9.0093 26.573Z" fill="black"/>
<path d="M12.4511 21.439C12.2754 21.4393 12.104 21.3849 11.9605 21.2833C11.817 21.1816 11.7085 21.0379 11.6501 20.8718L11.0269 19.1177L9.031 19.6516C8.92302 19.681 8.8103 19.6888 8.69932 19.6743C8.58835 19.6598 8.48133 19.6235 8.38445 19.5674C8.28758 19.5112 8.20276 19.4365 8.13489 19.3473C8.06702 19.2581 8.01744 19.1562 7.98902 19.0477C7.93105 18.8292 7.96204 18.5965 8.07515 18.4008C8.18827 18.2051 8.37427 18.0624 8.59228 18.0041L11.346 17.267C11.5524 17.2109 11.7724 17.2352 11.9617 17.335C12.151 17.4348 12.2956 17.6027 12.3664 17.805L13.2521 20.3004C13.3279 20.5134 13.3162 20.7478 13.2196 20.9521C13.123 21.1564 12.9494 21.3139 12.737 21.3899C12.6451 21.4223 12.5485 21.4389 12.4511 21.439Z" fill="black"/>
<path d="M21.3738 17.013C21.2243 17.013 21.0774 16.9737 20.9479 16.8988C20.8183 16.824 20.7108 16.7162 20.6359 16.5865L17.1477 10.5229C16.9665 10.3772 16.7937 10.4247 16.7372 10.5229L14.6383 14.3385C14.5292 14.5362 14.3464 14.6826 14.13 14.7455C13.9135 14.8084 13.6809 14.7828 13.4833 14.6742C13.3853 14.6202 13.299 14.5474 13.2291 14.4599C13.1593 14.3724 13.1074 14.272 13.0764 14.1644C13.0453 14.0568 13.0358 13.944 13.0483 13.8327C13.0608 13.7214 13.0951 13.6136 13.1492 13.5156L15.2565 9.68504C15.3831 9.46007 15.5533 9.26268 15.7571 9.10451C15.9608 8.94633 16.194 8.83059 16.443 8.76395C16.6889 8.69736 16.9455 8.68038 17.198 8.71398C17.4505 8.74758 17.6938 8.83109 17.9138 8.95969C18.209 9.13037 18.4538 9.37633 18.6234 9.67265L22.1117 15.7337C22.2243 15.9298 22.2546 16.1627 22.196 16.3812C22.1375 16.5997 21.9947 16.7859 21.7992 16.8989C21.6698 16.9737 21.5231 17.013 21.3738 17.013Z" fill="black"/>
<path d="M21.4053 17.0029C21.354 17.0031 21.3028 16.9984 21.2524 16.9888L18.6499 16.514C18.4281 16.4734 18.2314 16.3462 18.1031 16.1603C17.9747 15.9745 17.9251 15.7453 17.9652 15.5228C17.9845 15.4122 18.0256 15.3066 18.086 15.212C18.1464 15.1174 18.2249 15.0357 18.3171 14.9719C18.4093 14.908 18.5132 14.8631 18.6228 14.8399C18.7325 14.8166 18.8456 14.8155 18.9557 14.8365L20.7854 15.1705L21.3188 13.1699C21.3475 13.0616 21.3973 12.9601 21.4653 12.8711C21.5332 12.7821 21.618 12.7074 21.7148 12.6514C21.8117 12.5954 21.9186 12.5591 22.0294 12.5446C22.1403 12.5301 22.2529 12.5376 22.3608 12.5669C22.5789 12.6253 22.765 12.7681 22.8781 12.964C22.9912 13.1598 23.0221 13.3926 22.964 13.6113L22.2279 16.3707C22.1791 16.5521 22.0721 16.7123 21.9234 16.8266C21.7747 16.9408 21.5927 17.0028 21.4053 17.0029Z" fill="black"/>
</g>
<defs>
<clipPath id="clip0_46_1194">
<rect width="34" height="39" fill="white" transform="translate(0.00537109)"/>
</clipPath>
</defs>
</svg>
